  0
SECTION
  2
HEADER
  9
$ACADVER
  1
AC1024
  9
$ACADMAINTVER
 70
     6
  9
$DWGCODEPAGE
  3
UNDEFINED
  9
$INSBASE
 10
0.0
 20
0.0
 30
0.0
  9
$EXTMIN
 10
1.000000000000000E+20
 20
1.000000000000000E+20
 30
1.000000000000000E+20
  9
$EXTMAX
 10
-1.000000000000000E+20
 20
-1.000000000000000E+20
 30
-1.000000000000000E+20
  9
$LIMMIN
 10
0.0
 20
0.0
  9
$LIMMAX
 10
12.0
 20
9.0
  9
$ORTHOMODE
 70
     0
  9
$REGENMODE
 70
     1
  9
$FILLMODE
 70
     1
  9
$QTEXTMODE
 70
     0
  9
$MIRRTEXT
 70
     1
  9
$LTSCALE
 40
1.0
  9
$ATTMODE
 70
     1
  9
$TEXTSIZE
 40
0.2
  9
$TRACEWID
 40
0.05
  9
$TEXTSTYLE
  7
Standard
  9
$CLAYER
  8
0
  9
$CELTYPE
  6
ByLayer
  9
$CECOLOR
 62
   256
  9
$CELTSCALE
 40
1.0
  9
$DISPSILH
 70
     0
  9
$DIMSCALE
 40
1.0
  9
$DIMASZ
 40
0.18
  9
$DIMEXO
 40
0.0625
  9
$DIMDLI
 40
0.38
  9
$DIMRND
 40
0.0
  9
$DIMDLE
 40
0.0
  9
$DIMEXE
 40
0.18
  9
$DIMTP
 40
0.0
  9
$DIMTM
 40
0.0
  9
$DIMTXT
 40
0.18
  9
$DIMCEN
 40
0.09
  9
$DIMTSZ
 40
0.0
  9
$DIMTOL
 70
     0
  9
$DIMLIM
 70
     0
  9
$DIMTIH
 70
     1
  9
$DIMTOH
 70
     1
  9
$DIMSE1
 70
     0
  9
$DIMSE2
 70
     0
  9
$DIMTAD
 70
     0
  9
$DIMZIN
 70
     0
  9
$DIMBLK
  1

  9
$DIMASO
 70
     1
  9
$DIMSHO
 70
     1
  9
$DIMPOST
  1

  9
$DIMAPOST
  1

  9
$DIMALT
 70
     0
  9
$DIMALTD
 70
     2
  9
$DIMALTF
 40
25.4
  9
$DIMLFAC
 40
1.0
  9
$DIMTOFL
 70
     0
  9
$DIMTVP
 40
0.0
  9
$DIMTIX
 70
     0
  9
$DIMSOXD
 70
     0
  9
$DIMSAH
 70
     0
  9
$DIMBLK1
  1

  9
$DIMBLK2
  1

  9
$DIMSTYLE
  2
Standard
  9
$DIMCLRD
 70
     0
  9
$DIMCLRE
 70
     0
  9
$DIMCLRT
 70
     0
  9
$DIMTFAC
 40
1.0
  9
$DIMGAP
 40
0.09
  9
$DIMJUST
 70
     0
  9
$DIMSD1
 70
     0
  9
$DIMSD2
 70
     0
  9
$DIMTOLJ
 70
     1
  9
$DIMTZIN
 70
     0
  9
$DIMALTZ
 70
     0
  9
$DIMALTTZ
 70
     0
  9
$DIMUPT
 70
     0
  9
$DIMDEC
 70
     4
  9
$DIMTDEC
 70
     4
  9
$DIMALTU
 70
     2
  9
$DIMALTTD
 70
     2
  9
$DIMTXSTY
  7
Standard
  9
$DIMAUNIT
 70
     0
  9
$DIMADEC
 70
     0
  9
$DIMALTRND
 40
0.0
  9
$DIMAZIN
 70
     0
  9
$DIMDSEP
 70
    46
  9
$DIMATFIT
 70
     3
  9
$DIMFRAC
 70
     0
  9
$DIMLDRBLK
  1

  9
$DIMLUNIT
 70
     2
  9
$DIMLWD
 70
    -2
  9
$DIMLWE
 70
    -2
  9
$DIMTMOVE
 70
     0
  9
$DIMFXL
 40
1.0
  9
$DIMFXLON
 70
     0
  9
$DIMJOGANG
 40
0.7853981633974483
  9
$DIMTFILL
 70
     0
  9
$DIMTFILLCLR
 70
     0
  9
$DIMARCSYM
 70
     0
  9
$DIMLTYPE
  6

  9
$DIMLTEX1
  6

  9
$DIMLTEX2
  6

  9
$DIMTXTDIRECTION
 70
     0
  9
$LUNITS
 70
     2
  9
$LUPREC
 70
     4
  9
$SKETCHINC
 40
0.1
  9
$FILLETRAD
 40
0.5
  9
$AUNITS
 70
     0
  9
$AUPREC
 70
     0
  9
$MENU
  1
.
  9
$ELEVATION
 40
0.0
  9
$PELEVATION
 40
0.0
  9
$THICKNESS
 40
0.0
  9
$LIMCHECK
 70
     0
  9
$CHAMFERA
 40
0.5
  9
$CHAMFERB
 40
0.5
  9
$CHAMFERC
 40
1.0
  9
$CHAMFERD
 40
0.0
  9
$SKPOLY
 70
     0
  9
$TDCREATE
 40
2458337.461863414
  9
$TDUCREATE
 40
2458337.420196759
  9
$TDUPDATE
 40
2458337.461863414
  9
$TDUUPDATE
 40
2458337.420196759
  9
$TDINDWG
 40
0.0000000116
  9
$TDUSRTIMER
 40
0.0000000116
  9
$USRTIMER
 70
     1
  9
$ANGBASE
 50
0.0
  9
$ANGDIR
 70
     0
  9
$PDMODE
 70
     0
  9
$PDSIZE
 40
0.0
  9
$PLINEWID
 40
0.0
  9
$SPLFRAME
 70
     0
  9
$SPLINETYPE
 70
     6
  9
$SPLINESEGS
 70
     8
  9
$HANDSEED
  5
53
  9
$SURFTAB1
 70
     6
  9
$SURFTAB2
 70
     6
  9
$SURFTYPE
 70
     6
  9
$SURFU
 70
     6
  9
$SURFV
 70
     6
  9
$UCSBASE
  2

  9
$UCSNAME
  2

  9
$UCSORG
 10
0.0
 20
0.0
 30
0.0
  9
$UCSXDIR
 10
1.0
 20
0.0
 30
0.0
  9
$UCSYDIR
 10
0.0
 20
1.0
 30
0.0
  9
$UCSORTHOREF
  2

  9
$UCSORTHOVIEW
 70
     0
  9
$UCSORGTOP
 10
0.0
 20
0.0
 30
0.0
  9
$UCSORGBOTTOM
 10
0.0
 20
0.0
 30
0.0
  9
$UCSORGLEFT
 10
0.0
 20
0.0
 30
0.0
  9
$UCSORGRIGHT
 10
0.0
 20
0.0
 30
0.0
  9
$UCSORGFRONT
 10
0.0
 20
0.0
 30
0.0
  9
$UCSORGBACK
 10
0.0
 20
0.0
 30
0.0
  9
$PUCSBASE
  2

  9
$PUCSNAME
  2

  9
$PUCSORG
 10
0.0
 20
0.0
 30
0.0
  9
$PUCSXDIR
 10
1.0
 20
0.0
 30
0.0
  9
$PUCSYDIR
 10
0.0
 20
1.0
 30
0.0
  9
$PUCSORTHOREF
  2

  9
$PUCSORTHOVIEW
 70
     0
  9
$PUCSORGTOP
 10
0.0
 20
0.0
 30
0.0
  9
$PUCSORGBOTTOM
 10
0.0
 20
0.0
 30
0.0
  9
$PUCSORGLEFT
 10
0.0
 20
0.0
 30
0.0
  9
$PUCSORGRIGHT
 10
0.0
 20
0.0
 30
0.0
  9
$PUCSORGFRONT
 10
0.0
 20
0.0
 30
0.0
  9
$PUCSORGBACK
 10
0.0
 20
0.0
 30
0.0
  9
$USERI1
 70
     0
  9
$USERI2
 70
     0
  9
$USERI3
 70
     0
  9
$USERI4
 70
     0
  9
$USERI5
 70
     0
  9
$USERR1
 40
0.0
  9
$USERR2
 40
0.0
  9
$USERR3
 40
0.0
  9
$USERR4
 40
0.0
  9
$USERR5
 40
0.0
  9
$WORLDVIEW
 70
     1
  9
$SHADEDGE
 70
     3
  9
$SHADEDIF
 70
    70
  9
$TILEMODE
 70
     1
  9
$MAXACTVP
 70
    64
  9
$PINSBASE
 10
0.0
 20
0.0
 30
0.0
  9
$PLIMCHECK
 70
     0
  9
$PEXTMIN
 10
1.000000000000000E+20
 20
1.000000000000000E+20
 30
1.000000000000000E+20
  9
$PEXTMAX
 10
-1.000000000000000E+20
 20
-1.000000000000000E+20
 30
-1.000000000000000E+20
  9
$PLIMMIN
 10
0.0
 20
0.0
  9
$PLIMMAX
 10
12.0
 20
9.0
  9
$UNITMODE
 70
     0
  9
$VISRETAIN
 70
     1
  9
$PLINEGEN
 70
     0
  9
$PSLTSCALE
 70
     1
  9
$TREEDEPTH
 70
  3020
  9
$CMLSTYLE
  2
Standard
  9
$CMLJUST
 70
     0
  9
$CMLSCALE
 40
1.0
  9
$PROXYGRAPHICS
 70
     1
  9
$MEASUREMENT
 70
     0
  9
$CELWEIGHT
370
    -1
  9
$ENDCAPS
280
     0
  9
$JOINSTYLE
280
     0
  9
$LWDISPLAY
290
     1
  9
$INSUNITS
 70
     1
  9
$HYPERLINKBASE
  1

  9
$STYLESHEET
  1

  9
$XEDIT
290
     1
  9
$CEPSNTYPE
380
     0
  9
$PSTYLEMODE
290
     1
  9
$FINGERPRINTGUID
  2
{0B191228-4943-275C-BC3B-E755EE532720}
  9
$VERSIONGUID
  2
{FAEB1C32-E019-11D5-929B-00C0DF256EC4}
  9
$EXTNAMES
290
     1
  9
$PSVPSCALE
 40
0.0
  9
$OLESTARTUP
290
     0
  9
$SORTENTS
280
   127
  9
$INDEXCTL
280
     0
  9
$HIDETEXT
280
     1
  9
$XCLIPFRAME
280
     2
  9
$HALOGAP
280
     0
  9
$OBSCOLOR
 70
   257
  9
$OBSLTYPE
280
     0
  9
$INTERSECTIONDISPLAY
280
     0
  9
$INTERSECTIONCOLOR
 70
   257
  9
$DIMASSOC
280
     2
  9
$PROJECTNAME
  1

  9
$CAMERADISPLAY
290
     0
  9
$LENSLENGTH
 40
50.0
  9
$CAMERAHEIGHT
 40
0.0
  9
$STEPSPERSEC
 40
2.0
  9
$STEPSIZE
 40
6.0
  9
$3DDWFPREC
 40
2.0
  9
$PSOLWIDTH
 40
0.25
  9
$PSOLHEIGHT
 40
4.0
  9
$LOFTANG1
 40
1.570796326794897
  9
$LOFTANG2
 40
1.570796326794897
  9
$LOFTMAG1
 40
0.0
  9
$LOFTMAG2
 40
0.0
  9
$LOFTPARAM
 70
     7
  9
$LOFTNORMALS
280
     1
  9
$LATITUDE
 40
37.795
  9
$LONGITUDE
 40
-122.394
  9
$NORTHDIRECTION
 40
0.0
  9
$TIMEZONE
 70
 -8000
  9
$LIGHTGLYPHDISPLAY
280
     1
  9
$TILEMODELIGHTSYNCH
280
     1
  9
$CMATERIAL
347
3C
  9
$SOLIDHIST
280
     1
  9
$SHOWHIST
280
     1
  9
$DWFFRAME
280
     2
  9
$DGNFRAME
280
     2
  9
$REALWORLDSCALE
290
     1
  9
$INTERFERECOLOR
 62
   256
  9
$CSHADOW
280
     0
  9
$SHADOWPLANELOCATION
 40
0.0
  0
ENDSEC
  0
SECTION
  2
CLASSES
  0
CLASS
  1
ACDBDICTIONARYWDFLT
  2
AcDbDictionaryWithDefault
  3
ObjectDBX Classes
 90
        0
 91
        4
280
     0
281
     0
  0
CLASS
  1
VISUALSTYLE
  2
AcDbVisualStyle
  3
ObjectDBX Classes
 90
     4095
 91
        4
280
     0
281
     0
  0
CLASS
  1
MATERIAL
  2
AcDbMaterial
  3
ObjectDBX Classes
 90
     1153
 91
        4
280
     0
281
     0
  0
CLASS
  1
SUN
  2
AcDbSun
  3
SCENEOE
 90
     1024
 91
        4
280
     0
281
     0
  0
ENDSEC
  0
SECTION
  2
TABLES
  0
TABLE
  2
VPORT
  5
8
330
0
100
AcDbSymbolTable
 70
     1
  0
VPORT
  5
29
330
8
100
AcDbSymbolTableRecord
100
AcDbViewportTableRecord
  2
*Active
 70
     0
 10
0.0
 20
0.0
 11
1.0
 21
1.0
 12
0.0
 22
0.0
 13
0.0
 23
0.0
 14
0.5
 24
0.5
 15
0.5
 25
0.5
 16
0.0
 26
0.0
 36
1.0
 17
6.615277776123619
 27
15.37499999615636
 37
0.0
 40
165.9999999585001
 41
2.361445783132529
 42
50.0
 43
0.0
 44
0.0
 50
0.0
 51
0.0
 71
     0
 72
   100
 73
     1
 74
     3
 75
     0
 76
     0
 77
     0
 78
     0
281
     0
 65
     1
110
0.0
120
0.0
130
0.0
111
1.0
121
0.0
131
0.0
112
0.0
122
1.0
132
0.0
 79
     0
146
0.0
 60
     3
 61
     5
292
     1
282
     1
141
0.0
142
0.0
 63
   250
361
3F
  0
ENDTAB
  0
TABLE
  2
LTYPE
  5
5
330
0
100
AcDbSymbolTable
 70
     1
  0
LTYPE
  5
14
330
5
100
AcDbSymbolTableRecord
100
AcDbLinetypeTableRecord
  2
ByBlock
 70
     0
  3

 72
    65
 73
     0
 40
0.0
  0
LTYPE
  5
15
330
5
100
AcDbSymbolTableRecord
100
AcDbLinetypeTableRecord
  2
ByLayer
 70
     0
  3

 72
    65
 73
     0
 40
0.0
  0
LTYPE
  5
16
330
5
100
AcDbSymbolTableRecord
100
AcDbLinetypeTableRecord
  2
Continuous
 70
     0
  3
Solid line
 72
    65
 73
     0
 40
0.0
  0
ENDTAB
  0
TABLE
  2
LAYER
  5
2
330
0
100
AcDbSymbolTable
 70
     2
  0
LAYER
  5
10
330
2
100
AcDbSymbolTableRecord
100
AcDbLayerTableRecord
  2
0
 70
     0
 62
     7
  6
Continuous
370
    -3
390
F
347
3E
  0
LAYER
  5
40
330
2
100
AcDbSymbolTableRecord
100
AcDbLayerTableRecord
  2
top
 70
     0
 62
     7
  6
Continuous
370
    -3
390
F
347
3E
  0
ENDTAB
  0
TABLE
  2
STYLE
  5
3
330
0
100
AcDbSymbolTable
 70
     1
  0
STYLE
  5
11
330
3
100
AcDbSymbolTableRecord
100
AcDbTextStyleTableRecord
  2
Standard
 70
     0
 40
0.0
 41
1.0
 50
0.0
 71
     0
 42
0.2
  3
txt
  4

  0
ENDTAB
  0
TABLE
  2
VIEW
  5
6
330
0
100
AcDbSymbolTable
 70
     0
  0
ENDTAB
  0
TABLE
  2
UCS
  5
7
330
0
100
AcDbSymbolTable
 70
     0
  0
ENDTAB
  0
TABLE
  2
APPID
  5
9
330
0
100
AcDbSymbolTable
 70
     1
  0
APPID
  5
12
330
9
100
AcDbSymbolTableRecord
100
AcDbRegAppTableRecord
  2
ACAD
 70
     0
  0
ENDTAB
  0
TABLE
  2
DIMSTYLE
  5
A
330
0
100
AcDbSymbolTable
 70
     1
100
AcDbDimStyleTable
  0
DIMSTYLE
105
27
330
A
100
AcDbSymbolTableRecord
100
AcDbDimStyleTableRecord
  2
Standard
 70
     0
178
     0
340
11
  0
ENDTAB
  0
TABLE
  2
BLOCK_RECORD
  5
1
330
0
100
AcDbSymbolTable
 70
     1
  0
BLOCK_RECORD
  5
1F
330
1
100
AcDbSymbolTableRecord
100
AcDbBlockTableRecord
  2
*Model_Space
340
22
 70
     0
280
     1
281
     0
  0
BLOCK_RECORD
  5
1B
330
1
100
AcDbSymbolTableRecord
100
AcDbBlockTableRecord
  2
*Paper_Space
340
1E
 70
     0
280
     1
281
     0
  0
BLOCK_RECORD
  5
23
330
1
100
AcDbSymbolTableRecord
100
AcDbBlockTableRecord
  2
*Paper_Space0
340
26
 70
     0
280
     1
281
     0
  0
ENDTAB
  0
ENDSEC
  0
SECTION
  2
BLOCKS
  0
BLOCK
  5
20
330
1F
100
AcDbEntity
  8
0
100
AcDbBlockBegin
  2
*Model_Space
 70
     0
 10
0.0
 20
0.0
 30
0.0
  3
*Model_Space
  1

  0
ENDBLK
  5
21
330
1F
100
AcDbEntity
  8
0
100
AcDbBlockEnd
  0
BLOCK
  5
1C
330
1B
100
AcDbEntity
 67
     1
  8
0
100
AcDbBlockBegin
  2
*Paper_Space
 70
     0
 10
0.0
 20
0.0
 30
0.0
  3
*Paper_Space
  1

  0
ENDBLK
  5
1D
330
1B
100
AcDbEntity
 67
     1
  8
0
100
AcDbBlockEnd
  0
BLOCK
  5
24
330
23
100
AcDbEntity
  8
0
100
AcDbBlockBegin
  2
*Paper_Space0
 70
     0
 10
0.0
 20
0.0
 30
0.0
  3
*Paper_Space0
  1

  0
ENDBLK
  5
25
330
23
100
AcDbEntity
  8
0
100
AcDbBlockEnd
  0
ENDSEC
  0
SECTION
  2
ENTITIES
  0
SPLINE
  5
41
330
1F
100
AcDbEntity
  8
top
 62
     2
370
    25
100
AcDbSpline
210
0.0
220
0.0
230
1.0
 70
    11
 71
     3
 72
    29
 73
    25
 74
     0
 42
0.0000000001
 43
0.0000000001
 12
1.0
 22
0.0
 32
0.0
 13
1.0
 23
0.0
 33
0.0
 40
0.0
 40
0.0
 40
0.0
 40
0.0
 40
1.0
 40
1.0
 40
1.0
 40
2.0
 40
2.0
 40
2.0
 40
3.0
 40
3.0
 40
3.0
 40
4.0
 40
4.0
 40
4.0
 40
5.0
 40
5.0
 40
5.0
 40
6.0
 40
6.0
 40
6.0
 40
7.0
 40
7.0
 40
7.0
 40
8.0
 40
8.0
 40
8.0
 40
8.0
 10
130.6069444117956
 20
-44.899074062848
 30
0.0
 10
130.6069444117956
 20
-44.899074062848
 30
0.0
 10
114.6254629343095
 20
-44.899074062848
 30
0.0
 10
114.6254629343095
 20
-44.899074062848
 30
0.0
 10
108.0254629359591
 20
-44.899074062848
 30
0.0
 10
102.6254629373091
 20
-39.49907406419795
 30
0.0
 10
102.6254629373091
 20
-32.89907406584816
 30
0.0
 10
102.6254629373091
 20
-32.89907406584816
 30
0.0
 10
102.6254629373091
 20
24.47499999388283
 30
0.0
 10
102.6254629373091
 20
24.47499999388283
 30
0.0
 10
102.6254629373091
 20
31.07499999223261
 30
0.0
 10
108.0254629359591
 20
36.47499999088267
 30
0.0
 10
114.6254629343095
 20
36.47499999088267
 30
0.0
 10
114.6254629343095
 20
36.47499999088267
 30
0.0
 10
130.6069444117956
 20
36.47499999088267
 30
0.0
 10
130.6069444117956
 20
36.47499999088267
 30
0.0
 10
137.2069444101453
 20
36.47499999088267
 30
0.0
 10
142.6069444087954
 20
31.07499999223261
 30
0.0
 10
142.6069444087954
 20
24.47499999388283
 30
0.0
 10
142.6069444087954
 20
24.47499999388283
 30
0.0
 10
142.6069444087954
 20
-32.89907406584816
 30
0.0
 10
142.6069444087954
 20
-32.89907406584816
 30
0.0
 10
142.6069444087954
 20
-39.49907406419795
 30
0.0
 10
137.2069444101453
 20
-44.899074062848
 30
0.0
 10
130.6069444117956
 20
-44.899074062848
 30
0.0
  0
SPLINE
  5
42
330
1F
100
AcDbEntity
  8
top
 62
     3
370
    25
100
AcDbSpline
210
0.0
220
0.0
230
1.0
 70
    11
 71
     3
 72
   317
 73
   313
 74
     0
 42
0.0000000001
 43
0.0000000001
 12
1.0
 22
0.0
 32
0.0
 13
1.0
 23
0.0
 33
0.0
 40
0.0
 40
0.0
 40
0.0
 40
0.0
 40
1.0
 40
1.0
 40
1.0
 40
2.0
 40
2.0
 40
2.0
 40
3.0
 40
3.0
 40
3.0
 40
4.0
 40
4.0
 40
4.0
 40
5.0
 40
5.0
 40
5.0
 40
6.0
 40
6.0
 40
6.0
 40
7.0
 40
7.0
 40
7.0
 40
8.0
 40
8.0
 40
8.0
 40
9.0
 40
9.0
 40
9.0
 40
10.0
 40
10.0
 40
10.0
 40
11.0
 40
11.0
 40
11.0
 40
12.0
 40
12.0
 40
12.0
 40
13.0
 40
13.0
 40
13.0
 40
14.0
 40
14.0
 40
14.0
 40
15.0
 40
15.0
 40
15.0
 40
16.0
 40
16.0
 40
16.0
 40
17.0
 40
17.0
 40
17.0
 40
18.0
 40
18.0
 40
18.0
 40
19.0
 40
19.0
 40
19.0
 40
20.0
 40
20.0
 40
20.0
 40
21.0
 40
21.0
 40
21.0
 40
22.0
 40
22.0
 40
22.0
 40
23.0
 40
23.0
 40
23.0
 40
24.0
 40
24.0
 40
24.0
 40
25.0
 40
25.0
 40
25.0
 40
26.0
 40
26.0
 40
26.0
 40
27.0
 40
27.0
 40
27.0
 40
28.0
 40
28.0
 40
28.0
 40
29.0
 40
29.0
 40
29.0
 40
30.0
 40
30.0
 40
30.0
 40
31.0
 40
31.0
 40
31.0
 40
32.0
 40
32.0
 40
32.0
 40
33.0
 40
33.0
 40
33.0
 40
34.0
 40
34.0
 40
34.0
 40
35.0
 40
35.0
 40
35.0
 40
36.0
 40
36.0
 40
36.0
 40
37.0
 40
37.0
 40
37.0
 40
38.0
 40
38.0
 40
38.0
 40
39.0
 40
39.0
 40
39.0
 40
40.0
 40
40.0
 40
40.0
 40
41.0
 40
41.0
 40
41.0
 40
42.0
 40
42.0
 40
42.0
 40
43.0
 40
43.0
 40
43.0
 40
44.0
 40
44.0
 40
44.0
 40
45.0
 40
45.0
 40
45.0
 40
46.0
 40
46.0
 40
46.0
 40
47.0
 40
47.0
 40
47.0
 40
48.0
 40
48.0
 40
48.0
 40
49.0
 40
49.0
 40
49.0
 40
50.0
 40
50.0
 40
50.0
 40
51.0
 40
51.0
 40
51.0
 40
52.0
 40
52.0
 40
52.0
 40
53.0
 40
53.0
 40
53.0
 40
54.0
 40
54.0
 40
54.0
 40
55.0
 40
55.0
 40
55.0
 40
56.0
 40
56.0
 40
56.0
 40
57.0
 40
57.0
 40
57.0
 40
58.0
 40
58.0
 40
58.0
 40
59.0
 40
59.0
 40
59.0
 40
60.0
 40
60.0
 40
60.0
 40
61.0
 40
61.0
 40
61.0
 40
62.0
 40
62.0
 40
62.0
 40
63.0
 40
63.0
 40
63.0
 40
64.0
 40
64.0
 40
64.0
 40
65.0
 40
65.0
 40
65.0
 40
66.0
 40
66.0
 40
66.0
 40
67.0
 40
67.0
 40
67.0
 40
68.0
 40
68.0
 40
68.0
 40
69.0
 40
69.0
 40
69.0
 40
70.0
 40
70.0
 40
70.0
 40
71.0
 40
71.0
 40
71.0
 40
72.0
 40
72.0
 40
72.0
 40
73.0
 40
73.0
 40
73.0
 40
74.0
 40
74.0
 40
74.0
 40
75.0
 40
75.0
 40
75.0
 40
76.0
 40
76.0
 40
76.0
 40
77.0
 40
77.0
 40
77.0
 40
78.0
 40
78.0
 40
78.0
 40
79.0
 40
79.0
 40
79.0
 40
80.0
 40
80.0
 40
80.0
 40
81.0
 40
81.0
 40
81.0
 40
82.0
 40
82.0
 40
82.0
 40
83.0
 40
83.0
 40
83.0
 40
84.0
 40
84.0
 40
84.0
 40
85.0
 40
85.0
 40
85.0
 40
86.0
 40
86.0
 40
86.0
 40
87.0
 40
87.0
 40
87.0
 40
88.0
 40
88.0
 40
88.0
 40
89.0
 40
89.0
 40
89.0
 40
90.0
 40
90.0
 40
90.0
 40
91.0
 40
91.0
 40
91.0
 40
92.0
 40
92.0
 40
92.0
 40
93.0
 40
93.0
 40
93.0
 40
94.0
 40
94.0
 40
94.0
 40
95.0
 40
95.0
 40
95.0
 40
96.0
 40
96.0
 40
96.0
 40
97.0
 40
97.0
 40
97.0
 40
98.0
 40
98.0
 40
98.0
 40
99.0
 40
99.0
 40
99.0
 40
100.0
 40
100.0
 40
100.0
 40
101.0
 40
101.0
 40
101.0
 40
102.0
 40
102.0
 40
102.0
 40
103.0
 40
103.0
 40
103.0
 40
104.0
 40
104.0
 40
104.0
 40
104.0
 10
-103.1959672970763
 20
56.67499997665659
 30
0.0
 10
-103.1959672970763
 20
56.67499997665659
 30
0.0
 10
-120.7474154804764
 20
87.07499997665509
 30
0.0
 10
-120.7474154804764
 20
87.07499997665509
 30
0.0
 10
-120.8686590369767
 20
87.28499997665577
 30
0.0
 10
-120.9900808705261
 20
87.49506802290516
 30
0.0
 10
-121.1173636379183
 20
87.70541093398077
 30
0.0
 10
-121.2446464053098
 20
87.91575384505639
 30
0.0
 10
-121.3777901065427
 20
88.12637162095567
 30
0.0
 10
-121.5205651569597
 20
88.33676877545557
 30
0.0
 10
-121.6633402073763
 20
88.54716592995547
 30
0.0
 10
-121.8157466069764
 20
88.75734246305598
 30
0.0
 10
-121.9798059302887
 20
88.966232848618
 30
0.0
 10
-122.1438652536013
 20
89.17512323418003
 30
0.0
 10
-122.3195775006265
 20
89.38272747220614
 30
0.0
 10
-122.5078150883963
 20
89.58761716412845
 30
0.0
 10
-122.8842902639361
 20
89.99739654797564
 30
0.0
 10
-123.3108668024559
 20
90.39631774741537
 30
0.0
 10
-123.7797624140328
 20
90.76986692001897
 30
0.0
 10
-124.2486580256096
 20
91.14341609262256
 30
0.0
 10
-124.7598727102429
 20
91.49159323838876
 30
0.0
 10
-125.2940488503428
 20
91.79999997667235
 30
0.0
 10
-125.8282249904431
 20
92.10840671495593
 30
0.0
 10
-126.3853625860095
 20
92.37704304575561
 30
0.0
 10
-126.9433134648327
 20
92.59634397081567
 30
0.0
 10
-127.5012643436566
 20
92.8156448958757
 30
0.0
 10
-128.0600285057362
 20
92.9856104151961
 30
0.0
 10
-128.6031454498628
 20
93.10675778916895
 30
0.0
 10
-128.8747039219264
 20
93.16733147615601
 30
0.0
 10
-129.1423505895013
 20
93.21570062680618
 30
0.0
 10
-129.4052846316554
 20
93.25333497573105
 30
0.0
 10
-129.6682186738096
 20
93.29096932465623
 30
0.0
 10
-129.9264400905431
 20
93.31786887185548
 30
0.0
 10
-130.1800368964429
 20
93.33631711528845
 30
0.0
 10
-130.433633702343
 20
93.35476535872273
 30
0.0
 10
-130.6826058974095
 20
93.36476229838945
 30
0.0
 10
-130.9284095855929
 20
93.36982095287284
 30
0.0
 10
-131.1742132737763
 20
93.37487960735623
 30
0.0
 10
-131.4168484550763
 20
93.37499997665628
 30
0.0
 10
-131.6593355681763
 20
93.37499997665628
 30
0.0
 10
-131.6593355681763
 20
93.37499997665628
 30
0.0
 10
-174.3847221763762
 20
93.37499997665628
 30
0.0
 10
-174.3847221763762
 20
93.37499997665628
 30
0.0
 10
-175.1047221763763
 20
93.37499997665628
 30
0.0
 10
-175.8244331340261
 20
93.37388276900572
 30
0.0
 10
-176.5188603599851
 20
93.33758054304765
 30
0.0
 10
-177.2132875859428
 20
93.30127831708957
 30
0.0
 10
-177.8824310802094
 20
93.22979107282302
 30
0.0
 10
-178.5057378013765
 20
93.10148435165526
 30
0.0
 10
-179.129044522543
 20
92.9731776304891
 30
0.0
 10
-179.7065144706097
 20
92.78805143242239
 30
0.0
 10
-180.2234062584262
 20
92.53553464460542
 30
0.0
 10
-180.7402980462429
 20
92.28301785678973
 30
0.0
 10
-181.1966116738095
 20
91.96311047922248
 30
0.0
 10
-181.5847221763764
 20
91.57499997665558
 30
0.0
 10
-181.9728326789433
 20
91.18688947408866
 30
0.0
 10
-182.29274005651
 20
90.73057584652209
 30
0.0
 10
-182.5452568443263
 20
90.21368405870625
 30
0.0
 10
-182.7977736321429
 20
89.69679227088913
 30
0.0
 10
-182.98289983021
 20
89.11932232282278
 30
0.0
 10
-183.1112065513761
 20
88.49601560165566
 30
0.0
 10
-183.2395132725432
 20
87.87270888048855
 30
0.0
 10
-183.3110005168095
 20
87.20356538622195
 30
0.0
 10
-183.3473027427679
 20
86.50913816026456
 30
0.0
 10
-183.3836049687266
 20
85.81471093430586
 30
0.0
 10
-183.3847221763762
 20
85.09499997665637
 30
0.0
 10
-183.3847221763762
 20
84.37499997665532
 30
0.0
 10
-183.3847221763762
 20
84.37499997665532
 30
0.0
 10
-183.3847221763762
 20
-35.62500002334507
 30
0.0
 10
-183.3847221763762
 20
-35.62500002334507
 30
0.0
 10
-183.3847221763762
 20
-36.6650000233433
 30
0.0
 10
-183.3845181680763
 20
-37.70495012539407
 30
0.0
 10
-183.3706085594428
 20
-38.73550035901849
 30
0.0
 10
-183.3566989508094
 20
-39.76605059264419
 30
0.0
 10
-183.3290837418428
 20
-40.78720095784356
 30
0.0
 10
-183.2766215904096
 20
-41.79028810927768
 30
0.0
 10
-183.2241594389764
 20
-42.79337526071179
 30
0.0
 10
-183.1468503450766
 20
-43.77839919837682
 30
0.0
 10
-183.035789528643
 20
-44.73750688981006
 30
0.0
 10
-182.9247287122097
 20
-45.69661458124331
 30
0.0
 10
-182.7799161732428
 20
-46.62980602644478
 30
0.0
 10
-182.5945659263592
 20
-47.53015627332724
 30
0.0
 10
-182.4092156794761
 20
-48.43050652021097
 30
0.0
 10
-182.1833277246763
 20
-49.29801556877825
 30
0.0
 10
-181.912115517443
 20
-50.1268059010272
 30
0.0
 10
-181.6409033102093
 20
-50.95559623327743
 30
0.0
 10
-181.3243668505428
 20
-51.74566784921061
 30
0.0
 10
-180.9596001060765
 20
-52.49230959367678
 30
0.0
 10
-180.5948333616096
 20
-53.23895133814424
 30
0.0
 10
-180.1818363323428
 20
-53.94216321114342
 30
0.0
 10
-179.7194644554426
 20
-54.59851946302775
 30
0.0
 10
-179.2570925785431
 20
-55.2548757149108
 30
0.0
 10
-178.7453458540091
 20
-55.86437634567771
 30
0.0
 10
-178.1847221763596
 20
-56.42500002332783
 30
0.0
 10
-177.6240984987095
 20
-56.98562370097795
 30
0.0
 10
-177.0145978679429
 20
-57.49737042551
 30
0.0
 10
-176.3582416160596
 20
-57.95974230241083
 30
0.0
 10
-175.7018853641765
 20
-58.42211417931167
 30
0.0
 10
-174.998673491176
 20
-58.83511120857744
 30
0.0
 10
-174.2520317467095
 20
-59.19987795304343
 30
0.0
 10
-173.505390002243
 20
-59.56464469751069
 30
0.0
 10
-172.7153183863095
 20
-59.88118115717817
 30
0.0
 10
-171.8865280540597
 20
-60.15239336441054
 30
0.0
 10
-171.0577377218094
 20
-60.42360557164419
 30
0.0
 10
-170.1902286732428
 20
-60.64949352644402
 30
0.0
 10
-169.2898784263597
 20
-60.83484377332736
 30
0.0
 10
-168.3895281794766
 20
-61.0201940202107
 30
0.0
 10
-167.4563367342761
 20
-61.16500655917755
 30
0.0
 10
-166.4972290428428
 20
-61.27606737562851
 30
0.0
 10
-165.5381213514096
 20
-61.38712819207819
 30
0.0
 10
-164.553097413743
 20
-61.46443728601069
 30
0.0
 10
-163.5500102623095
 20
-61.51689943744421
 30
0.0
 10
-162.5469231108766
 20
-61.56936158887773
 30
0.0
 10
-161.5257727456766
 20
-61.59697679781099
 30
0.0
 10
-160.4952225120513
 20
-61.61088640642772
 30
0.0
 10
-159.4646722784262
 20
-61.62479601504447
 30
0.0
 10
-158.4247221763761
 20
-61.6250000233447
 30
0.0
 10
-157.3847221763762
 20
-61.6250000233447
 30
0.0
 10
-157.3847221763762
 20
-61.6250000233447
 30
0.0
 10
170.6152778236238
 20
-61.6250000233447
 30
0.0
 10
170.6152778236238
 20
-61.6250000233447
 30
0.0
 10
171.655277823624
 20
-61.6250000233447
 30
0.0
 10
172.6952279256734
 20
-61.62479601504447
 30
0.0
 10
173.7257781592985
 20
-61.61088640642772
 30
0.0
 10
174.7563283929236
 20
-61.59697679781099
 30
0.0
 10
175.7774787581236
 20
-61.56936158887773
 30
0.0
 10
176.7805659095571
 20
-61.51689943744421
 30
0.0
 10
177.7836530609905
 20
-61.46443728601069
 30
0.0
 10
178.7686769986575
 20
-61.38712819207819
 30
0.0
 10
179.7277846900907
 20
-61.27606737562851
 30
0.0
 10
180.686892381524
 20
-61.16500655917755
 30
0.0
 10
181.6200838267242
 20
-61.0201940202107
 30
0.0
 10
182.5204340736072
 20
-60.83484377332736
 30
0.0
 10
183.4207843204904
 20
-60.64949352644402
 30
0.0
 10
184.288293369057
 20
-60.42360557164419
 30
0.0
 10
185.1170837013072
 20
-60.15239336441054
 30
0.0
 10
185.9458740335574
 20
-59.88118115717817
 30
0.0
 10
186.7359456494906
 20
-59.56464469751069
 30
0.0
 10
187.4825873939574
 20
-59.19987795304343
 30
0.0
 10
188.2292291384236
 20
-58.83511120857744
 30
0.0
 10
188.9324410114241
 20
-58.42211417931167
 30
0.0
 10
189.5887972633071
 20
-57.95974230241083
 30
0.0
 10
190.2451535151908
 20
-57.49737042551
 30
0.0
 10
190.8546541459571
 20
-56.98562370097795
 30
0.0
 10
191.4152778236072
 20
-56.42500002332783
 30
0.0
 10
191.9759015012573
 20
-55.86437634567771
 30
0.0
 10
192.4876482257907
 20
-55.2548757149108
 30
0.0
 10
192.9500201026902
 20
-54.59851946302775
 30
0.0
 10
193.4123919795904
 20
-53.94216321114342
 30
0.0
 10
193.8253890088568
 20
-53.23895133814424
 30
0.0
 10
194.1901557533241
 20
-52.49230959367678
 30
0.0
 10
194.5549224977907
 20
-51.74566784921061
 30
0.0
 10
194.8714589574569
 20
-50.95559623327743
 30
0.0
 10
195.1426711646905
 20
-50.1268059010272
 30
0.0
 10
195.4138833719236
 20
-49.29801556877825
 30
0.0
 10
195.639771326724
 20
-48.43050652021097
 30
0.0
 10
195.8251215736074
 20
-47.53015627332724
 30
0.0
 10
196.0104718204907
 20
-46.62980602644478
 30
0.0
 10
196.1552843594569
 20
-45.69661458124331
 30
0.0
 10
196.2663451758906
 20
-44.73750688981006
 30
0.0
 10
196.3774059923236
 20
-43.77839919837682
 30
0.0
 10
196.454715086224
 20
-42.79337526071179
 30
0.0
 10
196.5071772376569
 20
-41.79028810927768
 30
0.0
 10
196.5596393890904
 20
-40.78720095784356
 30
0.0
 10
196.587254598057
 20
-39.76605059264419
 30
0.0
 10
196.6011642066904
 20
-38.73550035901849
 30
0.0
 10
196.6150738153239
 20
-37.70495012539407
 30
0.0
 10
196.6152778236241
 20
-36.6650000233433
 30
0.0
 10
196.6152778236241
 20
-35.62500002334507
 30
0.0
 10
196.6152778236241
 20
-35.62500002334507
 30
0.0
 10
196.6152778236241
 20
84.37499997665532
 30
0.0
 10
196.6152778236241
 20
84.37499997665532
 30
0.0
 10
196.6152778236241
 20
85.09499997665637
 30
0.0
 10
196.6141606159735
 20
85.81471093430586
 30
0.0
 10
196.5778583900155
 20
86.50913816026456
 30
0.0
 10
196.5415561640574
 20
87.20356538622195
 30
0.0
 10
196.4700689197905
 20
87.87270888048855
 30
0.0
 10
196.3417621986237
 20
88.49601560165566
 30
0.0
 10
196.2134554774569
 20
89.11932232282278
 30
0.0
 10
196.0283292793902
 20
89.69679227088913
 30
0.0
 10
195.7758124915738
 20
90.21368405870625
 30
0.0
 10
195.5232957037569
 20
90.73057584652209
 30
0.0
 10
195.2033883261903
 20
91.18688947408866
 30
0.0
 10
194.815277823624
 20
91.57499997665558
 30
0.0
 10
194.4271673210571
 20
91.96311047922248
 30
0.0
 10
193.9708536934905
 20
92.28301785678973
 30
0.0
 10
193.453961905674
 20
92.53553464460542
 30
0.0
 10
192.9370701178569
 20
92.78805143242239
 30
0.0
 10
192.3596001697906
 20
92.9731776304891
 30
0.0
 10
191.7362934486235
 20
93.10148435165526
 30
0.0
 10
191.112986727457
 20
93.22979107282302
 30
0.0
 10
190.4438432331904
 20
93.30127831708957
 30
0.0
 10
189.7494160072324
 20
93.33758054304765
 30
0.0
 10
189.0549887812737
 20
93.37388276900572
 30
0.0
 10
188.3352778236235
 20
93.37499997665628
 30
0.0
 10
187.6152778236238
 20
93.37499997665628
 30
0.0
 10
187.6152778236238
 20
93.37499997665628
 30
0.0
 10
144.8898912154239
 20
93.37499997665628
 30
0.0
 10
144.8898912154239
 20
93.37499997665628
 30
0.0
 10
144.6474041023238
 20
93.37499997665628
 30
0.0
 10
144.4047689209738
 20
93.37487960735623
 30
0.0
 10
144.1589652327821
 20
93.36982095287284
 30
0.0
 10
143.9131615445903
 20
93.36476229838945
 30
0.0
 10
143.6641893495569
 20
93.35476535872273
 30
0.0
 10
143.4105925436571
 20
93.33631711528845
 30
0.0
 10
143.1569957377573
 20
93.31786887185548
 30
0.0
 10
142.8987743209904
 20
93.29096932465623
 30
0.0
 10
142.6358402788321
 20
93.25333497573105
 30
0.0
 10
142.3729062366738
 20
93.21570062680618
 30
0.0
 10
142.1052595691239
 20
93.16733147615601
 30
0.0
 10
141.8337010970773
 20
93.10675778916895
 30
0.0
 10
141.2905841529841
 20
92.9856104151961
 30
0.0
 10
140.7318199909035
 20
92.8156448958757
 30
0.0
 10
140.1738691120803
 20
92.59634397081567
 30
0.0
 10
139.6159182332571
 20
92.37704304575561
 30
0.0
 10
139.0587806376907
 20
92.10840671495593
 30
0.0
 10
138.5246044975904
 20
91.79999997667235
 30
0.0
 10
137.9904283574907
 20
91.49159323838876
 30
0.0
 10
137.4792136728572
 20
91.14341609262256
 30
0.0
 10
137.0103180612807
 20
90.76986692001897
 30
0.0
 10
136.5414224497035
 20
90.39631774741537
 30
0.0
 10
136.114845911184
 20
89.99739654797564
 30
0.0
 10
135.7383707356439
 20
89.58761716412845
 30
0.0
 10
135.5501331478735
 20
89.38272747220614
 30
0.0
 10
135.3744209008485
 20
89.17512323418003
 30
0.0
 10
135.2103615775362
 20
88.966232848618
 30
0.0
 10
135.0463022542239
 20
88.75734246305598
 30
0.0
 10
134.8938958546236
 20
88.54716592995547
 30
0.0
 10
134.7511208042069
 20
88.33676877545557
 30
0.0
 10
134.6083457537903
 20
88.12637162095567
 30
0.0
 10
134.4752020525573
 20
87.91575384505639
 30
0.0
 10
134.3479192851652
 20
87.70541093398077
 30
0.0
 10
134.2206365177737
 20
87.49506802290516
 30
0.0
 10
134.0992146842236
 20
87.28499997665577
 30
0.0
 10
133.9779711277239
 20
87.07499997665509
 30
0.0
 10
133.9779711277239
 20
87.07499997665509
 30
0.0
 10
116.4265229443236
 20
56.67499997665659
 30
0.0
 10
116.4265229443236
 20
56.67499997665659
 30
0.0
 10
116.3052793878239
 20
56.46499997665591
 30
0.0
 10
116.1838575543239
 20
56.25493193040653
 30
0.0
 10
116.0565747869574
 20
56.04458901933091
 30
0.0
 10
115.9292920195902
 20
55.8342461082553
 30
0.0
 10
115.7961483183573
 20
55.62362833235601
 30
0.0
 10
115.653373267924
 20
55.41323117783975
 30
0.0
 10
115.5105982174906
 20
55.20283402332284
 30
0.0
 10
115.3581918178569
 20
54.99265749018897
 30
0.0
 10
115.1941324945408
 20
54.78376710462309
 30
0.0
 10
115.0300731712239
 20
54.57487671905593
 30
0.0
 10
114.8543609242241
 20
54.36727248105549
 30
0.0
 10
114.6661233364639
 20
54.16238278914987
 30
0.0
 10
114.2896481609437
 20
53.75260340533605
 30
0.0
 10
113.8630716223838
 20
53.35368220589632
 30
0.0
 10
113.3941760107874
 20
52.98013303329272
 30
0.0
 10
112.9252803991903
 20
52.60658386068912
 30
0.0
 10
112.4140657145574
 20
52.25840671492292
 30
0.0
 10
111.8798895744571
 20
51.94999997663805
 30
0.0
 10
111.3457134343574
 20
51.64159323835575
 30
0.0
 10
110.7885758387904
 20
51.37295690755607
 30
0.0
 10
110.2306249599672
 20
51.15365598249602
 30
0.0
 10
109.672674081144
 20
50.9343550574363
 30
0.0
 10
109.113909919064
 20
50.76438953811557
 30
0.0
 10
108.5707929749702
 20
50.64324216414273
 30
0.0
 10
108.2992345029236
 20
50.58266847715567
 30
0.0
 10
108.0315878353737
 20
50.53429932650582
 30
0.0
 10
107.7686537932154
 20
50.49666497756395
 30
0.0
 10
107.505719751057
 20
50.45903062862208
 30
0.0
 10
107.2474983342902
 20
50.43213108138947
 30
0.0
 10
106.9939015283904
 20
50.4136828379398
 30
0.0
 10
106.7403047224906
 20
50.39523459449013
 30
0.0
 10
106.4913325274572
 20
50.38523765482245
 30
0.0
 10
106.2455288392654
 20
50.38017900036441
 30
0.0
 10
105.9997251510737
 20
50.3751203459054
 30
0.0
 10
105.7570899697236
 20
50.3749999766554
 30
0.0
 10
105.5146028567237
 20
50.3749999766554
 30
0.0
 10
105.5146028567237
 20
50.3749999766554
 30
0.0
 10
-92.28404720947613
 20
50.3749999766554
 30
0.0
 10
-92.28404720947613
 20
50.3749999766554
 30
0.0
 10
-92.52653432247607
 20
50.3749999766554
 30
0.0
 10
-92.7691695038261
 20
50.3751203459054
 30
0.0
 10
-93.01497319201785
 20
50.38017900036441
 30
0.0
 10
-93.26077688020959
 20
50.38523765482245
 30
0.0
 10
-93.50974907524305
 20
50.39523459449013
 30
0.0
 10
-93.76334588114285
 20
50.4136828379398
 30
0.0
 10
-94.01694268704331
 20
50.43213108138947
 30
0.0
 10
-94.27516410380947
 20
50.45903062862208
 30
0.0
 10
-94.53809814596781
 20
50.49666497756395
 30
0.0
 10
-94.80103218812616
 20
50.53429932650582
 30
0.0
 10
-95.06867885567668
 20
50.58266847715567
 30
0.0
 10
-95.34023732772295
 20
50.64324216414273
 30
0.0
 10
-95.88335427181643
 20
50.76438953811557
 30
0.0
 10
-96.4421184338961
 20
50.9343550574363
 30
0.0
 10
-97.00006931271993
 20
51.15365598249602
 30
0.0
 10
-97.55802019154281
 20
51.37295690755607
 30
0.0
 10
-98.11515778710952
 20
51.64159323835575
 30
0.0
 10
-98.64933392720982
 20
51.94999997663805
 30
0.0
 10
-99.18351006730948
 20
52.25840671492292
 30
0.0
 10
-99.69472475194273
 20
52.60658386068912
 30
0.0
 10
-100.1636203635395
 20
52.98013303329272
 30
0.0
 10
-100.6325159751362
 20
53.35368220589632
 30
0.0
 10
-101.0590925136961
 20
53.75260340533605
 30
0.0
 10
-101.4355676892164
 20
54.16238278914987
 30
0.0
 10
-101.6238052769762
 20
54.36727248105549
 30
0.0
 10
-101.7995175239764
 20
54.57487671905593
 30
0.0
 10
-101.9635768472929
 20
54.78376710462309
 30
0.0
 10
-102.1276361706097
 20
54.99265749018897
 30
0.0
 10
-102.2800425702431
 20
55.20283402332284
 30
0.0
 10
-102.4228176206764
 20
55.41323117783975
 30
0.0
 10
-102.5655926711097
 20
55.62362833235601
 30
0.0
 10
-102.6987363723433
 20
55.8342461082553
 30
0.0
 10
-102.8260191397095
 20
56.04458901933091
 30
0.0
 10
-102.9533019070763
 20
56.25493193040653
 30
0.0
 10
-103.0747237405763
 20
56.46499997665591
 30
0.0
 10
-103.1959672970763
 20
56.67499997665659
 30
0.0
  0
SPLINE
  5
43
330
1F
100
AcDbEntity
  8
top
 62
     6
370
    25
100
AcDbSpline
210
0.0
220
0.0
230
1.0
 70
    11
 71
     3
 72
    77
 73
    73
 74
     0
 42
0.0000000001
 43
0.0000000001
 12
1.0
 22
0.0
 32
0.0
 13
1.0
 23
0.0
 33
0.0
 40
0.0
 40
0.0
 40
0.0
 40
0.0
 40
1.0
 40
1.0
 40
1.0
 40
2.0
 40
2.0
 40
2.0
 40
3.0
 40
3.0
 40
3.0
 40
4.0
 40
4.0
 40
4.0
 40
5.0
 40
5.0
 40
5.0
 40
6.0
 40
6.0
 40
6.0
 40
7.0
 40
7.0
 40
7.0
 40
8.0
 40
8.0
 40
8.0
 40
9.0
 40
9.0
 40
9.0
 40
10.0
 40
10.0
 40
10.0
 40
11.0
 40
11.0
 40
11.0
 40
12.0
 40
12.0
 40
12.0
 40
13.0
 40
13.0
 40
13.0
 40
14.0
 40
14.0
 40
14.0
 40
15.0
 40
15.0
 40
15.0
 40
16.0
 40
16.0
 40
16.0
 40
17.0
 40
17.0
 40
17.0
 40
18.0
 40
18.0
 40
18.0
 40
19.0
 40
19.0
 40
19.0
 40
20.0
 40
20.0
 40
20.0
 40
21.0
 40
21.0
 40
21.0
 40
22.0
 40
22.0
 40
22.0
 40
23.0
 40
23.0
 40
23.0
 40
24.0
 40
24.0
 40
24.0
 40
24.0
 10
-32.88472047788977
 20
-36.12502668367722
 30
0.0
 10
-35.64614422635344
 20
-36.12502668367722
 30
0.0
 10
-37.88472047663991
 20
-33.88645043339074
 30
0.0
 10
-37.88472047663991
 20
-31.12502668492707
 30
0.0
 10
-37.88472047663991
 20
-31.12502668492707
 30
0.0
 10
-37.88472047663991
 20
-22.12498057172599
 30
0.0
 10
-37.88472047663991
 20
-22.12498057172599
 30
0.0
 10
-37.88472047663991
 20
-19.36355682326232
 30
0.0
 10
-40.1232967269264
 20
-17.12498057297584
 30
0.0
 10
-42.88472047539006
 20
-17.12498057297584
 30
0.0
 10
-42.88472047539006
 20
-17.12498057297584
 30
0.0
 10
-67.8846512959627
 20
-17.12498057297584
 30
0.0
 10
-67.8846512959627
 20
-17.12498057297584
 30
0.0
 10
-70.64607504442637
 20
-17.12498057297584
 30
0.0
 10
-72.88465129471285
 20
-14.88640432268936
 30
0.0
 10
-72.88465129471285
 20
-12.12498057422569
 30
0.0
 10
-72.88465129471285
 20
-12.12498057422569
 30
0.0
 10
-72.88465129471285
 20
3.875155055454535
 30
0.0
 10
-72.88465129471285
 20
3.875155055454535
 30
0.0
 10
-72.88465129471285
 20
6.636578803918202
 30
0.0
 10
-70.64607504442637
 20
8.875155054204681
 30
0.0
 10
-67.8846512959627
 20
8.875155054204681
 30
0.0
 10
-67.8846512959627
 20
8.875155054204681
 30
0.0
 10
-42.88472047539006
 20
8.875155054204681
 30
0.0
 10
-42.88472047539006
 20
8.875155054204681
 30
0.0
 10
-40.1232967269264
 20
8.875155054204681
 30
0.0
 10
-37.88472047663991
 20
11.11373130449116
 30
0.0
 10
-37.88472047663991
 20
13.87515505295483
 30
0.0
 10
-37.88472047663991
 20
13.87515505295483
 30
0.0
 10
-37.88472047663991
 20
22.87502891138165
 30
0.0
 10
-37.88472047663991
 20
22.87502891138165
 30
0.0
 10
-37.88472047663991
 20
25.63645265984532
 30
0.0
 10
-35.64614422635344
 20
27.8750289101318
 30
0.0
 10
-32.88472047788977
 20
27.8750289101318
 30
0.0
 10
-32.88472047788977
 20
27.8750289101318
 30
0.0
 10
46.11518727145719
 20
27.8750289101318
 30
0.0
 10
46.11518727145719
 20
27.8750289101318
 30
0.0
 10
48.87661101992085
 20
27.8750289101318
 30
0.0
 10
51.11518727020734
 20
25.63645265984532
 30
0.0
 10
51.11518727020734
 20
22.87502891138165
 30
0.0
 10
51.11518727020734
 20
22.87502891138165
 30
0.0
 10
51.11518727020734
 20
13.87515505295483
 30
0.0
 10
51.11518727020734
 20
13.87515505295483
 30
0.0
 10
51.11518727020734
 20
11.11373130449116
 30
0.0
 10
53.35376352049381
 20
8.875155054204681
 30
0.0
 10
56.11518726895748
 20
8.875155054204681
 30
0.0
 10
56.11518726895748
 20
8.875155054204681
 30
0.0
 10
81.11529034430438
 20
8.875155054204681
 30
0.0
 10
81.11529034430438
 20
8.875155054204681
 30
0.0
 10
83.87671409276805
 20
8.875155054204681
 30
0.0
 10
86.11529034305453
 20
6.636578803918202
 30
0.0
 10
86.11529034305453
 20
3.875155055454535
 30
0.0
 10
86.11529034305453
 20
3.875155055454535
 30
0.0
 10
86.11529034305453
 20
-12.12498057422569
 30
0.0
 10
86.11529034305453
 20
-12.12498057422569
 30
0.0
 10
86.11529034305453
 20
-14.88640432268936
 30
0.0
 10
83.87671409276805
 20
-17.12498057297584
 30
0.0
 10
81.11529034430438
 20
-17.12498057297584
 30
0.0
 10
81.11529034430438
 20
-17.12498057297584
 30
0.0
 10
56.11518726895748
 20
-17.12498057297584
 30
0.0
 10
56.11518726895748
 20
-17.12498057297584
 30
0.0
 10
53.35376352049381
 20
-17.12498057297584
 30
0.0
 10
51.11518727020734
 20
-19.36355682326232
 30
0.0
 10
51.11518727020734
 20
-22.12498057172599
 30
0.0
 10
51.11518727020734
 20
-22.12498057172599
 30
0.0
 10
51.11518727020734
 20
-31.12502668492707
 30
0.0
 10
51.11518727020734
 20
-31.12502668492707
 30
0.0
 10
51.11518727020734
 20
-33.88645043339074
 30
0.0
 10
48.87661101992085
 20
-36.12502668367722
 30
0.0
 10
46.11518727145719
 20
-36.12502668367722
 30
0.0
 10
46.11518727145719
 20
-36.12502668367722
 30
0.0
 10
-32.88472047788977
 20
-36.12502668367722
 30
0.0
 10
-32.88472047788977
 20
-36.12502668367722
 30
0.0
  0
SPLINE
  5
44
330
1F
100
AcDbEntity
  8
top
 62
     6
370
    25
100
AcDbSpline
210
0.0
220
0.0
230
1.0
 70
    11
 71
     3
 72
    77
 73
    73
 74
     0
 42
0.0000000001
 43
0.0000000001
 12
1.0
 22
0.0
 32
0.0
 13
1.0
 23
0.0
 33
0.0
 40
0.0
 40
0.0
 40
0.0
 40
0.0
 40
1.0
 40
1.0
 40
1.0
 40
2.0
 40
2.0
 40
2.0
 40
3.0
 40
3.0
 40
3.0
 40
4.0
 40
4.0
 40
4.0
 40
5.0
 40
5.0
 40
5.0
 40
6.0
 40
6.0
 40
6.0
 40
7.0
 40
7.0
 40
7.0
 40
8.0
 40
8.0
 40
8.0
 40
9.0
 40
9.0
 40
9.0
 40
10.0
 40
10.0
 40
10.0
 40
11.0
 40
11.0
 40
11.0
 40
12.0
 40
12.0
 40
12.0
 40
13.0
 40
13.0
 40
13.0
 40
14.0
 40
14.0
 40
14.0
 40
15.0
 40
15.0
 40
15.0
 40
16.0
 40
16.0
 40
16.0
 40
17.0
 40
17.0
 40
17.0
 40
18.0
 40
18.0
 40
18.0
 40
19.0
 40
19.0
 40
19.0
 40
20.0
 40
20.0
 40
20.0
 40
21.0
 40
21.0
 40
21.0
 40
22.0
 40
22.0
 40
22.0
 40
23.0
 40
23.0
 40
23.0
 40
24.0
 40
24.0
 40
24.0
 40
24.0
 10
-25.38462591596271
 20
-35.62504339387152
 30
0.0
 10
-32.01204291227538
 20
-35.62504339387152
 30
0.0
 10
-37.38462591296287
 20
-30.25246039318435
 30
0.0
 10
-37.38462591296287
 20
-23.62504339687168
 30
0.0
 10
-37.38462591296287
 20
-23.62504339687168
 30
0.0
 10
-37.38462591296287
 20
-22.12509222537151
 30
0.0
 10
-37.38462591296287
 20
-22.12509222537151
 30
0.0
 10
-37.38462591296287
 20
-19.08747366617235
 30
0.0
 10
-39.84710229596476
 20
-16.62499728317014
 30
0.0
 10
-42.88472085516424
 20
-16.62499728317014
 30
0.0
 10
-42.88472085516424
 20
-16.62499728317014
 30
0.0
 10
-60.38455673403597
 20
-16.62499728317014
 30
0.0
 10
-60.38455673403597
 20
-16.62499728317014
 30
0.0
 10
-67.01197373034832
 20
-16.62499728317014
 30
0.0
 10
-72.38455673103581
 20
-11.25241428248297
 30
0.0
 10
-72.38455673103581
 20
-4.624997286170301
 30
0.0
 10
-72.38455673103581
 20
-4.624997286170301
 30
0.0
 10
-72.38455673103581
 20
-3.624628362808959
 30
0.0
 10
-72.38455673103581
 20
-3.624628362808959
 30
0.0
 10
-72.38455673103581
 20
3.002788633503714
 30
0.0
 10
-67.01197373034832
 20
8.375371634190879
 30
0.0
 10
-60.38455673403597
 20
8.375371634190879
 30
0.0
 10
-60.38455673403597
 20
8.375371634190879
 30
0.0
 10
-42.88472085516424
 20
8.375371634190879
 30
0.0
 10
-42.88472085516424
 20
8.375371634190879
 30
0.0
 10
-39.84710229596476
 20
8.375371634190879
 30
0.0
 10
-37.38462591296287
 20
10.83784801719309
 30
0.0
 10
-37.38462591296287
 20
13.87546657639225
 30
0.0
 10
-37.38462591296287
 20
13.87546657639225
 30
0.0
 10
-37.38462591296287
 20
15.37490098356931
 30
0.0
 10
-37.38462591296287
 20
15.37490098356931
 30
0.0
 10
-37.38462591296287
 20
22.00231797988198
 30
0.0
 10
-32.01204291227571
 20
27.37490098056947
 30
0.0
 10
-25.38462591596271
 20
27.37490098056947
 30
0.0
 10
-25.38462591596271
 20
27.37490098056947
 30
0.0
 10
38.61534287229077
 20
27.37490098056947
 30
0.0
 10
38.61534287229077
 20
27.37490098056947
 30
0.0
 10
45.24275986860344
 20
27.37490098056947
 30
0.0
 10
50.61534286929061
 20
22.00231797988198
 30
0.0
 10
50.61534286929061
 20
15.37490098356931
 30
0.0
 10
50.61534286929061
 20
15.37490098356931
 30
0.0
 10
50.61534286929061
 20
13.87512206684372
 30
0.0
 10
50.61534286929061
 20
13.87512206684372
 30
0.0
 10
50.61534286929061
 20
10.83769377501418
 30
0.0
 10
53.0776650101139
 20
8.375371634190879
 30
0.0
 10
56.11509330194345
 20
8.375371634190879
 30
0.0
 10
56.11509330194345
 20
8.375371634190879
 30
0.0
 10
73.61544594513796
 20
8.375371634190879
 30
0.0
 10
73.61544594513796
 20
8.375371634190879
 30
0.0
 10
80.24286294145064
 20
8.375371634190879
 30
0.0
 10
85.61544594213781
 20
3.002788633503714
 30
0.0
 10
85.61544594213781
 20
-3.624628362808959
 30
0.0
 10
85.61544594213781
 20
-3.624628362808959
 30
0.0
 10
85.61544594213781
 20
-4.624997286170301
 30
0.0
 10
85.61544594213781
 20
-4.624997286170301
 30
0.0
 10
85.61544594213781
 20
-11.25241428248297
 30
0.0
 10
80.24286294145064
 20
-16.62499728317014
 30
0.0
 10
73.61544594513796
 20
-16.62499728317014
 30
0.0
 10
73.61544594513796
 20
-16.62499728317014
 30
0.0
 10
56.11509330194345
 20
-16.62499728317014
 30
0.0
 10
56.11509330194345
 20
-16.62499728317014
 30
0.0
 10
53.0776650101139
 20
-16.62499728317014
 30
0.0
 10
50.61534286929061
 20
-19.08731942399343
 30
0.0
 10
50.61534286929061
 20
-22.12474771582298
 30
0.0
 10
50.61534286929061
 20
-22.12474771582298
 30
0.0
 10
50.61534286929061
 20
-23.62504339687168
 30
0.0
 10
50.61534286929061
 20
-23.62504339687168
 30
0.0
 10
50.61534286929061
 20
-30.25246039318435
 30
0.0
 10
45.24275986860344
 20
-35.62504339387152
 30
0.0
 10
38.61534287229077
 20
-35.62504339387152
 30
0.0
 10
38.61534287229077
 20
-35.62504339387152
 30
0.0
 10
-25.38462591596271
 20
-35.62504339387152
 30
0.0
 10
-25.38462591596271
 20
-35.62504339387152
 30
0.0
  0
SPLINE
  5
45
330
1F
100
AcDbEntity
  8
top
 62
     2
370
    25
100
AcDbSpline
210
0.0
220
0.0
230
1.0
 70
    11
 71
     3
 72
    17
 73
    13
 74
     0
 42
0.0000000001
 43
0.0000000001
 12
1.0
 22
0.0
 32
0.0
 13
1.0
 23
0.0
 33
0.0
 40
0.0
 40
0.0
 40
0.0
 40
0.0
 40
1.0
 40
1.0
 40
1.0
 40
2.0
 40
2.0
 40
2.0
 40
3.0
 40
3.0
 40
3.0
 40
4.0
 40
4.0
 40
4.0
 40
4.0
 10
-104.3348343923194
 20
30.32855041197787
 30
0.0
 10
-104.3348343923194
 20
27.56712666366821
 30
0.0
 10
-106.5734106427599
 20
25.32855041322804
 30
0.0
 10
-109.3348343910695
 20
25.32855041322804
 30
0.0
 10
-112.0962581393789
 20
25.32855041322804
 30
0.0
 10
-114.3348343898194
 20
27.56712666366821
 30
0.0
 10
-114.3348343898194
 20
30.32855041197787
 30
0.0
 10
-114.3348343898194
 20
33.08997416028753
 30
0.0
 10
-112.0962581393789
 20
35.32855041072801
 30
0.0
 10
-109.3348343910695
 20
35.32855041072801
 30
0.0
 10
-106.5734106427599
 20
35.32855041072801
 30
0.0
 10
-104.3348343923194
 20
33.08997416028753
 30
0.0
 10
-104.3348343923194
 20
30.32855041197787
 30
0.0
  0
SPLINE
  5
46
330
1F
100
AcDbEntity
  8
top
 62
     2
370
    25
100
AcDbSpline
210
0.0
220
0.0
230
1.0
 70
    11
 71
     3
 72
    17
 73
    13
 74
     0
 42
0.0000000001
 43
0.0000000001
 12
1.0
 22
0.0
 32
0.0
 13
1.0
 23
0.0
 33
0.0
 40
0.0
 40
0.0
 40
0.0
 40
0.0
 40
1.0
 40
1.0
 40
1.0
 40
2.0
 40
2.0
 40
2.0
 40
3.0
 40
3.0
 40
3.0
 40
4.0
 40
4.0
 40
4.0
 40
4.0
 10
-104.3502224854866
 20
15.37017548805553
 30
0.0
 10
-104.3502224854866
 20
12.60875173974587
 30
0.0
 10
-106.5887987359271
 20
10.37017548930603
 30
0.0
 10
-109.3502224842368
 20
10.37017548930603
 30
0.0
 10
-112.1116462325461
 20
10.37017548930603
 30
0.0
 10
-114.3502224829866
 20
12.60875173974587
 30
0.0
 10
-114.3502224829866
 20
15.37017548805553
 30
0.0
 10
-114.3502224829866
 20
18.13159923636551
 30
0.0
 10
-112.1116462325461
 20
20.370175486806
 30
0.0
 10
-109.3502224842368
 20
20.370175486806
 30
0.0
 10
-106.5887987359271
 20
20.370175486806
 30
0.0
 10
-104.3502224854866
 20
18.13159923636551
 30
0.0
 10
-104.3502224854866
 20
15.37017548805553
 30
0.0
  0
SPLINE
  5
47
330
1F
100
AcDbEntity
  8
top
 62
     2
370
    25
100
AcDbSpline
210
0.0
220
0.0
230
1.0
 70
    11
 71
     3
 72
    17
 73
    13
 74
     0
 42
0.0000000001
 43
0.0000000001
 12
1.0
 22
0.0
 32
0.0
 13
1.0
 23
0.0
 33
0.0
 40
0.0
 40
0.0
 40
0.0
 40
0.0
 40
1.0
 40
1.0
 40
1.0
 40
2.0
 40
2.0
 40
2.0
 40
3.0
 40
3.0
 40
3.0
 40
4.0
 40
4.0
 40
4.0
 40
4.0
 10
127.7189717924336
 20
30.32818745624854
 30
0.0
 10
127.7189717924336
 20
27.56676370793888
 30
0.0
 10
125.4803955419938
 20
25.32818745749871
 30
0.0
 10
122.7189717936841
 20
25.32818745749871
 30
0.0
 10
119.9575480453745
 20
25.32818745749871
 30
0.0
 10
117.718971794934
 20
27.56676370793888
 30
0.0
 10
117.718971794934
 20
30.32818745624854
 30
0.0
 10
117.718971794934
 20
33.0896112045582
 30
0.0
 10
119.9575480453745
 20
35.32818745499868
 30
0.0
 10
122.7189717936841
 20
35.32818745499868
 30
0.0
 10
125.4803955419938
 20
35.32818745499868
 30
0.0
 10
127.7189717924336
 20
33.0896112045582
 30
0.0
 10
127.7189717924336
 20
30.32818745624854
 30
0.0
  0
SPLINE
  5
48
330
1F
100
AcDbEntity
  8
top
 62
     2
370
    25
100
AcDbSpline
210
0.0
220
0.0
230
1.0
 70
    11
 71
     3
 72
    17
 73
    13
 74
     0
 42
0.0000000001
 43
0.0000000001
 12
1.0
 22
0.0
 32
0.0
 13
1.0
 23
0.0
 33
0.0
 40
0.0
 40
0.0
 40
0.0
 40
0.0
 40
1.0
 40
1.0
 40
1.0
 40
2.0
 40
2.0
 40
2.0
 40
3.0
 40
3.0
 40
3.0
 40
4.0
 40
4.0
 40
4.0
 40
4.0
 10
127.703583699267
 20
15.36981253232652
 30
0.0
 10
127.703583699267
 20
12.60838878401687
 30
0.0
 10
125.4650074488259
 20
10.36981253357702
 30
0.0
 10
122.7035837005169
 20
10.36981253357702
 30
0.0
 10
119.9421599522072
 20
10.36981253357702
 30
0.0
 10
117.7035837017667
 20
12.60838878401687
 30
0.0
 10
117.7035837017667
 20
15.36981253232652
 30
0.0
 10
117.7035837017667
 20
18.13123628063618
 30
0.0
 10
119.9421599522072
 20
20.36981253107667
 30
0.0
 10
122.7035837005169
 20
20.36981253107667
 30
0.0
 10
125.4650074488259
 20
20.36981253107667
 30
0.0
 10
127.703583699267
 20
18.13123628063618
 30
0.0
 10
127.703583699267
 20
15.36981253232652
 30
0.0
  0
SPLINE
  5
49
330
1F
100
AcDbEntity
  8
top
 62
     1
370
    25
100
AcDbSpline
210
0.0
220
0.0
230
1.0
 70
    11
 71
     3
 72
    41
 73
    37
 74
     0
 42
0.0000000001
 43
0.0000000001
 12
1.0
 22
0.0
 32
0.0
 13
1.0
 23
0.0
 33
0.0
 40
0.0
 40
0.0
 40
0.0
 40
0.0
 40
1.0
 40
1.0
 40
1.0
 40
2.0
 40
2.0
 40
2.0
 40
3.0
 40
3.0
 40
3.0
 40
4.0
 40
4.0
 40
4.0
 40
5.0
 40
5.0
 40
5.0
 40
6.0
 40
6.0
 40
6.0
 40
7.0
 40
7.0
 40
7.0
 40
8.0
 40
8.0
 40
8.0
 40
9.0
 40
9.0
 40
9.0
 40
10.0
 40
10.0
 40
10.0
 40
11.0
 40
11.0
 40
11.0
 40
12.0
 40
12.0
 40
12.0
 40
12.0
 10
-134.384722176376
 20
-41.82115244604405
 30
0.0
 10
-134.384722176376
 20
-41.82115244604405
 30
0.0
 10
-134.384722176376
 20
-46.62500002334481
 30
0.0
 10
-134.384722176376
 20
-46.62500002334481
 30
0.0
 10
-134.384722176376
 20
-49.93870852232926
 30
0.0
 10
-137.0710136773909
 20
-52.62500002334374
 30
0.0
 10
-140.384722176375
 20
-52.62500002334374
 30
0.0
 10
-140.384722176375
 20
-52.62500002334374
 30
0.0
 10
-166.3847221763762
 20
-52.62500002334374
 30
0.0
 10
-166.3847221763762
 20
-52.62500002334374
 30
0.0
 10
-169.6984303564911
 20
-52.62500002334374
 30
0.0
 10
-172.3847212938192
 20
-49.93870820345874
 30
0.0
 10
-172.3847202051296
 20
-46.62500002334417
 30
0.0
 10
-172.3847202051296
 20
-46.62500002334417
 30
0.0
 10
-172.3847186268682
 20
-41.82115244604534
 30
0.0
 10
-172.3847186268682
 20
-41.82115244604534
 30
0.0
 10
-172.3847181475499
 20
-40.36222260076193
 30
0.0
 10
-171.8559809373321
 20
-38.95107933315438
 30
0.0
 10
-170.8896345115945
 20
-37.85807847362847
 30
0.0
 10
-169.9198981492028
 20
-36.76124337456078
 30
0.0
 10
-169.3847221763763
 20
-35.34777644655352
 30
0.0
 10
-169.3847221763763
 20
-33.88389851284349
 30
0.0
 10
-169.3847221763763
 20
-33.88389851284349
 30
0.0
 10
-169.3847221763763
 20
98.37499997540642
 30
0.0
 10
-169.3847221763763
 20
98.37499997540642
 30
0.0
 10
-169.3847221763763
 20
98.37499997540642
 30
0.0
 10
-137.3847221763762
 20
98.37499997540642
 30
0.0
 10
-137.3847221763762
 20
98.37499997540642
 30
0.0
 10
-137.3847221763762
 20
98.37499997540642
 30
0.0
 10
-137.3847134584529
 20
-33.88389851284285
 30
0.0
 10
-137.3847134584529
 20
-33.88389851284285
 30
0.0
 10
-137.3847133622869
 20
-35.34282634876443
 30
0.0
 10
-136.8559786767201
 20
-36.75396841457941
 30
0.0
 10
-135.8896347672276
 20
-37.84696881669006
 30
0.0
 10
-134.9198987997907
 20
-38.94380586604412
 30
0.0
 10
-134.384722176376
 20
-40.35727362255221
 30
0.0
 10
-134.384722176376
 20
-41.82115244604405
 30
0.0
  0
SPLINE
  5
4A
330
1F
100
AcDbEntity
  8
top
 62
     1
370
    25
100
AcDbSpline
210
0.0
220
0.0
230
1.0
 70
    11
 71
     3
 72
    29
 73
    25
 74
     0
 42
0.0000000001
 43
0.0000000001
 12
1.0
 22
0.0
 32
0.0
 13
1.0
 23
0.0
 33
0.0
 40
0.0
 40
0.0
 40
0.0
 40
0.0
 40
1.0
 40
1.0
 40
1.0
 40
2.0
 40
2.0
 40
2.0
 40
3.0
 40
3.0
 40
3.0
 40
4.0
 40
4.0
 40
4.0
 40
5.0
 40
5.0
 40
5.0
 40
6.0
 40
6.0
 40
6.0
 40
7.0
 40
7.0
 40
7.0
 40
8.0
 40
8.0
 40
8.0
 40
8.0
 10
-137.8847724728884
 20
-40.15480229955319
 30
0.0
 10
-137.8847724728884
 20
-40.15480229955319
 30
0.0
 10
-137.8847784925766
 20
85.87499114549405
 30
0.0
 10
-137.8847784925766
 20
85.87499114549405
 30
0.0
 10
-137.8847788091286
 20
92.50240786928548
 30
0.0
 10
-143.2573616776329
 20
97.87499048117361
 30
0.0
 10
-149.8847784014243
 20
97.87499048117361
 30
0.0
 10
-149.8847784014243
 20
97.87499048117361
 30
0.0
 10
-156.8846096070464
 20
97.87499048117361
 30
0.0
 10
-156.8846096070464
 20
97.87499048117361
 30
0.0
 10
-163.5120266033591
 20
97.87499048117361
 30
0.0
 10
-168.8846096040462
 20
92.50240748048645
 30
0.0
 10
-168.8846096040462
 20
85.87499048417378
 30
0.0
 10
-168.8846096040462
 20
85.87499048417378
 30
0.0
 10
-168.8846096040462
 20
-40.19826113206958
 30
0.0
 10
-168.8846096040462
 20
-40.19826113206958
 30
0.0
 10
-168.8846096040462
 20
-46.85479118183682
 30
0.0
 10
-163.4665112016106
 20
-52.23935591746708
 30
0.0
 10
-156.8101094363268
 20
-52.19802986536418
 30
0.0
 10
-156.8101094363268
 20
-52.19802986536418
 30
0.0
 10
-149.8102722991686
 20
-52.15457160601659
 30
0.0
 10
-149.8102722991686
 20
-52.15457160601659
 30
0.0
 10
-143.21205788632
 20
-52.11360680818347
 30
0.0
 10
-137.884772157725
 20
-46.75314387547904
 30
0.0
 10
-137.8847724728884
 20
-40.15480229955319
 30
0.0
  0
SPLINE
  5
4B
330
1F
100
AcDbEntity
  8
top
 62
     1
370
    25
100
AcDbSpline
210
0.0
220
0.0
230
1.0
 70
    11
 71
     3
 72
    41
 73
    37
 74
     0
 42
0.0000000001
 43
0.0000000001
 12
1.0
 22
0.0
 32
0.0
 13
1.0
 23
0.0
 33
0.0
 40
0.0
 40
0.0
 40
0.0
 40
0.0
 40
1.0
 40
1.0
 40
1.0
 40
2.0
 40
2.0
 40
2.0
 40
3.0
 40
3.0
 40
3.0
 40
4.0
 40
4.0
 40
4.0
 40
5.0
 40
5.0
 40
5.0
 40
6.0
 40
6.0
 40
6.0
 40
7.0
 40
7.0
 40
7.0
 40
8.0
 40
8.0
 40
8.0
 40
9.0
 40
9.0
 40
9.0
 40
10.0
 40
10.0
 40
10.0
 40
11.0
 40
11.0
 40
11.0
 40
12.0
 40
12.0
 40
12.0
 40
12.0
 10
185.6152778236237
 20
-41.82115244604405
 30
0.0
 10
185.6152778236237
 20
-41.82115244604405
 30
0.0
 10
185.6152778236237
 20
-46.62500002334481
 30
0.0
 10
185.6152778236237
 20
-46.62500002334481
 30
0.0
 10
185.6152778236237
 20
-49.93870852232926
 30
0.0
 10
182.9289863226086
 20
-52.62500002334374
 30
0.0
 10
179.6152778236241
 20
-52.62500002334374
 30
0.0
 10
179.6152778236241
 20
-52.62500002334374
 30
0.0
 10
153.6152778236238
 20
-52.62500002334374
 30
0.0
 10
153.6152778236238
 20
-52.62500002334374
 30
0.0
 10
150.3015693246388
 20
-52.62500002334374
 30
0.0
 10
147.6152778236236
 20
-49.93870852232926
 30
0.0
 10
147.6152778236236
 20
-46.62500002334481
 30
0.0
 10
147.6152778236236
 20
-46.62500002334481
 30
0.0
 10
147.6152778236236
 20
-41.82115244604405
 30
0.0
 10
147.6152778236236
 20
-41.82115244604405
 30
0.0
 10
147.6152778236236
 20
-40.35974593659058
 30
0.0
 10
148.1486482765288
 20
-38.94858036153516
 30
0.0
 10
149.1152778236259
 20
-37.85252547944506
 30
0.0
 10
150.0819073707185
 20
-36.75647059735368
 30
0.0
 10
150.6152778236237
 20
-35.34530502229825
 30
0.0
 10
150.6152778236237
 20
-33.88389851284349
 30
0.0
 10
150.6152778236237
 20
-33.88389851284349
 30
0.0
 10
150.6152778236237
 20
98.37499997540642
 30
0.0
 10
150.6152778236237
 20
98.37499997540642
 30
0.0
 10
150.6152778236237
 20
98.37499997540642
 30
0.0
 10
182.6152778236236
 20
98.37499997540642
 30
0.0
 10
182.6152778236236
 20
98.37499997540642
 30
0.0
 10
182.6152778236236
 20
98.37499997540642
 30
0.0
 10
182.6152778236236
 20
-33.88389851284349
 30
0.0
 10
182.6152778236236
 20
-33.88389851284349
 30
0.0
 10
182.6152778236236
 20
-35.34530502229825
 30
0.0
 10
183.1486482765288
 20
-36.75647059735368
 30
0.0
 10
184.115277823622
 20
-37.85252547944506
 30
0.0
 10
185.0819073707185
 20
-38.94858036153516
 30
0.0
 10
185.6152778236237
 20
-40.35974593659058
 30
0.0
 10
185.6152778236237
 20
-41.82115244604405
 30
0.0
  0
SPLINE
  5
4C
330
1F
100
AcDbEntity
  8
top
 62
     1
370
    25
100
AcDbSpline
210
0.0
220
0.0
230
1.0
 70
    11
 71
     3
 72
    29
 73
    25
 74
     0
 42
0.0000000001
 43
0.0000000001
 12
1.0
 22
0.0
 32
0.0
 13
1.0
 23
0.0
 33
0.0
 40
0.0
 40
0.0
 40
0.0
 40
0.0
 40
1.0
 40
1.0
 40
1.0
 40
2.0
 40
2.0
 40
2.0
 40
3.0
 40
3.0
 40
3.0
 40
4.0
 40
4.0
 40
4.0
 40
5.0
 40
5.0
 40
5.0
 40
6.0
 40
6.0
 40
6.0
 40
7.0
 40
7.0
 40
7.0
 40
8.0
 40
8.0
 40
8.0
 40
8.0
 10
151.1153238554504
 20
-40.33491932702191
 30
0.0
 10
151.1153238554504
 20
-40.33491932702191
 30
0.0
 10
151.1153238554504
 20
85.82499997854534
 30
0.0
 10
151.1153238554504
 20
85.82499997854534
 30
0.0
 10
151.1153238554504
 20
92.45241697485801
 30
0.0
 10
156.4879068561375
 20
97.82499997554517
 30
0.0
 10
163.1153238524502
 20
97.82499997554517
 30
0.0
 10
163.1153238524502
 20
97.82499997554517
 30
0.0
 10
170.1153265633741
 20
97.82499997554517
 30
0.0
 10
170.1153265633741
 20
97.82499997554517
 30
0.0
 10
176.7427435596868
 20
97.82499997554517
 30
0.0
 10
182.1153265603739
 20
92.45241697485801
 30
0.0
 10
182.1153265603739
 20
85.82499997854534
 30
0.0
 10
182.1153265603739
 20
85.82499997854534
 30
0.0
 10
182.1153265603739
 20
-40.33491932702191
 30
0.0
 10
182.1153265603739
 20
-40.33491932702191
 30
0.0
 10
182.1153265603739
 20
-46.96233632333458
 30
0.0
 10
176.7427435596868
 20
-52.33491932402175
 30
0.0
 10
170.1153265633741
 20
-52.33491932402175
 30
0.0
 10
170.1153265633741
 20
-52.33491932402175
 30
0.0
 10
163.1153238524502
 20
-52.33491932402175
 30
0.0
 10
163.1153238524502
 20
-52.33491932402175
 30
0.0
 10
156.4879068561375
 20
-52.33491932402175
 30
0.0
 10
151.1153238554504
 20
-46.96233632333458
 30
0.0
 10
151.1153238554504
 20
-40.33491932702191
 30
0.0
  0
SPLINE
  5
4D
330
1F
100
AcDbEntity
  8
top
 62
     2
370
    25
100
AcDbSpline
210
0.0
220
0.0
230
1.0
 70
    11
 71
     3
 72
    62
 73
    58
 74
     0
 42
0.0000000001
 43
0.0000000001
 12
1.0
 22
0.0
 32
0.0
 13
1.0
 23
0.0
 33
0.0
 40
0.0
 40
0.0
 40
0.0
 40
0.0
 40
1.0
 40
1.0
 40
1.0
 40
2.0
 40
2.0
 40
2.0
 40
3.0
 40
3.0
 40
3.0
 40
4.0
 40
4.0
 40
4.0
 40
5.0
 40
5.0
 40
5.0
 40
6.0
 40
6.0
 40
6.0
 40
7.0
 40
7.0
 40
7.0
 40
8.0
 40
8.0
 40
8.0
 40
9.0
 40
9.0
 40
9.0
 40
10.0
 40
10.0
 40
10.0
 40
11.0
 40
11.0
 40
11.0
 40
12.0
 40
12.0
 40
12.0
 40
13.0
 40
13.0
 40
13.0
 40
14.0
 40
14.0
 40
14.0
 40
15.0
 40
15.0
 40
15.0
 40
16.0
 40
16.0
 40
16.0
 40
17.0
 40
17.0
 40
17.0
 40
18.0
 40
18.0
 40
18.0
 40
19.0
 40
19.0
 40
19.0
 40
19.0
 10
137.1152794864198
 20
36.87501014393118
 30
0.0
 10
137.1152794864198
 20
36.87501014393118
 30
0.0
 10
132.813324158448
 20
36.87501014393118
 30
0.0
 10
132.813324158448
 20
36.87501014393118
 30
0.0
 10
131.3004966034876
 20
36.87501014393118
 30
0.0
 10
129.8435011272351
 20
37.44648688939379
 30
0.0
 10
128.7340942535976
 20
38.47499861466834
 30
0.0
 10
128.7340942535976
 20
38.47499861466834
 30
0.0
 10
128.7358168013402
 20
38.47103675486031
 30
0.0
 10
128.7358168013402
 20
38.47103675486031
 30
0.0
 10
127.1297348179635
 20
39.96203101718415
 30
0.0
 10
124.9795861300787
 20
40.87500285262086
 30
0.0
 10
122.6152816940921
 20
40.87500285262086
 30
0.0
 10
120.2509557262587
 20
40.87500285262086
 30
0.0
 10
118.1007855065271
 20
39.96203101718415
 30
0.0
 10
116.4947035231505
 20
38.47101522301352
 30
0.0
 10
116.4947035231505
 20
38.47101522301352
 30
0.0
 10
116.4964476027399
 20
38.47499861466834
 30
0.0
 10
116.4964476027399
 20
38.47499861466834
 30
0.0
 10
115.3870407291023
 20
37.44648688939379
 30
0.0
 10
113.9300667846966
 20
36.87501014393118
 30
0.0
 10
112.4172392297362
 20
36.87501014393118
 30
0.0
 10
112.4172392297362
 20
36.87501014393118
 30
0.0
 10
108.1152839017644
 20
36.87501014393118
 30
0.0
 10
108.1152839017644
 20
36.87501014393118
 30
0.0
 10
104.8015757455833
 20
36.87501014393118
 30
0.0
 10
102.1152840728065
 20
34.18871847115441
 30
0.0
 10
102.1152840728065
 20
30.87501031497329
 30
0.0
 10
102.1152840728065
 20
30.87501031497329
 30
0.0
 10
102.1152840728065
 20
-39.12500204410006
 30
0.0
 10
102.1152840728065
 20
-39.12500204410006
 30
0.0
 10
102.1152840728065
 20
-42.43871020028119
 30
0.0
 10
104.8015757455833
 20
-45.12500187305796
 30
0.0
 10
108.1152839017644
 20
-45.12500187305796
 30
0.0
 10
108.1152839017644
 20
-45.12500187305796
 30
0.0
 10
112.4172392297362
 20
-45.12500187305796
 30
0.0
 10
112.4172392297362
 20
-45.12500187305796
 30
0.0
 10
113.9300667846966
 20
-45.12500187305796
 30
0.0
 10
115.3870407291023
 20
-45.69647861852056
 30
0.0
 10
116.4964476027399
 20
-46.72499034379512
 30
0.0
 10
119.9480887694117
 20
-49.92498881711621
 30
0.0
 10
125.2824530869257
 20
-49.92498881711621
 30
0.0
 10
128.7340942535976
 20
-46.72499034379512
 30
0.0
 10
129.8435011272351
 20
-45.69647861852056
 30
0.0
 10
131.3004966034876
 20
-45.12500187305796
 30
0.0
 10
132.813324158448
 20
-45.12500187305796
 30
0.0
 10
132.813324158448
 20
-45.12500187305796
 30
0.0
 10
137.1152794864198
 20
-45.12500187305796
 30
0.0
 10
137.1152794864198
 20
-45.12500187305796
 30
0.0
 10
140.4289876426009
 20
-45.12500187305796
 30
0.0
 10
143.1152793153777
 20
-42.43871020028119
 30
0.0
 10
143.1152793153777
 20
-39.12500204410006
 30
0.0
 10
143.1152793153777
 20
-39.12500204410006
 30
0.0
 10
143.1152793153777
 20
30.87501031497329
 30
0.0
 10
143.1152793153777
 20
30.87501031497329
 30
0.0
 10
143.1152793153777
 20
34.18871847115441
 30
0.0
 10
140.4289876426009
 20
36.87501014393118
 30
0.0
 10
137.1152794864198
 20
36.87501014393118
 30
0.0
  0
SPLINE
  5
4E
330
1F
100
AcDbEntity
  8
top
 62
     2
370
    25
100
AcDbSpline
210
0.0
220
0.0
230
1.0
 70
    11
 71
     3
 72
    62
 73
    58
 74
     0
 42
0.0000000001
 43
0.0000000001
 12
1.0
 22
0.0
 32
0.0
 13
1.0
 23
0.0
 33
0.0
 40
0.0
 40
0.0
 40
0.0
 40
0.0
 40
1.0
 40
1.0
 40
1.0
 40
2.0
 40
2.0
 40
2.0
 40
3.0
 40
3.0
 40
3.0
 40
4.0
 40
4.0
 40
4.0
 40
5.0
 40
5.0
 40
5.0
 40
6.0
 40
6.0
 40
6.0
 40
7.0
 40
7.0
 40
7.0
 40
8.0
 40
8.0
 40
8.0
 40
9.0
 40
9.0
 40
9.0
 40
10.0
 40
10.0
 40
10.0
 40
11.0
 40
11.0
 40
11.0
 40
12.0
 40
12.0
 40
12.0
 40
13.0
 40
13.0
 40
13.0
 40
14.0
 40
14.0
 40
14.0
 40
15.0
 40
15.0
 40
15.0
 40
16.0
 40
16.0
 40
16.0
 40
17.0
 40
17.0
 40
17.0
 40
18.0
 40
18.0
 40
18.0
 40
19.0
 40
19.0
 40
19.0
 40
19.0
 10
-94.88470672267006
 20
36.87501014393118
 30
0.0
 10
-94.88470672267006
 20
36.87501014393118
 30
0.0
 10
-99.18668358248867
 20
36.87501014393118
 30
0.0
 10
-99.18668358248867
 20
36.87501014393118
 30
0.0
 10
-100.699511137449
 20
36.87501014393118
 30
0.0
 10
-102.1564850818547
 20
37.44648688939379
 30
0.0
 10
-103.2658919554923
 20
38.47499861466834
 30
0.0
 10
-103.2658919554923
 20
38.47499861466834
 30
0.0
 10
-103.2641478759029
 20
38.47101522301352
 30
0.0
 10
-103.2641478759029
 20
38.47101522301352
 30
0.0
 10
-104.8702298592796
 20
39.96203101718415
 30
0.0
 10
-107.0204000790111
 20
40.87500285262086
 30
0.0
 10
-109.3847260468445
 20
40.87500285262086
 30
0.0
 10
-111.7490304828315
 20
40.87500285262086
 30
0.0
 10
-113.8991791707159
 20
39.96203101718415
 30
0.0
 10
-115.5052611540926
 20
38.47103675486031
 30
0.0
 10
-115.5052611540926
 20
38.47103675486031
 30
0.0
 10
-115.50353860635
 20
38.47499861466834
 30
0.0
 10
-115.50353860635
 20
38.47499861466834
 30
0.0
 10
-116.6129454799876
 20
37.44648688939379
 30
0.0
 10
-118.0699409562401
 20
36.87501014393118
 30
0.0
 10
-119.5827469793539
 20
36.87501014393118
 30
0.0
 10
-119.5827469793539
 20
36.87501014393118
 30
0.0
 10
-123.8847238391726
 20
36.87501014393118
 30
0.0
 10
-123.8847238391726
 20
36.87501014393118
 30
0.0
 10
-127.1984319953533
 20
36.87501014393118
 30
0.0
 10
-129.8847236681301
 20
34.18871847115441
 30
0.0
 10
-129.8847236681301
 20
30.87501031497329
 30
0.0
 10
-129.8847236681301
 20
30.87501031497329
 30
0.0
 10
-129.8847236681301
 20
-39.12500204410006
 30
0.0
 10
-129.8847236681301
 20
-39.12500204410006
 30
0.0
 10
-129.8847236681301
 20
-42.43871020028119
 30
0.0
 10
-127.1984319953533
 20
-45.12500187305796
 30
0.0
 10
-123.8847238391726
 20
-45.12500187305796
 30
0.0
 10
-123.8847238391726
 20
-45.12500187305796
 30
0.0
 10
-119.5827469793539
 20
-45.12500187305796
 30
0.0
 10
-119.5827469793539
 20
-45.12500187305796
 30
0.0
 10
-118.0699409562401
 20
-45.12500187305796
 30
0.0
 10
-116.6129454799876
 20
-45.69647861852056
 30
0.0
 10
-115.50353860635
 20
-46.72499034379512
 30
0.0
 10
-112.0518974396782
 20
-49.92498881711621
 30
0.0
 10
-106.7175331221641
 20
-49.92498881711621
 30
0.0
 10
-103.2658919554923
 20
-46.72499034379512
 30
0.0
 10
-102.1564850818547
 20
-45.69647861852056
 30
0.0
 10
-100.699511137449
 20
-45.12500187305796
 30
0.0
 10
-99.18668358248867
 20
-45.12500187305796
 30
0.0
 10
-99.18668358248867
 20
-45.12500187305796
 30
0.0
 10
-94.88470672267006
 20
-45.12500187305796
 30
0.0
 10
-94.88470672267006
 20
-45.12500187305796
 30
0.0
 10
-91.57099856648894
 20
-45.12500187305796
 30
0.0
 10
-88.88470689371248
 20
-42.43871020028119
 30
0.0
 10
-88.88470689371248
 20
-39.12500204410006
 30
0.0
 10
-88.88470689371248
 20
-39.12500204410006
 30
0.0
 10
-88.88470689371248
 20
30.87501031497329
 30
0.0
 10
-88.88470689371248
 20
30.87501031497329
 30
0.0
 10
-88.88470689371248
 20
34.18871847115441
 30
0.0
 10
-91.57099856648894
 20
36.87501014393118
 30
0.0
 10
-94.88470672267006
 20
36.87501014393118
 30
0.0
  0
SPLINE
  5
4F
330
1F
100
AcDbEntity
  8
top
 62
     2
370
    25
100
AcDbSpline
210
0.0
220
0.0
230
1.0
 70
    11
 71
     3
 72
    23
 73
    19
 74
     0
 42
0.0000000001
 43
0.0000000001
 12
1.0
 22
0.0
 32
0.0
 13
1.0
 23
0.0
 33
0.0
 40
0.0
 40
0.0
 40
0.0
 40
0.0
 40
1.0
 40
1.0
 40
1.0
 40
2.0
 40
2.0
 40
2.0
 40
3.0
 40
3.0
 40
3.0
 40
4.0
 40
4.0
 40
4.0
 40
5.0
 40
5.0
 40
5.0
 40
6.0
 40
6.0
 40
6.0
 40
6.0
 10
3.970598346988813
 20
45.39092014207476
 30
0.0
 10
1.209174598525146
 20
45.39092014207476
 30
0.0
 10
-1.029401651761334
 20
43.15234389178828
 30
0.0
 10
-1.029401651761334
 20
40.39092014332461
 30
0.0
 10
-1.029401651761334
 20
40.39092014332461
 30
0.0
 10
-1.029401651761334
 20
23.84388083139806
 30
0.0
 10
-1.029401651761334
 20
23.84388083139806
 30
0.0
 10
-1.029401651761334
 20
23.84388083139806
 30
0.0
 10
14.17059647947556
 20
23.84388083139806
 30
0.0
 10
14.17059647947556
 20
23.84388083139806
 30
0.0
 10
14.17059647947556
 20
23.84388083139806
 30
0.0
 10
14.17059647913803
 20
40.39092014342665
 30
0.0
 10
14.17059647913803
 20
40.39092014342665
 30
0.0
 10
14.17059647908156
 20
43.15234389185053
 30
0.0
 10
11.93202022881176
 20
45.39092014207476
 30
0.0
 10
9.17059648038788
 20
45.39092014207476
 30
0.0
 10
9.17059648038788
 20
45.39092014207476
 30
0.0
 10
3.970598346988813
 20
45.39092014207476
 30
0.0
 10
3.970598346988813
 20
45.39092014207476
 30
0.0
  0
SPLINE
  5
50
330
1F
100
AcDbEntity
  8
top
 62
     2
370
    25
100
AcDbSpline
210
0.0
220
0.0
230
1.0
 70
    11
 71
     3
 72
    29
 73
    25
 74
     0
 42
0.0000000001
 43
0.0000000001
 12
1.0
 22
0.0
 32
0.0
 13
1.0
 23
0.0
 33
0.0
 40
0.0
 40
0.0
 40
0.0
 40
0.0
 40
1.0
 40
1.0
 40
1.0
 40
2.0
 40
2.0
 40
2.0
 40
3.0
 40
3.0
 40
3.0
 40
4.0
 40
4.0
 40
4.0
 40
5.0
 40
5.0
 40
5.0
 40
6.0
 40
6.0
 40
6.0
 40
7.0
 40
7.0
 40
7.0
 40
8.0
 40
8.0
 40
8.0
 40
8.0
 10
-101.4032407153879
 20
-44.899074062848
 30
0.0
 10
-101.4032407153879
 20
-44.899074062848
 30
0.0
 10
-117.3847221928739
 20
-44.899074062848
 30
0.0
 10
-117.3847221928739
 20
-44.899074062848
 30
0.0
 10
-123.984722191224
 20
-44.899074062848
 30
0.0
 10
-129.384722189874
 20
-39.49907406419795
 30
0.0
 10
-129.384722189874
 20
-32.89907406584816
 30
0.0
 10
-129.384722189874
 20
-32.89907406584816
 30
0.0
 10
-129.384722189874
 20
24.47499999388283
 30
0.0
 10
-129.384722189874
 20
24.47499999388283
 30
0.0
 10
-129.384722189874
 20
31.07499999223261
 30
0.0
 10
-123.984722191224
 20
36.47499999088267
 30
0.0
 10
-117.3847221928739
 20
36.47499999088267
 30
0.0
 10
-117.3847221928739
 20
36.47499999088267
 30
0.0
 10
-101.4032407153879
 20
36.47499999088267
 30
0.0
 10
-101.4032407153879
 20
36.47499999088267
 30
0.0
 10
-94.80324071703775
 20
36.47499999088267
 30
0.0
 10
-89.40324071838769
 20
31.07499999223261
 30
0.0
 10
-89.40324071838769
 20
24.47499999388283
 30
0.0
 10
-89.40324071838769
 20
24.47499999388283
 30
0.0
 10
-89.40324071838769
 20
-32.89907406584816
 30
0.0
 10
-89.40324071838769
 20
-32.89907406584816
 30
0.0
 10
-89.40324071838769
 20
-39.49907406419795
 30
0.0
 10
-94.80324071703775
 20
-44.899074062848
 30
0.0
 10
-101.4032407153879
 20
-44.899074062848
 30
0.0
  0
ENDSEC
  0
SECTION
  2
OBJECTS
  0
DICTIONARY
  5
C
330
0
100
AcDbDictionary
281
     1
  3
ACAD_GROUP
350
D
  3
ACAD_LAYOUT
350
1A
  3
ACAD_MATERIAL
350
3B
  3
ACAD_MLEADERSTYLE
350
52
  3
ACAD_MLINESTYLE
350
17
  3
ACAD_PLOTSETTINGS
350
19
  3
ACAD_PLOTSTYLENAME
350
E
  3
ACAD_TABLESTYLE
350
51
  3
ACAD_VISUALSTYLE
350
2A
  0
SUN
  5
3F
330
29
100
AcDbSun
 90
        1
290
     0
 63
     7
421
 16777215
 40
1.0
291
     1
 91
  2455826
 92
 54000000
292
     0
 70
     2
 71
   256
280
     1
  0
DICTIONARY
  5
D
102
{ACAD_REACTORS
330
C
102
}
330
C
100
AcDbDictionary
281
     1
  0
DICTIONARY
  5
1A
102
{ACAD_REACTORS
330
C
102
}
330
C
100
AcDbDictionary
281
     1
  3
Layout1
350
1E
  3
Layout2
350
26
  3
Model
350
22
  0
DICTIONARY
  5
3B
102
{ACAD_REACTORS
330
C
102
}
330
C
100
AcDbDictionary
281
     1
  3
ByBlock
350
3D
  3
ByLayer
350
3C
  3
Global
350
3E
  0
DICTIONARY
  5
52
102
{ACAD_REACTORS
330
C
102
}
330
C
100
AcDbDictionary
281
     1
  0
DICTIONARY
  5
17
102
{ACAD_REACTORS
330
C
102
}
330
C
100
AcDbDictionary
281
     1
  3
Standard
350
18
  0
DICTIONARY
  5
19
102
{ACAD_REACTORS
330
C
102
}
330
C
100
AcDbDictionary
281
     1
  0
ACDBDICTIONARYWDFLT
  5
E
102
{ACAD_REACTORS
330
C
102
}
330
C
100
AcDbDictionary
281
     1
  3
Normal
350
F
100
AcDbDictionaryWithDefault
340
F
  0
DICTIONARY
  5
51
102
{ACAD_REACTORS
330
C
102
}
330
C
100
AcDbDictionary
281
     1
  0
DICTIONARY
  5
2A
102
{ACAD_REACTORS
330
C
102
}
330
C
100
AcDbDictionary
281
     1
  3
2dWireframe
350
2F
  3
3D Hidden
350
31
  3
3dWireframe
350
30
  3
Basic
350
32
  3
Brighten
350
36
  3
ColorChange
350
3A
  3
Conceptual
350
34
  3
Dim
350
35
  3
Facepattern
350
39
  3
Flat
350
2B
  3
FlatWithEdges
350
2C
  3
Gouraud
350
2D
  3
GouraudWithEdges
350
2E
  3
Linepattern
350
38
  3
Realistic
350
33
  3
Thicken
350
37
  0
LAYOUT
  5
1E
102
{ACAD_REACTORS
330
1A
102
}
330
1A
100
AcDbPlotSettings
  1

  2
none_device
  4

  6

 40
0.0
 41
0.0
 42
0.0
 43
0.0
 44
0.0
 45
0.0
 46
0.0
 47
0.0
 48
0.0
 49
0.0
140
0.0
141
0.0
142
1.0
143
1.0
 70
   688
 72
     0
 73
     0
 74
     5
  7

 75
    16
 76
     0
 77
     2
 78
   300
147
1.0
148
0.0
149
0.0
100
AcDbLayout
  1
Layout1
 70
     1
 71
     1
 10
0.0
 20
0.0
 11
12.0
 21
9.0
 12
0.0
 22
0.0
 32
0.0
 14
1.000000000000000E+20
 24
1.000000000000000E+20
 34
1.000000000000000E+20
 15
-1.000000000000000E+20
 25
-1.000000000000000E+20
 35
-1.000000000000000E+20
146
0.0
 13
0.0
 23
0.0
 33
0.0
 16
1.0
 26
0.0
 36
0.0
 17
0.0
 27
1.0
 37
0.0
 76
     0
330
1B
  0
LAYOUT
  5
26
102
{ACAD_REACTORS
330
1A
102
}
330
1A
100
AcDbPlotSettings
  1

  2
none_device
  4

  6

 40
0.0
 41
0.0
 42
0.0
 43
0.0
 44
0.0
 45
0.0
 46
0.0
 47
0.0
 48
0.0
 49
0.0
140
0.0
141
0.0
142
1.0
143
1.0
 70
   688
 72
     0
 73
     0
 74
     5
  7

 75
    16
 76
     0
 77
     2
 78
   300
147
1.0
148
0.0
149
0.0
100
AcDbLayout
  1
Layout2
 70
     1
 71
     2
 10
0.0
 20
0.0
 11
0.0
 21
0.0
 12
0.0
 22
0.0
 32
0.0
 14
0.0
 24
0.0
 34
0.0
 15
0.0
 25
0.0
 35
0.0
146
0.0
 13
0.0
 23
0.0
 33
0.0
 16
1.0
 26
0.0
 36
0.0
 17
0.0
 27
1.0
 37
0.0
 76
     0
330
23
  0
LAYOUT
  5
22
102
{ACAD_REACTORS
330
1A
102
}
330
1A
100
AcDbPlotSettings
  1

  2
none_device
  4

  6

 40
0.0
 41
0.0
 42
0.0
 43
0.0
 44
0.0
 45
0.0
 46
0.0
 47
0.0
 48
0.0
 49
0.0
140
0.0
141
0.0
142
1.0
143
1.0
 70
  1712
 72
     0
 73
     0
 74
     0
  7

 75
     0
 76
     0
 77
     2
 78
   300
147
1.0
148
0.0
149
0.0
100
AcDbLayout
  1
Model
 70
     1
 71
     0
 10
0.0
 20
0.0
 11
12.0
 21
9.0
 12
0.0
 22
0.0
 32
0.0
 14
1.000000000000000E+20
 24
1.000000000000000E+20
 34
1.000000000000000E+20
 15
-1.000000000000000E+20
 25
-1.000000000000000E+20
 35
-1.000000000000000E+20
146
0.0
 13
0.0
 23
0.0
 33
0.0
 16
1.0
 26
0.0
 36
0.0
 17
0.0
 27
1.0
 37
0.0
 76
     0
330
1F
331
29
  0
MATERIAL
  5
3D
102
{ACAD_REACTORS
330
3B
102
}
330
3B
100
AcDbMaterial
  1
ByBlock
 72
     1
 94
      127
  0
MATERIAL
  5
3C
102
{ACAD_REACTORS
330
3B
102
}
330
3B
100
AcDbMaterial
  1
ByLayer
 72
     1
 94
      127
  0
MATERIAL
  5
3E
102
{ACAD_REACTORS
330
3B
102
}
330
3B
100
AcDbMaterial
  1
Global
 72
     1
 94
      127
  0
MLINESTYLE
  5
18
102
{ACAD_REACTORS
330
17
102
}
330
17
100
AcDbMlineStyle
  2
Standard
 70
     0
  3

 62
   256
 51
90.0
 52
90.0
 71
     2
 49
0.5
 62
   256
  6
BYLAYER
 49
-0.5
 62
   256
  6
BYLAYER
  0
ACDBPLACEHOLDER
  5
F
102
{ACAD_REACTORS
330
E
102
}
330
E
  0
VISUALSTYLE
  5
2F
102
{ACAD_REACTORS
330
2A
102
}
330
2A
100
AcDbVisualStyle
  2
2dWireframe
 70
     4
177
     2
291
     0
 71
     0
176
     1
 72
     2
176
     1
 73
     0
176
     1
 90
        0
176
     1
 40
-0.6
176
     1
 41
-30.0
176
     1
 62
     5
 63
     7
421
 16777215
176
     1
 74
     1
176
     1
 91
        4
176
     1
 64
     7
176
     1
 65
   257
176
     1
 75
     1
176
     1
175
     1
176
     1
 42
1.0
176
     1
 92
        0
176
     1
 66
   257
176
     1
 43
1.0
176
     1
 76
     1
176
     1
 77
     6
176
     1
 78
     2
176
     1
 67
     7
176
     1
 79
     5
176
     1
170
     0
176
     1
171
     0
176
     1
290
     0
176
     1
 93
        1
176
     1
 44
0.0
176
     1
173
     0
176
     1
  0
VISUALSTYLE
  5
31
102
{ACAD_REACTORS
330
2A
102
}
330
2A
100
AcDbVisualStyle
  2
3D Hidden
 70
     6
177
     2
291
     0
 71
     1
176
     1
 72
     2
176
     1
 73
     2
176
     1
 90
        0
176
     1
 40
-0.6
176
     1
 41
-30.0
176
     1
 62
     5
 63
     7
421
 16777215
176
     1
 74
     2
176
     1
 91
        2
176
     1
 64
     7
176
     1
 65
   257
176
     1
 75
     2
176
     1
175
     1
176
     1
 42
40.0
176
     1
 92
        0
176
     1
 66
   257
176
     1
 43
1.0
176
     1
 76
     1
176
     1
 77
     6
176
     1
 78
     2
176
     1
 67
     7
176
     1
 79
     3
176
     1
170
     0
176
     1
171
     0
176
     1
290
     0
176
     1
 93
        1
176
     1
 44
0.0
176
     1
173
     0
176
     1
  0
VISUALSTYLE
  5
30
102
{ACAD_REACTORS
330
2A
102
}
330
2A
100
AcDbVisualStyle
  2
3dWireframe
 70
     5
177
     2
291
     0
 71
     0
176
     1
 72
     2
176
     1
 73
     0
176
     1
 90
        0
176
     1
 40
-0.6
176
     1
 41
-30.0
176
     1
 62
     5
 63
     7
421
 16777215
176
     1
 74
     1
176
     1
 91
        4
176
     1
 64
     7
176
     1
 65
   257
176
     1
 75
     1
176
     1
175
     1
176
     1
 42
1.0
176
     1
 92
        0
176
     1
 66
   257
176
     1
 43
1.0
176
     1
 76
     1
176
     1
 77
     6
176
     1
 78
     2
176
     1
 67
     7
176
     1
 79
     5
176
     1
170
     0
176
     1
171
     0
176
     1
290
     0
176
     1
 93
        1
176
     1
 44
0.0
176
     1
173
     0
176
     1
  0
VISUALSTYLE
  5
32
102
{ACAD_REACTORS
330
2A
102
}
330
2A
100
AcDbVisualStyle
  2
Basic
 70
     7
177
     2
291
     1
 71
     1
176
     1
 72
     0
176
     1
 73
     1
176
     1
 90
        0
176
     1
 40
-0.6
176
     1
 41
-30.0
176
     1
 62
     5
 63
     7
421
 16777215
176
     1
 74
     0
176
     1
 91
        4
176
     1
 64
     7
176
     1
 65
   257
176
     1
 75
     1
176
     1
175
     1
176
     1
 42
1.0
176
     1
 92
        8
176
     1
 66
     7
176
     1
 43
1.0
176
     1
 76
     1
176
     1
 77
     6
176
     1
 78
     2
176
     1
 67
     7
176
     1
 79
     5
176
     1
170
     0
176
     1
171
     0
176
     1
290
     0
176
     1
 93
        1
176
     1
 44
0.0
176
     1
173
     0
176
     1
  0
VISUALSTYLE
  5
36
102
{ACAD_REACTORS
330
2A
102
}
330
2A
100
AcDbVisualStyle
  2
Brighten
 70
    12
177
     2
291
     1
 71
     2
176
     1
 72
     2
176
     1
 73
     0
176
     1
 90
        0
176
     1
 40
-0.6
176
     1
 41
-30.0
176
     1
 62
     5
 63
     7
421
 16777215
176
     1
 74
     1
176
     1
 91
        4
176
     1
 64
     7
176
     1
 65
   257
176
     1
 75
     1
176
     1
175
     1
176
     1
 42
1.0
176
     1
 92
        8
176
     1
 66
     7
176
     1
 43
1.0
176
     1
 76
     1
176
     1
 77
     6
176
     1
 78
     2
176
     1
 67
     7
176
     1
 79
     5
176
     1
170
     0
176
     1
171
     0
176
     1
290
     0
176
     1
 93
        1
176
     1
 44
50.0
176
     1
173
     0
176
     1
  0
VISUALSTYLE
  5
3A
102
{ACAD_REACTORS
330
2A
102
}
330
2A
100
AcDbVisualStyle
  2
ColorChange
 70
    16
177
     2
291
     1
 71
     2
176
     1
 72
     2
176
     1
 73
     3
176
     1
 90
        0
176
     1
 40
-0.6
176
     1
 41
-30.0
176
     1
 62
     5
 63
     8
421
  8421504
176
     1
 74
     1
176
     1
 91
        4
176
     1
 64
     7
176
     1
 65
   257
176
     1
 75
     1
176
     1
175
     1
176
     1
 42
1.0
176
     1
 92
        8
176
     1
 66
     8
424
  8421504
176
     1
 43
1.0
176
     1
 76
     1
176
     1
 77
     6
176
     1
 78
     2
176
     1
 67
     7
176
     1
 79
     5
176
     1
170
     0
176
     1
171
     0
176
     1
290
     0
176
     1
 93
        1
176
     1
 44
0.0
176
     1
173
     0
176
     1
  0
VISUALSTYLE
  5
34
102
{ACAD_REACTORS
330
2A
102
}
330
2A
100
AcDbVisualStyle
  2
Conceptual
 70
     9
177
     2
291
     0
 71
     3
176
     1
 72
     2
176
     1
 73
     0
176
     1
 90
        0
176
     1
 40
-0.6
176
     1
 41
-30.0
176
     1
 62
     5
 63
     7
421
 16777215
176
     1
 74
     2
176
     1
 91
        2
176
     1
 64
     7
176
     1
 65
   257
176
     1
 75
     1
176
     1
175
     1
176
     1
 42
40.0
176
     1
 92
        8
176
     1
 66
     7
176
     1
 43
1.0
176
     1
 76
     1
176
     1
 77
     6
176
     1
 78
     2
176
     1
 67
     7
176
     1
 79
     3
176
     1
170
     0
176
     1
171
     0
176
     1
290
     0
176
     1
 93
        1
176
     1
 44
0.0
176
     1
173
     0
176
     1
  0
VISUALSTYLE
  5
35
102
{ACAD_REACTORS
330
2A
102
}
330
2A
100
AcDbVisualStyle
  2
Dim
 70
    11
177
     2
291
     1
 71
     2
176
     1
 72
     2
176
     1
 73
     0
176
     1
 90
        0
176
     1
 40
-0.6
176
     1
 41
-30.0
176
     1
 62
     5
 63
     7
421
 16777215
176
     1
 74
     1
176
     1
 91
        4
176
     1
 64
     7
176
     1
 65
   257
176
     1
 75
     1
176
     1
175
     1
176
     1
 42
1.0
176
     1
 92
        8
176
     1
 66
     7
176
     1
 43
1.0
176
     1
 76
     1
176
     1
 77
     6
176
     1
 78
     2
176
     1
 67
     7
176
     1
 79
     5
176
     1
170
     0
176
     1
171
     0
176
     1
290
     0
176
     1
 93
        1
176
     1
 44
-50.0
176
     1
173
     0
176
     1
  0
VISUALSTYLE
  5
39
102
{ACAD_REACTORS
330
2A
102
}
330
2A
100
AcDbVisualStyle
  2
Facepattern
 70
    15
177
     2
291
     1
 71
     2
176
     1
 72
     2
176
     1
 73
     0
176
     1
 90
        0
176
     1
 40
-0.6
176
     1
 41
-30.0
176
     1
 62
     5
 63
     7
421
 16777215
176
     1
 74
     1
176
     1
 91
        4
176
     1
 64
     7
176
     1
 65
   257
176
     1
 75
     1
176
     1
175
     1
176
     1
 42
1.0
176
     1
 92
        8
176
     1
 66
     7
176
     1
 43
1.0
176
     1
 76
     1
176
     1
 77
     6
176
     1
 78
     2
176
     1
 67
     7
176
     1
 79
     5
176
     1
170
     0
176
     1
171
     0
176
     1
290
     0
176
     1
 93
        1
176
     1
 44
0.0
176
     1
173
     0
176
     1
  0
VISUALSTYLE
  5
2B
102
{ACAD_REACTORS
330
2A
102
}
330
2A
100
AcDbVisualStyle
  2
Flat
 70
     0
177
     2
291
     1
 71
     2
176
     1
 72
     1
176
     1
 73
     1
176
     1
 90
        2
176
     1
 40
-0.6
176
     1
 41
30.0
176
     1
 62
     5
 63
     7
421
 16777215
176
     1
 74
     0
176
     1
 91
        4
176
     1
 64
     7
176
     1
 65
   257
176
     1
 75
     1
176
     1
175
     1
176
     1
 42
1.0
176
     1
 92
        8
176
     1
 66
     7
176
     1
 43
1.0
176
     1
 76
     1
176
     1
 77
     6
176
     1
 78
     2
176
     1
 67
     7
176
     1
 79
     5
176
     1
170
     0
176
     1
171
     0
176
     1
290
     0
176
     1
 93
       13
176
     1
 44
0.0
176
     1
173
     0
176
     1
  0
VISUALSTYLE
  5
2C
102
{ACAD_REACTORS
330
2A
102
}
330
2A
100
AcDbVisualStyle
  2
FlatWithEdges
 70
     1
177
     2
291
     1
 71
     2
176
     1
 72
     1
176
     1
 73
     1
176
     1
 90
        2
176
     1
 40
-0.6
176
     1
 41
30.0
176
     1
 62
     5
 63
     7
421
 16777215
176
     1
 74
     1
176
     1
 91
        4
176
     1
 64
     7
176
     1
 65
   257
176
     1
 75
     1
176
     1
175
     1
176
     1
 42
1.0
176
     1
 92
        0
176
     1
 66
   257
176
     1
 43
1.0
176
     1
 76
     1
176
     1
 77
     6
176
     1
 78
     2
176
     1
 67
     7
176
     1
 79
     5
176
     1
170
     0
176
     1
171
     0
176
     1
290
     0
176
     1
 93
       13
176
     1
 44
0.0
176
     1
173
     0
176
     1
  0
VISUALSTYLE
  5
2D
102
{ACAD_REACTORS
330
2A
102
}
330
2A
100
AcDbVisualStyle
  2
Gouraud
 70
     2
177
     2
291
     1
 71
     2
176
     1
 72
     2
176
     1
 73
     1
176
     1
 90
        2
176
     1
 40
-0.6
176
     1
 41
30.0
176
     1
 62
     5
 63
     7
421
 16777215
176
     1
 74
     0
176
     1
 91
        4
176
     1
 64
     7
176
     1
 65
   257
176
     1
 75
     1
176
     1
175
     1
176
     1
 42
1.0
176
     1
 92
        0
176
     1
 66
     7
176
     1
 43
1.0
176
     1
 76
     1
176
     1
 77
     6
176
     1
 78
     2
176
     1
 67
     7
176
     1
 79
     5
176
     1
170
     0
176
     1
171
     0
176
     1
290
     0
176
     1
 93
       13
176
     1
 44
0.0
176
     1
173
     0
176
     1
  0
VISUALSTYLE
  5
2E
102
{ACAD_REACTORS
330
2A
102
}
330
2A
100
AcDbVisualStyle
  2
GouraudWithEdges
 70
     3
177
     2
291
     1
 71
     2
176
     1
 72
     2
176
     1
 73
     1
176
     1
 90
        2
176
     1
 40
-0.6
176
     1
 41
30.0
176
     1
 62
     5
 63
     7
421
 16777215
176
     1
 74
     1
176
     1
 91
        4
176
     1
 64
     7
176
     1
 65
   257
176
     1
 75
     1
176
     1
175
     1
176
     1
 42
1.0
176
     1
 92
        0
176
     1
 66
   257
176
     1
 43
1.0
176
     1
 76
     1
176
     1
 77
     6
176
     1
 78
     2
176
     1
 67
     7
176
     1
 79
     5
176
     1
170
     0
176
     1
171
     0
176
     1
290
     0
176
     1
 93
       13
176
     1
 44
0.0
176
     1
173
     0
176
     1
  0
VISUALSTYLE
  5
38
102
{ACAD_REACTORS
330
2A
102
}
330
2A
100
AcDbVisualStyle
  2
Linepattern
 70
    14
177
     2
291
     1
 71
     2
176
     1
 72
     2
176
     1
 73
     0
176
     1
 90
        0
176
     1
 40
-0.6
176
     1
 41
-30.0
176
     1
 62
     5
 63
     7
421
 16777215
176
     1
 74
     1
176
     1
 91
        4
176
     1
 64
     7
176
     1
 65
   257
176
     1
 75
     7
176
     1
175
     7
176
     1
 42
1.0
176
     1
 92
        8
176
     1
 66
     7
176
     1
 43
1.0
176
     1
 76
     1
176
     1
 77
     6
176
     1
 78
     2
176
     1
 67
     7
176
     1
 79
     5
176
     1
170
     0
176
     1
171
     0
176
     1
290
     0
176
     1
 93
        1
176
     1
 44
0.0
176
     1
173
     0
176
     1
  0
VISUALSTYLE
  5
33
102
{ACAD_REACTORS
330
2A
102
}
330
2A
100
AcDbVisualStyle
  2
Realistic
 70
     8
177
     2
291
     0
 71
     2
176
     1
 72
     2
176
     1
 73
     0
176
     1
 90
        0
176
     1
 40
-0.6
176
     1
 41
-30.0
176
     1
 62
     5
 63
     7
421
 16777215
176
     1
 74
     1
176
     1
 91
        0
176
     1
 64
     7
176
     1
 65
   257
176
     1
 75
     1
176
     1
175
     1
176
     1
 42
1.0
176
     1
 92
        8
176
     1
 66
     8
424
  7895160
176
     1
 43
1.0
176
     1
 76
     1
176
     1
 77
     6
176
     1
 78
     2
176
     1
 67
     7
176
     1
 79
     5
176
     1
170
     0
176
     1
171
     0
176
     1
290
     0
176
     1
 93
       13
176
     1
 44
0.0
176
     1
173
     0
176
     1
  0
VISUALSTYLE
  5
37
102
{ACAD_REACTORS
330
2A
102
}
330
2A
100
AcDbVisualStyle
  2
Thicken
 70
    13
177
     2
291
     1
 71
     2
176
     1
 72
     2
176
     1
 73
     0
176
     1
 90
        0
176
     1
 40
-0.6
176
     1
 41
-30.0
176
     1
 62
     5
 63
     7
421
 16777215
176
     1
 74
     1
176
     1
 91
        4
176
     1
 64
     7
176
     1
 65
   257
176
     1
 75
     1
176
     1
175
     1
176
     1
 42
1.0
176
     1
 92
       12
176
     1
 66
     7
176
     1
 43
1.0
176
     1
 76
     1
176
     1
 77
     6
176
     1
 78
     2
176
     1
 67
     7
176
     1
 79
     5
176
     1
170
     0
176
     1
171
     0
176
     1
290
     0
176
     1
 93
        1
176
     1
 44
0.0
176
     1
173
     0
176
     1
  0
ENDSEC
  0
EOF
