  0
SECTION
  2
HEADER
  9
$ACADVER
  1
AC1024
  9
$ACADMAINTVER
 70
     6
  9
$DWGCODEPAGE
  3
UNDEFINED
  9
$INSBASE
 10
0.0
 20
0.0
 30
0.0
  9
$EXTMIN
 10
1.000000000000000E+20
 20
1.000000000000000E+20
 30
1.000000000000000E+20
  9
$EXTMAX
 10
-1.000000000000000E+20
 20
-1.000000000000000E+20
 30
-1.000000000000000E+20
  9
$LIMMIN
 10
0.0
 20
0.0
  9
$LIMMAX
 10
12.0
 20
9.0
  9
$ORTHOMODE
 70
     0
  9
$REGENMODE
 70
     1
  9
$FILLMODE
 70
     1
  9
$QTEXTMODE
 70
     0
  9
$MIRRTEXT
 70
     1
  9
$LTSCALE
 40
1.0
  9
$ATTMODE
 70
     1
  9
$TEXTSIZE
 40
0.2
  9
$TRACEWID
 40
0.05
  9
$TEXTSTYLE
  7
Standard
  9
$CLAYER
  8
0
  9
$CELTYPE
  6
ByLayer
  9
$CECOLOR
 62
   256
  9
$CELTSCALE
 40
1.0
  9
$DISPSILH
 70
     0
  9
$DIMSCALE
 40
1.0
  9
$DIMASZ
 40
0.18
  9
$DIMEXO
 40
0.0625
  9
$DIMDLI
 40
0.38
  9
$DIMRND
 40
0.0
  9
$DIMDLE
 40
0.0
  9
$DIMEXE
 40
0.18
  9
$DIMTP
 40
0.0
  9
$DIMTM
 40
0.0
  9
$DIMTXT
 40
0.18
  9
$DIMCEN
 40
0.09
  9
$DIMTSZ
 40
0.0
  9
$DIMTOL
 70
     0
  9
$DIMLIM
 70
     0
  9
$DIMTIH
 70
     1
  9
$DIMTOH
 70
     1
  9
$DIMSE1
 70
     0
  9
$DIMSE2
 70
     0
  9
$DIMTAD
 70
     0
  9
$DIMZIN
 70
     0
  9
$DIMBLK
  1

  9
$DIMASO
 70
     1
  9
$DIMSHO
 70
     1
  9
$DIMPOST
  1

  9
$DIMAPOST
  1

  9
$DIMALT
 70
     0
  9
$DIMALTD
 70
     2
  9
$DIMALTF
 40
25.4
  9
$DIMLFAC
 40
1.0
  9
$DIMTOFL
 70
     0
  9
$DIMTVP
 40
0.0
  9
$DIMTIX
 70
     0
  9
$DIMSOXD
 70
     0
  9
$DIMSAH
 70
     0
  9
$DIMBLK1
  1

  9
$DIMBLK2
  1

  9
$DIMSTYLE
  2
Standard
  9
$DIMCLRD
 70
     0
  9
$DIMCLRE
 70
     0
  9
$DIMCLRT
 70
     0
  9
$DIMTFAC
 40
1.0
  9
$DIMGAP
 40
0.09
  9
$DIMJUST
 70
     0
  9
$DIMSD1
 70
     0
  9
$DIMSD2
 70
     0
  9
$DIMTOLJ
 70
     1
  9
$DIMTZIN
 70
     0
  9
$DIMALTZ
 70
     0
  9
$DIMALTTZ
 70
     0
  9
$DIMUPT
 70
     0
  9
$DIMDEC
 70
     4
  9
$DIMTDEC
 70
     4
  9
$DIMALTU
 70
     2
  9
$DIMALTTD
 70
     2
  9
$DIMTXSTY
  7
Standard
  9
$DIMAUNIT
 70
     0
  9
$DIMADEC
 70
     0
  9
$DIMALTRND
 40
0.0
  9
$DIMAZIN
 70
     0
  9
$DIMDSEP
 70
    46
  9
$DIMATFIT
 70
     3
  9
$DIMFRAC
 70
     0
  9
$DIMLDRBLK
  1

  9
$DIMLUNIT
 70
     2
  9
$DIMLWD
 70
    -2
  9
$DIMLWE
 70
    -2
  9
$DIMTMOVE
 70
     0
  9
$DIMFXL
 40
1.0
  9
$DIMFXLON
 70
     0
  9
$DIMJOGANG
 40
0.7853981633974483
  9
$DIMTFILL
 70
     0
  9
$DIMTFILLCLR
 70
     0
  9
$DIMARCSYM
 70
     0
  9
$DIMLTYPE
  6

  9
$DIMLTEX1
  6

  9
$DIMLTEX2
  6

  9
$DIMTXTDIRECTION
 70
     0
  9
$LUNITS
 70
     2
  9
$LUPREC
 70
     4
  9
$SKETCHINC
 40
0.1
  9
$FILLETRAD
 40
0.5
  9
$AUNITS
 70
     0
  9
$AUPREC
 70
     0
  9
$MENU
  1
.
  9
$ELEVATION
 40
0.0
  9
$PELEVATION
 40
0.0
  9
$THICKNESS
 40
0.0
  9
$LIMCHECK
 70
     0
  9
$CHAMFERA
 40
0.5
  9
$CHAMFERB
 40
0.5
  9
$CHAMFERC
 40
1.0
  9
$CHAMFERD
 40
0.0
  9
$SKPOLY
 70
     0
  9
$TDCREATE
 40
2458337.498263877
  9
$TDUCREATE
 40
2458337.456597222
  9
$TDUPDATE
 40
2458337.498263877
  9
$TDUUPDATE
 40
2458337.456597222
  9
$TDINDWG
 40
0.0000000116
  9
$TDUSRTIMER
 40
0.0000000116
  9
$USRTIMER
 70
     1
  9
$ANGBASE
 50
0.0
  9
$ANGDIR
 70
     0
  9
$PDMODE
 70
     0
  9
$PDSIZE
 40
0.0
  9
$PLINEWID
 40
0.0
  9
$SPLFRAME
 70
     0
  9
$SPLINETYPE
 70
     6
  9
$SPLINESEGS
 70
     8
  9
$HANDSEED
  5
7E
  9
$SURFTAB1
 70
     6
  9
$SURFTAB2
 70
     6
  9
$SURFTYPE
 70
     6
  9
$SURFU
 70
     6
  9
$SURFV
 70
     6
  9
$UCSBASE
  2

  9
$UCSNAME
  2

  9
$UCSORG
 10
0.0
 20
0.0
 30
0.0
  9
$UCSXDIR
 10
1.0
 20
0.0
 30
0.0
  9
$UCSYDIR
 10
0.0
 20
1.0
 30
0.0
  9
$UCSORTHOREF
  2

  9
$UCSORTHOVIEW
 70
     0
  9
$UCSORGTOP
 10
0.0
 20
0.0
 30
0.0
  9
$UCSORGBOTTOM
 10
0.0
 20
0.0
 30
0.0
  9
$UCSORGLEFT
 10
0.0
 20
0.0
 30
0.0
  9
$UCSORGRIGHT
 10
0.0
 20
0.0
 30
0.0
  9
$UCSORGFRONT
 10
0.0
 20
0.0
 30
0.0
  9
$UCSORGBACK
 10
0.0
 20
0.0
 30
0.0
  9
$PUCSBASE
  2

  9
$PUCSNAME
  2

  9
$PUCSORG
 10
0.0
 20
0.0
 30
0.0
  9
$PUCSXDIR
 10
1.0
 20
0.0
 30
0.0
  9
$PUCSYDIR
 10
0.0
 20
1.0
 30
0.0
  9
$PUCSORTHOREF
  2

  9
$PUCSORTHOVIEW
 70
     0
  9
$PUCSORGTOP
 10
0.0
 20
0.0
 30
0.0
  9
$PUCSORGBOTTOM
 10
0.0
 20
0.0
 30
0.0
  9
$PUCSORGLEFT
 10
0.0
 20
0.0
 30
0.0
  9
$PUCSORGRIGHT
 10
0.0
 20
0.0
 30
0.0
  9
$PUCSORGFRONT
 10
0.0
 20
0.0
 30
0.0
  9
$PUCSORGBACK
 10
0.0
 20
0.0
 30
0.0
  9
$USERI1
 70
     0
  9
$USERI2
 70
     0
  9
$USERI3
 70
     0
  9
$USERI4
 70
     0
  9
$USERI5
 70
     0
  9
$USERR1
 40
0.0
  9
$USERR2
 40
0.0
  9
$USERR3
 40
0.0
  9
$USERR4
 40
0.0
  9
$USERR5
 40
0.0
  9
$WORLDVIEW
 70
     1
  9
$SHADEDGE
 70
     3
  9
$SHADEDIF
 70
    70
  9
$TILEMODE
 70
     1
  9
$MAXACTVP
 70
    64
  9
$PINSBASE
 10
0.0
 20
0.0
 30
0.0
  9
$PLIMCHECK
 70
     0
  9
$PEXTMIN
 10
1.000000000000000E+20
 20
1.000000000000000E+20
 30
1.000000000000000E+20
  9
$PEXTMAX
 10
-1.000000000000000E+20
 20
-1.000000000000000E+20
 30
-1.000000000000000E+20
  9
$PLIMMIN
 10
0.0
 20
0.0
  9
$PLIMMAX
 10
12.0
 20
9.0
  9
$UNITMODE
 70
     0
  9
$VISRETAIN
 70
     1
  9
$PLINEGEN
 70
     0
  9
$PSLTSCALE
 70
     1
  9
$TREEDEPTH
 70
  3020
  9
$CMLSTYLE
  2
Standard
  9
$CMLJUST
 70
     0
  9
$CMLSCALE
 40
1.0
  9
$PROXYGRAPHICS
 70
     1
  9
$MEASUREMENT
 70
     0
  9
$CELWEIGHT
370
    -1
  9
$ENDCAPS
280
     0
  9
$JOINSTYLE
280
     0
  9
$LWDISPLAY
290
     1
  9
$INSUNITS
 70
     1
  9
$HYPERLINKBASE
  1

  9
$STYLESHEET
  1

  9
$XEDIT
290
     1
  9
$CEPSNTYPE
380
     0
  9
$PSTYLEMODE
290
     1
  9
$FINGERPRINTGUID
  2
{276CEAD7-ECA2-108A-A0E4-DAB0BBC1F81E}
  9
$VERSIONGUID
  2
{FAEB1C32-E019-11D5-929B-00C0DF256EC4}
  9
$EXTNAMES
290
     1
  9
$PSVPSCALE
 40
0.0
  9
$OLESTARTUP
290
     0
  9
$SORTENTS
280
   127
  9
$INDEXCTL
280
     0
  9
$HIDETEXT
280
     1
  9
$XCLIPFRAME
280
     2
  9
$HALOGAP
280
     0
  9
$OBSCOLOR
 70
   257
  9
$OBSLTYPE
280
     0
  9
$INTERSECTIONDISPLAY
280
     0
  9
$INTERSECTIONCOLOR
 70
   257
  9
$DIMASSOC
280
     2
  9
$PROJECTNAME
  1

  9
$CAMERADISPLAY
290
     0
  9
$LENSLENGTH
 40
50.0
  9
$CAMERAHEIGHT
 40
0.0
  9
$STEPSPERSEC
 40
2.0
  9
$STEPSIZE
 40
6.0
  9
$3DDWFPREC
 40
2.0
  9
$PSOLWIDTH
 40
0.25
  9
$PSOLHEIGHT
 40
4.0
  9
$LOFTANG1
 40
1.570796326794897
  9
$LOFTANG2
 40
1.570796326794897
  9
$LOFTMAG1
 40
0.0
  9
$LOFTMAG2
 40
0.0
  9
$LOFTPARAM
 70
     7
  9
$LOFTNORMALS
280
     1
  9
$LATITUDE
 40
37.795
  9
$LONGITUDE
 40
-122.394
  9
$NORTHDIRECTION
 40
0.0
  9
$TIMEZONE
 70
 -8000
  9
$LIGHTGLYPHDISPLAY
280
     1
  9
$TILEMODELIGHTSYNCH
280
     1
  9
$CMATERIAL
347
3C
  9
$SOLIDHIST
280
     1
  9
$SHOWHIST
280
     1
  9
$DWFFRAME
280
     2
  9
$DGNFRAME
280
     2
  9
$REALWORLDSCALE
290
     1
  9
$INTERFERECOLOR
 62
   256
  9
$CSHADOW
280
     0
  9
$SHADOWPLANELOCATION
 40
0.0
  0
ENDSEC
  0
SECTION
  2
CLASSES
  0
CLASS
  1
ACDBDICTIONARYWDFLT
  2
AcDbDictionaryWithDefault
  3
ObjectDBX Classes
 90
        0
 91
        4
280
     0
281
     0
  0
CLASS
  1
VISUALSTYLE
  2
AcDbVisualStyle
  3
ObjectDBX Classes
 90
     4095
 91
        4
280
     0
281
     0
  0
CLASS
  1
MATERIAL
  2
AcDbMaterial
  3
ObjectDBX Classes
 90
     1153
 91
        4
280
     0
281
     0
  0
CLASS
  1
SUN
  2
AcDbSun
  3
SCENEOE
 90
     1024
 91
        4
280
     0
281
     0
  0
ENDSEC
  0
SECTION
  2
TABLES
  0
TABLE
  2
VPORT
  5
8
330
0
100
AcDbSymbolTable
 70
     1
  0
VPORT
  5
29
330
8
100
AcDbSymbolTableRecord
100
AcDbViewportTableRecord
  2
*Active
 70
     0
 10
0.0
 20
0.0
 11
1.0
 21
1.0
 12
0.0
 22
0.0
 13
0.0
 23
0.0
 14
0.5
 24
0.5
 15
0.5
 25
0.5
 16
0.0
 26
0.0
 36
1.0
 17
8.202777775726744
 27
15.55138888500116
 37
0.0
 40
165.9999999585001
 41
2.361445783132529
 42
50.0
 43
0.0
 44
0.0
 50
0.0
 51
0.0
 71
     0
 72
   100
 73
     1
 74
     3
 75
     0
 76
     0
 77
     0
 78
     0
281
     0
 65
     1
110
0.0
120
0.0
130
0.0
111
1.0
121
0.0
131
0.0
112
0.0
122
1.0
132
0.0
 79
     0
146
0.0
 60
     3
 61
     5
292
     1
282
     1
141
0.0
142
0.0
 63
   250
361
3F
  0
ENDTAB
  0
TABLE
  2
LTYPE
  5
5
330
0
100
AcDbSymbolTable
 70
     1
  0
LTYPE
  5
14
330
5
100
AcDbSymbolTableRecord
100
AcDbLinetypeTableRecord
  2
ByBlock
 70
     0
  3

 72
    65
 73
     0
 40
0.0
  0
LTYPE
  5
15
330
5
100
AcDbSymbolTableRecord
100
AcDbLinetypeTableRecord
  2
ByLayer
 70
     0
  3

 72
    65
 73
     0
 40
0.0
  0
LTYPE
  5
16
330
5
100
AcDbSymbolTableRecord
100
AcDbLinetypeTableRecord
  2
Continuous
 70
     0
  3
Solid line
 72
    65
 73
     0
 40
0.0
  0
ENDTAB
  0
TABLE
  2
LAYER
  5
2
330
0
100
AcDbSymbolTable
 70
     7
  0
LAYER
  5
10
330
2
100
AcDbSymbolTableRecord
100
AcDbLayerTableRecord
  2
0
 70
     0
 62
     7
  6
Continuous
370
    -3
390
F
347
3E
  0
LAYER
  5
40
330
2
100
AcDbSymbolTableRecord
100
AcDbLayerTableRecord
  2
-18mm (door)
 70
     0
 62
     7
  6
Continuous
370
    -3
390
F
347
3E
  0
LAYER
  5
56
330
2
100
AcDbSymbolTableRecord
100
AcDbLayerTableRecord
  2
-16mm
 70
     0
 62
     7
  6
Continuous
370
    -3
390
F
347
3E
  0
LAYER
  5
65
330
2
100
AcDbSymbolTableRecord
100
AcDbLayerTableRecord
  2
-15mm
 70
     0
 62
     7
  6
Continuous
370
    -3
390
F
347
3E
  0
LAYER
  5
66
330
2
100
AcDbSymbolTableRecord
100
AcDbLayerTableRecord
  2
-8.5mm
 70
     0
 62
     7
  6
Continuous
370
    -3
390
F
347
3E
  0
LAYER
  5
68
330
2
100
AcDbSymbolTableRecord
100
AcDbLayerTableRecord
  2
-8mm
 70
     0
 62
     7
  6
Continuous
370
    -3
390
F
347
3E
  0
LAYER
  5
6B
330
2
100
AcDbSymbolTableRecord
100
AcDbLayerTableRecord
  2
-5.5mm
 70
     0
 62
     7
  6
Continuous
370
    -3
390
F
347
3E
  0
ENDTAB
  0
TABLE
  2
STYLE
  5
3
330
0
100
AcDbSymbolTable
 70
     1
  0
STYLE
  5
11
330
3
100
AcDbSymbolTableRecord
100
AcDbTextStyleTableRecord
  2
Standard
 70
     0
 40
0.0
 41
1.0
 50
0.0
 71
     0
 42
0.2
  3
txt
  4

  0
ENDTAB
  0
TABLE
  2
VIEW
  5
6
330
0
100
AcDbSymbolTable
 70
     0
  0
ENDTAB
  0
TABLE
  2
UCS
  5
7
330
0
100
AcDbSymbolTable
 70
     0
  0
ENDTAB
  0
TABLE
  2
APPID
  5
9
330
0
100
AcDbSymbolTable
 70
     1
  0
APPID
  5
12
330
9
100
AcDbSymbolTableRecord
100
AcDbRegAppTableRecord
  2
ACAD
 70
     0
  0
ENDTAB
  0
TABLE
  2
DIMSTYLE
  5
A
330
0
100
AcDbSymbolTable
 70
     1
100
AcDbDimStyleTable
  0
DIMSTYLE
105
27
330
A
100
AcDbSymbolTableRecord
100
AcDbDimStyleTableRecord
  2
Standard
 70
     0
178
     0
340
11
  0
ENDTAB
  0
TABLE
  2
BLOCK_RECORD
  5
1
330
0
100
AcDbSymbolTable
 70
    10
  0
BLOCK_RECORD
  5
1F
330
1
100
AcDbSymbolTableRecord
100
AcDbBlockTableRecord
  2
*Model_Space
340
22
 70
     0
280
     1
281
     0
  0
BLOCK_RECORD
  5
1B
330
1
100
AcDbSymbolTableRecord
100
AcDbBlockTableRecord
  2
*Paper_Space
340
1E
 70
     0
280
     1
281
     0
  0
BLOCK_RECORD
  5
23
330
1
100
AcDbSymbolTableRecord
100
AcDbBlockTableRecord
  2
*Paper_Space0
340
26
 70
     0
280
     1
281
     0
  0
BLOCK_RECORD
  5
42
330
1
100
AcDbSymbolTableRecord
100
AcDbBlockTableRecord
  2
block 2
340
0
102
{BLKREFS
331
43
102
}
 70
     0
280
     1
281
     0
  0
BLOCK_RECORD
  5
47
330
1
100
AcDbSymbolTableRecord
100
AcDbBlockTableRecord
  2
block 3
340
0
102
{BLKREFS
331
48
102
}
 70
     0
280
     1
281
     0
  0
BLOCK_RECORD
  5
4C
330
1
100
AcDbSymbolTableRecord
100
AcDbBlockTableRecord
  2
block 4
340
0
102
{BLKREFS
331
4D
102
}
 70
     0
280
     1
281
     0
  0
BLOCK_RECORD
  5
51
330
1
100
AcDbSymbolTableRecord
100
AcDbBlockTableRecord
  2
block 5
340
0
102
{BLKREFS
331
52
102
}
 70
     0
280
     1
281
     0
  0
BLOCK_RECORD
  5
57
330
1
100
AcDbSymbolTableRecord
100
AcDbBlockTableRecord
  2
block 6
340
0
102
{BLKREFS
331
58
102
}
 70
     0
280
     1
281
     0
  0
BLOCK_RECORD
  5
5B
330
1
100
AcDbSymbolTableRecord
100
AcDbBlockTableRecord
  2
block 7
340
0
102
{BLKREFS
331
5C
102
}
 70
     0
280
     1
281
     0
  0
BLOCK_RECORD
  5
60
330
1
100
AcDbSymbolTableRecord
100
AcDbBlockTableRecord
  2
block 8
340
0
102
{BLKREFS
331
61
102
}
 70
     0
280
     1
281
     0
  0
BLOCK_RECORD
  5
6C
330
1
100
AcDbSymbolTableRecord
100
AcDbBlockTableRecord
  2
block 9
340
0
102
{BLKREFS
331
6D
102
}
 70
     0
280
     1
281
     0
  0
BLOCK_RECORD
  5
71
330
1
100
AcDbSymbolTableRecord
100
AcDbBlockTableRecord
  2
block 10
340
0
102
{BLKREFS
331
72
102
}
 70
     0
280
     1
281
     0
  0
ENDTAB
  0
ENDSEC
  0
SECTION
  2
BLOCKS
  0
BLOCK
  5
20
330
1F
100
AcDbEntity
  8
0
100
AcDbBlockBegin
  2
*Model_Space
 70
     0
 10
0.0
 20
0.0
 30
0.0
  3
*Model_Space
  1

  0
ENDBLK
  5
21
330
1F
100
AcDbEntity
  8
0
100
AcDbBlockEnd
  0
BLOCK
  5
1C
330
1B
100
AcDbEntity
 67
     1
  8
0
100
AcDbBlockBegin
  2
*Paper_Space
 70
     0
 10
0.0
 20
0.0
 30
0.0
  3
*Paper_Space
  1

  0
ENDBLK
  5
1D
330
1B
100
AcDbEntity
 67
     1
  8
0
100
AcDbBlockEnd
  0
BLOCK
  5
24
330
23
100
AcDbEntity
  8
0
100
AcDbBlockBegin
  2
*Paper_Space0
 70
     0
 10
0.0
 20
0.0
 30
0.0
  3
*Paper_Space0
  1

  0
ENDBLK
  5
25
330
23
100
AcDbEntity
  8
0
100
AcDbBlockEnd
  0
BLOCK
  5
44
330
42
100
AcDbEntity
  8
0
100
AcDbBlockBegin
  2
block 2
 70
     0
 10
0.0
 20
0.0
 30
0.0
  3
block 2
  1

  0
SPLINE
  5
46
330
42
100
AcDbEntity
  8
-18mm (door)
 62
     3
370
    25
100
AcDbSpline
210
0.0
220
0.0
230
1.0
 70
    11
 71
     3
 72
    20
 73
    16
 74
     0
 42
0.0000000001
 43
0.0000000001
 12
1.0
 22
0.0
 32
0.0
 13
1.0
 23
0.0
 33
0.0
 40
0.0
 40
0.0
 40
0.0
 40
0.0
 40
1.0
 40
1.0
 40
1.0
 40
2.0
 40
2.0
 40
2.0
 40
3.0
 40
3.0
 40
3.0
 40
4.0
 40
4.0
 40
4.0
 40
5.0
 40
5.0
 40
5.0
 40
5.0
 10
-112.7972347703889
 20
-23.9486111344989
 30
0.0
 10
-112.7972347703889
 20
-21.18718738534477
 30
0.0
 10
-110.5586585195429
 20
-18.94861113449873
 30
0.0
 10
-107.7972347703887
 20
-18.94861113449873
 30
0.0
 10
-105.0358110212349
 20
-18.94861113449873
 30
0.0
 10
-102.7972347703889
 20
-21.18718738534477
 30
0.0
 10
-102.7972347703889
 20
-23.9486111344989
 30
0.0
 10
-102.7972347703889
 20
-26.71003488365304
 30
0.0
 10
-105.0358110212349
 20
-28.94861113449908
 30
0.0
 10
-107.7972347703887
 20
-28.94861113449908
 30
0.0
 10
-110.5586585195429
 20
-28.94861113449908
 30
0.0
 10
-112.7972347703889
 20
-26.71003488365304
 30
0.0
 10
-112.7972347703889
 20
-23.9486111344989
 30
0.0
 10
-112.7972347703889
 20
-23.9486111344989
 30
0.0
 10
-112.7972347703889
 20
-23.9486111344989
 30
0.0
 10
-112.7972347703889
 20
-23.9486111344989
 30
0.0
  0
ENDBLK
  5
45
330
42
100
AcDbEntity
  8
0
100
AcDbBlockEnd
  0
BLOCK
  5
49
330
47
100
AcDbEntity
  8
0
100
AcDbBlockBegin
  2
block 3
 70
     0
 10
0.0
 20
0.0
 30
0.0
  3
block 3
  1

  0
SPLINE
  5
4B
330
47
100
AcDbEntity
  8
-18mm (door)
 62
     3
370
    25
100
AcDbSpline
210
0.0
220
0.0
230
1.0
 70
    11
 71
     3
 72
    20
 73
    16
 74
     0
 42
0.0000000001
 43
0.0000000001
 12
1.0
 22
0.0
 32
0.0
 13
1.0
 23
0.0
 33
0.0
 40
0.0
 40
0.0
 40
0.0
 40
0.0
 40
1.0
 40
1.0
 40
1.0
 40
2.0
 40
2.0
 40
2.0
 40
3.0
 40
3.0
 40
3.0
 40
4.0
 40
4.0
 40
4.0
 40
5.0
 40
5.0
 40
5.0
 40
5.0
 10
-112.7972347703889
 20
-38.94861113449879
 30
0.0
 10
-112.7972347703889
 20
-36.18718738534466
 30
0.0
 10
-110.5586585195429
 20
-33.94861113449862
 30
0.0
 10
-107.7972347703887
 20
-33.94861113449862
 30
0.0
 10
-105.0358110212349
 20
-33.94861113449862
 30
0.0
 10
-102.7972347703889
 20
-36.18718738534466
 30
0.0
 10
-102.7972347703889
 20
-38.94861113449879
 30
0.0
 10
-102.7972347703889
 20
-41.71003488365293
 30
0.0
 10
-105.0358110212349
 20
-43.94861113449897
 30
0.0
 10
-107.7972347703887
 20
-43.94861113449897
 30
0.0
 10
-110.5586585195429
 20
-43.94861113449897
 30
0.0
 10
-112.7972347703889
 20
-41.71003488365293
 30
0.0
 10
-112.7972347703889
 20
-38.94861113449879
 30
0.0
 10
-112.7972347703889
 20
-38.94861113449879
 30
0.0
 10
-112.7972347703889
 20
-38.94861113449879
 30
0.0
 10
-112.7972347703889
 20
-38.94861113449879
 30
0.0
  0
ENDBLK
  5
4A
330
47
100
AcDbEntity
  8
0
100
AcDbBlockEnd
  0
BLOCK
  5
4E
330
4C
100
AcDbEntity
  8
0
100
AcDbBlockBegin
  2
block 4
 70
     0
 10
0.0
 20
0.0
 30
0.0
  3
block 4
  1

  0
SPLINE
  5
50
330
4C
100
AcDbEntity
  8
-18mm (door)
 62
     3
370
    25
100
AcDbSpline
210
0.0
220
0.0
230
1.0
 70
    11
 71
     3
 72
    20
 73
    16
 74
     0
 42
0.0000000001
 43
0.0000000001
 12
1.0
 22
0.0
 32
0.0
 13
1.0
 23
0.0
 33
0.0
 40
0.0
 40
0.0
 40
0.0
 40
0.0
 40
1.0
 40
1.0
 40
1.0
 40
2.0
 40
2.0
 40
2.0
 40
3.0
 40
3.0
 40
3.0
 40
4.0
 40
4.0
 40
4.0
 40
5.0
 40
5.0
 40
5.0
 40
5.0
 10
119.2027652296112
 20
-23.9486111344989
 30
0.0
 10
119.2027652296112
 20
-21.18718738534477
 30
0.0
 10
121.4413414804573
 20
-18.94861113449873
 30
0.0
 10
124.2027652296114
 20
-18.94861113449873
 30
0.0
 10
126.9641889787649
 20
-18.94861113449873
 30
0.0
 10
129.2027652296109
 20
-21.18718738534477
 30
0.0
 10
129.2027652296109
 20
-23.9486111344989
 30
0.0
 10
129.2027652296109
 20
-26.71003488365304
 30
0.0
 10
126.9641889787649
 20
-28.94861113449908
 30
0.0
 10
124.2027652296114
 20
-28.94861113449908
 30
0.0
 10
121.4413414804573
 20
-28.94861113449908
 30
0.0
 10
119.2027652296112
 20
-26.71003488365304
 30
0.0
 10
119.2027652296112
 20
-23.9486111344989
 30
0.0
 10
119.2027652296112
 20
-23.9486111344989
 30
0.0
 10
119.2027652296112
 20
-23.9486111344989
 30
0.0
 10
119.2027652296112
 20
-23.9486111344989
 30
0.0
  0
ENDBLK
  5
4F
330
4C
100
AcDbEntity
  8
0
100
AcDbBlockEnd
  0
BLOCK
  5
53
330
51
100
AcDbEntity
  8
0
100
AcDbBlockBegin
  2
block 5
 70
     0
 10
0.0
 20
0.0
 30
0.0
  3
block 5
  1

  0
SPLINE
  5
55
330
51
100
AcDbEntity
  8
-18mm (door)
 62
     3
370
    25
100
AcDbSpline
210
0.0
220
0.0
230
1.0
 70
    11
 71
     3
 72
    20
 73
    16
 74
     0
 42
0.0000000001
 43
0.0000000001
 12
1.0
 22
0.0
 32
0.0
 13
1.0
 23
0.0
 33
0.0
 40
0.0
 40
0.0
 40
0.0
 40
0.0
 40
1.0
 40
1.0
 40
1.0
 40
2.0
 40
2.0
 40
2.0
 40
3.0
 40
3.0
 40
3.0
 40
4.0
 40
4.0
 40
4.0
 40
5.0
 40
5.0
 40
5.0
 40
5.0
 10
119.2027652296112
 20
-38.94861113449879
 30
0.0
 10
119.2027652296112
 20
-36.18718738534466
 30
0.0
 10
121.4413414804573
 20
-33.94861113449862
 30
0.0
 10
124.2027652296114
 20
-33.94861113449862
 30
0.0
 10
126.9641889787649
 20
-33.94861113449862
 30
0.0
 10
129.2027652296109
 20
-36.18718738534466
 30
0.0
 10
129.2027652296109
 20
-38.94861113449879
 30
0.0
 10
129.2027652296109
 20
-41.71003488365293
 30
0.0
 10
126.9641889787649
 20
-43.94861113449897
 30
0.0
 10
124.2027652296114
 20
-43.94861113449897
 30
0.0
 10
121.4413414804573
 20
-43.94861113449897
 30
0.0
 10
119.2027652296112
 20
-41.71003488365293
 30
0.0
 10
119.2027652296112
 20
-38.94861113449879
 30
0.0
 10
119.2027652296112
 20
-38.94861113449879
 30
0.0
 10
119.2027652296112
 20
-38.94861113449879
 30
0.0
 10
119.2027652296112
 20
-38.94861113449879
 30
0.0
  0
ENDBLK
  5
54
330
51
100
AcDbEntity
  8
0
100
AcDbBlockEnd
  0
BLOCK
  5
59
330
57
100
AcDbEntity
  8
0
100
AcDbBlockBegin
  2
block 6
 70
     0
 10
0.0
 20
0.0
 30
0.0
  3
block 6
  1

  0
INSERT
  5
5C
330
57
100
AcDbEntity
  8
-16mm
100
AcDbBlockReference
  2
block 7
 10
0.0
 20
0.0
 30
0.0
  0
INSERT
  5
61
330
57
100
AcDbEntity
  8
-16mm
100
AcDbBlockReference
  2
block 8
 10
0.0
 20
0.0
 30
0.0
  0
ENDBLK
  5
5A
330
57
100
AcDbEntity
  8
0
100
AcDbBlockEnd
  0
BLOCK
  5
5D
330
5B
100
AcDbEntity
  8
0
100
AcDbBlockBegin
  2
block 7
 70
     0
 10
0.0
 20
0.0
 30
0.0
  3
block 7
  1

  0
SPLINE
  5
5F
330
5B
100
AcDbEntity
  8
-16mm
 62
     5
370
    25
100
AcDbSpline
210
0.0
220
0.0
230
1.0
 70
    11
 71
     3
 72
    20
 73
    16
 74
     0
 42
0.0000000001
 43
0.0000000001
 12
1.0
 22
0.0
 32
0.0
 13
1.0
 23
0.0
 33
0.0
 40
0.0
 40
0.0
 40
0.0
 40
0.0
 40
1.0
 40
1.0
 40
1.0
 40
2.0
 40
2.0
 40
2.0
 40
3.0
 40
3.0
 40
3.0
 40
4.0
 40
4.0
 40
4.0
 40
5.0
 40
5.0
 40
5.0
 40
5.0
 10
165.2027652296109
 20
28.30138886550117
 30
0.0
 10
165.2027652296109
 20
29.95824311499372
 30
0.0
 10
166.5459109801188
 20
31.30138886550128
 30
0.0
 10
168.2027652296111
 20
31.30138886550128
 30
0.0
 10
169.8596194791033
 20
31.30138886550128
 30
0.0
 10
171.2027652296111
 20
29.95824311499372
 30
0.0
 10
171.2027652296111
 20
28.30138886550117
 30
0.0
 10
171.2027652296111
 20
26.64453461600895
 30
0.0
 10
169.8596194791033
 20
25.30138886550107
 30
0.0
 10
168.2027652296111
 20
25.30138886550107
 30
0.0
 10
166.5459109801188
 20
25.30138886550107
 30
0.0
 10
165.2027652296109
 20
26.64453461600895
 30
0.0
 10
165.2027652296109
 20
28.30138886550117
 30
0.0
 10
165.2027652296109
 20
28.30138886550117
 30
0.0
 10
165.2027652296109
 20
28.30138886550117
 30
0.0
 10
165.2027652296109
 20
28.30138886550117
 30
0.0
  0
ENDBLK
  5
5E
330
5B
100
AcDbEntity
  8
0
100
AcDbBlockEnd
  0
BLOCK
  5
62
330
60
100
AcDbEntity
  8
0
100
AcDbBlockBegin
  2
block 8
 70
     0
 10
0.0
 20
0.0
 30
0.0
  3
block 8
  1

  0
SPLINE
  5
64
330
60
100
AcDbEntity
  8
-16mm
 62
     5
370
    25
100
AcDbSpline
210
0.0
220
0.0
230
1.0
 70
    11
 71
     3
 72
    20
 73
    16
 74
     0
 42
0.0000000001
 43
0.0000000001
 12
1.0
 22
0.0
 32
0.0
 13
1.0
 23
0.0
 33
0.0
 40
0.0
 40
0.0
 40
0.0
 40
0.0
 40
1.0
 40
1.0
 40
1.0
 40
2.0
 40
2.0
 40
2.0
 40
3.0
 40
3.0
 40
3.0
 40
4.0
 40
4.0
 40
4.0
 40
5.0
 40
5.0
 40
5.0
 40
5.0
 10
165.2027652296109
 20
68.80138886550164
 30
0.0
 10
165.2027652296109
 20
70.45824311499386
 30
0.0
 10
166.5459109801188
 20
71.80138886550111
 30
0.0
 10
168.2027652296111
 20
71.80138886550111
 30
0.0
 10
169.8596194791033
 20
71.80138886550111
 30
0.0
 10
171.2027652296111
 20
70.45824311499386
 30
0.0
 10
171.2027652296111
 20
68.80138886550164
 30
0.0
 10
171.2027652296111
 20
67.14453461600877
 30
0.0
 10
169.8596194791033
 20
65.80138886550121
 30
0.0
 10
168.2027652296111
 20
65.80138886550121
 30
0.0
 10
166.5459109801188
 20
65.80138886550121
 30
0.0
 10
165.2027652296109
 20
67.14453461600877
 30
0.0
 10
165.2027652296109
 20
68.80138886550164
 30
0.0
 10
165.2027652296109
 20
68.80138886550164
 30
0.0
 10
165.2027652296109
 20
68.80138886550164
 30
0.0
 10
165.2027652296109
 20
68.80138886550164
 30
0.0
  0
ENDBLK
  5
63
330
60
100
AcDbEntity
  8
0
100
AcDbBlockEnd
  0
BLOCK
  5
6E
330
6C
100
AcDbEntity
  8
0
100
AcDbBlockBegin
  2
block 9
 70
     0
 10
0.0
 20
0.0
 30
0.0
  3
block 9
  1

  0
SPLINE
  5
70
330
6C
100
AcDbEntity
  8
-5.5mm
 62
     2
370
    25
100
AcDbSpline
210
0.0
220
0.0
230
1.0
 70
    11
 71
     3
 72
    59
 73
    55
 74
     0
 42
0.0000000001
 43
0.0000000001
 12
1.0
 22
0.0
 32
0.0
 13
1.0
 23
0.0
 33
0.0
 40
0.0
 40
0.0
 40
0.0
 40
0.0
 40
1.0
 40
1.0
 40
1.0
 40
2.0
 40
2.0
 40
2.0
 40
3.0
 40
3.0
 40
3.0
 40
4.0
 40
4.0
 40
4.0
 40
5.0
 40
5.0
 40
5.0
 40
6.0
 40
6.0
 40
6.0
 40
7.0
 40
7.0
 40
7.0
 40
8.0
 40
8.0
 40
8.0
 40
9.0
 40
9.0
 40
9.0
 40
10.0
 40
10.0
 40
10.0
 40
11.0
 40
11.0
 40
11.0
 40
12.0
 40
12.0
 40
12.0
 40
13.0
 40
13.0
 40
13.0
 40
14.0
 40
14.0
 40
14.0
 40
15.0
 40
15.0
 40
15.0
 40
16.0
 40
16.0
 40
16.0
 40
17.0
 40
17.0
 40
17.0
 40
18.0
 40
18.0
 40
18.0
 40
18.0
 10
-113.9160581867043
 20
38.65138886549785
 30
0.0
 10
-110.4644142357132
 20
41.85138884006101
 30
0.0
 10
-105.1300554110082
 20
41.85138886889447
 30
0.0
 10
-101.6784114254234
 20
38.65138893164579
 30
0.0
 10
-100.5690069706068
 20
37.62286617746578
 30
0.0
 10
-99.11202002271324
 20
37.05138886550164
 30
0.0
 10
-97.59919574328896
 20
37.05138886550164
 30
0.0
 10
-97.59919574328896
 20
37.05138886550164
 30
0.0
 10
-93.29723477038887
 20
37.05138886550164
 30
0.0
 10
-93.29723477038887
 20
37.05138886550164
 30
0.0
 10
-89.9835262714041
 20
37.05138886550164
 30
0.0
 10
-87.29723477038866
 20
34.36509736448588
 30
0.0
 10
-87.29723477038866
 20
31.05138886550111
 30
0.0
 10
-87.29723477038866
 20
31.05138886550111
 30
0.0
 10
-87.29723477038866
 20
-7.948611134498982
 30
0.0
 10
-87.29723477038866
 20
-7.948611134498982
 30
0.0
 10
-87.29723477038866
 20
-7.948611134498982
 30
0.0
 10
-87.29723477038866
 20
-38.94861113449879
 30
0.0
 10
-87.29723477038866
 20
-38.94861113449879
 30
0.0
 10
-87.29723477038866
 20
-42.26231963348324
 30
0.0
 10
-89.9835262714041
 20
-44.948611134499
 30
0.0
 10
-93.29723477038887
 20
-44.948611134499
 30
0.0
 10
-93.29723477038887
 20
-44.948611134499
 30
0.0
 10
-97.59919574328896
 20
-44.948611134499
 30
0.0
 10
-97.59919574328896
 20
-44.948611134499
 30
0.0
 10
-99.11201998912543
 20
-44.948611134499
 30
0.0
 10
-100.5690069072191
 20
-45.52008842114619
 30
0.0
 10
-101.6784113541656
 20
-46.54861113450099
 30
0.0
 10
-105.1300553325069
 20
-49.74861113449982
 30
0.0
 10
-110.4644142082709
 20
-49.74861113449982
 30
0.0
 10
-113.9160581867043
 20
-46.54861113449521
 30
0.0
 10
-115.0254626336585
 20
-45.52008842114619
 30
0.0
 10
-116.4824495517522
 20
-44.948611134499
 30
0.0
 10
-117.995273797589
 20
-44.948611134499
 30
0.0
 10
-117.995273797589
 20
-44.948611134499
 30
0.0
 10
-122.2972347703889
 20
-44.948611134499
 30
0.0
 10
-122.2972347703889
 20
-44.948611134499
 30
0.0
 10
-125.6109432693737
 20
-44.948611134499
 30
0.0
 10
-128.2972347703888
 20
-42.26231963348324
 30
0.0
 10
-128.2972347703888
 20
-38.94861113449879
 30
0.0
 10
-128.2972347703888
 20
-38.94861113449879
 30
0.0
 10
-128.2972347703888
 20
-7.948611134498982
 30
0.0
 10
-128.2972347703888
 20
-7.948611134498982
 30
0.0
 10
-128.2972347703888
 20
-7.948611134498982
 30
0.0
 10
-128.2972347703888
 20
31.05138886550111
 30
0.0
 10
-128.2972347703888
 20
31.05138886550111
 30
0.0
 10
-128.2972347703888
 20
34.36509736448588
 30
0.0
 10
-125.6109432693737
 20
37.05138886550164
 30
0.0
 10
-122.2972347703889
 20
37.05138886550164
 30
0.0
 10
-122.2972347703889
 20
37.05138886550164
 30
0.0
 10
-117.995273797589
 20
37.05138886550164
 30
0.0
 10
-117.995273797589
 20
37.05138886550164
 30
0.0
 10
-116.4824495517522
 20
37.05138886550164
 30
0.0
 10
-115.0254626336585
 20
37.62286615214851
 30
0.0
 10
-113.9160581867043
 20
38.65138886549785
 30
0.0
  0
ENDBLK
  5
6F
330
6C
100
AcDbEntity
  8
0
100
AcDbBlockEnd
  0
BLOCK
  5
73
330
71
100
AcDbEntity
  8
0
100
AcDbBlockBegin
  2
block 10
 70
     0
 10
0.0
 20
0.0
 30
0.0
  3
block 10
  1

  0
SPLINE
  5
75
330
71
100
AcDbEntity
  8
-5.5mm
 62
     2
370
    25
100
AcDbSpline
210
0.0
220
0.0
230
1.0
 70
    11
 71
     3
 72
    62
 73
    58
 74
     0
 42
0.0000000001
 43
0.0000000001
 12
1.0
 22
0.0
 32
0.0
 13
1.0
 23
0.0
 33
0.0
 40
0.0
 40
0.0
 40
0.0
 40
0.0
 40
1.0
 40
1.0
 40
1.0
 40
2.0
 40
2.0
 40
2.0
 40
3.0
 40
3.0
 40
3.0
 40
4.0
 40
4.0
 40
4.0
 40
5.0
 40
5.0
 40
5.0
 40
6.0
 40
6.0
 40
6.0
 40
7.0
 40
7.0
 40
7.0
 40
8.0
 40
8.0
 40
8.0
 40
9.0
 40
9.0
 40
9.0
 40
10.0
 40
10.0
 40
10.0
 40
11.0
 40
11.0
 40
11.0
 40
12.0
 40
12.0
 40
12.0
 40
13.0
 40
13.0
 40
13.0
 40
14.0
 40
14.0
 40
14.0
 40
15.0
 40
15.0
 40
15.0
 40
16.0
 40
16.0
 40
16.0
 40
17.0
 40
17.0
 40
17.0
 40
18.0
 40
18.0
 40
18.0
 40
19.0
 40
19.0
 40
19.0
 40
19.0
 10
103.702765229611
 20
-9.52500001699357
 30
0.0
 10
103.702765229611
 20
-9.52500001699357
 30
0.0
 10
103.702765229611
 20
31.05138886550111
 30
0.0
 10
103.702765229611
 20
31.05138886550111
 30
0.0
 10
103.702765229611
 20
34.36509736448588
 30
0.0
 10
106.3890567306261
 20
37.05138886550164
 30
0.0
 10
109.7027652296112
 20
37.05138886550164
 30
0.0
 10
109.7027652296112
 20
37.05138886550164
 30
0.0
 10
114.0047262024112
 20
37.05138886550164
 30
0.0
 10
114.0047262024112
 20
37.05138886550164
 30
0.0
 10
115.5175504818355
 20
37.05138886550164
 30
0.0
 10
116.9745374297294
 20
37.62286617746578
 30
0.0
 10
118.0839418846461
 20
38.65138893164579
 30
0.0
 10
121.5355858427883
 20
41.85138884345304
 30
0.0
 10
126.869944616434
 20
41.85138884345304
 30
0.0
 10
130.3215885744921
 20
38.6513889316445
 30
0.0
 10
131.4309930293934
 20
37.62286617746578
 30
0.0
 10
132.8879799772866
 20
37.05138886550164
 30
0.0
 10
134.4008042567109
 20
37.05138886550164
 30
0.0
 10
134.4008042567109
 20
37.05138886550164
 30
0.0
 10
138.702765229611
 20
37.05138886550164
 30
0.0
 10
138.702765229611
 20
37.05138886550164
 30
0.0
 10
142.0164737285961
 20
37.05138886550164
 30
0.0
 10
144.7027652296112
 20
34.36509736448588
 30
0.0
 10
144.7027652296112
 20
31.05138886550111
 30
0.0
 10
144.7027652296112
 20
31.05138886550111
 30
0.0
 10
144.7027652296112
 20
-7.948611134498982
 30
0.0
 10
144.7027652296112
 20
-7.948611134498982
 30
0.0
 10
144.7027652296112
 20
-7.948611134498982
 30
0.0
 10
144.7027652296112
 20
-38.94861113449879
 30
0.0
 10
144.7027652296112
 20
-38.94861113449879
 30
0.0
 10
144.7027652296112
 20
-42.26231963348324
 30
0.0
 10
142.0164737285961
 20
-44.948611134499
 30
0.0
 10
138.702765229611
 20
-44.948611134499
 30
0.0
 10
138.702765229611
 20
-44.948611134499
 30
0.0
 10
134.4008042567109
 20
-44.948611134499
 30
0.0
 10
134.4008042567109
 20
-44.948611134499
 30
0.0
 10
132.8879800108744
 20
-44.948611134499
 30
0.0
 10
131.4309930927811
 20
-45.52008842114619
 30
0.0
 10
130.321588645926
 20
-46.54861113449521
 30
0.0
 10
126.8699446674933
 20
-49.74861113449982
 30
0.0
 10
121.5355857917289
 20
-49.74861113449982
 30
0.0
 10
118.0839418132878
 20
-46.54861113450099
 30
0.0
 10
116.9745373663417
 20
-45.52008842114619
 30
0.0
 10
115.5175504482477
 20
-44.948611134499
 30
0.0
 10
114.0047262024112
 20
-44.948611134499
 30
0.0
 10
114.0047262024112
 20
-44.948611134499
 30
0.0
 10
109.7027652296112
 20
-44.948611134499
 30
0.0
 10
109.7027652296112
 20
-44.948611134499
 30
0.0
 10
106.3890567306261
 20
-44.948611134499
 30
0.0
 10
103.702765229611
 20
-42.26231963348324
 30
0.0
 10
103.702765229611
 20
-38.94861113449879
 30
0.0
 10
103.702765229611
 20
-38.94861113449879
 30
0.0
 10
103.702765229611
 20
-7.948611134498982
 30
0.0
 10
103.702765229611
 20
-7.948611134498982
 30
0.0
 10
103.702765229611
 20
-7.948611134498982
 30
0.0
 10
103.702765229611
 20
-9.52500001699357
 30
0.0
 10
103.702765229611
 20
-9.52500001699357
 30
0.0
  0
ENDBLK
  5
74
330
71
100
AcDbEntity
  8
0
100
AcDbBlockEnd
  0
ENDSEC
  0
SECTION
  2
ENTITIES
  0
SPLINE
  5
41
330
1F
100
AcDbEntity
  8
-18mm (door)
 62
     3
370
    25
100
AcDbSpline
210
0.0
220
0.0
230
1.0
 70
    11
 71
     3
 72
   317
 73
   313
 74
     0
 42
0.0000000001
 43
0.0000000001
 12
1.0
 22
0.0
 32
0.0
 13
1.0
 23
0.0
 33
0.0
 40
0.0
 40
0.0
 40
0.0
 40
0.0
 40
1.0
 40
1.0
 40
1.0
 40
2.0
 40
2.0
 40
2.0
 40
3.0
 40
3.0
 40
3.0
 40
4.0
 40
4.0
 40
4.0
 40
5.0
 40
5.0
 40
5.0
 40
6.0
 40
6.0
 40
6.0
 40
7.0
 40
7.0
 40
7.0
 40
8.0
 40
8.0
 40
8.0
 40
9.0
 40
9.0
 40
9.0
 40
10.0
 40
10.0
 40
10.0
 40
11.0
 40
11.0
 40
11.0
 40
12.0
 40
12.0
 40
12.0
 40
13.0
 40
13.0
 40
13.0
 40
14.0
 40
14.0
 40
14.0
 40
15.0
 40
15.0
 40
15.0
 40
16.0
 40
16.0
 40
16.0
 40
17.0
 40
17.0
 40
17.0
 40
18.0
 40
18.0
 40
18.0
 40
19.0
 40
19.0
 40
19.0
 40
20.0
 40
20.0
 40
20.0
 40
21.0
 40
21.0
 40
21.0
 40
22.0
 40
22.0
 40
22.0
 40
23.0
 40
23.0
 40
23.0
 40
24.0
 40
24.0
 40
24.0
 40
25.0
 40
25.0
 40
25.0
 40
26.0
 40
26.0
 40
26.0
 40
27.0
 40
27.0
 40
27.0
 40
28.0
 40
28.0
 40
28.0
 40
29.0
 40
29.0
 40
29.0
 40
30.0
 40
30.0
 40
30.0
 40
31.0
 40
31.0
 40
31.0
 40
32.0
 40
32.0
 40
32.0
 40
33.0
 40
33.0
 40
33.0
 40
34.0
 40
34.0
 40
34.0
 40
35.0
 40
35.0
 40
35.0
 40
36.0
 40
36.0
 40
36.0
 40
37.0
 40
37.0
 40
37.0
 40
38.0
 40
38.0
 40
38.0
 40
39.0
 40
39.0
 40
39.0
 40
40.0
 40
40.0
 40
40.0
 40
41.0
 40
41.0
 40
41.0
 40
42.0
 40
42.0
 40
42.0
 40
43.0
 40
43.0
 40
43.0
 40
44.0
 40
44.0
 40
44.0
 40
45.0
 40
45.0
 40
45.0
 40
46.0
 40
46.0
 40
46.0
 40
47.0
 40
47.0
 40
47.0
 40
48.0
 40
48.0
 40
48.0
 40
49.0
 40
49.0
 40
49.0
 40
50.0
 40
50.0
 40
50.0
 40
51.0
 40
51.0
 40
51.0
 40
52.0
 40
52.0
 40
52.0
 40
53.0
 40
53.0
 40
53.0
 40
54.0
 40
54.0
 40
54.0
 40
55.0
 40
55.0
 40
55.0
 40
56.0
 40
56.0
 40
56.0
 40
57.0
 40
57.0
 40
57.0
 40
58.0
 40
58.0
 40
58.0
 40
59.0
 40
59.0
 40
59.0
 40
60.0
 40
60.0
 40
60.0
 40
61.0
 40
61.0
 40
61.0
 40
62.0
 40
62.0
 40
62.0
 40
63.0
 40
63.0
 40
63.0
 40
64.0
 40
64.0
 40
64.0
 40
65.0
 40
65.0
 40
65.0
 40
66.0
 40
66.0
 40
66.0
 40
67.0
 40
67.0
 40
67.0
 40
68.0
 40
68.0
 40
68.0
 40
69.0
 40
69.0
 40
69.0
 40
70.0
 40
70.0
 40
70.0
 40
71.0
 40
71.0
 40
71.0
 40
72.0
 40
72.0
 40
72.0
 40
73.0
 40
73.0
 40
73.0
 40
74.0
 40
74.0
 40
74.0
 40
75.0
 40
75.0
 40
75.0
 40
76.0
 40
76.0
 40
76.0
 40
77.0
 40
77.0
 40
77.0
 40
78.0
 40
78.0
 40
78.0
 40
79.0
 40
79.0
 40
79.0
 40
80.0
 40
80.0
 40
80.0
 40
81.0
 40
81.0
 40
81.0
 40
82.0
 40
82.0
 40
82.0
 40
83.0
 40
83.0
 40
83.0
 40
84.0
 40
84.0
 40
84.0
 40
85.0
 40
85.0
 40
85.0
 40
86.0
 40
86.0
 40
86.0
 40
87.0
 40
87.0
 40
87.0
 40
88.0
 40
88.0
 40
88.0
 40
89.0
 40
89.0
 40
89.0
 40
90.0
 40
90.0
 40
90.0
 40
91.0
 40
91.0
 40
91.0
 40
92.0
 40
92.0
 40
92.0
 40
93.0
 40
93.0
 40
93.0
 40
94.0
 40
94.0
 40
94.0
 40
95.0
 40
95.0
 40
95.0
 40
96.0
 40
96.0
 40
96.0
 40
97.0
 40
97.0
 40
97.0
 40
98.0
 40
98.0
 40
98.0
 40
99.0
 40
99.0
 40
99.0
 40
100.0
 40
100.0
 40
100.0
 40
101.0
 40
101.0
 40
101.0
 40
102.0
 40
102.0
 40
102.0
 40
103.0
 40
103.0
 40
103.0
 40
104.0
 40
104.0
 40
104.0
 40
104.0
 10
198.165351818134
 20
86.68553564417547
 30
0.0
 10
198.1290491244582
 20
87.37995923476792
 30
0.0
 10
198.0575633931392
 20
88.04910443723736
 30
0.0
 10
197.9292551181605
 20
88.67240833790619
 30
0.0
 10
197.8009468431817
 20
89.29571223857502
 30
0.0
 10
197.6158160245431
 20
89.87317483744323
 30
0.0
 10
197.3632905254743
 20
90.39006835131109
 30
0.0
 10
197.1107865582522
 20
90.90696186517958
 30
0.0
 10
196.7908663787532
 20
91.36328629404771
 30
0.0
 10
196.4027548404931
 20
91.75139783230756
 30
0.0
 10
196.0146648340797
 20
92.13950937056774
 30
0.0
 10
195.5583404052115
 20
92.45940801822029
 30
0.0
 10
195.0414468913434
 20
92.7119335172891
 30
0.0
 10
194.5245533774752
 20
92.96443748451081
 30
0.0
 10
193.947090778607
 20
93.14956830314975
 30
0.0
 10
193.3237868779381
 20
93.27787657812851
 30
0.0
 10
192.7004829772693
 20
93.40618485310698
 30
0.0
 10
192.0313377747999
 20
93.47767058442591
 30
0.0
 10
191.3368926523606
 20
93.51397327810204
 30
0.0
 10
190.6424690617682
 20
93.55027597177755
 30
0.0
 10
189.9227670830527
 20
93.55139562781025
 30
0.0
 10
189.2027636584823
 20
93.55139562781025
 30
0.0
 10
189.2027636584823
 20
93.55139562781025
 30
0.0
 10
146.4773784695109
 20
93.55139562781025
 30
0.0
 10
146.4773784695109
 20
93.55139562781025
 30
0.0
 10
146.2348868110428
 20
93.55139562781025
 30
0.0
 10
145.9922659614941
 20
93.55126643672988
 30
0.0
 10
145.7464583986215
 20
93.54620645273559
 30
0.0
 10
145.500650835749
 20
93.54114646874163
 30
0.0
 10
145.2516780913993
 20
93.53115569183441
 30
0.0
 10
144.9980759999914
 20
93.51270289914154
 30
0.0
 10
144.7444739085834
 20
93.49425010644899
 30
0.0
 10
144.4862640019639
 20
93.46735682981726
 30
0.0
 10
144.2233170890522
 20
93.4297191616409
 30
0.0
 10
143.9603917079873
 20
93.39208149346454
 30
0.0
 10
143.692750852477
 20
93.34372096559004
 30
0.0
 10
143.4211912008521
 20
93.28315188059031
 30
0.0
 10
142.8780718976025
 20
93.1619921787431
 30
0.0
 10
142.3192989417418
 20
92.9920413120867
 30
0.0
 10
141.7613657279056
 20
92.77273945260376
 30
0.0
 10
141.2034109822226
 20
92.5534375931205
 30
0.0
 10
140.6462744467173
 20
92.28480627265814
 30
0.0
 10
140.1120908598826
 20
91.97638409934116
 30
0.0
 10
139.5779072730478
 20
91.66798345787127
 30
0.0
 10
139.0666981667303
 20
91.31981349539289
 30
0.0
 10
138.597799139341
 20
90.9462574855582
 30
0.0
 10
138.1289001119517
 20
90.57270147572322
 30
0.0
 10
137.7023326953374
 20
90.17378095037807
 30
0.0
 10
137.32584835434
 20
89.76400837425406
 30
0.0
 10
137.1376169497646
 20
89.55911132026883
 30
0.0
 10
136.9619170800169
 20
89.35152278543606
 30
0.0
 10
136.7978444075319
 20
89.1426208079489
 30
0.0
 10
136.6337932668936
 20
88.93374036230885
 30
0.0
 10
136.4813908553649
 20
88.72354647401536
 30
0.0
 10
136.338613179348
 20
88.51315879910051
 30
0.0
 10
136.1958355033312
 20
88.30277112418534
 30
0.0
 10
136.0626825628263
 20
88.0921465989562
 30
0.0
 10
135.9354078164931
 20
87.88180198773459
 30
0.0
 10
135.8081330701599
 20
87.67145737651332
 30
0.0
 10
135.6866934543049
 20
87.4613926793002
 30
0.0
 10
135.5654691569177
 20
87.25139257762777
 30
0.0
 10
135.5654691569177
 20
87.25139257762777
 30
0.0
 10
118.0140211022235
 20
56.85139631515366
 30
0.0
 10
118.0140211022235
 20
56.85139631515366
 30
0.0
 10
117.8927752729895
 20
56.6413962134809
 30
0.0
 10
117.7713356571344
 20
56.43133151626778
 30
0.0
 10
117.6440609108012
 20
56.22098690504682
 30
0.0
 10
117.516786164468
 20
56.01064229382553
 30
0.0
 10
117.3836332239631
 20
55.80001776859575
 30
0.0
 10
117.2408555479463
 20
55.5896300936809
 30
0.0
 10
117.0980778719295
 20
55.37922088691927
 30
0.0
 10
116.9456754604007
 20
55.16904853047225
 30
0.0
 10
116.7816243197625
 20
54.96014655298573
 30
0.0
 10
116.6175516472775
 20
54.75126610734535
 30
0.0
 10
116.4418517775297
 20
54.54365604066581
 30
0.0
 10
116.2536203729544
 20
54.33878051852703
 30
0.0
 10
115.8771360319569
 20
53.92898641055657
 30
0.0
 10
115.4505686153426
 20
53.53006588521141
 30
0.0
 10
114.9816695879533
 20
53.15653140722321
 30
0.0
 10
114.5127705605641
 20
52.78297539738821
 30
0.0
 10
114.0015614542466
 20
52.43480543491047
 30
0.0
 10
113.4673778674118
 20
52.12638326159347
 30
0.0
 10
112.933194280577
 20
51.81798262012327
 30
0.0
 10
112.3760577450718
 20
51.54935129966091
 30
0.0
 10
111.8181029993888
 20
51.33004944017797
 30
0.0
 10
111.2601697855526
 20
51.11074758069472
 30
0.0
 10
110.7013968296918
 20
50.94077518219152
 30
0.0
 10
110.1582775264422
 20
50.81963701219111
 30
0.0
 10
109.8867178748174
 20
50.75906792719106
 30
0.0
 10
109.619077019307
 20
50.71068586747008
 30
0.0
 10
109.3561516382421
 20
50.67304819929372
 30
0.0
 10
109.0932047253304
 20
50.63541053111737
 30
0.0
 10
108.8349948187109
 20
50.60851725448564
 30
0.0
 10
108.581392727303
 20
50.59006446179309
 30
0.0
 10
108.327790635895
 20
50.57163320094701
 30
0.0
 10
108.0788178915454
 20
50.561620892193
 30
0.0
 10
107.8330103286728
 20
50.55656090819904
 30
0.0
 10
107.5872027658002
 20
50.55150092420475
 30
0.0
 10
107.3445819162515
 20
50.55139326497116
 30
0.0
 10
107.1020902577835
 20
50.55139326497116
 30
0.0
 10
107.1020902577835
 20
50.55139326497116
 30
0.0
 10
-90.69655979856113
 20
50.55139326497116
 30
0.0
 10
-90.69655979856113
 20
50.55139326497116
 30
0.0
 10
-90.93905145702915
 20
50.55139326497116
 30
0.0
 10
-91.18167230657787
 20
50.55150092420475
 30
0.0
 10
-91.42747986945045
 20
50.55656090819904
 30
0.0
 10
-91.67328743232302
 20
50.561620892193
 30
0.0
 10
-91.92226017667332
 20
50.57163320094701
 30
0.0
 10
-92.17586226808062
 20
50.59006446179309
 30
0.0
 10
-92.4294428276418
 20
50.60851725448564
 30
0.0
 10
-92.6876742661087
 20
50.63541053111737
 30
0.0
 10
-92.95059964717296
 20
50.67304819929372
 30
0.0
 10
-93.21354656008467
 20
50.71068586747008
 30
0.0
 10
-93.481187415595
 20
50.75906792719106
 30
0.0
 10
-93.75274706721983
 20
50.81963701219111
 30
0.0
 10
-94.29586637046945
 20
50.94077518219152
 30
0.0
 10
-94.85461779448342
 20
51.11074758069472
 30
0.0
 10
-95.41257254016705
 20
51.33004944017797
 30
0.0
 10
-95.97052728584941
 20
51.54935129966091
 30
0.0
 10
-96.52766382135529
 20
51.81798262012327
 30
0.0
 10
-97.06184740818942
 20
52.12638326159347
 30
0.0
 10
-97.59600946317741
 20
52.43480543491047
 30
0.0
 10
-98.10724010134234
 20
52.78297539738821
 30
0.0
 10
-98.57611759688486
 20
53.15653140722321
 30
0.0
 10
-99.04501662427349
 20
53.53006588521141
 30
0.0
 10
-99.47160557273456
 20
53.92898641055657
 30
0.0
 10
-99.84806838188523
 20
54.33878051852703
 30
0.0
 10
-100.036321318308
 20
54.54365604066581
 30
0.0
 10
-100.2120211880557
 20
54.75126610734535
 30
0.0
 10
-100.3760938605408
 20
54.96014655298573
 30
0.0
 10
-100.5401450011784
 20
55.16904853047225
 30
0.0
 10
-100.6925474127071
 20
55.37922088691927
 30
0.0
 10
-100.8353250887246
 20
55.5896300936809
 30
0.0
 10
-100.9781027647407
 20
55.80001776859575
 30
0.0
 10
-101.1112341733989
 20
56.01064229382553
 30
0.0
 10
-101.2385304515789
 20
56.22098690504682
 30
0.0
 10
-101.3658051979121
 20
56.43133151626778
 30
0.0
 10
-101.487223281921
 20
56.6413962134809
 30
0.0
 10
-101.6084691111543
 20
56.85139631515366
 30
0.0
 10
-101.6084691111543
 20
56.85139631515366
 30
0.0
 10
-119.1599171658485
 20
87.25139257762777
 30
0.0
 10
-119.1599171658485
 20
87.25139257762777
 30
0.0
 10
-119.2811629950825
 20
87.4613926793002
 30
0.0
 10
-119.4025810790914
 20
87.67145737651332
 30
0.0
 10
-119.5298773572714
 20
87.88180198773459
 30
0.0
 10
-119.657152103604
 20
88.0921465989562
 30
0.0
 10
-119.7903050441089
 20
88.30277112418534
 30
0.0
 10
-119.9330827201257
 20
88.51315879910051
 30
0.0
 10
-120.0758388642964
 20
88.72354647401536
 30
0.0
 10
-120.2282628076713
 20
88.93374036230885
 30
0.0
 10
-120.3923139483095
 20
89.1426208079489
 30
0.0
 10
-120.5563650889477
 20
89.35152278543606
 30
0.0
 10
-120.7320864905423
 20
89.55911132026883
 30
0.0
 10
-120.9203178951182
 20
89.76400837425406
 30
0.0
 10
-121.2968022361151
 20
90.17378095037807
 30
0.0
 10
-121.72336965273
 20
90.57270147572322
 30
0.0
 10
-122.1922686801186
 20
90.9462574855582
 30
0.0
 10
-122.6611677075079
 20
91.31981349539289
 30
0.0
 10
-123.1723768138261
 20
91.66798345787127
 30
0.0
 10
-123.7065604006602
 20
91.97638409934116
 30
0.0
 10
-124.2407224556482
 20
92.28480627265814
 30
0.0
 10
-124.7978805230002
 20
92.5534375931205
 30
0.0
 10
-125.3558137368364
 20
92.77273945260376
 30
0.0
 10
-125.9137684825194
 20
92.9920413120867
 30
0.0
 10
-126.4725414383802
 20
93.1619921787431
 30
0.0
 10
-127.0156607416298
 20
93.28315188059031
 30
0.0
 10
-127.2872203932546
 20
93.34372096559004
 30
0.0
 10
-127.554861248765
 20
93.39208149346454
 30
0.0
 10
-127.8177866298299
 20
93.4297191616409
 30
0.0
 10
-128.0807335427416
 20
93.46735682981726
 30
0.0
 10
-128.338943449361
 20
93.49425010644899
 30
0.0
 10
-128.5925455407696
 20
93.51270289914154
 30
0.0
 10
-128.846147632177
 20
93.53115569183441
 30
0.0
 10
-129.0951203765266
 20
93.54114646874163
 30
0.0
 10
-129.340906407553
 20
93.54620645273559
 30
0.0
 10
-129.5867139704256
 20
93.55126643672988
 30
0.0
 10
-129.8293563518205
 20
93.55139562781025
 30
0.0
 10
-130.0718480102885
 20
93.55139562781025
 30
0.0
 10
-130.0718480102885
 20
93.55139562781025
 30
0.0
 10
-172.7972331992599
 20
93.55139562781025
 30
0.0
 10
-172.7972331992599
 20
93.55139562781025
 30
0.0
 10
-173.5172366238303
 20
93.55139562781025
 30
0.0
 10
-174.2369386025458
 20
93.55027597177755
 30
0.0
 10
-174.9313621931383
 20
93.51397327810204
 30
0.0
 10
-175.6257857837307
 20
93.47767058442591
 30
0.0
 10
-176.2949309862002
 20
93.40618485310698
 30
0.0
 10
-176.918234886869
 20
93.27787657812851
 30
0.0
 10
-177.5415603193846
 20
93.14956830314975
 30
0.0
 10
-178.1190229182528
 20
92.96443748451081
 30
0.0
 10
-178.6359164321216
 20
92.7119335172891
 30
0.0
 10
-179.1528099459892
 20
92.45940801822029
 30
0.0
 10
-179.6091128430105
 20
92.13950937056774
 30
0.0
 10
-179.9972243812707
 20
91.75139783230756
 30
0.0
 10
-180.3853359195309
 20
91.36328629404771
 30
0.0
 10
-180.7052560990299
 20
90.90696186517958
 30
0.0
 10
-180.9577600662519
 20
90.39006835131109
 30
0.0
 10
-181.2102855653207
 20
89.87317483744323
 30
0.0
 10
-181.3954163839593
 20
89.29571223857502
 30
0.0
 10
-181.5237031270913
 20
88.67240833790619
 30
0.0
 10
-181.6520114020701
 20
88.04910443723736
 30
0.0
 10
-181.723497133389
 20
87.37995923476792
 30
0.0
 10
-181.7597998270649
 20
86.68553564417547
 30
0.0
 10
-181.7961025207407
 20
85.99109052173624
 30
0.0
 10
-181.7972221767734
 20
85.27138854302076
 30
0.0
 10
-181.7972221767734
 20
84.55138511845033
 30
0.0
 10
-181.7972221767734
 20
84.55138511845033
 30
0.0
 10
-181.7972221767734
 20
-35.44861146070798
 30
0.0
 10
-181.7972221767734
 20
-35.44861146070798
 30
0.0
 10
-181.7972221767734
 20
-36.48859966031777
 30
0.0
 10
-181.7970283901523
 20
-37.52856632808079
 30
0.0
 10
-181.7831188171306
 20
-38.55910204695293
 30
0.0
 10
-181.7692092441089
 20
-39.58965929767185
 30
0.0
 10
-181.7415838846866
 20
-40.61080713134668
 30
0.0
 10
-181.6891323059237
 20
-41.61388974557074
 30
0.0
 10
-181.636659195314
 20
-42.61697235979479
 30
0.0
 10
-181.5593598653637
 20
-43.60201128641486
 30
0.0
 10
-181.4482985996579
 20
-44.56110433766163
 30
0.0
 10
-181.3372373339522
 20
-45.52021892075518
 30
0.0
 10
-181.192414132491
 20
-46.45340916032223
 30
0.0
 10
-181.0070679953845
 20
-47.35376333354549
 30
0.0
 10
-180.8217218582781
 20
-48.25411750676876
 30
0.0
 10
-180.5958312536796
 20
-49.12161408180145
 30
0.0
 10
-180.3246161116033
 20
-49.95041792816543
 30
0.0
 10
-180.053400969527
 20
-50.77920024268263
 30
0.0
 10
-179.7368828218197
 20
-51.56926829668433
 30
0.0
 10
-179.3721118054721
 20
-52.3159066157251
 30
0.0
 10
-179.0073407891245
 20
-53.06256646661265
 30
0.0
 10
-178.5943384359834
 20
-53.76577505069249
 30
0.0
 10
-178.1319635581693
 20
-54.42213033617293
 30
0.0
 10
-177.669610212202
 20
-55.07848562165338
 30
0.0
 10
-177.1578628097149
 20
-55.68798760853442
 30
0.0
 10
-176.5972381150308
 20
-56.24861230321849
 30
0.0
 10
-176.0366134203468
 20
-56.80923699790254
 30
0.0
 10
-175.4271114334657
 20
-57.32098440038963
 30
0.0
 10
-174.7707561479853
 20
-57.78333774635694
 30
0.0
 10
-174.1144008625055
 20
-58.24571262417103
 30
0.0
 10
-173.4111707465789
 20
-58.65871497731214
 30
0.0
 10
-172.6645324275381
 20
-59.02348599365975
 30
0.0
 10
-171.9178941084973
 20
-59.38825701000736
 30
0.0
 10
-171.127826054495
 20
-59.70479668956147
 30
0.0
 10
-170.2990437399784
 20
-59.97599029979098
 30
0.0
 10
-169.4702398936144
 20
-60.24720544186727
 30
0.0
 10
-168.6027433185811
 20
-60.47309604646575
 30
0.0
 10
-167.7023891453585
 20
-60.65844218357219
 30
0.0
 10
-166.8020349721346
 20
-60.84380985252542
 30
0.0
 10
-165.8688447325675
 20
-60.98861152213982
 30
0.0
 10
-164.909730149474
 20
-61.09967278784556
 30
0.0
 10
-163.9506370982272
 20
-61.21073405355131
 30
0.0
 10
-162.9655981716072
 20
-61.2880333835016
 30
0.0
 10
-161.9625155573837
 20
-61.34050649411131
 30
0.0
 10
-160.959432943159
 20
-61.39295807287424
 30
0.0
 10
-159.9382851094842
 20
-61.42058343229659
 30
0.0
 10
-158.9077278587653
 20
-61.43449300531828
 30
0.0
 10
-157.8771706080464
 20
-61.44840257833998
 30
0.0
 10
-156.8372254721301
 20
-61.44859636496103
 30
0.0
 10
-155.7972372725203
 20
-61.44859636496103
 30
0.0
 10
-155.7972372725203
 20
-61.44859636496103
 30
0.0
 10
172.2027677317427
 20
-61.44859636496103
 30
0.0
 10
172.2027677317427
 20
-61.44859636496103
 30
0.0
 10
173.2427559313525
 20
-61.44859636496103
 30
0.0
 10
174.2827225991155
 20
-61.44840257833998
 30
0.0
 10
175.3132583179876
 20
-61.43449300531828
 30
0.0
 10
176.3438155687066
 20
-61.42058343229659
 30
0.0
 10
177.3649634023814
 20
-61.39295807287424
 30
0.0
 10
178.3680460166055
 20
-61.34050649411131
 30
0.0
 10
179.3711501626763
 20
-61.2880333835016
 30
0.0
 10
180.3561675574496
 20
-61.21073405355131
 30
0.0
 10
181.3152821405431
 20
-61.09967278784556
 30
0.0
 10
182.2743751917899
 20
-60.98861152213982
 30
0.0
 10
183.207565431357
 20
-60.84380985252542
 30
0.0
 10
184.1079196045802
 20
-60.65844218357219
 30
0.0
 10
185.0082737778035
 20
-60.47309604646575
 30
0.0
 10
185.8757703528362
 20
-60.24720544186727
 30
0.0
 10
186.7045741992002
 20
-59.97599029979098
 30
0.0
 10
187.5333565137173
 20
-59.70479668956147
 30
0.0
 10
188.3234245677191
 20
-59.38825701000736
 30
0.0
 10
189.0700844186066
 20
-59.02348599365975
 30
0.0
 10
189.8167227376474
 20
-58.65871497731214
 30
0.0
 10
190.5199313217272
 20
-58.24571262417103
 30
0.0
 10
191.1762866072077
 20
-57.78333774635694
 30
0.0
 10
191.8326418926881
 20
-57.32098440038963
 30
0.0
 10
192.4421438795691
 20
-56.80923699790254
 30
0.0
 10
193.0027685742532
 20
-56.24861230321849
 30
0.0
 10
193.5633932689373
 20
-55.68798760853442
 30
0.0
 10
194.0751406714244
 20
-55.07848562165338
 30
0.0
 10
194.5375155492384
 20
-54.42213033617293
 30
0.0
 10
194.9998688952057
 20
-53.76577505069249
 30
0.0
 10
195.4128712483468
 20
-53.06256646661265
 30
0.0
 10
195.7776422646945
 20
-52.3159066157251
 30
0.0
 10
196.1424132810421
 20
-51.56926829668433
 30
0.0
 10
196.4589529605962
 20
-50.77920024268263
 30
0.0
 10
196.7301681026725
 20
-49.95041792816543
 30
0.0
 10
197.001361712902
 20
-49.12161408180145
 30
0.0
 10
197.2272523175005
 20
-48.25411750676876
 30
0.0
 10
197.4125984546069
 20
-47.35376333354549
 30
0.0
 10
197.5979661235601
 20
-46.45340916032223
 30
0.0
 10
197.7427677931746
 20
-45.52021892075518
 30
0.0
 10
197.8538290588803
 20
-44.56110433766163
 30
0.0
 10
197.964890324586
 20
-43.60201128641486
 30
0.0
 10
198.0422111863831
 20
-42.61697235979479
 30
0.0
 10
198.094662765146
 20
-41.61388974557074
 30
0.0
 10
198.1471358757557
 20
-40.61080713134668
 30
0.0
 10
198.1747397033313
 20
-39.58965929767185
 30
0.0
 10
198.188649276353
 20
-38.55910204695293
 30
0.0
 10
198.2025588493747
 20
-37.52856632808079
 30
0.0
 10
198.2027741678425
 20
-36.48859966031777
 30
0.0
 10
198.2027741678425
 20
-35.44861146070798
 30
0.0
 10
198.2027741678425
 20
-35.44861146070798
 30
0.0
 10
198.2027741678425
 20
84.55138511845033
 30
0.0
 10
198.2027741678425
 20
84.55138511845033
 30
0.0
 10
198.2027741678425
 20
85.27138854302076
 30
0.0
 10
198.2016545118098
 20
85.99109052173624
 30
0.0
 10
198.165351818134
 20
86.68553564417547
 30
0.0
  0
INSERT
  5
43
330
1F
100
AcDbEntity
  8
-18mm (door)
100
AcDbBlockReference
  2
block 2
 10
0.0
 20
0.0
 30
0.0
  0
INSERT
  5
48
330
1F
100
AcDbEntity
  8
-18mm (door)
100
AcDbBlockReference
  2
block 3
 10
0.0
 20
0.0
 30
0.0
  0
INSERT
  5
4D
330
1F
100
AcDbEntity
  8
-18mm (door)
100
AcDbBlockReference
  2
block 4
 10
0.0
 20
0.0
 30
0.0
  0
INSERT
  5
52
330
1F
100
AcDbEntity
  8
-18mm (door)
100
AcDbBlockReference
  2
block 5
 10
0.0
 20
0.0
 30
0.0
  0
INSERT
  5
58
330
1F
100
AcDbEntity
  8
-16mm
100
AcDbBlockReference
  2
block 6
 10
0.0
 20
0.0
 30
0.0
  0
SPLINE
  5
67
330
1F
100
AcDbEntity
  8
-8.5mm
 62
     4
370
    25
100
AcDbSpline
210
0.0
220
0.0
230
1.0
 70
    11
 71
     3
 72
    23
 73
    19
 74
     0
 42
0.0000000001
 43
0.0000000001
 12
1.0
 22
0.0
 32
0.0
 13
1.0
 23
0.0
 33
0.0
 40
0.0
 40
0.0
 40
0.0
 40
0.0
 40
1.0
 40
1.0
 40
1.0
 40
2.0
 40
2.0
 40
2.0
 40
3.0
 40
3.0
 40
3.0
 40
4.0
 40
4.0
 40
4.0
 40
5.0
 40
5.0
 40
5.0
 40
6.0
 40
6.0
 40
6.0
 40
6.0
 10
5.558098360169007
 20
45.56730905029437
 30
0.0
 10
2.79667461170534
 20
45.56730905029437
 30
0.0
 10
0.5580983614188598
 20
43.32873280000789
 30
0.0
 10
0.5580983614188598
 20
40.56730905154423
 30
0.0
 10
0.5580983614188598
 20
40.56730905154423
 30
0.0
 10
0.5580983614188598
 20
21.40000055625821
 30
0.0
 10
0.5580983614188598
 20
21.40000055625821
 30
0.0
 10
0.5580983614188598
 20
21.40000055625821
 30
0.0
 10
15.75809687114525
 20
21.40000055625821
 30
0.0
 10
15.75809687114525
 20
21.40000055625821
 30
0.0
 10
15.75809687114525
 20
21.40000055625821
 30
0.0
 10
15.75809687114525
 20
40.56730905154423
 30
0.0
 10
15.75809687114525
 20
40.56730905154423
 30
0.0
 10
15.75809687114525
 20
43.32873280000789
 30
0.0
 10
13.51952062085877
 20
45.56730905029437
 30
0.0
 10
10.7580968723951
 20
45.56730905029437
 30
0.0
 10
10.7580968723951
 20
45.56730905029437
 30
0.0
 10
5.558098360169007
 20
45.56730905029437
 30
0.0
 10
5.558098360169007
 20
45.56730905029437
 30
0.0
  0
SPLINE
  5
69
330
1F
100
AcDbEntity
  8
-8mm
 62
     1
370
    25
100
AcDbSpline
210
0.0
220
0.0
230
1.0
 70
    11
 71
     3
 72
    44
 73
    40
 74
     0
 42
0.0000000001
 43
0.0000000001
 12
1.0
 22
0.0
 32
0.0
 13
1.0
 23
0.0
 33
0.0
 40
0.0
 40
0.0
 40
0.0
 40
0.0
 40
1.0
 40
1.0
 40
1.0
 40
2.0
 40
2.0
 40
2.0
 40
3.0
 40
3.0
 40
3.0
 40
4.0
 40
4.0
 40
4.0
 40
5.0
 40
5.0
 40
5.0
 40
6.0
 40
6.0
 40
6.0
 40
7.0
 40
7.0
 40
7.0
 40
8.0
 40
8.0
 40
8.0
 40
9.0
 40
9.0
 40
9.0
 40
10.0
 40
10.0
 40
10.0
 40
11.0
 40
11.0
 40
11.0
 40
12.0
 40
12.0
 40
12.0
 40
13.0
 40
13.0
 40
13.0
 40
13.0
 10
-132.7972347703887
 20
-41.64476355719862
 30
0.0
 10
-132.7972347703887
 20
-41.64476355719862
 30
0.0
 10
-132.7972347703887
 20
-46.44861113449873
 30
0.0
 10
-132.7972347703887
 20
-46.44861113449873
 30
0.0
 10
-132.7972347703887
 20
-49.76231963348383
 30
0.0
 10
-135.4835262714041
 20
-52.44861113449895
 30
0.0
 10
-138.7972347703889
 20
-52.44861113449895
 30
0.0
 10
-138.7972347703889
 20
-52.44861113449895
 30
0.0
 10
-164.7972347703888
 20
-52.44861113449895
 30
0.0
 10
-164.7972347703888
 20
-52.44861113449895
 30
0.0
 10
-168.1109432693739
 20
-52.44861113449895
 30
0.0
 10
-170.7972347703887
 20
-49.76231963348383
 30
0.0
 10
-170.7972347703887
 20
-46.44861113449873
 30
0.0
 10
-170.7972347703887
 20
-46.44861113449873
 30
0.0
 10
-170.7972347703887
 20
-41.64476355719862
 30
0.0
 10
-170.7972347703887
 20
-41.64476355719862
 30
0.0
 10
-170.7972347703887
 20
-40.18335704774515
 30
0.0
 10
-170.2638643174839
 20
-38.77219147268973
 30
0.0
 10
-169.2972347703868
 20
-37.67613659059963
 30
0.0
 10
-168.3306052232938
 20
-36.58008170850824
 30
0.0
 10
-167.7972347703889
 20
-35.16891613345282
 30
0.0
 10
-167.7972347703889
 20
-33.7075096239987
 30
0.0
 10
-167.7972347703889
 20
-33.7075096239987
 30
0.0
 10
-167.7972347703889
 20
98.55138886425122
 30
0.0
 10
-167.7972347703889
 20
98.55138886425122
 30
0.0
 10
-167.7972347703889
 20
98.55138886425122
 30
0.0
 10
-135.7972347703888
 20
98.55138886425122
 30
0.0
 10
-135.7972347703888
 20
98.55138886425122
 30
0.0
 10
-135.7972347703888
 20
98.55138886425122
 30
0.0
 10
-135.7972347703888
 20
-7.948611134498982
 30
0.0
 10
-135.7972347703888
 20
-7.948611134498982
 30
0.0
 10
-135.7972347703888
 20
-7.948611134498982
 30
0.0
 10
-135.7972347703888
 20
-33.7075096239987
 30
0.0
 10
-135.7972347703888
 20
-33.7075096239987
 30
0.0
 10
-135.7972347703888
 20
-35.16891613345282
 30
0.0
 10
-135.2638643174839
 20
-36.58008170850824
 30
0.0
 10
-134.297234770391
 20
-37.67613659059963
 30
0.0
 10
-133.3306052232938
 20
-38.77219147268973
 30
0.0
 10
-132.7972347703887
 20
-40.18335704774515
 30
0.0
 10
-132.7972347703887
 20
-41.64476355719862
 30
0.0
  0
SPLINE
  5
6A
330
1F
100
AcDbEntity
  8
-8mm
 62
     1
370
    25
100
AcDbSpline
210
0.0
220
0.0
230
1.0
 70
    11
 71
     3
 72
    44
 73
    40
 74
     0
 42
0.0000000001
 43
0.0000000001
 12
1.0
 22
0.0
 32
0.0
 13
1.0
 23
0.0
 33
0.0
 40
0.0
 40
0.0
 40
0.0
 40
0.0
 40
1.0
 40
1.0
 40
1.0
 40
2.0
 40
2.0
 40
2.0
 40
3.0
 40
3.0
 40
3.0
 40
4.0
 40
4.0
 40
4.0
 40
5.0
 40
5.0
 40
5.0
 40
6.0
 40
6.0
 40
6.0
 40
7.0
 40
7.0
 40
7.0
 40
8.0
 40
8.0
 40
8.0
 40
9.0
 40
9.0
 40
9.0
 40
10.0
 40
10.0
 40
10.0
 40
11.0
 40
11.0
 40
11.0
 40
12.0
 40
12.0
 40
12.0
 40
13.0
 40
13.0
 40
13.0
 40
13.0
 10
150.7027652296133
 20
-37.67613659059963
 30
0.0
 10
149.7361356825162
 20
-38.77219147268973
 30
0.0
 10
149.202765229611
 20
-40.18335704774515
 30
0.0
 10
149.202765229611
 20
-41.64476355719862
 30
0.0
 10
149.202765229611
 20
-41.64476355719862
 30
0.0
 10
149.202765229611
 20
-46.44861113449873
 30
0.0
 10
149.202765229611
 20
-46.44861113449873
 30
0.0
 10
149.202765229611
 20
-49.76231963348383
 30
0.0
 10
151.8890567306262
 20
-52.44861113449895
 30
0.0
 10
155.2027652296112
 20
-52.44861113449895
 30
0.0
 10
155.2027652296112
 20
-52.44861113449895
 30
0.0
 10
181.2027652296109
 20
-52.44861113449895
 30
0.0
 10
181.2027652296109
 20
-52.44861113449895
 30
0.0
 10
184.516473728596
 20
-52.44861113449895
 30
0.0
 10
187.2027652296111
 20
-49.76231963348383
 30
0.0
 10
187.2027652296111
 20
-46.44861113449873
 30
0.0
 10
187.2027652296111
 20
-46.44861113449873
 30
0.0
 10
187.2027652296111
 20
-41.64476355719862
 30
0.0
 10
187.2027652296111
 20
-41.64476355719862
 30
0.0
 10
187.2027652296111
 20
-40.18335704774515
 30
0.0
 10
186.6693947767059
 20
-38.77219147268973
 30
0.0
 10
185.7027652296133
 20
-37.6761365905977
 30
0.0
 10
184.7361356825162
 20
-36.58008170850824
 30
0.0
 10
184.202765229611
 20
-35.16891613345282
 30
0.0
 10
184.202765229611
 20
-33.7075096239987
 30
0.0
 10
184.202765229611
 20
-33.7075096239987
 30
0.0
 10
184.202765229611
 20
98.55138886425122
 30
0.0
 10
184.202765229611
 20
98.55138886425122
 30
0.0
 10
184.202765229611
 20
98.55138886425122
 30
0.0
 10
152.2027652296111
 20
98.55138886425122
 30
0.0
 10
152.2027652296111
 20
98.55138886425122
 30
0.0
 10
152.2027652296111
 20
98.55138886425122
 30
0.0
 10
152.2027652296111
 20
-7.948611134498982
 30
0.0
 10
152.2027652296111
 20
-7.948611134498982
 30
0.0
 10
152.2027652296111
 20
-7.948611134498982
 30
0.0
 10
152.2027652296111
 20
-33.7075096239987
 30
0.0
 10
152.2027652296111
 20
-33.7075096239987
 30
0.0
 10
152.2027652296111
 20
-35.16891613345282
 30
0.0
 10
151.6693947767059
 20
-36.58008170850824
 30
0.0
 10
150.7027652296133
 20
-37.67613659059963
 30
0.0
  0
INSERT
  5
6D
330
1F
100
AcDbEntity
  8
-5.5mm
100
AcDbBlockReference
  2
block 9
 10
0.0
 20
0.0
 30
0.0
  0
INSERT
  5
72
330
1F
100
AcDbEntity
  8
-5.5mm
100
AcDbBlockReference
  2
block 10
 10
0.0
 20
0.0
 30
0.0
  0
SPLINE
  5
76
330
1F
100
AcDbEntity
  8
-5.5mm
 62
     2
370
    25
100
AcDbSpline
210
0.0
220
0.0
230
1.0
 70
    11
 71
     3
 72
    29
 73
    25
 74
     0
 42
0.0000000001
 43
0.0000000001
 12
1.0
 22
0.0
 32
0.0
 13
1.0
 23
0.0
 33
0.0
 40
0.0
 40
0.0
 40
0.0
 40
0.0
 40
1.0
 40
1.0
 40
1.0
 40
2.0
 40
2.0
 40
2.0
 40
3.0
 40
3.0
 40
3.0
 40
4.0
 40
4.0
 40
4.0
 40
5.0
 40
5.0
 40
5.0
 40
6.0
 40
6.0
 40
6.0
 40
7.0
 40
7.0
 40
7.0
 40
8.0
 40
8.0
 40
8.0
 40
8.0
 10
132.1944444113948
 20
-44.72268517400321
 30
0.0
 10
132.1944444113948
 20
-44.72268517400321
 30
0.0
 10
116.2129629339088
 20
-44.72268517400321
 30
0.0
 10
116.2129629339088
 20
-44.72268517400321
 30
0.0
 10
109.6129629355584
 20
-44.72268517400321
 30
0.0
 10
104.212962936909
 20
-39.32268517535316
 30
0.0
 10
104.212962936909
 20
-32.72268517700337
 30
0.0
 10
104.212962936909
 20
-32.72268517700337
 30
0.0
 10
104.212962936909
 20
24.65138888272762
 30
0.0
 10
104.212962936909
 20
24.65138888272762
 30
0.0
 10
104.212962936909
 20
31.2513888810774
 30
0.0
 10
109.6129629355584
 20
36.65138887972746
 30
0.0
 10
116.2129629339088
 20
36.65138887972746
 30
0.0
 10
116.2129629339088
 20
36.65138887972746
 30
0.0
 10
132.1944444113948
 20
36.65138887972746
 30
0.0
 10
132.1944444113948
 20
36.65138887972746
 30
0.0
 10
138.7944444097452
 20
36.65138887972746
 30
0.0
 10
144.1944444083946
 20
31.2513888810774
 30
0.0
 10
144.1944444083946
 20
24.65138888272762
 30
0.0
 10
144.1944444083946
 20
24.65138888272762
 30
0.0
 10
144.1944444083946
 20
-32.72268517700337
 30
0.0
 10
144.1944444083946
 20
-32.72268517700337
 30
0.0
 10
144.1944444083946
 20
-39.32268517535316
 30
0.0
 10
138.7944444097452
 20
-44.72268517400321
 30
0.0
 10
132.1944444113948
 20
-44.72268517400321
 30
0.0
  0
SPLINE
  5
77
330
1F
100
AcDbEntity
  8
-5.5mm
 62
     6
370
    25
100
AcDbSpline
210
0.0
220
0.0
230
1.0
 70
    11
 71
     3
 72
    77
 73
    73
 74
     0
 42
0.0000000001
 43
0.0000000001
 12
1.0
 22
0.0
 32
0.0
 13
1.0
 23
0.0
 33
0.0
 40
0.0
 40
0.0
 40
0.0
 40
0.0
 40
1.0
 40
1.0
 40
1.0
 40
2.0
 40
2.0
 40
2.0
 40
3.0
 40
3.0
 40
3.0
 40
4.0
 40
4.0
 40
4.0
 40
5.0
 40
5.0
 40
5.0
 40
6.0
 40
6.0
 40
6.0
 40
7.0
 40
7.0
 40
7.0
 40
8.0
 40
8.0
 40
8.0
 40
9.0
 40
9.0
 40
9.0
 40
10.0
 40
10.0
 40
10.0
 40
11.0
 40
11.0
 40
11.0
 40
12.0
 40
12.0
 40
12.0
 40
13.0
 40
13.0
 40
13.0
 40
14.0
 40
14.0
 40
14.0
 40
15.0
 40
15.0
 40
15.0
 40
16.0
 40
16.0
 40
16.0
 40
17.0
 40
17.0
 40
17.0
 40
18.0
 40
18.0
 40
18.0
 40
19.0
 40
19.0
 40
19.0
 40
20.0
 40
20.0
 40
20.0
 40
21.0
 40
21.0
 40
21.0
 40
22.0
 40
22.0
 40
22.0
 40
23.0
 40
23.0
 40
23.0
 40
24.0
 40
24.0
 40
24.0
 40
24.0
 10
-23.79712591636312
 20
-35.44865450502672
 30
0.0
 10
-30.42454291267579
 20
-35.44865450502672
 30
0.0
 10
-35.79712591336327
 20
-30.07607150433956
 30
0.0
 10
-35.79712591336327
 20
-23.44865450802689
 30
0.0
 10
-35.79712591336327
 20
-23.44865450802689
 30
0.0
 10
-35.79712591336327
 20
-21.94870333652671
 30
0.0
 10
-35.79712591336327
 20
-21.94870333652671
 30
0.0
 10
-35.79712591336327
 20
-18.91108477732756
 30
0.0
 10
-38.25960229636517
 20
-16.44860839432535
 30
0.0
 10
-41.29722085556465
 20
-16.44860839432535
 30
0.0
 10
-41.29722085556465
 20
-16.44860839432535
 30
0.0
 10
-58.79705673443637
 20
-16.44860839432535
 30
0.0
 10
-58.79705673443637
 20
-16.44860839432535
 30
0.0
 10
-65.42447373074873
 20
-16.44860839432535
 30
0.0
 10
-70.79705673143621
 20
-11.07602539363818
 30
0.0
 10
-70.79705673143621
 20
-4.44860839732551
 30
0.0
 10
-70.79705673143621
 20
-4.44860839732551
 30
0.0
 10
-70.79705673143621
 20
-3.448239473964168
 30
0.0
 10
-70.79705673143621
 20
-3.448239473964168
 30
0.0
 10
-70.79705673143621
 20
3.179177522348505
 30
0.0
 10
-65.42447373074873
 20
8.551760523035671
 30
0.0
 10
-58.79705673443637
 20
8.551760523035671
 30
0.0
 10
-58.79705673443637
 20
8.551760523035671
 30
0.0
 10
-41.29722085556465
 20
8.551760523035671
 30
0.0
 10
-41.29722085556465
 20
8.551760523035671
 30
0.0
 10
-38.25960229636517
 20
8.551760523035671
 30
0.0
 10
-35.79712591336327
 20
11.01423690603788
 30
0.0
 10
-35.79712591336327
 20
14.05185546523704
 30
0.0
 10
-35.79712591336327
 20
14.05185546523704
 30
0.0
 10
-35.79712591336327
 20
15.5512898724141
 30
0.0
 10
-35.79712591336327
 20
15.5512898724141
 30
0.0
 10
-35.79712591336327
 20
22.17870686872677
 30
0.0
 10
-30.42454291267611
 20
27.55128986941426
 30
0.0
 10
-23.79712591636312
 20
27.55128986941426
 30
0.0
 10
-23.79712591636312
 20
27.55128986941426
 30
0.0
 10
40.20284287189005
 20
27.55128986941426
 30
0.0
 10
40.20284287189005
 20
27.55128986941426
 30
0.0
 10
46.83025986820336
 20
27.55128986941426
 30
0.0
 10
52.20284286888989
 20
22.17870686872677
 30
0.0
 10
52.20284286888989
 20
15.5512898724141
 30
0.0
 10
52.20284286888989
 20
15.5512898724141
 30
0.0
 10
52.20284286888989
 20
14.05151095568851
 30
0.0
 10
52.20284286888989
 20
14.05151095568851
 30
0.0
 10
52.20284286888989
 20
11.01408266385897
 30
0.0
 10
54.66516500971318
 20
8.551760523035671
 30
0.0
 10
57.70259330154273
 20
8.551760523035671
 30
0.0
 10
57.70259330154273
 20
8.551760523035671
 30
0.0
 10
75.20294594473725
 20
8.551760523035671
 30
0.0
 10
75.20294594473725
 20
8.551760523035671
 30
0.0
 10
81.83036294105057
 20
8.551760523035671
 30
0.0
 10
87.20294594173708
 20
3.179177522348505
 30
0.0
 10
87.20294594173708
 20
-3.448239473964168
 30
0.0
 10
87.20294594173708
 20
-3.448239473964168
 30
0.0
 10
87.20294594173708
 20
-4.44860839732551
 30
0.0
 10
87.20294594173708
 20
-4.44860839732551
 30
0.0
 10
87.20294594173708
 20
-11.07602539363818
 30
0.0
 10
81.83036294105057
 20
-16.44860839432535
 30
0.0
 10
75.20294594473725
 20
-16.44860839432535
 30
0.0
 10
75.20294594473725
 20
-16.44860839432535
 30
0.0
 10
57.70259330154273
 20
-16.44860839432535
 30
0.0
 10
57.70259330154273
 20
-16.44860839432535
 30
0.0
 10
54.66516500971318
 20
-16.44860839432535
 30
0.0
 10
52.20284286888989
 20
-18.91093053514864
 30
0.0
 10
52.20284286888989
 20
-21.94835882697819
 30
0.0
 10
52.20284286888989
 20
-21.94835882697819
 30
0.0
 10
52.20284286888989
 20
-23.44865450802689
 30
0.0
 10
52.20284286888989
 20
-23.44865450802689
 30
0.0
 10
52.20284286888989
 20
-30.07607150433956
 30
0.0
 10
46.83025986820336
 20
-35.44865450502672
 30
0.0
 10
40.20284287189005
 20
-35.44865450502672
 30
0.0
 10
40.20284287189005
 20
-35.44865450502672
 30
0.0
 10
-23.79712591636312
 20
-35.44865450502672
 30
0.0
 10
-23.79712591636312
 20
-35.44865450502672
 30
0.0
  0
SPLINE
  5
78
330
1F
100
AcDbEntity
  8
-5.5mm
 62
     6
370
    25
100
AcDbSpline
210
0.0
220
0.0
230
1.0
 70
    11
 71
     3
 72
   125
 73
   121
 74
     0
 42
0.0000000001
 43
0.0000000001
 12
1.0
 22
0.0
 32
0.0
 13
1.0
 23
0.0
 33
0.0
 40
0.0
 40
0.0
 40
0.0
 40
0.0
 40
1.0
 40
1.0
 40
1.0
 40
2.0
 40
2.0
 40
2.0
 40
3.0
 40
3.0
 40
3.0
 40
4.0
 40
4.0
 40
4.0
 40
5.0
 40
5.0
 40
5.0
 40
6.0
 40
6.0
 40
6.0
 40
7.0
 40
7.0
 40
7.0
 40
8.0
 40
8.0
 40
8.0
 40
9.0
 40
9.0
 40
9.0
 40
10.0
 40
10.0
 40
10.0
 40
11.0
 40
11.0
 40
11.0
 40
12.0
 40
12.0
 40
12.0
 40
13.0
 40
13.0
 40
13.0
 40
14.0
 40
14.0
 40
14.0
 40
15.0
 40
15.0
 40
15.0
 40
16.0
 40
16.0
 40
16.0
 40
17.0
 40
17.0
 40
17.0
 40
18.0
 40
18.0
 40
18.0
 40
19.0
 40
19.0
 40
19.0
 40
20.0
 40
20.0
 40
20.0
 40
21.0
 40
21.0
 40
21.0
 40
22.0
 40
22.0
 40
22.0
 40
23.0
 40
23.0
 40
23.0
 40
24.0
 40
24.0
 40
24.0
 40
25.0
 40
25.0
 40
25.0
 40
26.0
 40
26.0
 40
26.0
 40
27.0
 40
27.0
 40
27.0
 40
28.0
 40
28.0
 40
28.0
 40
29.0
 40
29.0
 40
29.0
 40
30.0
 40
30.0
 40
30.0
 40
31.0
 40
31.0
 40
31.0
 40
32.0
 40
32.0
 40
32.0
 40
33.0
 40
33.0
 40
33.0
 40
34.0
 40
34.0
 40
34.0
 40
35.0
 40
35.0
 40
35.0
 40
36.0
 40
36.0
 40
36.0
 40
37.0
 40
37.0
 40
37.0
 40
38.0
 40
38.0
 40
38.0
 40
39.0
 40
39.0
 40
39.0
 40
40.0
 40
40.0
 40
40.0
 40
40.0
 10
-23.79716931913751
 20
-35.94853785993648
 30
0.0
 10
-26.71103108056183
 20
-35.94853785993648
 30
0.0
 10
-29.54651691969671
 20
-34.92362195307465
 30
0.0
 10
-31.78513996601205
 20
-33.06154784329711
 30
0.0
 10
-32.43092311472213
 20
-32.64227972274221
 30
0.0
 10
-32.99178465972081
 20
-32.08141817774354
 30
0.0
 10
-33.41036376117866
 20
-31.43615179335624
 30
0.0
 10
-35.27226561618193
 20
-29.19787325658942
 30
0.0
 10
-36.29718152304376
 20
-26.36255967222881
 30
0.0
 10
-36.29718152304376
 20
-23.44869791080449
 30
0.0
 10
-36.29718152304376
 20
-23.44869791080449
 30
0.0
 10
-36.29718152304376
 20
-21.94870333652671
 30
0.0
 10
-36.29718152304376
 20
-21.94870333652671
 30
0.0
 10
-36.29718152304376
 20
-19.19159341968127
 30
0.0
 10
-38.54011093871567
 20
-16.9484917492351
 30
0.0
 10
-41.29722085556111
 20
-16.9484917492351
 30
0.0
 10
-41.29722085556111
 20
-16.9484917492351
 30
0.0
 10
-58.79710013721045
 20
-16.9484917492351
 30
0.0
 10
-58.79710013721045
 20
-16.9484917492351
 30
0.0
 10
-63.96353758166537
 20
-16.9484917492351
 30
0.0
 10
-68.60787080533068
 20
-13.74765353388948
 30
0.0
 10
-70.45995413820098
 20
-8.948635522936453
 30
0.0
 10
-70.45995413820098
 20
-8.948635522936453
 30
0.0
 10
-135.6645873684276
 20
-8.948635522936453
 30
0.0
 10
-135.6645873684276
 20
-8.948635522936453
 30
0.0
 10
-138.1619370856852
 20
-8.948635522936453
 30
0.0
 10
-140.7517876167218
 20
-6.467822264008045
 30
0.0
 10
-140.7964016032558
 20
-4.03282877503346
 30
0.0
 10
-140.8182779595871
 20
-2.834624565263566
 30
0.0
 10
-140.2596557266538
 20
-1.566140407594576
 30
0.0
 10
-139.2638508766424
 20
-0.551559787188499
 30
0.0
 10
-138.2635674025001
 20
0.4671549477998779
 30
0.0
 10
-137.0000786332847
 20
1.051098632549725
 30
0.0
 10
-135.7972235446097
 20
1.051098632549725
 30
0.0
 10
-135.7972235446097
 20
1.051098632549725
 30
0.0
 10
-70.46012639297525
 20
1.051098632549725
 30
0.0
 10
-70.46012639297525
 20
1.051098632549725
 30
0.0
 10
-68.6082153148792
 20
5.850805662599799
 30
0.0
 10
-63.96474336508521
 20
9.051643877945423
 30
0.0
 10
-58.79710013721045
 20
9.051643877945423
 30
0.0
 10
-58.79710013721045
 20
9.051643877945423
 30
0.0
 10
-41.29722085556111
 20
9.051643877945423
 30
0.0
 10
-41.29722085556111
 20
9.051643877945423
 30
0.0
 10
-38.54011093871567
 20
9.051643877945423
 30
0.0
 10
-36.29718152304376
 20
11.29474554839159
 30
0.0
 10
-36.29718152304376
 20
14.05185546523704
 30
0.0
 10
-36.29718152304376
 20
14.05185546523704
 30
0.0
 10
-36.29718152304376
 20
15.55133327519203
 30
0.0
 10
-36.29718152304376
 20
15.55133327519203
 30
0.0
 10
-36.29718152304376
 20
18.46502278184208
 30
0.0
 10
-35.27226561618193
 20
21.3003363662027
 30
0.0
 10
-33.41070827072718
 20
23.53861490296951
 30
0.0
 10
-32.99161240494654
 20
24.18457030645386
 30
0.0
 10
-32.43023409562508
 20
24.74577636100106
 30
0.0
 10
-31.78427869214074
 20
25.1648722267817
 30
0.0
 10
-29.54617241014818
 20
27.02642957223645
 30
0.0
 10
-26.71085882578756
 20
28.05134547909828
 30
0.0
 10
-23.79716931913751
 20
28.05134547909828
 30
0.0
 10
-23.79716931913751
 20
28.05134547909828
 30
0.0
 10
40.2028862746715
 20
28.05134547909828
 30
0.0
 10
40.2028862746715
 20
28.05134547909828
 30
0.0
 10
43.11674803609581
 20
28.05134547909828
 30
0.0
 10
45.95206162045643
 20
27.02625731746219
 30
0.0
 10
48.19034015722325
 20
25.16452771723317
 30
0.0
 10
48.83595105115907
 20
24.74560410622679
 30
0.0
 10
49.39681259615774
 20
24.18457030645386
 30
0.0
 10
49.81573620716412
 20
23.53930392206657
 30
0.0
 10
51.67781031694166
 20
21.30068087575122
 30
0.0
 10
52.70272622380349
 20
18.46519503661634
 30
0.0
 10
52.70272622380349
 20
15.55133327519203
 30
0.0
 10
52.70272622380349
 20
15.55133327519203
 30
0.0
 10
52.70272622380349
 20
14.05151095568851
 30
0.0
 10
52.70272622380349
 20
14.05151095568851
 30
0.0
 10
52.70272622380349
 20
11.29474554839159
 30
0.0
 10
54.94582789424965
 20
9.051643877945423
 30
0.0
 10
57.70259330154658
 20
9.051643877945423
 30
0.0
 10
57.70259330154658
 20
9.051643877945423
 30
0.0
 10
75.2029893475187
 20
9.051643877945423
 30
0.0
 10
75.2029893475187
 20
9.051643877945423
 30
0.0
 10
80.36959904674788
 20
9.051643877945423
 30
0.0
 10
85.01427677996172
 20
5.850461153051274
 30
0.0
 10
86.8660156032835
 20
1.051098632549725
 30
0.0
 10
86.8660156032835
 20
1.051098632549725
 30
0.0
 10
152.0589355088603
 20
1.051098632549725
 30
0.0
 10
152.0589355088603
 20
1.051098632549725
 30
0.0
 10
154.5683430603163
 20
1.051098632549725
 30
0.0
 10
157.164222508452
 20
-1.435915798252132
 30
0.0
 10
157.2021185587897
 20
-3.876765949551642
 30
0.0
 10
157.2207220744101
 20
-5.07324761157891
 30
0.0
 10
156.66020503896
 20
-6.33966471195675
 30
0.0
 10
155.6638834246257
 20
-7.351144746426103
 30
0.0
 10
154.6644612243547
 20
-8.36641438592923
 30
0.0
 10
153.4028672576562
 20
-8.948635522936453
 30
0.0
 10
152.2029405001437
 20
-8.948635522936453
 30
0.0
 10
152.2029405001437
 20
-8.948635522936453
 30
0.0
 10
86.86567109373497
 20
-8.948635522936453
 30
0.0
 10
86.86567109373497
 20
-8.948635522936453
 30
0.0
 10
85.01358776086467
 20
-13.74765353388948
 30
0.0
 10
80.36959904674788
 20
-16.9484917492351
 30
0.0
 10
75.2029893475187
 20
-16.9484917492351
 30
0.0
 10
75.2029893475187
 20
-16.9484917492351
 30
0.0
 10
57.70259330154658
 20
-16.9484917492351
 30
0.0
 10
57.70259330154658
 20
-16.9484917492351
 30
0.0
 10
54.94582789424965
 20
-16.9484917492351
 30
0.0
 10
52.70272622380349
 20
-19.19159341968127
 30
0.0
 10
52.70272622380349
 20
-21.94835882697819
 30
0.0
 10
52.70272622380349
 20
-21.94835882697819
 30
0.0
 10
52.70272622380349
 20
-23.44869791080449
 30
0.0
 10
52.70272622380349
 20
-23.44869791080449
 30
0.0
 10
52.70272622380349
 20
-26.36255967222881
 30
0.0
 10
51.67781031694166
 20
-29.19821776613795
 30
0.0
 10
49.81573620716412
 20
-31.43684081245329
 30
0.0
 10
49.39715710570627
 20
-32.08210719684059
 30
0.0
 10
48.8362955607076
 20
-32.64262423229074
 30
0.0
 10
48.1910291763203
 20
-33.06120333374859
 30
0.0
 10
45.95240613000496
 20
-34.92362195307465
 30
0.0
 10
43.11709254564434
 20
-35.94853785993648
 30
0.0
 10
40.2028862746715
 20
-35.94853785993648
 30
0.0
 10
40.2028862746715
 20
-35.94853785993648
 30
0.0
 10
-23.79716931913751
 20
-35.94853785993648
 30
0.0
 10
-23.79716931913751
 20
-35.94853785993648
 30
0.0
  0
SPLINE
  5
79
330
1F
100
AcDbEntity
  8
-5.5mm
 62
     1
370
    25
100
AcDbSpline
210
0.0
220
0.0
230
1.0
 70
    11
 71
     3
 72
    29
 73
    25
 74
     0
 42
0.0000000001
 43
0.0000000001
 12
1.0
 22
0.0
 32
0.0
 13
1.0
 23
0.0
 33
0.0
 40
0.0
 40
0.0
 40
0.0
 40
0.0
 40
1.0
 40
1.0
 40
1.0
 40
2.0
 40
2.0
 40
2.0
 40
3.0
 40
3.0
 40
3.0
 40
4.0
 40
4.0
 40
4.0
 40
5.0
 40
5.0
 40
5.0
 40
6.0
 40
6.0
 40
6.0
 40
7.0
 40
7.0
 40
7.0
 40
8.0
 40
8.0
 40
8.0
 40
8.0
 10
-136.2972724732888
 20
-39.9784134107084
 30
0.0
 10
-136.2972724732888
 20
-39.9784134107084
 30
0.0
 10
-136.297278492977
 20
86.05138003433885
 30
0.0
 10
-136.297278492977
 20
86.05138003433885
 30
0.0
 10
-136.2972788095291
 20
92.67879675813028
 30
0.0
 10
-141.6698616780333
 20
98.05137937001841
 30
0.0
 10
-148.2972784018247
 20
98.05137937001841
 30
0.0
 10
-148.2972784018247
 20
98.05137937001841
 30
0.0
 10
-155.2971096074468
 20
98.05137937001841
 30
0.0
 10
-155.2971096074468
 20
98.05137937001841
 30
0.0
 10
-161.9245266037595
 20
98.05137937001841
 30
0.0
 10
-167.2971096044466
 20
92.67879636933124
 30
0.0
 10
-167.2971096044466
 20
86.05137937301858
 30
0.0
 10
-167.2971096044466
 20
86.05137937301858
 30
0.0
 10
-167.2971096044466
 20
-40.02187224322479
 30
0.0
 10
-167.2971096044466
 20
-40.02187224322479
 30
0.0
 10
-167.2971096044466
 20
-46.67840229299203
 30
0.0
 10
-161.879011202011
 20
-52.06296702862229
 30
0.0
 10
-155.2226094367272
 20
-52.02164097651939
 30
0.0
 10
-155.2226094367272
 20
-52.02164097651939
 30
0.0
 10
-148.222772299569
 20
-51.97818271717179
 30
0.0
 10
-148.222772299569
 20
-51.97818271717179
 30
0.0
 10
-141.6245578867204
 20
-51.93721791933868
 30
0.0
 10
-136.2972721581254
 20
-46.57675498663425
 30
0.0
 10
-136.2972724732888
 20
-39.9784134107084
 30
0.0
  0
SPLINE
  5
7A
330
1F
100
AcDbEntity
  8
-5.5mm
 62
     1
370
    25
100
AcDbSpline
210
0.0
220
0.0
230
1.0
 70
    11
 71
     3
 72
    29
 73
    25
 74
     0
 42
0.0000000001
 43
0.0000000001
 12
1.0
 22
0.0
 32
0.0
 13
1.0
 23
0.0
 33
0.0
 40
0.0
 40
0.0
 40
0.0
 40
0.0
 40
1.0
 40
1.0
 40
1.0
 40
2.0
 40
2.0
 40
2.0
 40
3.0
 40
3.0
 40
3.0
 40
4.0
 40
4.0
 40
4.0
 40
5.0
 40
5.0
 40
5.0
 40
6.0
 40
6.0
 40
6.0
 40
7.0
 40
7.0
 40
7.0
 40
8.0
 40
8.0
 40
8.0
 40
8.0
 10
152.7028238550496
 20
-40.15853043817712
 30
0.0
 10
152.7028238550496
 20
-40.15853043817712
 30
0.0
 10
152.7028238550496
 20
86.00138886739013
 30
0.0
 10
152.7028238550496
 20
86.00138886739013
 30
0.0
 10
152.7028238550496
 20
92.6288058637028
 30
0.0
 10
158.0754068557374
 20
98.00138886438997
 30
0.0
 10
164.7028238520494
 20
98.00138886438997
 30
0.0
 10
164.7028238520494
 20
98.00138886438997
 30
0.0
 10
171.7028265629734
 20
98.00138886438997
 30
0.0
 10
171.7028265629734
 20
98.00138886438997
 30
0.0
 10
178.3302435592867
 20
98.00138886438997
 30
0.0
 10
183.7028265599732
 20
92.6288058637028
 30
0.0
 10
183.7028265599732
 20
86.00138886739013
 30
0.0
 10
183.7028265599732
 20
86.00138886739013
 30
0.0
 10
183.7028265599732
 20
-40.15853043817712
 30
0.0
 10
183.7028265599732
 20
-40.15853043817712
 30
0.0
 10
183.7028265599732
 20
-46.78594743448979
 30
0.0
 10
178.3302435592867
 20
-52.15853043517696
 30
0.0
 10
171.7028265629734
 20
-52.15853043517696
 30
0.0
 10
171.7028265629734
 20
-52.15853043517696
 30
0.0
 10
164.7028238520494
 20
-52.15853043517696
 30
0.0
 10
164.7028238520494
 20
-52.15853043517696
 30
0.0
 10
158.0754068557374
 20
-52.15853043517696
 30
0.0
 10
152.7028238550496
 20
-46.78594743448979
 30
0.0
 10
152.7028238550496
 20
-40.15853043817712
 30
0.0
  0
SPLINE
  5
7B
330
1F
100
AcDbEntity
  8
-5.5mm
 62
     2
370
    25
100
AcDbSpline
210
0.0
220
0.0
230
1.0
 70
    11
 71
     3
 72
    29
 73
    25
 74
     0
 42
0.0000000001
 43
0.0000000001
 12
1.0
 22
0.0
 32
0.0
 13
1.0
 23
0.0
 33
0.0
 40
0.0
 40
0.0
 40
0.0
 40
0.0
 40
1.0
 40
1.0
 40
1.0
 40
2.0
 40
2.0
 40
2.0
 40
3.0
 40
3.0
 40
3.0
 40
4.0
 40
4.0
 40
4.0
 40
5.0
 40
5.0
 40
5.0
 40
6.0
 40
6.0
 40
6.0
 40
7.0
 40
7.0
 40
7.0
 40
8.0
 40
8.0
 40
8.0
 40
8.0
 10
-99.81574071578825
 20
-44.72268517400321
 30
0.0
 10
-99.81574071578825
 20
-44.72268517400321
 30
0.0
 10
-115.7972221932743
 20
-44.72268517400321
 30
0.0
 10
-115.7972221932743
 20
-44.72268517400321
 30
0.0
 10
-122.3972221916244
 20
-44.72268517400321
 30
0.0
 10
-127.7972221902744
 20
-39.32268517535316
 30
0.0
 10
-127.7972221902744
 20
-32.72268517700337
 30
0.0
 10
-127.7972221902744
 20
-32.72268517700337
 30
0.0
 10
-127.7972221902744
 20
24.65138888272762
 30
0.0
 10
-127.7972221902744
 20
24.65138888272762
 30
0.0
 10
-127.7972221902744
 20
31.2513888810774
 30
0.0
 10
-122.3972221916244
 20
36.65138887972746
 30
0.0
 10
-115.7972221932743
 20
36.65138887972746
 30
0.0
 10
-115.7972221932743
 20
36.65138887972746
 30
0.0
 10
-99.81574071578825
 20
36.65138887972746
 30
0.0
 10
-99.81574071578825
 20
36.65138887972746
 30
0.0
 10
-93.21574071743815
 20
36.65138887972746
 30
0.0
 10
-87.81574071878809
 20
31.2513888810774
 30
0.0
 10
-87.81574071878809
 20
24.65138888272762
 30
0.0
 10
-87.81574071878809
 20
24.65138888272762
 30
0.0
 10
-87.81574071878809
 20
-32.72268517700337
 30
0.0
 10
-87.81574071878809
 20
-32.72268517700337
 30
0.0
 10
-87.81574071878809
 20
-39.32268517535316
 30
0.0
 10
-93.21574071743815
 20
-44.72268517400321
 30
0.0
 10
-99.81574071578825
 20
-44.72268517400321
 30
0.0
  0
ENDSEC
  0
SECTION
  2
OBJECTS
  0
DICTIONARY
  5
C
330
0
100
AcDbDictionary
281
     1
  3
ACAD_GROUP
350
D
  3
ACAD_LAYOUT
350
1A
  3
ACAD_MATERIAL
350
3B
  3
ACAD_MLEADERSTYLE
350
7D
  3
ACAD_MLINESTYLE
350
17
  3
ACAD_PLOTSETTINGS
350
19
  3
ACAD_PLOTSTYLENAME
350
E
  3
ACAD_TABLESTYLE
350
7C
  3
ACAD_VISUALSTYLE
350
2A
  0
SUN
  5
3F
330
29
100
AcDbSun
 90
        1
290
     0
 63
     7
421
 16777215
 40
1.0
291
     1
 91
  2455826
 92
 54000000
292
     0
 70
     2
 71
   256
280
     1
  0
DICTIONARY
  5
D
102
{ACAD_REACTORS
330
C
102
}
330
C
100
AcDbDictionary
281
     1
  0
DICTIONARY
  5
1A
102
{ACAD_REACTORS
330
C
102
}
330
C
100
AcDbDictionary
281
     1
  3
Layout1
350
1E
  3
Layout2
350
26
  3
Model
350
22
  0
DICTIONARY
  5
3B
102
{ACAD_REACTORS
330
C
102
}
330
C
100
AcDbDictionary
281
     1
  3
ByBlock
350
3D
  3
ByLayer
350
3C
  3
Global
350
3E
  0
DICTIONARY
  5
7D
102
{ACAD_REACTORS
330
C
102
}
330
C
100
AcDbDictionary
281
     1
  0
DICTIONARY
  5
17
102
{ACAD_REACTORS
330
C
102
}
330
C
100
AcDbDictionary
281
     1
  3
Standard
350
18
  0
DICTIONARY
  5
19
102
{ACAD_REACTORS
330
C
102
}
330
C
100
AcDbDictionary
281
     1
  0
ACDBDICTIONARYWDFLT
  5
E
102
{ACAD_REACTORS
330
C
102
}
330
C
100
AcDbDictionary
281
     1
  3
Normal
350
F
100
AcDbDictionaryWithDefault
340
F
  0
DICTIONARY
  5
7C
102
{ACAD_REACTORS
330
C
102
}
330
C
100
AcDbDictionary
281
     1
  0
DICTIONARY
  5
2A
102
{ACAD_REACTORS
330
C
102
}
330
C
100
AcDbDictionary
281
     1
  3
2dWireframe
350
2F
  3
3D Hidden
350
31
  3
3dWireframe
350
30
  3
Basic
350
32
  3
Brighten
350
36
  3
ColorChange
350
3A
  3
Conceptual
350
34
  3
Dim
350
35
  3
Facepattern
350
39
  3
Flat
350
2B
  3
FlatWithEdges
350
2C
  3
Gouraud
350
2D
  3
GouraudWithEdges
350
2E
  3
Linepattern
350
38
  3
Realistic
350
33
  3
Thicken
350
37
  0
LAYOUT
  5
1E
102
{ACAD_REACTORS
330
1A
102
}
330
1A
100
AcDbPlotSettings
  1

  2
none_device
  4

  6

 40
0.0
 41
0.0
 42
0.0
 43
0.0
 44
0.0
 45
0.0
 46
0.0
 47
0.0
 48
0.0
 49
0.0
140
0.0
141
0.0
142
1.0
143
1.0
 70
   688
 72
     0
 73
     0
 74
     5
  7

 75
    16
 76
     0
 77
     2
 78
   300
147
1.0
148
0.0
149
0.0
100
AcDbLayout
  1
Layout1
 70
     1
 71
     1
 10
0.0
 20
0.0
 11
12.0
 21
9.0
 12
0.0
 22
0.0
 32
0.0
 14
1.000000000000000E+20
 24
1.000000000000000E+20
 34
1.000000000000000E+20
 15
-1.000000000000000E+20
 25
-1.000000000000000E+20
 35
-1.000000000000000E+20
146
0.0
 13
0.0
 23
0.0
 33
0.0
 16
1.0
 26
0.0
 36
0.0
 17
0.0
 27
1.0
 37
0.0
 76
     0
330
1B
  0
LAYOUT
  5
26
102
{ACAD_REACTORS
330
1A
102
}
330
1A
100
AcDbPlotSettings
  1

  2
none_device
  4

  6

 40
0.0
 41
0.0
 42
0.0
 43
0.0
 44
0.0
 45
0.0
 46
0.0
 47
0.0
 48
0.0
 49
0.0
140
0.0
141
0.0
142
1.0
143
1.0
 70
   688
 72
     0
 73
     0
 74
     5
  7

 75
    16
 76
     0
 77
     2
 78
   300
147
1.0
148
0.0
149
0.0
100
AcDbLayout
  1
Layout2
 70
     1
 71
     2
 10
0.0
 20
0.0
 11
0.0
 21
0.0
 12
0.0
 22
0.0
 32
0.0
 14
0.0
 24
0.0
 34
0.0
 15
0.0
 25
0.0
 35
0.0
146
0.0
 13
0.0
 23
0.0
 33
0.0
 16
1.0
 26
0.0
 36
0.0
 17
0.0
 27
1.0
 37
0.0
 76
     0
330
23
  0
LAYOUT
  5
22
102
{ACAD_REACTORS
330
1A
102
}
330
1A
100
AcDbPlotSettings
  1

  2
none_device
  4

  6

 40
0.0
 41
0.0
 42
0.0
 43
0.0
 44
0.0
 45
0.0
 46
0.0
 47
0.0
 48
0.0
 49
0.0
140
0.0
141
0.0
142
1.0
143
1.0
 70
  1712
 72
     0
 73
     0
 74
     0
  7

 75
     0
 76
     0
 77
     2
 78
   300
147
1.0
148
0.0
149
0.0
100
AcDbLayout
  1
Model
 70
     1
 71
     0
 10
0.0
 20
0.0
 11
12.0
 21
9.0
 12
0.0
 22
0.0
 32
0.0
 14
1.000000000000000E+20
 24
1.000000000000000E+20
 34
1.000000000000000E+20
 15
-1.000000000000000E+20
 25
-1.000000000000000E+20
 35
-1.000000000000000E+20
146
0.0
 13
0.0
 23
0.0
 33
0.0
 16
1.0
 26
0.0
 36
0.0
 17
0.0
 27
1.0
 37
0.0
 76
     0
330
1F
331
29
  0
MATERIAL
  5
3D
102
{ACAD_REACTORS
330
3B
102
}
330
3B
100
AcDbMaterial
  1
ByBlock
 72
     1
 94
      127
  0
MATERIAL
  5
3C
102
{ACAD_REACTORS
330
3B
102
}
330
3B
100
AcDbMaterial
  1
ByLayer
 72
     1
 94
      127
  0
MATERIAL
  5
3E
102
{ACAD_REACTORS
330
3B
102
}
330
3B
100
AcDbMaterial
  1
Global
 72
     1
 94
      127
  0
MLINESTYLE
  5
18
102
{ACAD_REACTORS
330
17
102
}
330
17
100
AcDbMlineStyle
  2
Standard
 70
     0
  3

 62
   256
 51
90.0
 52
90.0
 71
     2
 49
0.5
 62
   256
  6
BYLAYER
 49
-0.5
 62
   256
  6
BYLAYER
  0
ACDBPLACEHOLDER
  5
F
102
{ACAD_REACTORS
330
E
102
}
330
E
  0
VISUALSTYLE
  5
2F
102
{ACAD_REACTORS
330
2A
102
}
330
2A
100
AcDbVisualStyle
  2
2dWireframe
 70
     4
177
     2
291
     0
 71
     0
176
     1
 72
     2
176
     1
 73
     0
176
     1
 90
        0
176
     1
 40
-0.6
176
     1
 41
-30.0
176
     1
 62
     5
 63
     7
421
 16777215
176
     1
 74
     1
176
     1
 91
        4
176
     1
 64
     7
176
     1
 65
   257
176
     1
 75
     1
176
     1
175
     1
176
     1
 42
1.0
176
     1
 92
        0
176
     1
 66
   257
176
     1
 43
1.0
176
     1
 76
     1
176
     1
 77
     6
176
     1
 78
     2
176
     1
 67
     7
176
     1
 79
     5
176
     1
170
     0
176
     1
171
     0
176
     1
290
     0
176
     1
 93
        1
176
     1
 44
0.0
176
     1
173
     0
176
     1
  0
VISUALSTYLE
  5
31
102
{ACAD_REACTORS
330
2A
102
}
330
2A
100
AcDbVisualStyle
  2
3D Hidden
 70
     6
177
     2
291
     0
 71
     1
176
     1
 72
     2
176
     1
 73
     2
176
     1
 90
        0
176
     1
 40
-0.6
176
     1
 41
-30.0
176
     1
 62
     5
 63
     7
421
 16777215
176
     1
 74
     2
176
     1
 91
        2
176
     1
 64
     7
176
     1
 65
   257
176
     1
 75
     2
176
     1
175
     1
176
     1
 42
40.0
176
     1
 92
        0
176
     1
 66
   257
176
     1
 43
1.0
176
     1
 76
     1
176
     1
 77
     6
176
     1
 78
     2
176
     1
 67
     7
176
     1
 79
     3
176
     1
170
     0
176
     1
171
     0
176
     1
290
     0
176
     1
 93
        1
176
     1
 44
0.0
176
     1
173
     0
176
     1
  0
VISUALSTYLE
  5
30
102
{ACAD_REACTORS
330
2A
102
}
330
2A
100
AcDbVisualStyle
  2
3dWireframe
 70
     5
177
     2
291
     0
 71
     0
176
     1
 72
     2
176
     1
 73
     0
176
     1
 90
        0
176
     1
 40
-0.6
176
     1
 41
-30.0
176
     1
 62
     5
 63
     7
421
 16777215
176
     1
 74
     1
176
     1
 91
        4
176
     1
 64
     7
176
     1
 65
   257
176
     1
 75
     1
176
     1
175
     1
176
     1
 42
1.0
176
     1
 92
        0
176
     1
 66
   257
176
     1
 43
1.0
176
     1
 76
     1
176
     1
 77
     6
176
     1
 78
     2
176
     1
 67
     7
176
     1
 79
     5
176
     1
170
     0
176
     1
171
     0
176
     1
290
     0
176
     1
 93
        1
176
     1
 44
0.0
176
     1
173
     0
176
     1
  0
VISUALSTYLE
  5
32
102
{ACAD_REACTORS
330
2A
102
}
330
2A
100
AcDbVisualStyle
  2
Basic
 70
     7
177
     2
291
     1
 71
     1
176
     1
 72
     0
176
     1
 73
     1
176
     1
 90
        0
176
     1
 40
-0.6
176
     1
 41
-30.0
176
     1
 62
     5
 63
     7
421
 16777215
176
     1
 74
     0
176
     1
 91
        4
176
     1
 64
     7
176
     1
 65
   257
176
     1
 75
     1
176
     1
175
     1
176
     1
 42
1.0
176
     1
 92
        8
176
     1
 66
     7
176
     1
 43
1.0
176
     1
 76
     1
176
     1
 77
     6
176
     1
 78
     2
176
     1
 67
     7
176
     1
 79
     5
176
     1
170
     0
176
     1
171
     0
176
     1
290
     0
176
     1
 93
        1
176
     1
 44
0.0
176
     1
173
     0
176
     1
  0
VISUALSTYLE
  5
36
102
{ACAD_REACTORS
330
2A
102
}
330
2A
100
AcDbVisualStyle
  2
Brighten
 70
    12
177
     2
291
     1
 71
     2
176
     1
 72
     2
176
     1
 73
     0
176
     1
 90
        0
176
     1
 40
-0.6
176
     1
 41
-30.0
176
     1
 62
     5
 63
     7
421
 16777215
176
     1
 74
     1
176
     1
 91
        4
176
     1
 64
     7
176
     1
 65
   257
176
     1
 75
     1
176
     1
175
     1
176
     1
 42
1.0
176
     1
 92
        8
176
     1
 66
     7
176
     1
 43
1.0
176
     1
 76
     1
176
     1
 77
     6
176
     1
 78
     2
176
     1
 67
     7
176
     1
 79
     5
176
     1
170
     0
176
     1
171
     0
176
     1
290
     0
176
     1
 93
        1
176
     1
 44
50.0
176
     1
173
     0
176
     1
  0
VISUALSTYLE
  5
3A
102
{ACAD_REACTORS
330
2A
102
}
330
2A
100
AcDbVisualStyle
  2
ColorChange
 70
    16
177
     2
291
     1
 71
     2
176
     1
 72
     2
176
     1
 73
     3
176
     1
 90
        0
176
     1
 40
-0.6
176
     1
 41
-30.0
176
     1
 62
     5
 63
     8
421
  8421504
176
     1
 74
     1
176
     1
 91
        4
176
     1
 64
     7
176
     1
 65
   257
176
     1
 75
     1
176
     1
175
     1
176
     1
 42
1.0
176
     1
 92
        8
176
     1
 66
     8
424
  8421504
176
     1
 43
1.0
176
     1
 76
     1
176
     1
 77
     6
176
     1
 78
     2
176
     1
 67
     7
176
     1
 79
     5
176
     1
170
     0
176
     1
171
     0
176
     1
290
     0
176
     1
 93
        1
176
     1
 44
0.0
176
     1
173
     0
176
     1
  0
VISUALSTYLE
  5
34
102
{ACAD_REACTORS
330
2A
102
}
330
2A
100
AcDbVisualStyle
  2
Conceptual
 70
     9
177
     2
291
     0
 71
     3
176
     1
 72
     2
176
     1
 73
     0
176
     1
 90
        0
176
     1
 40
-0.6
176
     1
 41
-30.0
176
     1
 62
     5
 63
     7
421
 16777215
176
     1
 74
     2
176
     1
 91
        2
176
     1
 64
     7
176
     1
 65
   257
176
     1
 75
     1
176
     1
175
     1
176
     1
 42
40.0
176
     1
 92
        8
176
     1
 66
     7
176
     1
 43
1.0
176
     1
 76
     1
176
     1
 77
     6
176
     1
 78
     2
176
     1
 67
     7
176
     1
 79
     3
176
     1
170
     0
176
     1
171
     0
176
     1
290
     0
176
     1
 93
        1
176
     1
 44
0.0
176
     1
173
     0
176
     1
  0
VISUALSTYLE
  5
35
102
{ACAD_REACTORS
330
2A
102
}
330
2A
100
AcDbVisualStyle
  2
Dim
 70
    11
177
     2
291
     1
 71
     2
176
     1
 72
     2
176
     1
 73
     0
176
     1
 90
        0
176
     1
 40
-0.6
176
     1
 41
-30.0
176
     1
 62
     5
 63
     7
421
 16777215
176
     1
 74
     1
176
     1
 91
        4
176
     1
 64
     7
176
     1
 65
   257
176
     1
 75
     1
176
     1
175
     1
176
     1
 42
1.0
176
     1
 92
        8
176
     1
 66
     7
176
     1
 43
1.0
176
     1
 76
     1
176
     1
 77
     6
176
     1
 78
     2
176
     1
 67
     7
176
     1
 79
     5
176
     1
170
     0
176
     1
171
     0
176
     1
290
     0
176
     1
 93
        1
176
     1
 44
-50.0
176
     1
173
     0
176
     1
  0
VISUALSTYLE
  5
39
102
{ACAD_REACTORS
330
2A
102
}
330
2A
100
AcDbVisualStyle
  2
Facepattern
 70
    15
177
     2
291
     1
 71
     2
176
     1
 72
     2
176
     1
 73
     0
176
     1
 90
        0
176
     1
 40
-0.6
176
     1
 41
-30.0
176
     1
 62
     5
 63
     7
421
 16777215
176
     1
 74
     1
176
     1
 91
        4
176
     1
 64
     7
176
     1
 65
   257
176
     1
 75
     1
176
     1
175
     1
176
     1
 42
1.0
176
     1
 92
        8
176
     1
 66
     7
176
     1
 43
1.0
176
     1
 76
     1
176
     1
 77
     6
176
     1
 78
     2
176
     1
 67
     7
176
     1
 79
     5
176
     1
170
     0
176
     1
171
     0
176
     1
290
     0
176
     1
 93
        1
176
     1
 44
0.0
176
     1
173
     0
176
     1
  0
VISUALSTYLE
  5
2B
102
{ACAD_REACTORS
330
2A
102
}
330
2A
100
AcDbVisualStyle
  2
Flat
 70
     0
177
     2
291
     1
 71
     2
176
     1
 72
     1
176
     1
 73
     1
176
     1
 90
        2
176
     1
 40
-0.6
176
     1
 41
30.0
176
     1
 62
     5
 63
     7
421
 16777215
176
     1
 74
     0
176
     1
 91
        4
176
     1
 64
     7
176
     1
 65
   257
176
     1
 75
     1
176
     1
175
     1
176
     1
 42
1.0
176
     1
 92
        8
176
     1
 66
     7
176
     1
 43
1.0
176
     1
 76
     1
176
     1
 77
     6
176
     1
 78
     2
176
     1
 67
     7
176
     1
 79
     5
176
     1
170
     0
176
     1
171
     0
176
     1
290
     0
176
     1
 93
       13
176
     1
 44
0.0
176
     1
173
     0
176
     1
  0
VISUALSTYLE
  5
2C
102
{ACAD_REACTORS
330
2A
102
}
330
2A
100
AcDbVisualStyle
  2
FlatWithEdges
 70
     1
177
     2
291
     1
 71
     2
176
     1
 72
     1
176
     1
 73
     1
176
     1
 90
        2
176
     1
 40
-0.6
176
     1
 41
30.0
176
     1
 62
     5
 63
     7
421
 16777215
176
     1
 74
     1
176
     1
 91
        4
176
     1
 64
     7
176
     1
 65
   257
176
     1
 75
     1
176
     1
175
     1
176
     1
 42
1.0
176
     1
 92
        0
176
     1
 66
   257
176
     1
 43
1.0
176
     1
 76
     1
176
     1
 77
     6
176
     1
 78
     2
176
     1
 67
     7
176
     1
 79
     5
176
     1
170
     0
176
     1
171
     0
176
     1
290
     0
176
     1
 93
       13
176
     1
 44
0.0
176
     1
173
     0
176
     1
  0
VISUALSTYLE
  5
2D
102
{ACAD_REACTORS
330
2A
102
}
330
2A
100
AcDbVisualStyle
  2
Gouraud
 70
     2
177
     2
291
     1
 71
     2
176
     1
 72
     2
176
     1
 73
     1
176
     1
 90
        2
176
     1
 40
-0.6
176
     1
 41
30.0
176
     1
 62
     5
 63
     7
421
 16777215
176
     1
 74
     0
176
     1
 91
        4
176
     1
 64
     7
176
     1
 65
   257
176
     1
 75
     1
176
     1
175
     1
176
     1
 42
1.0
176
     1
 92
        0
176
     1
 66
     7
176
     1
 43
1.0
176
     1
 76
     1
176
     1
 77
     6
176
     1
 78
     2
176
     1
 67
     7
176
     1
 79
     5
176
     1
170
     0
176
     1
171
     0
176
     1
290
     0
176
     1
 93
       13
176
     1
 44
0.0
176
     1
173
     0
176
     1
  0
VISUALSTYLE
  5
2E
102
{ACAD_REACTORS
330
2A
102
}
330
2A
100
AcDbVisualStyle
  2
GouraudWithEdges
 70
     3
177
     2
291
     1
 71
     2
176
     1
 72
     2
176
     1
 73
     1
176
     1
 90
        2
176
     1
 40
-0.6
176
     1
 41
30.0
176
     1
 62
     5
 63
     7
421
 16777215
176
     1
 74
     1
176
     1
 91
        4
176
     1
 64
     7
176
     1
 65
   257
176
     1
 75
     1
176
     1
175
     1
176
     1
 42
1.0
176
     1
 92
        0
176
     1
 66
   257
176
     1
 43
1.0
176
     1
 76
     1
176
     1
 77
     6
176
     1
 78
     2
176
     1
 67
     7
176
     1
 79
     5
176
     1
170
     0
176
     1
171
     0
176
     1
290
     0
176
     1
 93
       13
176
     1
 44
0.0
176
     1
173
     0
176
     1
  0
VISUALSTYLE
  5
38
102
{ACAD_REACTORS
330
2A
102
}
330
2A
100
AcDbVisualStyle
  2
Linepattern
 70
    14
177
     2
291
     1
 71
     2
176
     1
 72
     2
176
     1
 73
     0
176
     1
 90
        0
176
     1
 40
-0.6
176
     1
 41
-30.0
176
     1
 62
     5
 63
     7
421
 16777215
176
     1
 74
     1
176
     1
 91
        4
176
     1
 64
     7
176
     1
 65
   257
176
     1
 75
     7
176
     1
175
     7
176
     1
 42
1.0
176
     1
 92
        8
176
     1
 66
     7
176
     1
 43
1.0
176
     1
 76
     1
176
     1
 77
     6
176
     1
 78
     2
176
     1
 67
     7
176
     1
 79
     5
176
     1
170
     0
176
     1
171
     0
176
     1
290
     0
176
     1
 93
        1
176
     1
 44
0.0
176
     1
173
     0
176
     1
  0
VISUALSTYLE
  5
33
102
{ACAD_REACTORS
330
2A
102
}
330
2A
100
AcDbVisualStyle
  2
Realistic
 70
     8
177
     2
291
     0
 71
     2
176
     1
 72
     2
176
     1
 73
     0
176
     1
 90
        0
176
     1
 40
-0.6
176
     1
 41
-30.0
176
     1
 62
     5
 63
     7
421
 16777215
176
     1
 74
     1
176
     1
 91
        0
176
     1
 64
     7
176
     1
 65
   257
176
     1
 75
     1
176
     1
175
     1
176
     1
 42
1.0
176
     1
 92
        8
176
     1
 66
     8
424
  7895160
176
     1
 43
1.0
176
     1
 76
     1
176
     1
 77
     6
176
     1
 78
     2
176
     1
 67
     7
176
     1
 79
     5
176
     1
170
     0
176
     1
171
     0
176
     1
290
     0
176
     1
 93
       13
176
     1
 44
0.0
176
     1
173
     0
176
     1
  0
VISUALSTYLE
  5
37
102
{ACAD_REACTORS
330
2A
102
}
330
2A
100
AcDbVisualStyle
  2
Thicken
 70
    13
177
     2
291
     1
 71
     2
176
     1
 72
     2
176
     1
 73
     0
176
     1
 90
        0
176
     1
 40
-0.6
176
     1
 41
-30.0
176
     1
 62
     5
 63
     7
421
 16777215
176
     1
 74
     1
176
     1
 91
        4
176
     1
 64
     7
176
     1
 65
   257
176
     1
 75
     1
176
     1
175
     1
176
     1
 42
1.0
176
     1
 92
       12
176
     1
 66
     7
176
     1
 43
1.0
176
     1
 76
     1
176
     1
 77
     6
176
     1
 78
     2
176
     1
 67
     7
176
     1
 79
     5
176
     1
170
     0
176
     1
171
     0
176
     1
290
     0
176
     1
 93
        1
176
     1
 44
0.0
176
     1
173
     0
176
     1
  0
ENDSEC
  0
EOF
