G04 #@! TF.GenerationSoftware,KiCad,Pcbnew,(5.0.0-3-g5ebb6b6)*
G04 #@! TF.CreationDate,2018-08-17T21:51:14+02:00*
G04 #@! TF.ProjectId,beep-pcb-v1.4-in-cover,626565702D7063622D76312E342D696E,rev?*
G04 #@! TF.SameCoordinates,Original*
G04 #@! TF.FileFunction,Copper,L1,Top,Signal*
G04 #@! TF.FilePolarity,Positive*
%FSLAX46Y46*%
G04 Gerber Fmt 4.6, Leading zero omitted, Abs format (unit mm)*
G04 Created by KiCad (PCBNEW (5.0.0-3-g5ebb6b6)) date 2018 August 17, Friday 21:51:14*
%MOMM*%
%LPD*%
G01*
G04 APERTURE LIST*
G04 #@! TA.AperFunction,ComponentPad*
%ADD10R,1.524000X1.524000*%
G04 #@! TD*
G04 #@! TA.AperFunction,ComponentPad*
%ADD11C,1.524000*%
G04 #@! TD*
G04 #@! TA.AperFunction,ComponentPad*
%ADD12R,1.700000X1.700000*%
G04 #@! TD*
G04 #@! TA.AperFunction,ComponentPad*
%ADD13O,1.700000X1.700000*%
G04 #@! TD*
G04 #@! TA.AperFunction,ComponentPad*
%ADD14C,1.700000*%
G04 #@! TD*
G04 #@! TA.AperFunction,SMDPad,CuDef*
%ADD15R,1.524000X1.524000*%
G04 #@! TD*
G04 #@! TA.AperFunction,ComponentPad*
%ADD16R,1.998980X1.998980*%
G04 #@! TD*
G04 #@! TA.AperFunction,SMDPad,CuDef*
%ADD17R,1.399540X2.999740*%
G04 #@! TD*
G04 #@! TA.AperFunction,ComponentPad*
%ADD18O,1.350000X1.350000*%
G04 #@! TD*
G04 #@! TA.AperFunction,ComponentPad*
%ADD19R,1.350000X1.350000*%
G04 #@! TD*
G04 #@! TA.AperFunction,ViaPad*
%ADD20C,0.800000*%
G04 #@! TD*
G04 #@! TA.AperFunction,Conductor*
%ADD21C,0.250000*%
G04 #@! TD*
G04 APERTURE END LIST*
D10*
G04 #@! TO.P,U2,10*
G04 #@! TO.N,GND*
X79965000Y-91780000D03*
D11*
G04 #@! TO.P,U2,9*
G04 #@! TO.N,Net-(JP3-Pad1)*
X79965000Y-94320000D03*
G04 #@! TO.P,U2,8*
G04 #@! TO.N,Net-(JP4-Pad1)*
X79965000Y-96860000D03*
G04 #@! TO.P,U2,7*
G04 #@! TO.N,Net-(J2-Pad3)*
X79965000Y-99400000D03*
G04 #@! TO.P,U2,6*
G04 #@! TO.N,Net-(J4-Pad1)*
X100330000Y-101940000D03*
G04 #@! TO.P,U2,5*
G04 #@! TO.N,Net-(J4-Pad2)*
X100330000Y-99400000D03*
G04 #@! TO.P,U2,4*
G04 #@! TO.N,Net-(J7-Pad1)*
X100330000Y-96860000D03*
G04 #@! TO.P,U2,3*
G04 #@! TO.N,Net-(J7-Pad2)*
X100330000Y-94320000D03*
G04 #@! TO.P,U2,2*
G04 #@! TO.N,Net-(J4-Pad4)*
X100330000Y-91780000D03*
G04 #@! TO.P,U2,1*
G04 #@! TO.N,Net-(J4-Pad3)*
X100330000Y-89240000D03*
G04 #@! TD*
D10*
G04 #@! TO.P,U3,10*
G04 #@! TO.N,GND*
X79965000Y-76200000D03*
D11*
G04 #@! TO.P,U3,9*
G04 #@! TO.N,Net-(U1-Pad11)*
X79965000Y-78740000D03*
G04 #@! TO.P,U3,8*
G04 #@! TO.N,Net-(U1-Pad10)*
X79965000Y-81280000D03*
G04 #@! TO.P,U3,7*
G04 #@! TO.N,Net-(J2-Pad3)*
X79965000Y-83820000D03*
G04 #@! TO.P,U3,6*
G04 #@! TO.N,Net-(J6-Pad1)*
X100330000Y-86360000D03*
G04 #@! TO.P,U3,5*
G04 #@! TO.N,Net-(J6-Pad2)*
X100330000Y-83820000D03*
G04 #@! TO.P,U3,4*
G04 #@! TO.N,Net-(J3-Pad1)*
X100330000Y-81280000D03*
G04 #@! TO.P,U3,3*
G04 #@! TO.N,Net-(J3-Pad2)*
X100330000Y-78740000D03*
G04 #@! TO.P,U3,2*
G04 #@! TO.N,Net-(J3-Pad4)*
X100330000Y-76200000D03*
G04 #@! TO.P,U3,1*
G04 #@! TO.N,Net-(J3-Pad3)*
X100330000Y-73660000D03*
G04 #@! TD*
D10*
G04 #@! TO.P,J2,4*
G04 #@! TO.N,GND*
X120230000Y-129540000D03*
D11*
G04 #@! TO.P,J2,3*
G04 #@! TO.N,Net-(J2-Pad3)*
X118230000Y-129540000D03*
G04 #@! TO.P,J2,2*
G04 #@! TO.N,Net-(J2-Pad2)*
X116230000Y-129540000D03*
G04 #@! TO.P,J2,1*
G04 #@! TO.N,Net-(J2-Pad1)*
X114230000Y-129540000D03*
G04 #@! TD*
G04 #@! TO.P,J3,4*
G04 #@! TO.N,Net-(J3-Pad4)*
X120230000Y-83840000D03*
G04 #@! TO.P,J3,3*
G04 #@! TO.N,Net-(J3-Pad3)*
X118230000Y-83840000D03*
G04 #@! TO.P,J3,2*
G04 #@! TO.N,Net-(J3-Pad2)*
X116230000Y-83840000D03*
G04 #@! TO.P,J3,1*
G04 #@! TO.N,Net-(J3-Pad1)*
X114230000Y-83840000D03*
G04 #@! TD*
G04 #@! TO.P,J4,1*
G04 #@! TO.N,Net-(J4-Pad1)*
X114430000Y-121540000D03*
G04 #@! TO.P,J4,2*
G04 #@! TO.N,Net-(J4-Pad2)*
X116430000Y-121540000D03*
G04 #@! TO.P,J4,3*
G04 #@! TO.N,Net-(J4-Pad3)*
X118430000Y-121540000D03*
G04 #@! TO.P,J4,4*
G04 #@! TO.N,Net-(J4-Pad4)*
X120430000Y-121540000D03*
G04 #@! TD*
D12*
G04 #@! TO.P,J5,6*
G04 #@! TO.N,GND*
X79375000Y-118110000D03*
D13*
G04 #@! TO.P,J5,5*
G04 #@! TO.N,Net-(J5-Pad5)*
X79375000Y-115570000D03*
G04 #@! TO.P,J5,4*
G04 #@! TO.N,Net-(J5-Pad4)*
X79375000Y-113030000D03*
G04 #@! TO.P,J5,3*
G04 #@! TO.N,Net-(J5-Pad3)*
X79375000Y-110490000D03*
G04 #@! TO.P,J5,2*
G04 #@! TO.N,Net-(J5-Pad2)*
X79375000Y-107950000D03*
D14*
G04 #@! TO.P,J5,1*
G04 #@! TO.N,Net-(J5-Pad1)*
X79375000Y-105410000D03*
G04 #@! TD*
D11*
G04 #@! TO.P,J6,4*
G04 #@! TO.N,Net-(J3-Pad4)*
X120330000Y-91740000D03*
G04 #@! TO.P,J6,3*
G04 #@! TO.N,Net-(J3-Pad3)*
X118330000Y-91740000D03*
G04 #@! TO.P,J6,2*
G04 #@! TO.N,Net-(J6-Pad2)*
X116330000Y-91740000D03*
G04 #@! TO.P,J6,1*
G04 #@! TO.N,Net-(J6-Pad1)*
X114330000Y-91740000D03*
G04 #@! TD*
G04 #@! TO.P,J7,4*
G04 #@! TO.N,Net-(J4-Pad4)*
X120330000Y-113340000D03*
G04 #@! TO.P,J7,3*
G04 #@! TO.N,Net-(J4-Pad3)*
X118330000Y-113340000D03*
G04 #@! TO.P,J7,2*
G04 #@! TO.N,Net-(J7-Pad2)*
X116330000Y-113340000D03*
G04 #@! TO.P,J7,1*
G04 #@! TO.N,Net-(J7-Pad1)*
X114330000Y-113340000D03*
G04 #@! TD*
G04 #@! TO.P,J8,1*
G04 #@! TO.N,Net-(J8-Pad1)*
X108030000Y-69140000D03*
G04 #@! TO.P,J8,2*
G04 #@! TO.N,Net-(J8-Pad2)*
X110030000Y-69140000D03*
G04 #@! TO.P,J8,3*
G04 #@! TO.N,Net-(J2-Pad3)*
X112030000Y-69140000D03*
D10*
G04 #@! TO.P,J8,4*
G04 #@! TO.N,GND*
X114030000Y-69140000D03*
G04 #@! TD*
G04 #@! TO.P,J9,4*
G04 #@! TO.N,GND*
X120130000Y-76040000D03*
D11*
G04 #@! TO.P,J9,3*
G04 #@! TO.N,Net-(J2-Pad3)*
X118130000Y-76040000D03*
G04 #@! TO.P,J9,2*
G04 #@! TO.N,Net-(J9-Pad2)*
X116130000Y-76040000D03*
G04 #@! TO.P,J9,1*
G04 #@! TO.N,Net-(J9-Pad1)*
X114130000Y-76040000D03*
G04 #@! TD*
G04 #@! TO.P,U1,1*
G04 #@! TO.N,GND*
X84420000Y-105015000D03*
G04 #@! TO.P,U1,2*
G04 #@! TO.N,Net-(JP7-Pad3)*
X84420000Y-102475000D03*
G04 #@! TO.P,U1,3*
G04 #@! TO.N,Net-(JP7-Pad1)*
X84420000Y-99935000D03*
G04 #@! TO.P,U1,4*
G04 #@! TO.N,Net-(U1-Pad4)*
X84420000Y-97395000D03*
G04 #@! TO.P,U1,5*
G04 #@! TO.N,Net-(U1-Pad5)*
X84420000Y-94855000D03*
G04 #@! TO.P,U1,6*
G04 #@! TO.N,Net-(J9-Pad2)*
X84420000Y-92315000D03*
G04 #@! TO.P,U1,7*
G04 #@! TO.N,+VDC*
X84420000Y-89775000D03*
G04 #@! TO.P,U1,8*
G04 #@! TO.N,Net-(J2-Pad2)*
X84420000Y-87235000D03*
G04 #@! TO.P,U1,9*
G04 #@! TO.N,Net-(J2-Pad1)*
X84420000Y-84695000D03*
G04 #@! TO.P,U1,10*
G04 #@! TO.N,Net-(U1-Pad10)*
X84420000Y-82155000D03*
G04 #@! TO.P,U1,11*
G04 #@! TO.N,Net-(U1-Pad11)*
X84420000Y-79615000D03*
G04 #@! TO.P,U1,12*
G04 #@! TO.N,Net-(J9-Pad1)*
X84420000Y-77075000D03*
D10*
G04 #@! TO.P,U1,13*
G04 #@! TO.N,Net-(JP1-Pad1)*
X84420000Y-74535000D03*
D11*
G04 #@! TO.P,U1,14*
G04 #@! TO.N,Net-(U1-Pad14)*
X104740000Y-105015000D03*
G04 #@! TO.P,U1,15*
G04 #@! TO.N,Net-(U1-Pad15)*
X104740000Y-102475000D03*
G04 #@! TO.P,U1,16*
G04 #@! TO.N,Net-(U1-Pad16)*
X104740000Y-99935000D03*
G04 #@! TO.P,U1,17*
G04 #@! TO.N,Net-(U1-Pad17)*
X104740000Y-97395000D03*
G04 #@! TO.P,U1,18*
G04 #@! TO.N,Net-(U1-Pad18)*
X104740000Y-94855000D03*
G04 #@! TO.P,U1,19*
G04 #@! TO.N,Net-(J8-Pad1)*
X104740000Y-92315000D03*
G04 #@! TO.P,U1,20*
G04 #@! TO.N,Net-(U1-Pad20)*
X104740000Y-89775000D03*
G04 #@! TO.P,U1,21*
G04 #@! TO.N,Net-(U1-Pad21)*
X104740000Y-87235000D03*
G04 #@! TO.P,U1,22*
G04 #@! TO.N,Net-(U1-Pad22)*
X104740000Y-84695000D03*
G04 #@! TO.P,U1,23*
G04 #@! TO.N,Net-(U1-Pad23)*
X104740000Y-82155000D03*
G04 #@! TO.P,U1,24*
G04 #@! TO.N,Net-(U1-Pad24)*
X104740000Y-79615000D03*
G04 #@! TO.P,U1,25*
G04 #@! TO.N,Net-(U1-Pad25)*
X104740000Y-77075000D03*
D10*
G04 #@! TO.P,U1,26*
G04 #@! TO.N,Net-(U1-Pad26)*
X104740000Y-74535000D03*
G04 #@! TO.P,U1,27*
G04 #@! TO.N,GND*
X100930000Y-105015000D03*
D11*
G04 #@! TO.P,U1,28*
G04 #@! TO.N,Net-(U1-Pad28)*
X98390000Y-105015000D03*
G04 #@! TO.P,U1,29*
G04 #@! TO.N,Net-(J5-Pad4)*
X95850000Y-105015000D03*
G04 #@! TO.P,U1,30*
G04 #@! TO.N,Net-(J5-Pad3)*
X93310000Y-105015000D03*
G04 #@! TO.P,U1,31*
G04 #@! TO.N,Net-(J5-Pad2)*
X90770000Y-105015000D03*
G04 #@! TO.P,U1,32*
G04 #@! TO.N,Net-(J5-Pad1)*
X88230000Y-105015000D03*
G04 #@! TD*
D10*
G04 #@! TO.P,U4,1*
G04 #@! TO.N,GND*
X86390000Y-75870000D03*
D11*
G04 #@! TO.P,U4,2*
G04 #@! TO.N,Net-(U4-Pad2)*
X86390000Y-78410000D03*
G04 #@! TO.P,U4,3*
G04 #@! TO.N,Net-(U4-Pad3)*
X86390000Y-80950000D03*
G04 #@! TO.P,U4,4*
G04 #@! TO.N,Net-(U1-Pad11)*
X86390000Y-83490000D03*
G04 #@! TO.P,U4,5*
G04 #@! TO.N,Net-(J8-Pad1)*
X86390000Y-86030000D03*
G04 #@! TO.P,U4,6*
G04 #@! TO.N,Net-(U1-Pad10)*
X86390000Y-88570000D03*
G04 #@! TO.P,U4,7*
G04 #@! TO.N,Net-(U4-Pad7)*
X86390000Y-91110000D03*
G04 #@! TO.P,U4,8*
G04 #@! TO.N,Net-(U4-Pad8)*
X86390000Y-93650000D03*
G04 #@! TO.P,U4,9*
G04 #@! TO.N,Net-(J9-Pad2)*
X86390000Y-96190000D03*
G04 #@! TO.P,U4,10*
G04 #@! TO.N,Net-(U4-Pad10)*
X86390000Y-98730000D03*
G04 #@! TO.P,U4,11*
G04 #@! TO.N,Net-(U4-Pad11)*
X86390000Y-101270000D03*
G04 #@! TO.P,U4,12*
G04 #@! TO.N,Net-(U4-Pad12)*
X86390000Y-103810000D03*
G04 #@! TO.P,U4,13*
G04 #@! TO.N,Net-(U4-Pad13)*
X86390000Y-106350000D03*
G04 #@! TO.P,U4,14*
G04 #@! TO.N,Net-(U4-Pad14)*
X86390000Y-108890000D03*
D10*
G04 #@! TO.P,U4,15*
G04 #@! TO.N,GND*
X86390000Y-111430000D03*
D11*
G04 #@! TO.P,U4,16*
G04 #@! TO.N,Net-(U4-Pad16)*
X86390000Y-113970000D03*
G04 #@! TO.P,U4,17*
G04 #@! TO.N,+VDC*
X86390000Y-116510000D03*
G04 #@! TO.P,U4,22*
G04 #@! TO.N,Net-(J5-Pad1)*
X91470000Y-116510000D03*
G04 #@! TO.P,U4,23*
G04 #@! TO.N,Net-(J5-Pad2)*
X94010000Y-116510000D03*
G04 #@! TO.P,U4,24*
G04 #@! TO.N,Net-(J5-Pad3)*
X96550000Y-116510000D03*
G04 #@! TO.P,U4,25*
G04 #@! TO.N,Net-(J5-Pad4)*
X99090000Y-116510000D03*
G04 #@! TO.P,U4,26*
G04 #@! TO.N,Net-(U4-Pad26)*
X101630000Y-116510000D03*
D10*
G04 #@! TO.P,U4,27*
G04 #@! TO.N,GND*
X104170000Y-116510000D03*
D11*
G04 #@! TO.P,U4,29*
G04 #@! TO.N,+3V3*
X109250000Y-116510000D03*
G04 #@! TO.P,U4,30*
X109250000Y-113970000D03*
G04 #@! TO.P,U4,31*
X109250000Y-111430000D03*
G04 #@! TO.P,U4,32*
X109250000Y-108890000D03*
D10*
G04 #@! TO.P,U4,33*
G04 #@! TO.N,GND*
X109250000Y-106350000D03*
D11*
G04 #@! TO.P,U4,34*
G04 #@! TO.N,Net-(JP1-Pad1)*
X109250000Y-103810000D03*
G04 #@! TO.P,U4,35*
G04 #@! TO.N,Net-(J9-Pad1)*
X109250000Y-101270000D03*
G04 #@! TO.P,U4,36*
G04 #@! TO.N,Net-(U4-Pad36)*
X109250000Y-98730000D03*
G04 #@! TO.P,U4,37*
G04 #@! TO.N,Net-(U4-Pad37)*
X109250000Y-96190000D03*
G04 #@! TO.P,U4,38*
G04 #@! TO.N,Net-(J2-Pad1)*
X109250000Y-93650000D03*
G04 #@! TO.P,U4,39*
G04 #@! TO.N,Net-(J2-Pad2)*
X109250000Y-91110000D03*
G04 #@! TO.P,U4,40*
G04 #@! TO.N,+VDC*
X109250000Y-88570000D03*
G04 #@! TO.P,U4,41*
G04 #@! TO.N,Net-(U4-Pad41)*
X109250000Y-86030000D03*
G04 #@! TO.P,U4,42*
G04 #@! TO.N,Net-(U4-Pad42)*
X109250000Y-83490000D03*
G04 #@! TO.P,U4,43*
G04 #@! TO.N,Net-(U4-Pad43)*
X109250000Y-80950000D03*
G04 #@! TO.P,U4,44*
G04 #@! TO.N,Net-(U4-Pad44)*
X109250000Y-78410000D03*
D10*
G04 #@! TO.P,U4,45*
G04 #@! TO.N,GND*
X109250000Y-75870000D03*
D11*
G04 #@! TO.P,U4,46*
G04 #@! TO.N,Net-(U4-Pad46)*
X91470000Y-78410000D03*
G04 #@! TD*
D15*
G04 #@! TO.P,U5,1*
G04 #@! TO.N,Net-(J5-Pad1)*
X82580000Y-106985000D03*
G04 #@! TO.P,U5,2*
G04 #@! TO.N,Net-(J5-Pad3)*
X82580000Y-109525000D03*
G04 #@! TO.P,U5,3*
G04 #@! TO.N,Net-(J5-Pad2)*
X82580000Y-112065000D03*
G04 #@! TO.P,U5,4*
G04 #@! TO.N,Net-(U5-Pad4)*
X82580000Y-114605000D03*
G04 #@! TO.P,U5,5*
G04 #@! TO.N,Net-(JP3-Pad1)*
X82580000Y-117145000D03*
G04 #@! TO.P,U5,6*
G04 #@! TO.N,Net-(JP4-Pad1)*
X82580000Y-119685000D03*
G04 #@! TO.P,U5,7*
G04 #@! TO.N,GND*
X82580000Y-122225000D03*
G04 #@! TO.P,U5,8*
G04 #@! TO.N,Net-(J8-Pad2)*
X82580000Y-124765000D03*
G04 #@! TO.P,U5,9*
G04 #@! TO.N,+VDC*
X82580000Y-127305000D03*
G04 #@! TO.P,U5,10*
G04 #@! TO.N,Net-(U5-Pad10)*
X82580000Y-129845000D03*
G04 #@! TO.P,U5,11*
G04 #@! TO.N,Net-(U5-Pad11)*
X82580000Y-132385000D03*
G04 #@! TO.P,U5,12*
G04 #@! TO.N,Net-(U5-Pad12)*
X82580000Y-134925000D03*
G04 #@! TO.P,U5,13*
G04 #@! TO.N,Net-(U5-Pad13)*
X106710000Y-134925000D03*
G04 #@! TO.P,U5,14*
G04 #@! TO.N,Net-(JP1-Pad1)*
X106710000Y-132385000D03*
G04 #@! TO.P,U5,16*
G04 #@! TO.N,Net-(U1-Pad11)*
X106710000Y-129845000D03*
G04 #@! TO.P,U5,15*
G04 #@! TO.N,Net-(J9-Pad1)*
X106710000Y-127305000D03*
G04 #@! TO.P,U5,17*
G04 #@! TO.N,Net-(U1-Pad10)*
X106710000Y-124765000D03*
G04 #@! TO.P,U5,18*
G04 #@! TO.N,Net-(J2-Pad1)*
X106710000Y-122225000D03*
G04 #@! TO.P,U5,19*
G04 #@! TO.N,Net-(J2-Pad2)*
X106710000Y-119685000D03*
G04 #@! TO.P,U5,20*
G04 #@! TO.N,+VDC*
X106710000Y-117145000D03*
G04 #@! TO.P,U5,21*
G04 #@! TO.N,Net-(J9-Pad2)*
X106710000Y-114605000D03*
G04 #@! TO.P,U5,22*
G04 #@! TO.N,Net-(U5-Pad22)*
X106710000Y-112065000D03*
G04 #@! TO.P,U5,23*
G04 #@! TO.N,Net-(U5-Pad23)*
X106710000Y-109525000D03*
G04 #@! TO.P,U5,24*
G04 #@! TO.N,GND*
X106710000Y-106985000D03*
G04 #@! TD*
D16*
G04 #@! TO.P,R1,2*
G04 #@! TO.N,Net-(J9-Pad2)*
X79375000Y-132001260D03*
G04 #@! TO.P,R1,1*
G04 #@! TO.N,Net-(J2-Pad3)*
X79375000Y-121998740D03*
D17*
G04 #@! TO.P,R1,2*
G04 #@! TO.N,Net-(J9-Pad2)*
X79375000Y-129600960D03*
G04 #@! TO.P,R1,1*
G04 #@! TO.N,Net-(J2-Pad3)*
X79375000Y-124399040D03*
G04 #@! TD*
D18*
G04 #@! TO.P,J1,2*
G04 #@! TO.N,+BATT*
X114830000Y-136240000D03*
D19*
G04 #@! TO.P,J1,1*
G04 #@! TO.N,GND*
X112830000Y-136240000D03*
G04 #@! TD*
D20*
G04 #@! TO.N,Net-(J2-Pad1)*
X89630000Y-131240000D03*
X111730000Y-100640000D03*
X106213116Y-92858744D03*
G04 #@! TO.N,Net-(J3-Pad3)*
X114430000Y-78240000D03*
G04 #@! TO.N,Net-(J4-Pad2)*
X112905021Y-102678866D03*
G04 #@! TO.N,Net-(J4-Pad1)*
X108072002Y-110040000D03*
X112455012Y-110840000D03*
G04 #@! TO.N,Net-(J5-Pad1)*
X84230000Y-107040000D03*
G04 #@! TO.N,Net-(U1-Pad10)*
X102630000Y-123340000D03*
X96942660Y-100427340D03*
X96493006Y-92639980D03*
G04 #@! TO.N,GND*
X97573510Y-107808829D03*
G04 #@! TO.N,Net-(J2-Pad2)*
X93030000Y-125040000D03*
X104930000Y-120140000D03*
X110156169Y-120816151D03*
X98830000Y-110340000D03*
X96030000Y-96340000D03*
X94584174Y-90140000D03*
G04 #@! TO.N,Net-(J9-Pad1)*
X109230000Y-124440000D03*
X89230000Y-77140000D03*
X112455010Y-109740000D03*
G04 #@! TO.N,Net-(JP1-Pad1)*
X110830000Y-126440000D03*
X110217340Y-123052660D03*
X97930000Y-90540000D03*
X98330000Y-100940000D03*
G04 #@! TO.N,Net-(J8-Pad2)*
X81180841Y-125080476D03*
G04 #@! TO.N,Net-(JP3-Pad1)*
X84430000Y-117240000D03*
G04 #@! TO.N,Net-(JP4-Pad1)*
X85214979Y-119640000D03*
G04 #@! TO.N,+VDC*
X88930000Y-90840000D03*
X104897989Y-118108173D03*
X88930000Y-116440000D03*
G04 #@! TD*
D21*
G04 #@! TO.N,Net-(J2-Pad1)*
X106710000Y-122225000D02*
X98645000Y-122225000D01*
X98645000Y-122225000D02*
X89630000Y-131240000D01*
X108088004Y-122225000D02*
X114230000Y-128366996D01*
X114230000Y-128366996D02*
X114230000Y-129540000D01*
X107722000Y-122225000D02*
X108088004Y-122225000D01*
X111730000Y-118217000D02*
X111730000Y-100640000D01*
X110128749Y-122327659D02*
X109063020Y-121261930D01*
X110942341Y-122704659D02*
X110565341Y-122327659D01*
X110565341Y-123777661D02*
X110942341Y-123400661D01*
X109869339Y-123777661D02*
X110565341Y-123777661D01*
X109492339Y-123400661D02*
X109869339Y-123777661D01*
X107722000Y-122225000D02*
X108237635Y-121709365D01*
X106710000Y-122225000D02*
X107722000Y-122225000D01*
X109063020Y-120883980D02*
X111730000Y-118217000D01*
X109063020Y-121261930D02*
X109063020Y-120883980D01*
X110565341Y-122327659D02*
X110128749Y-122327659D01*
X108237635Y-121709365D02*
X109492339Y-122964069D01*
X109492339Y-122964069D02*
X109492339Y-123400661D01*
X110942341Y-123400661D02*
X110942341Y-122704659D01*
X107004372Y-93650000D02*
X106213116Y-92858744D01*
X109250000Y-93650000D02*
X107004372Y-93650000D01*
G04 #@! TO.N,Net-(J3-Pad4)*
X120230000Y-91640000D02*
X120330000Y-91740000D01*
X120230000Y-83840000D02*
X120230000Y-91640000D01*
X101407630Y-76200000D02*
X100330000Y-76200000D01*
X115887001Y-79497001D02*
X108728239Y-79497001D01*
X101619631Y-75987999D02*
X101407630Y-76200000D01*
X105219237Y-75987999D02*
X101619631Y-75987999D01*
X108728239Y-79497001D02*
X105219237Y-75987999D01*
X120230000Y-83840000D02*
X115887001Y-79497001D01*
G04 #@! TO.N,Net-(J3-Pad3)*
X118230000Y-91640000D02*
X118330000Y-91740000D01*
X118230000Y-83840000D02*
X118230000Y-91640000D01*
X113147001Y-76957001D02*
X108227999Y-76957001D01*
X108227999Y-76957001D02*
X108162999Y-76892001D01*
X114430000Y-78240000D02*
X113147001Y-76957001D01*
X105762001Y-73447999D02*
X103717999Y-73447999D01*
X105827001Y-74782999D02*
X105827001Y-73512999D01*
X110972999Y-74782999D02*
X105827001Y-74782999D01*
X100683010Y-74013010D02*
X100330000Y-73660000D01*
X103152988Y-74013010D02*
X100683010Y-74013010D01*
X103717999Y-73447999D02*
X103152988Y-74013010D01*
X114430000Y-78240000D02*
X110972999Y-74782999D01*
X105827001Y-73512999D02*
X105762001Y-73447999D01*
G04 #@! TO.N,Net-(J3-Pad2)*
X102657999Y-81067999D02*
X100330000Y-78740000D01*
X105261761Y-81067999D02*
X102657999Y-81067999D01*
X106596761Y-82402999D02*
X105261761Y-81067999D01*
X114792999Y-82402999D02*
X106596761Y-82402999D01*
X116230000Y-83840000D02*
X114792999Y-82402999D01*
G04 #@! TO.N,Net-(J3-Pad1)*
X102292001Y-83242001D02*
X100330000Y-81280000D01*
X104895763Y-83242001D02*
X102292001Y-83242001D01*
X106255761Y-84601999D02*
X104895763Y-83242001D01*
X113468001Y-84601999D02*
X106255761Y-84601999D01*
X114230000Y-83840000D02*
X113468001Y-84601999D01*
G04 #@! TO.N,Net-(J4-Pad4)*
X120430000Y-113440000D02*
X120330000Y-113340000D01*
X120430000Y-121540000D02*
X120430000Y-113440000D01*
X120330000Y-99348762D02*
X113178239Y-92197001D01*
X101091999Y-91018001D02*
X100330000Y-91780000D01*
X106624375Y-92197001D02*
X105445375Y-91018001D01*
X113178239Y-92197001D02*
X106624375Y-92197001D01*
X120330000Y-113340000D02*
X120330000Y-99348762D01*
X105445375Y-91018001D02*
X101091999Y-91018001D01*
G04 #@! TO.N,Net-(J4-Pad3)*
X118430000Y-113440000D02*
X118330000Y-113340000D01*
X118430000Y-121540000D02*
X118430000Y-113440000D01*
X99242999Y-90327001D02*
X100330000Y-89240000D01*
X106230763Y-94737001D02*
X104895763Y-93402001D01*
X100457001Y-92867001D02*
X99808239Y-92867001D01*
X104895763Y-93402001D02*
X100992001Y-93402001D01*
X118330000Y-113340000D02*
X118330000Y-103540000D01*
X100992001Y-93402001D02*
X100457001Y-92867001D01*
X99242999Y-92301761D02*
X99242999Y-90327001D01*
X99808239Y-92867001D02*
X99242999Y-92301761D01*
X109527001Y-94737001D02*
X106230763Y-94737001D01*
X118330000Y-103540000D02*
X109527001Y-94737001D01*
G04 #@! TO.N,Net-(J4-Pad2)*
X112905021Y-103244551D02*
X112905021Y-102678866D01*
X113242999Y-103582529D02*
X112905021Y-103244551D01*
X113242999Y-118352999D02*
X113242999Y-103582529D01*
X116430000Y-121540000D02*
X113242999Y-118352999D01*
G04 #@! TO.N,Net-(J4-Pad1)*
X112455012Y-119565012D02*
X112455012Y-110840000D01*
X114430000Y-121540000D02*
X112455012Y-119565012D01*
X108072002Y-110040000D02*
X108072002Y-110605685D01*
X108072002Y-110605685D02*
X108065686Y-110612001D01*
X108065686Y-110612001D02*
X105687999Y-110612001D01*
X99907999Y-106102001D02*
X99568001Y-105762003D01*
X105687999Y-110612001D02*
X101177999Y-106102001D01*
X101177999Y-106102001D02*
X99907999Y-106102001D01*
X99568001Y-105762003D02*
X99568001Y-102701999D01*
X99568001Y-102701999D02*
X100330000Y-101940000D01*
G04 #@! TO.N,Net-(J5-Pad1)*
X82635000Y-107040000D02*
X82580000Y-106985000D01*
X84230000Y-107040000D02*
X82635000Y-107040000D01*
X80950000Y-106985000D02*
X82580000Y-106985000D01*
X79375000Y-105410000D02*
X80950000Y-106985000D01*
G04 #@! TO.N,Net-(J5-Pad2)*
X88347999Y-107437001D02*
X90770000Y-105015000D01*
X85868239Y-107437001D02*
X88347999Y-107437001D01*
X85233239Y-108072001D02*
X85868239Y-107437001D01*
X80699082Y-108072001D02*
X85233239Y-108072001D01*
X80577081Y-107950000D02*
X80699082Y-108072001D01*
X79375000Y-107950000D02*
X80577081Y-107950000D01*
X81168001Y-111665001D02*
X81568000Y-112065000D01*
X78810999Y-111665001D02*
X81168001Y-111665001D01*
X81568000Y-112065000D02*
X82580000Y-112065000D01*
X78199999Y-111054001D02*
X78810999Y-111665001D01*
X78199999Y-109125001D02*
X78199999Y-111054001D01*
X79375000Y-107950000D02*
X78199999Y-109125001D01*
G04 #@! TO.N,Net-(J6-Pad1)*
X114330000Y-91740000D02*
X112612999Y-90022999D01*
X106985003Y-88687999D02*
X102657999Y-88687999D01*
X102657999Y-88687999D02*
X100330000Y-86360000D01*
X108320003Y-90022999D02*
X106985003Y-88687999D01*
X112612999Y-90022999D02*
X108320003Y-90022999D01*
G04 #@! TO.N,Net-(J6-Pad2)*
X102292001Y-85782001D02*
X100330000Y-83820000D01*
X104895763Y-85782001D02*
X102292001Y-85782001D01*
X106453762Y-87340000D02*
X104895763Y-85782001D01*
X111930000Y-87340000D02*
X106453762Y-87340000D01*
X116330000Y-91740000D02*
X111930000Y-87340000D01*
G04 #@! TO.N,Net-(J7-Pad1)*
X114330000Y-113340000D02*
X114330000Y-101530585D01*
X102317999Y-98847999D02*
X100330000Y-96860000D01*
X105261761Y-98847999D02*
X102317999Y-98847999D01*
X106230763Y-99817001D02*
X105261761Y-98847999D01*
X111195598Y-99464987D02*
X110843585Y-99817001D01*
X114330000Y-101530585D02*
X112264402Y-99464987D01*
X112264402Y-99464987D02*
X111195598Y-99464987D01*
X110843585Y-99817001D02*
X106230763Y-99817001D01*
G04 #@! TO.N,Net-(J7-Pad2)*
X105261761Y-96307999D02*
X102317999Y-96307999D01*
X110712827Y-97277001D02*
X106230763Y-97277001D01*
X106230763Y-97277001D02*
X105261761Y-96307999D01*
X116330000Y-102894174D02*
X110712827Y-97277001D01*
X116330000Y-113340000D02*
X116330000Y-102894174D01*
X102317999Y-96307999D02*
X100330000Y-94320000D01*
G04 #@! TO.N,Net-(J9-Pad2)*
X106710000Y-114605000D02*
X105698000Y-114605000D01*
X85628001Y-95428001D02*
X86390000Y-96190000D01*
X85628001Y-94454239D02*
X85628001Y-95428001D01*
X85181999Y-94008237D02*
X85628001Y-94454239D01*
X85181999Y-93076999D02*
X85181999Y-94008237D01*
X84420000Y-92315000D02*
X85181999Y-93076999D01*
X105698000Y-114605000D02*
X99530000Y-108437000D01*
X116130000Y-76040000D02*
X111804998Y-71714998D01*
X88628004Y-92315000D02*
X84420000Y-92315000D01*
X93581998Y-71714998D02*
X88504998Y-76791998D01*
X90004998Y-82376240D02*
X87477001Y-84904237D01*
X88504998Y-76791998D02*
X88504998Y-77488002D01*
X88504998Y-77488002D02*
X90004998Y-78988002D01*
X90004998Y-78988002D02*
X90004998Y-82376240D01*
X87477001Y-88313997D02*
X89655002Y-90491998D01*
X111804998Y-71714998D02*
X93581998Y-71714998D01*
X89655002Y-91288002D02*
X88628004Y-92315000D01*
X87477001Y-84904237D02*
X87477001Y-88313997D01*
X89655002Y-90491998D02*
X89655002Y-91288002D01*
X99667673Y-107901435D02*
X96937001Y-105170763D01*
X96044997Y-103927999D02*
X95704999Y-103588001D01*
X88633762Y-96190000D02*
X86390000Y-96190000D01*
X99530000Y-108437000D02*
X99667673Y-108299327D01*
X99667673Y-108299327D02*
X99667673Y-107901435D01*
X96937001Y-104493239D02*
X96371761Y-103927999D01*
X96937001Y-105170763D02*
X96937001Y-104493239D01*
X96371761Y-103927999D02*
X96044997Y-103927999D01*
X95704999Y-103588001D02*
X95704999Y-103261237D01*
X95704999Y-103261237D02*
X88633762Y-96190000D01*
X79375000Y-128495000D02*
X82017999Y-125852001D01*
X85939989Y-117668751D02*
X85302999Y-117031761D01*
X83736761Y-125852001D02*
X85939989Y-123648773D01*
X82017999Y-125852001D02*
X83736761Y-125852001D01*
X85976239Y-115314999D02*
X92652001Y-115314999D01*
X85302999Y-117031761D02*
X85302999Y-115988239D01*
X85939989Y-123648773D02*
X85939989Y-117668751D01*
X79375000Y-132001260D02*
X79375000Y-128495000D01*
X92652001Y-115314999D02*
X99530000Y-108437000D01*
X85302999Y-115988239D02*
X85976239Y-115314999D01*
G04 #@! TO.N,Net-(U1-Pad10)*
X104055000Y-124765000D02*
X106710000Y-124765000D01*
X102630000Y-123340000D02*
X104055000Y-124765000D01*
X96942660Y-93089634D02*
X96493006Y-92639980D01*
X96942660Y-100427340D02*
X96942660Y-93089634D01*
G04 #@! TO.N,Net-(U1-Pad11)*
X78115509Y-133325751D02*
X76329981Y-131540223D01*
X78815751Y-133325751D02*
X78115509Y-133325751D01*
X105698000Y-129845000D02*
X99530999Y-136012001D01*
X81502001Y-136012001D02*
X78815751Y-133325751D01*
X106710000Y-129845000D02*
X105698000Y-129845000D01*
X99530999Y-136012001D02*
X81502001Y-136012001D01*
X76329981Y-82375019D02*
X79965000Y-78740000D01*
X76329981Y-131540223D02*
X76329981Y-82375019D01*
G04 #@! TO.N,GND*
X79375000Y-119210000D02*
X79375000Y-118110000D01*
X82390000Y-122225000D02*
X79375000Y-119210000D01*
X82580000Y-122225000D02*
X82390000Y-122225000D01*
X114030000Y-69140000D02*
X114030000Y-68128000D01*
X114030000Y-68128000D02*
X113954999Y-68052999D01*
X111188171Y-68052999D02*
X110738161Y-67602988D01*
X113954999Y-68052999D02*
X111188171Y-68052999D01*
X110738161Y-67602988D02*
X93645012Y-67602988D01*
X93645012Y-67602988D02*
X86390000Y-74858000D01*
X86390000Y-74858000D02*
X86390000Y-75870000D01*
X107345000Y-106350000D02*
X106710000Y-106985000D01*
X109250000Y-106350000D02*
X107345000Y-106350000D01*
X93952339Y-111430000D02*
X97573510Y-107808829D01*
X86390000Y-111430000D02*
X93952339Y-111430000D01*
X106710000Y-106985000D02*
X104375000Y-106985000D01*
X102405000Y-105015000D02*
X100930000Y-105015000D01*
X104375000Y-106985000D02*
X102405000Y-105015000D01*
G04 #@! TO.N,Net-(J5-Pad3)*
X80340000Y-109525000D02*
X82580000Y-109525000D01*
X79375000Y-110490000D02*
X80340000Y-109525000D01*
X84409999Y-110342999D02*
X87982001Y-110342999D01*
X87982001Y-110342999D02*
X93310000Y-105015000D01*
X83592000Y-109525000D02*
X84409999Y-110342999D01*
X82580000Y-109525000D02*
X83592000Y-109525000D01*
G04 #@! TO.N,Net-(J5-Pad4)*
X79375000Y-113030000D02*
X80577081Y-113030000D01*
X99155169Y-108025342D02*
X96144827Y-105015000D01*
X94663510Y-112517001D02*
X99155169Y-108025342D01*
X85599237Y-113152001D02*
X86234237Y-112517001D01*
X80699082Y-113152001D02*
X85599237Y-113152001D01*
X86234237Y-112517001D02*
X94663510Y-112517001D01*
X96144827Y-105015000D02*
X95850000Y-105015000D01*
X80577081Y-113030000D02*
X80699082Y-113152001D01*
G04 #@! TO.N,Net-(J2-Pad3)*
X118130000Y-75240000D02*
X118130000Y-76040000D01*
X112030000Y-69140000D02*
X118130000Y-75240000D01*
X79375000Y-120749250D02*
X77230000Y-118604250D01*
X79375000Y-121998740D02*
X79375000Y-120749250D01*
X77230000Y-102135000D02*
X79965000Y-99400000D01*
X77230000Y-118604250D02*
X77230000Y-102135000D01*
X110551761Y-68052999D02*
X94517001Y-68052999D01*
X111638762Y-69140000D02*
X110551761Y-68052999D01*
X112030000Y-69140000D02*
X111638762Y-69140000D01*
X82717001Y-81067999D02*
X79965000Y-83820000D01*
X84575763Y-81067999D02*
X82717001Y-81067999D01*
X85780763Y-79862999D02*
X84575763Y-81067999D01*
X86545763Y-79862999D02*
X85780763Y-79862999D01*
X87477001Y-78931761D02*
X86545763Y-79862999D01*
X87477001Y-75092999D02*
X87477001Y-78931761D01*
X94517001Y-68052999D02*
X87477001Y-75092999D01*
X79375000Y-121998740D02*
X79375000Y-124399040D01*
G04 #@! TO.N,Net-(J2-Pad2)*
X98385000Y-119685000D02*
X106710000Y-119685000D01*
X93030000Y-125040000D02*
X98385000Y-119685000D01*
X106255000Y-120140000D02*
X106710000Y-119685000D01*
X104930000Y-120140000D02*
X106255000Y-120140000D01*
X116230000Y-126889982D02*
X110156169Y-120816151D01*
X116230000Y-129540000D02*
X116230000Y-126889982D01*
X105827001Y-116057999D02*
X100109002Y-110340000D01*
X107732001Y-116057999D02*
X105827001Y-116057999D01*
X107797001Y-116122999D02*
X107732001Y-116057999D01*
X107797001Y-119609999D02*
X107797001Y-116122999D01*
X107722000Y-119685000D02*
X107797001Y-119609999D01*
X106710000Y-119685000D02*
X107722000Y-119685000D01*
X100109002Y-110340000D02*
X98830000Y-110340000D01*
X95578913Y-91134739D02*
X94584174Y-90140000D01*
X95630001Y-93284148D02*
X95578913Y-93233060D01*
X95630001Y-95940001D02*
X95630001Y-93284148D01*
X95578913Y-93233060D02*
X95578913Y-91134739D01*
X96030000Y-96340000D02*
X95630001Y-95940001D01*
G04 #@! TO.N,Net-(J9-Pad1)*
X109230000Y-125797000D02*
X109230000Y-124440000D01*
X107722000Y-127305000D02*
X109230000Y-125797000D01*
X106710000Y-127305000D02*
X107722000Y-127305000D01*
X110662999Y-72572999D02*
X93797001Y-72572999D01*
X93797001Y-72572999D02*
X89230000Y-77140000D01*
X114130000Y-76040000D02*
X110662999Y-72572999D01*
X110788995Y-100508001D02*
X111381998Y-99914998D01*
X112180011Y-102362993D02*
X112180011Y-108899316D01*
X109250000Y-101270000D02*
X110011999Y-100508001D01*
X112180011Y-108899316D02*
X112455010Y-109174315D01*
X112455002Y-100291998D02*
X112455002Y-102088002D01*
X111381998Y-99914998D02*
X112078002Y-99914998D01*
X110011999Y-100508001D02*
X110788995Y-100508001D01*
X112078002Y-99914998D02*
X112455002Y-100291998D01*
X112455002Y-102088002D02*
X112180011Y-102362993D01*
X112455010Y-109174315D02*
X112455010Y-109740000D01*
G04 #@! TO.N,Net-(JP1-Pad1)*
X110830000Y-129277000D02*
X110830000Y-126440000D01*
X107722000Y-132385000D02*
X110830000Y-129277000D01*
X106710000Y-132385000D02*
X107722000Y-132385000D01*
X97930000Y-90540000D02*
X98330000Y-90940000D01*
X98330000Y-90940000D02*
X98330000Y-100940000D01*
X110279989Y-114548773D02*
X110279989Y-115931227D01*
X110279989Y-115931227D02*
X110337001Y-115988239D01*
X110337001Y-113448239D02*
X110337001Y-114491761D01*
X110337001Y-117031761D02*
X108613009Y-118755753D01*
X108613009Y-121448329D02*
X110217340Y-123052660D01*
X110337001Y-111951761D02*
X110279989Y-112008773D01*
X108613009Y-118755753D02*
X108613009Y-121448329D01*
X110279989Y-110851227D02*
X110337001Y-110908239D01*
X110337001Y-114491761D02*
X110279989Y-114548773D01*
X110337001Y-110908239D02*
X110337001Y-111951761D01*
X110337001Y-115988239D02*
X110337001Y-117031761D01*
X110011999Y-105002997D02*
X110337001Y-105327999D01*
X110011999Y-104571999D02*
X110011999Y-105002997D01*
X109250000Y-103810000D02*
X110011999Y-104571999D01*
X110279989Y-112008773D02*
X110279989Y-113391227D01*
X110279989Y-107429013D02*
X110279989Y-108311227D01*
X110337001Y-107372001D02*
X110279989Y-107429013D01*
X110279989Y-109468773D02*
X110279989Y-110851227D01*
X110279989Y-108311227D02*
X110337001Y-108368239D01*
X110337001Y-108368239D02*
X110337001Y-109411761D01*
X110337001Y-109411761D02*
X110279989Y-109468773D01*
X110337001Y-105327999D02*
X110337001Y-107372001D01*
X110279989Y-113391227D02*
X110337001Y-113448239D01*
G04 #@! TO.N,Net-(J8-Pad2)*
X82580000Y-124765000D02*
X81496317Y-124765000D01*
X81496317Y-124765000D02*
X81180841Y-125080476D01*
G04 #@! TO.N,Net-(JP3-Pad1)*
X82675000Y-117240000D02*
X82580000Y-117145000D01*
X84430000Y-117240000D02*
X82675000Y-117240000D01*
X80726999Y-115291999D02*
X82580000Y-117145000D01*
X80726999Y-113602011D02*
X80726999Y-115291999D01*
X80541991Y-113602011D02*
X80726999Y-113602011D01*
X77749991Y-113143993D02*
X78810999Y-114205001D01*
X77749987Y-103223776D02*
X77749991Y-113143993D01*
X78810999Y-114205001D02*
X79939001Y-114205001D01*
X81052001Y-99921761D02*
X77749987Y-103223776D01*
X81052001Y-95407001D02*
X81052001Y-99921761D01*
X79939001Y-114205001D02*
X80541991Y-113602011D01*
X79965000Y-94320000D02*
X81052001Y-95407001D01*
G04 #@! TO.N,Net-(JP4-Pad1)*
X85169979Y-119685000D02*
X85214979Y-119640000D01*
X82580000Y-119685000D02*
X85169979Y-119685000D01*
X79965000Y-96860000D02*
X76779992Y-100045008D01*
X76779992Y-100045008D02*
X76779992Y-124588674D01*
X80334771Y-126223911D02*
X80399771Y-126158911D01*
X83667001Y-119760001D02*
X83592000Y-119685000D01*
X80399771Y-126158911D02*
X80399771Y-124836227D01*
X80399771Y-124836227D02*
X81923997Y-123312001D01*
X78415229Y-126223911D02*
X80334771Y-126223911D01*
X83667001Y-123247001D02*
X83667001Y-119760001D01*
X81923997Y-123312001D02*
X83602001Y-123312001D01*
X83602001Y-123312001D02*
X83667001Y-123247001D01*
X76779992Y-124588674D02*
X78415229Y-126223911D01*
X83592000Y-119685000D02*
X82580000Y-119685000D01*
G04 #@! TO.N,+VDC*
X87865000Y-89775000D02*
X88930000Y-90840000D01*
X84420000Y-89775000D02*
X87865000Y-89775000D01*
X82580000Y-127305000D02*
X83592000Y-127305000D01*
X86390000Y-124507000D02*
X86390000Y-116510000D01*
X83592000Y-127305000D02*
X86390000Y-124507000D01*
X105746827Y-118108173D02*
X104897989Y-118108173D01*
X106710000Y-117145000D02*
X105746827Y-118108173D01*
X86460000Y-116440000D02*
X86390000Y-116510000D01*
X88930000Y-116440000D02*
X86460000Y-116440000D01*
G04 #@! TD*
M02*
