G04 #@! TF.GenerationSoftware,KiCad,Pcbnew,(5.0.0-3-g5ebb6b6)*
G04 #@! TF.CreationDate,2018-08-17T21:51:14+02:00*
G04 #@! TF.ProjectId,beep-pcb-v1.4-in-cover,626565702D7063622D76312E342D696E,rev?*
G04 #@! TF.SameCoordinates,Original*
G04 #@! TF.FileFunction,Soldermask,Top*
G04 #@! TF.FilePolarity,Negative*
%FSLAX46Y46*%
G04 Gerber Fmt 4.6, Leading zero omitted, Abs format (unit mm)*
G04 Created by KiCad (PCBNEW (5.0.0-3-g5ebb6b6)) date 2018 August 17, Friday 21:51:14*
%MOMM*%
%LPD*%
G01*
G04 APERTURE LIST*
%ADD10R,1.524000X1.524000*%
%ADD11C,1.524000*%
%ADD12R,1.700000X1.700000*%
%ADD13O,1.700000X1.700000*%
%ADD14C,1.700000*%
%ADD15R,1.998980X1.998980*%
%ADD16R,1.399540X2.999740*%
%ADD17O,1.350000X1.350000*%
%ADD18R,1.350000X1.350000*%
G04 APERTURE END LIST*
D10*
G04 #@! TO.C,U2*
X79965000Y-91780000D03*
D11*
X79965000Y-94320000D03*
X79965000Y-96860000D03*
X79965000Y-99400000D03*
X100330000Y-101940000D03*
X100330000Y-99400000D03*
X100330000Y-96860000D03*
X100330000Y-94320000D03*
X100330000Y-91780000D03*
X100330000Y-89240000D03*
G04 #@! TD*
D10*
G04 #@! TO.C,U3*
X79965000Y-76200000D03*
D11*
X79965000Y-78740000D03*
X79965000Y-81280000D03*
X79965000Y-83820000D03*
X100330000Y-86360000D03*
X100330000Y-83820000D03*
X100330000Y-81280000D03*
X100330000Y-78740000D03*
X100330000Y-76200000D03*
X100330000Y-73660000D03*
G04 #@! TD*
D10*
G04 #@! TO.C,J2*
X120230000Y-129540000D03*
D11*
X118230000Y-129540000D03*
X116230000Y-129540000D03*
X114230000Y-129540000D03*
G04 #@! TD*
G04 #@! TO.C,J3*
X120230000Y-83840000D03*
X118230000Y-83840000D03*
X116230000Y-83840000D03*
X114230000Y-83840000D03*
G04 #@! TD*
G04 #@! TO.C,J4*
X114430000Y-121540000D03*
X116430000Y-121540000D03*
X118430000Y-121540000D03*
X120430000Y-121540000D03*
G04 #@! TD*
D12*
G04 #@! TO.C,J5*
X79375000Y-118110000D03*
D13*
X79375000Y-115570000D03*
X79375000Y-113030000D03*
X79375000Y-110490000D03*
X79375000Y-107950000D03*
D14*
X79375000Y-105410000D03*
G04 #@! TD*
D11*
G04 #@! TO.C,J6*
X120330000Y-91740000D03*
X118330000Y-91740000D03*
X116330000Y-91740000D03*
X114330000Y-91740000D03*
G04 #@! TD*
G04 #@! TO.C,J7*
X120330000Y-113340000D03*
X118330000Y-113340000D03*
X116330000Y-113340000D03*
X114330000Y-113340000D03*
G04 #@! TD*
G04 #@! TO.C,J8*
X108030000Y-69140000D03*
X110030000Y-69140000D03*
X112030000Y-69140000D03*
D10*
X114030000Y-69140000D03*
G04 #@! TD*
G04 #@! TO.C,J9*
X120130000Y-76040000D03*
D11*
X118130000Y-76040000D03*
X116130000Y-76040000D03*
X114130000Y-76040000D03*
G04 #@! TD*
G04 #@! TO.C,U1*
X84420000Y-105015000D03*
X84420000Y-102475000D03*
X84420000Y-99935000D03*
X84420000Y-97395000D03*
X84420000Y-94855000D03*
X84420000Y-92315000D03*
X84420000Y-89775000D03*
X84420000Y-87235000D03*
X84420000Y-84695000D03*
X84420000Y-82155000D03*
X84420000Y-79615000D03*
X84420000Y-77075000D03*
D10*
X84420000Y-74535000D03*
D11*
X104740000Y-105015000D03*
X104740000Y-102475000D03*
X104740000Y-99935000D03*
X104740000Y-97395000D03*
X104740000Y-94855000D03*
X104740000Y-92315000D03*
X104740000Y-89775000D03*
X104740000Y-87235000D03*
X104740000Y-84695000D03*
X104740000Y-82155000D03*
X104740000Y-79615000D03*
X104740000Y-77075000D03*
D10*
X104740000Y-74535000D03*
X100930000Y-105015000D03*
D11*
X98390000Y-105015000D03*
X95850000Y-105015000D03*
X93310000Y-105015000D03*
X90770000Y-105015000D03*
X88230000Y-105015000D03*
G04 #@! TD*
D10*
G04 #@! TO.C,U4*
X86390000Y-75870000D03*
D11*
X86390000Y-78410000D03*
X86390000Y-80950000D03*
X86390000Y-83490000D03*
X86390000Y-86030000D03*
X86390000Y-88570000D03*
X86390000Y-91110000D03*
X86390000Y-93650000D03*
X86390000Y-96190000D03*
X86390000Y-98730000D03*
X86390000Y-101270000D03*
X86390000Y-103810000D03*
X86390000Y-106350000D03*
X86390000Y-108890000D03*
D10*
X86390000Y-111430000D03*
D11*
X86390000Y-113970000D03*
X86390000Y-116510000D03*
X91470000Y-116510000D03*
X94010000Y-116510000D03*
X96550000Y-116510000D03*
X99090000Y-116510000D03*
X101630000Y-116510000D03*
D10*
X104170000Y-116510000D03*
D11*
X109250000Y-116510000D03*
X109250000Y-113970000D03*
X109250000Y-111430000D03*
X109250000Y-108890000D03*
D10*
X109250000Y-106350000D03*
D11*
X109250000Y-103810000D03*
X109250000Y-101270000D03*
X109250000Y-98730000D03*
X109250000Y-96190000D03*
X109250000Y-93650000D03*
X109250000Y-91110000D03*
X109250000Y-88570000D03*
X109250000Y-86030000D03*
X109250000Y-83490000D03*
X109250000Y-80950000D03*
X109250000Y-78410000D03*
D10*
X109250000Y-75870000D03*
D11*
X91470000Y-78410000D03*
G04 #@! TD*
D10*
G04 #@! TO.C,U5*
X82580000Y-106985000D03*
X82580000Y-109525000D03*
X82580000Y-112065000D03*
X82580000Y-114605000D03*
X82580000Y-117145000D03*
X82580000Y-119685000D03*
X82580000Y-122225000D03*
X82580000Y-124765000D03*
X82580000Y-127305000D03*
X82580000Y-129845000D03*
X82580000Y-132385000D03*
X82580000Y-134925000D03*
X106710000Y-134925000D03*
X106710000Y-132385000D03*
X106710000Y-129845000D03*
X106710000Y-127305000D03*
X106710000Y-124765000D03*
X106710000Y-122225000D03*
X106710000Y-119685000D03*
X106710000Y-117145000D03*
X106710000Y-114605000D03*
X106710000Y-112065000D03*
X106710000Y-109525000D03*
X106710000Y-106985000D03*
G04 #@! TD*
D15*
G04 #@! TO.C,R1*
X79375000Y-132001260D03*
X79375000Y-121998740D03*
D16*
X79375000Y-129600960D03*
X79375000Y-124399040D03*
G04 #@! TD*
D17*
G04 #@! TO.C,J1*
X114830000Y-136240000D03*
D18*
X112830000Y-136240000D03*
G04 #@! TD*
M02*
