M48
;DRILL file {KiCad (5.0.0-3-g5ebb6b6)} date 2018 August 17, Friday 21:51:29
;FORMAT={3:3/ absolute / metric / suppress leading zeros}
FMAT,2
METRIC,TZ
T1C0.400
T2C0.762
T3C0.800
T4C1.000
T5C1.001
%
G90
G05
M71
T1
X81181Y-125080
X84230Y-107040
X84430Y-117240
X85215Y-119640
X88930Y-90840
X88930Y-116440
X89230Y-77140
X89630Y-131240
X93030Y-125040
X94584Y-90140
X96030Y-96340
X96493Y-92640
X96943Y-100427
X97574Y-107809
X97930Y-90540
X98330Y-100940
X98830Y-110340
X102630Y-123340
X104898Y-118108
X104930Y-120140
X106213Y-92859
X108072Y-110040
X109230Y-124440
X110156Y-120816
X110217Y-123053
X110830Y-126440
X111730Y-100640
X112455Y-109740
X112455Y-110840
X112905Y-102679
X114430Y-78240
T2
X114230Y-83840
X116230Y-83840
X118230Y-83840
X120230Y-83840
X86390Y-75870
X86390Y-78410
X86390Y-80950
X86390Y-83490
X86390Y-86030
X86390Y-88570
X86390Y-91110
X86390Y-93650
X86390Y-96190
X86390Y-98730
X86390Y-101270
X86390Y-103810
X86390Y-106350
X86390Y-108890
X86390Y-111430
X86390Y-113970
X86390Y-116510
X91470Y-78410
X91470Y-116510
X94010Y-116510
X96550Y-116510
X99090Y-116510
X101630Y-116510
X104170Y-116510
X109250Y-75870
X109250Y-78410
X109250Y-80950
X109250Y-83490
X109250Y-86030
X109250Y-88570
X109250Y-91110
X109250Y-93650
X109250Y-96190
X109250Y-98730
X109250Y-101270
X109250Y-103810
X109250Y-106350
X109250Y-108890
X109250Y-111430
X109250Y-113970
X109250Y-116510
X108030Y-69140
X110030Y-69140
X112030Y-69140
X114030Y-69140
X114330Y-91740
X116330Y-91740
X118330Y-91740
X120330Y-91740
X114230Y-129540
X116230Y-129540
X118230Y-129540
X120230Y-129540
X114130Y-76040
X116130Y-76040
X118130Y-76040
X120130Y-76040
X79965Y-76200
X79965Y-78740
X79965Y-81280
X79965Y-83820
X100330Y-73660
X100330Y-76200
X100330Y-78740
X100330Y-81280
X100330Y-83820
X100330Y-86360
X84420Y-74535
X84420Y-77075
X84420Y-79615
X84420Y-82155
X84420Y-84695
X84420Y-87235
X84420Y-89775
X84420Y-92315
X84420Y-94855
X84420Y-97395
X84420Y-99935
X84420Y-102475
X84420Y-105015
X88230Y-105015
X90770Y-105015
X93310Y-105015
X95850Y-105015
X98390Y-105015
X100930Y-105015
X104740Y-74535
X104740Y-77075
X104740Y-79615
X104740Y-82155
X104740Y-84695
X104740Y-87235
X104740Y-89775
X104740Y-92315
X104740Y-94855
X104740Y-97395
X104740Y-99935
X104740Y-102475
X104740Y-105015
X114330Y-113340
X116330Y-113340
X118330Y-113340
X120330Y-113340
X79965Y-91780
X79965Y-94320
X79965Y-96860
X79965Y-99400
X100330Y-89240
X100330Y-91780
X100330Y-94320
X100330Y-96860
X100330Y-99400
X100330Y-101940
X114430Y-121540
X116430Y-121540
X118430Y-121540
X120430Y-121540
T3
X112830Y-136240
X114830Y-136240
T4
X79375Y-105410
X79375Y-107950
X79375Y-110490
X79375Y-113030
X79375Y-115570
X79375Y-118110
T5
X79375Y-121999
X79375Y-132001
T0
M30
