G04 #@! TF.GenerationSoftware,KiCad,Pcbnew,(5.0.0-3-g5ebb6b6)*
G04 #@! TF.CreationDate,2018-08-17T21:51:14+02:00*
G04 #@! TF.ProjectId,beep-pcb-v1.4-in-cover,626565702D7063622D76312E342D696E,rev?*
G04 #@! TF.SameCoordinates,Original*
G04 #@! TF.FileFunction,Legend,Bot*
G04 #@! TF.FilePolarity,Positive*
%FSLAX46Y46*%
G04 Gerber Fmt 4.6, Leading zero omitted, Abs format (unit mm)*
G04 Created by KiCad (PCBNEW (5.0.0-3-g5ebb6b6)) date 2018 August 17, Friday 21:51:14*
%MOMM*%
%LPD*%
G01*
G04 APERTURE LIST*
%ADD10C,0.150000*%
%ADD11C,0.175000*%
%ADD12C,0.200000*%
%ADD13C,0.300000*%
%ADD14C,0.125000*%
%ADD15C,0.120000*%
G04 APERTURE END LIST*
D10*
X95346666Y-91456666D02*
X95346666Y-90756666D01*
X94946666Y-91456666D01*
X94946666Y-90756666D01*
X94346666Y-91423333D02*
X94413333Y-91456666D01*
X94546666Y-91456666D01*
X94613333Y-91423333D01*
X94646666Y-91356666D01*
X94646666Y-91090000D01*
X94613333Y-91023333D01*
X94546666Y-90990000D01*
X94413333Y-90990000D01*
X94346666Y-91023333D01*
X94313333Y-91090000D01*
X94313333Y-91156666D01*
X94646666Y-91223333D01*
X94080000Y-91456666D02*
X93713333Y-90990000D01*
X94080000Y-90990000D02*
X93713333Y-91456666D01*
X93146666Y-90990000D02*
X93146666Y-91456666D01*
X93446666Y-90990000D02*
X93446666Y-91356666D01*
X93413333Y-91423333D01*
X93346666Y-91456666D01*
X93246666Y-91456666D01*
X93180000Y-91423333D01*
X93146666Y-91390000D01*
X92846666Y-91423333D02*
X92780000Y-91456666D01*
X92646666Y-91456666D01*
X92580000Y-91423333D01*
X92546666Y-91356666D01*
X92546666Y-91323333D01*
X92580000Y-91256666D01*
X92646666Y-91223333D01*
X92746666Y-91223333D01*
X92813333Y-91190000D01*
X92846666Y-91123333D01*
X92846666Y-91090000D01*
X92813333Y-91023333D01*
X92746666Y-90990000D01*
X92646666Y-90990000D01*
X92580000Y-91023333D01*
X91480000Y-91090000D02*
X91380000Y-91123333D01*
X91346666Y-91156666D01*
X91313333Y-91223333D01*
X91313333Y-91323333D01*
X91346666Y-91390000D01*
X91380000Y-91423333D01*
X91446666Y-91456666D01*
X91713333Y-91456666D01*
X91713333Y-90756666D01*
X91480000Y-90756666D01*
X91413333Y-90790000D01*
X91380000Y-90823333D01*
X91346666Y-90890000D01*
X91346666Y-90956666D01*
X91380000Y-91023333D01*
X91413333Y-91056666D01*
X91480000Y-91090000D01*
X91713333Y-91090000D01*
X90713333Y-91456666D02*
X90713333Y-91090000D01*
X90746666Y-91023333D01*
X90813333Y-90990000D01*
X90946666Y-90990000D01*
X91013333Y-91023333D01*
X90713333Y-91423333D02*
X90780000Y-91456666D01*
X90946666Y-91456666D01*
X91013333Y-91423333D01*
X91046666Y-91356666D01*
X91046666Y-91290000D01*
X91013333Y-91223333D01*
X90946666Y-91190000D01*
X90780000Y-91190000D01*
X90713333Y-91156666D01*
X90480000Y-90990000D02*
X90213333Y-90990000D01*
X90380000Y-90756666D02*
X90380000Y-91356666D01*
X90346666Y-91423333D01*
X90280000Y-91456666D01*
X90213333Y-91456666D01*
X90080000Y-90990000D02*
X89813333Y-90990000D01*
X89980000Y-90756666D02*
X89980000Y-91356666D01*
X89946666Y-91423333D01*
X89880000Y-91456666D01*
X89813333Y-91456666D01*
X94896666Y-92656666D02*
X94896666Y-91956666D01*
X94630000Y-91956666D01*
X94563333Y-91990000D01*
X94530000Y-92023333D01*
X94496666Y-92090000D01*
X94496666Y-92190000D01*
X94530000Y-92256666D01*
X94563333Y-92290000D01*
X94630000Y-92323333D01*
X94896666Y-92323333D01*
X94263333Y-91956666D02*
X94096666Y-92656666D01*
X93963333Y-92156666D01*
X93830000Y-92656666D01*
X93663333Y-91956666D01*
X92996666Y-92656666D02*
X93230000Y-92323333D01*
X93396666Y-92656666D02*
X93396666Y-91956666D01*
X93130000Y-91956666D01*
X93063333Y-91990000D01*
X93030000Y-92023333D01*
X92996666Y-92090000D01*
X92996666Y-92190000D01*
X93030000Y-92256666D01*
X93063333Y-92290000D01*
X93130000Y-92323333D01*
X93396666Y-92323333D01*
X92196666Y-91923333D02*
X92796666Y-92823333D01*
X92030000Y-91956666D02*
X91596666Y-91956666D01*
X91830000Y-92223333D01*
X91730000Y-92223333D01*
X91663333Y-92256666D01*
X91630000Y-92290000D01*
X91596666Y-92356666D01*
X91596666Y-92523333D01*
X91630000Y-92590000D01*
X91663333Y-92623333D01*
X91730000Y-92656666D01*
X91930000Y-92656666D01*
X91996666Y-92623333D01*
X92030000Y-92590000D01*
X91396666Y-91956666D02*
X91163333Y-92656666D01*
X90930000Y-91956666D01*
X90763333Y-91956666D02*
X90330000Y-91956666D01*
X90563333Y-92223333D01*
X90463333Y-92223333D01*
X90396666Y-92256666D01*
X90363333Y-92290000D01*
X90330000Y-92356666D01*
X90330000Y-92523333D01*
X90363333Y-92590000D01*
X90396666Y-92623333D01*
X90463333Y-92656666D01*
X90663333Y-92656666D01*
X90730000Y-92623333D01*
X90763333Y-92590000D01*
D11*
X105030000Y-133490000D02*
X104930000Y-133523333D01*
X104896666Y-133556666D01*
X104863333Y-133623333D01*
X104863333Y-133723333D01*
X104896666Y-133790000D01*
X104930000Y-133823333D01*
X104996666Y-133856666D01*
X105263333Y-133856666D01*
X105263333Y-133156666D01*
X105030000Y-133156666D01*
X104963333Y-133190000D01*
X104930000Y-133223333D01*
X104896666Y-133290000D01*
X104896666Y-133356666D01*
X104930000Y-133423333D01*
X104963333Y-133456666D01*
X105030000Y-133490000D01*
X105263333Y-133490000D01*
X104263333Y-133856666D02*
X104263333Y-133490000D01*
X104296666Y-133423333D01*
X104363333Y-133390000D01*
X104496666Y-133390000D01*
X104563333Y-133423333D01*
X104263333Y-133823333D02*
X104330000Y-133856666D01*
X104496666Y-133856666D01*
X104563333Y-133823333D01*
X104596666Y-133756666D01*
X104596666Y-133690000D01*
X104563333Y-133623333D01*
X104496666Y-133590000D01*
X104330000Y-133590000D01*
X104263333Y-133556666D01*
X104030000Y-133390000D02*
X103763333Y-133390000D01*
X103930000Y-133156666D02*
X103930000Y-133756666D01*
X103896666Y-133823333D01*
X103830000Y-133856666D01*
X103763333Y-133856666D01*
X103630000Y-133390000D02*
X103363333Y-133390000D01*
X103530000Y-133156666D02*
X103530000Y-133756666D01*
X103496666Y-133823333D01*
X103430000Y-133856666D01*
X103363333Y-133856666D01*
X102696666Y-133390000D02*
X102430000Y-133390000D01*
X102596666Y-133156666D02*
X102596666Y-133756666D01*
X102563333Y-133823333D01*
X102496666Y-133856666D01*
X102430000Y-133856666D01*
X102096666Y-133856666D02*
X102163333Y-133823333D01*
X102196666Y-133790000D01*
X102230000Y-133723333D01*
X102230000Y-133523333D01*
X102196666Y-133456666D01*
X102163333Y-133423333D01*
X102096666Y-133390000D01*
X101996666Y-133390000D01*
X101930000Y-133423333D01*
X101896666Y-133456666D01*
X101863333Y-133523333D01*
X101863333Y-133723333D01*
X101896666Y-133790000D01*
X101930000Y-133823333D01*
X101996666Y-133856666D01*
X102096666Y-133856666D01*
X101096666Y-133156666D02*
X100663333Y-133156666D01*
X100896666Y-133423333D01*
X100796666Y-133423333D01*
X100730000Y-133456666D01*
X100696666Y-133490000D01*
X100663333Y-133556666D01*
X100663333Y-133723333D01*
X100696666Y-133790000D01*
X100730000Y-133823333D01*
X100796666Y-133856666D01*
X100996666Y-133856666D01*
X101063333Y-133823333D01*
X101096666Y-133790000D01*
X100463333Y-133156666D02*
X100230000Y-133856666D01*
X99996666Y-133156666D01*
X99830000Y-133156666D02*
X99396666Y-133156666D01*
X99630000Y-133423333D01*
X99530000Y-133423333D01*
X99463333Y-133456666D01*
X99430000Y-133490000D01*
X99396666Y-133556666D01*
X99396666Y-133723333D01*
X99430000Y-133790000D01*
X99463333Y-133823333D01*
X99530000Y-133856666D01*
X99730000Y-133856666D01*
X99796666Y-133823333D01*
X99830000Y-133790000D01*
X98596666Y-133123333D02*
X99196666Y-134023333D01*
X98463333Y-133156666D02*
X98230000Y-133856666D01*
X97996666Y-133156666D01*
X97363333Y-133790000D02*
X97396666Y-133823333D01*
X97496666Y-133856666D01*
X97563333Y-133856666D01*
X97663333Y-133823333D01*
X97730000Y-133756666D01*
X97763333Y-133690000D01*
X97796666Y-133556666D01*
X97796666Y-133456666D01*
X97763333Y-133323333D01*
X97730000Y-133256666D01*
X97663333Y-133190000D01*
X97563333Y-133156666D01*
X97496666Y-133156666D01*
X97396666Y-133190000D01*
X97363333Y-133223333D01*
X96663333Y-133790000D02*
X96696666Y-133823333D01*
X96796666Y-133856666D01*
X96863333Y-133856666D01*
X96963333Y-133823333D01*
X97030000Y-133756666D01*
X97063333Y-133690000D01*
X97096666Y-133556666D01*
X97096666Y-133456666D01*
X97063333Y-133323333D01*
X97030000Y-133256666D01*
X96963333Y-133190000D01*
X96863333Y-133156666D01*
X96796666Y-133156666D01*
X96696666Y-133190000D01*
X96663333Y-133223333D01*
X95630000Y-134123333D02*
X95663333Y-134090000D01*
X95730000Y-133990000D01*
X95763333Y-133923333D01*
X95796666Y-133823333D01*
X95830000Y-133656666D01*
X95830000Y-133523333D01*
X95796666Y-133356666D01*
X95763333Y-133256666D01*
X95730000Y-133190000D01*
X95663333Y-133090000D01*
X95630000Y-133056666D01*
X95396666Y-133823333D02*
X95330000Y-133856666D01*
X95196666Y-133856666D01*
X95130000Y-133823333D01*
X95096666Y-133756666D01*
X95096666Y-133723333D01*
X95130000Y-133656666D01*
X95196666Y-133623333D01*
X95296666Y-133623333D01*
X95363333Y-133590000D01*
X95396666Y-133523333D01*
X95396666Y-133490000D01*
X95363333Y-133423333D01*
X95296666Y-133390000D01*
X95196666Y-133390000D01*
X95130000Y-133423333D01*
X94696666Y-133856666D02*
X94763333Y-133823333D01*
X94796666Y-133790000D01*
X94830000Y-133723333D01*
X94830000Y-133523333D01*
X94796666Y-133456666D01*
X94763333Y-133423333D01*
X94696666Y-133390000D01*
X94596666Y-133390000D01*
X94530000Y-133423333D01*
X94496666Y-133456666D01*
X94463333Y-133523333D01*
X94463333Y-133723333D01*
X94496666Y-133790000D01*
X94530000Y-133823333D01*
X94596666Y-133856666D01*
X94696666Y-133856666D01*
X94063333Y-133856666D02*
X94130000Y-133823333D01*
X94163333Y-133756666D01*
X94163333Y-133156666D01*
X93496666Y-133856666D02*
X93496666Y-133156666D01*
X93496666Y-133823333D02*
X93563333Y-133856666D01*
X93696666Y-133856666D01*
X93763333Y-133823333D01*
X93796666Y-133790000D01*
X93830000Y-133723333D01*
X93830000Y-133523333D01*
X93796666Y-133456666D01*
X93763333Y-133423333D01*
X93696666Y-133390000D01*
X93563333Y-133390000D01*
X93496666Y-133423333D01*
X92896666Y-133823333D02*
X92963333Y-133856666D01*
X93096666Y-133856666D01*
X93163333Y-133823333D01*
X93196666Y-133756666D01*
X93196666Y-133490000D01*
X93163333Y-133423333D01*
X93096666Y-133390000D01*
X92963333Y-133390000D01*
X92896666Y-133423333D01*
X92863333Y-133490000D01*
X92863333Y-133556666D01*
X93196666Y-133623333D01*
X92563333Y-133856666D02*
X92563333Y-133390000D01*
X92563333Y-133523333D02*
X92530000Y-133456666D01*
X92496666Y-133423333D01*
X92430000Y-133390000D01*
X92363333Y-133390000D01*
X92196666Y-134123333D02*
X92163333Y-134090000D01*
X92096666Y-133990000D01*
X92063333Y-133923333D01*
X92030000Y-133823333D01*
X91996666Y-133656666D01*
X91996666Y-133523333D01*
X92030000Y-133356666D01*
X92063333Y-133256666D01*
X92096666Y-133190000D01*
X92163333Y-133090000D01*
X92196666Y-133056666D01*
D12*
X105116588Y-110736559D02*
X103278081Y-112279249D01*
X104412171Y-110674930D02*
X103339710Y-111574833D01*
X104978355Y-111505253D02*
X104059102Y-112276598D01*
X105089822Y-110224979D02*
G75*
G03X105089822Y-110224979I-141420J0D01*
G01*
X102944899Y-112024785D02*
G75*
G03X102944899Y-112024785I-141420J0D01*
G01*
X104763518Y-112338227D02*
X105084912Y-112721250D01*
X103875980Y-110282233D02*
G75*
G03X103875980Y-110282233I-707107J0D01*
G01*
X78912171Y-126874930D02*
X77839710Y-127774833D01*
X79478355Y-127705253D02*
X78559102Y-128476598D01*
X77444899Y-128224785D02*
G75*
G03X77444899Y-128224785I-141420J0D01*
G01*
X78375980Y-126482233D02*
G75*
G03X78375980Y-126482233I-707107J0D01*
G01*
X79589822Y-126424979D02*
G75*
G03X79589822Y-126424979I-141420J0D01*
G01*
X79616588Y-126936559D02*
X77778081Y-128479249D01*
X79263518Y-128538227D02*
X79584912Y-128921250D01*
X116372278Y-117234207D02*
G75*
G03X116372278Y-117234207I-141421J0D01*
G01*
X118507706Y-116394024D02*
G75*
G03X118507706Y-116394024I-707107J0D01*
G01*
X117250635Y-118937162D02*
X117163810Y-119429565D01*
X119129738Y-117720421D02*
G75*
G03X119129738Y-117720421I-141420J0D01*
G01*
X118704533Y-118178096D02*
X116340994Y-117761340D01*
X118298953Y-117598867D02*
X116920223Y-117355761D01*
X118026825Y-118566310D02*
X116845056Y-118357933D01*
X108665335Y-128849832D02*
X107286605Y-129092940D01*
X108740503Y-129852004D02*
X107558734Y-130060382D01*
X106738659Y-129214494D02*
G75*
G03X106738659Y-129214494I-141420J0D01*
G01*
X108492061Y-127888097D02*
G75*
G03X108492061Y-127888097I-707106J0D01*
G01*
X109496120Y-128728278D02*
G75*
G03X109496120Y-128728278I-141420J0D01*
G01*
X109244563Y-129255412D02*
X106881024Y-129672168D01*
X108137962Y-130465963D02*
X108224785Y-130958367D01*
X114444899Y-126224785D02*
G75*
G03X114444899Y-126224785I-141420J0D01*
G01*
X115375980Y-124482233D02*
G75*
G03X115375980Y-124482233I-707107J0D01*
G01*
X115912171Y-124874930D02*
X114839710Y-125774833D01*
X116478355Y-125705253D02*
X115559102Y-126476598D01*
X116616588Y-124936559D02*
X114778081Y-126479249D01*
X116263518Y-126538227D02*
X116584912Y-126921250D01*
X116589822Y-124424979D02*
G75*
G03X116589822Y-124424979I-141420J0D01*
G01*
X112464747Y-73888355D02*
X111693402Y-72969102D01*
X113233441Y-74026588D02*
X111690751Y-72188081D01*
X113295070Y-73322171D02*
X112395167Y-72249710D01*
X114394874Y-72078873D02*
G75*
G03X114394874Y-72078873I-707107J0D01*
G01*
X112086635Y-71713479D02*
G75*
G03X112086635Y-71713479I-141420J0D01*
G01*
X111631773Y-73673518D02*
X111248750Y-73994912D01*
X113886441Y-73858402D02*
G75*
G03X113886441Y-73858402I-141420J0D01*
G01*
X84058422Y-70048767D02*
G75*
G03X84058422Y-70048767I-141420J0D01*
G01*
X84101886Y-67935519D02*
X83780492Y-67552496D01*
X86403638Y-69991513D02*
G75*
G03X86403638Y-69991513I-707107J0D01*
G01*
X83748816Y-69537187D02*
X85587323Y-67994497D01*
X83887049Y-68768493D02*
X84806302Y-67997148D01*
X86203345Y-68248961D02*
G75*
G03X86203345Y-68248961I-141420J0D01*
G01*
X84453233Y-69598816D02*
X85525694Y-68698913D01*
D13*
X88883653Y-69321176D02*
X89169367Y-69225938D01*
X89264605Y-69130699D01*
X89359843Y-68940223D01*
X89359843Y-68654509D01*
X89264605Y-68464033D01*
X89169367Y-68368795D01*
X88978891Y-68273557D01*
X88216986Y-68273557D01*
X88216986Y-70273557D01*
X88883653Y-70273557D01*
X89074129Y-70178319D01*
X89169367Y-70083080D01*
X89264605Y-69892604D01*
X89264605Y-69702128D01*
X89169367Y-69511652D01*
X89074129Y-69416414D01*
X88883653Y-69321176D01*
X88216986Y-69321176D01*
X90216986Y-69321176D02*
X90883653Y-69321176D01*
X91169367Y-68273557D02*
X90216986Y-68273557D01*
X90216986Y-70273557D01*
X91169367Y-70273557D01*
X92026510Y-69321176D02*
X92693177Y-69321176D01*
X92978891Y-68273557D02*
X92026510Y-68273557D01*
X92026510Y-70273557D01*
X92978891Y-70273557D01*
X93836034Y-68273557D02*
X93836034Y-70273557D01*
X94597939Y-70273557D01*
X94788415Y-70178319D01*
X94883653Y-70083080D01*
X94978891Y-69892604D01*
X94978891Y-69606890D01*
X94883653Y-69416414D01*
X94788415Y-69321176D01*
X94597939Y-69225938D01*
X93836034Y-69225938D01*
D10*
X118547857Y-97473333D02*
X118576428Y-97573333D01*
X118576428Y-97740000D01*
X118547857Y-97806666D01*
X118519285Y-97840000D01*
X118462142Y-97873333D01*
X118405000Y-97873333D01*
X118347857Y-97840000D01*
X118319285Y-97806666D01*
X118290714Y-97740000D01*
X118262142Y-97606666D01*
X118233571Y-97540000D01*
X118205000Y-97506666D01*
X118147857Y-97473333D01*
X118090714Y-97473333D01*
X118033571Y-97506666D01*
X118005000Y-97540000D01*
X117976428Y-97606666D01*
X117976428Y-97773333D01*
X118005000Y-97873333D01*
X118576428Y-98273333D02*
X118547857Y-98206666D01*
X118519285Y-98173333D01*
X118462142Y-98140000D01*
X118290714Y-98140000D01*
X118233571Y-98173333D01*
X118205000Y-98206666D01*
X118176428Y-98273333D01*
X118176428Y-98373333D01*
X118205000Y-98440000D01*
X118233571Y-98473333D01*
X118290714Y-98506666D01*
X118462142Y-98506666D01*
X118519285Y-98473333D01*
X118547857Y-98440000D01*
X118576428Y-98373333D01*
X118576428Y-98273333D01*
X118576428Y-98906666D02*
X118547857Y-98840000D01*
X118490714Y-98806666D01*
X117976428Y-98806666D01*
X118576428Y-99473333D02*
X117976428Y-99473333D01*
X118547857Y-99473333D02*
X118576428Y-99406666D01*
X118576428Y-99273333D01*
X118547857Y-99206666D01*
X118519285Y-99173333D01*
X118462142Y-99140000D01*
X118290714Y-99140000D01*
X118233571Y-99173333D01*
X118205000Y-99206666D01*
X118176428Y-99273333D01*
X118176428Y-99406666D01*
X118205000Y-99473333D01*
X118547857Y-100073333D02*
X118576428Y-100006666D01*
X118576428Y-99873333D01*
X118547857Y-99806666D01*
X118490714Y-99773333D01*
X118262142Y-99773333D01*
X118205000Y-99806666D01*
X118176428Y-99873333D01*
X118176428Y-100006666D01*
X118205000Y-100073333D01*
X118262142Y-100106666D01*
X118319285Y-100106666D01*
X118376428Y-99773333D01*
X118576428Y-100406666D02*
X118176428Y-100406666D01*
X118290714Y-100406666D02*
X118233571Y-100440000D01*
X118205000Y-100473333D01*
X118176428Y-100540000D01*
X118176428Y-100606666D01*
X118176428Y-101273333D02*
X118176428Y-101540000D01*
X117976428Y-101373333D02*
X118490714Y-101373333D01*
X118547857Y-101406666D01*
X118576428Y-101473333D01*
X118576428Y-101540000D01*
X118576428Y-101873333D02*
X118547857Y-101806666D01*
X118519285Y-101773333D01*
X118462142Y-101740000D01*
X118290714Y-101740000D01*
X118233571Y-101773333D01*
X118205000Y-101806666D01*
X118176428Y-101873333D01*
X118176428Y-101973333D01*
X118205000Y-102040000D01*
X118233571Y-102073333D01*
X118290714Y-102106666D01*
X118462142Y-102106666D01*
X118519285Y-102073333D01*
X118547857Y-102040000D01*
X118576428Y-101973333D01*
X118576428Y-101873333D01*
X118176428Y-102940000D02*
X118776428Y-102940000D01*
X118205000Y-102940000D02*
X118176428Y-103006666D01*
X118176428Y-103140000D01*
X118205000Y-103206666D01*
X118233571Y-103240000D01*
X118290714Y-103273333D01*
X118462142Y-103273333D01*
X118519285Y-103240000D01*
X118547857Y-103206666D01*
X118576428Y-103140000D01*
X118576428Y-103006666D01*
X118547857Y-102940000D01*
X118576428Y-103673333D02*
X118547857Y-103606666D01*
X118519285Y-103573333D01*
X118462142Y-103540000D01*
X118290714Y-103540000D01*
X118233571Y-103573333D01*
X118205000Y-103606666D01*
X118176428Y-103673333D01*
X118176428Y-103773333D01*
X118205000Y-103840000D01*
X118233571Y-103873333D01*
X118290714Y-103906666D01*
X118462142Y-103906666D01*
X118519285Y-103873333D01*
X118547857Y-103840000D01*
X118576428Y-103773333D01*
X118576428Y-103673333D01*
X118176428Y-104140000D02*
X118576428Y-104273333D01*
X118290714Y-104406666D01*
X118576428Y-104540000D01*
X118176428Y-104673333D01*
X118547857Y-105206666D02*
X118576428Y-105140000D01*
X118576428Y-105006666D01*
X118547857Y-104940000D01*
X118490714Y-104906666D01*
X118262142Y-104906666D01*
X118205000Y-104940000D01*
X118176428Y-105006666D01*
X118176428Y-105140000D01*
X118205000Y-105206666D01*
X118262142Y-105240000D01*
X118319285Y-105240000D01*
X118376428Y-104906666D01*
X118576428Y-105540000D02*
X118176428Y-105540000D01*
X118290714Y-105540000D02*
X118233571Y-105573333D01*
X118205000Y-105606666D01*
X118176428Y-105673333D01*
X118176428Y-105740000D01*
X119597857Y-96406666D02*
X119626428Y-96473333D01*
X119626428Y-96606666D01*
X119597857Y-96673333D01*
X119540714Y-96706666D01*
X119512142Y-96706666D01*
X119455000Y-96673333D01*
X119426428Y-96606666D01*
X119426428Y-96506666D01*
X119397857Y-96440000D01*
X119340714Y-96406666D01*
X119312142Y-96406666D01*
X119255000Y-96440000D01*
X119226428Y-96506666D01*
X119226428Y-96606666D01*
X119255000Y-96673333D01*
X119597857Y-97273333D02*
X119626428Y-97206666D01*
X119626428Y-97073333D01*
X119597857Y-97006666D01*
X119540714Y-96973333D01*
X119312142Y-96973333D01*
X119255000Y-97006666D01*
X119226428Y-97073333D01*
X119226428Y-97206666D01*
X119255000Y-97273333D01*
X119312142Y-97306666D01*
X119369285Y-97306666D01*
X119426428Y-96973333D01*
X119226428Y-97606666D02*
X119626428Y-97606666D01*
X119283571Y-97606666D02*
X119255000Y-97640000D01*
X119226428Y-97706666D01*
X119226428Y-97806666D01*
X119255000Y-97873333D01*
X119312142Y-97906666D01*
X119626428Y-97906666D01*
X119597857Y-98206666D02*
X119626428Y-98273333D01*
X119626428Y-98406666D01*
X119597857Y-98473333D01*
X119540714Y-98506666D01*
X119512142Y-98506666D01*
X119455000Y-98473333D01*
X119426428Y-98406666D01*
X119426428Y-98306666D01*
X119397857Y-98240000D01*
X119340714Y-98206666D01*
X119312142Y-98206666D01*
X119255000Y-98240000D01*
X119226428Y-98306666D01*
X119226428Y-98406666D01*
X119255000Y-98473333D01*
X119626428Y-98906666D02*
X119597857Y-98840000D01*
X119569285Y-98806666D01*
X119512142Y-98773333D01*
X119340714Y-98773333D01*
X119283571Y-98806666D01*
X119255000Y-98840000D01*
X119226428Y-98906666D01*
X119226428Y-99006666D01*
X119255000Y-99073333D01*
X119283571Y-99106666D01*
X119340714Y-99140000D01*
X119512142Y-99140000D01*
X119569285Y-99106666D01*
X119597857Y-99073333D01*
X119626428Y-99006666D01*
X119626428Y-98906666D01*
X119626428Y-99440000D02*
X119226428Y-99440000D01*
X119340714Y-99440000D02*
X119283571Y-99473333D01*
X119255000Y-99506666D01*
X119226428Y-99573333D01*
X119226428Y-99640000D01*
X119597857Y-99840000D02*
X119626428Y-99906666D01*
X119626428Y-100040000D01*
X119597857Y-100106666D01*
X119540714Y-100140000D01*
X119512142Y-100140000D01*
X119455000Y-100106666D01*
X119426428Y-100040000D01*
X119426428Y-99940000D01*
X119397857Y-99873333D01*
X119340714Y-99840000D01*
X119312142Y-99840000D01*
X119255000Y-99873333D01*
X119226428Y-99940000D01*
X119226428Y-100040000D01*
X119255000Y-100106666D01*
X119597857Y-101273333D02*
X119626428Y-101206666D01*
X119626428Y-101073333D01*
X119597857Y-101006666D01*
X119569285Y-100973333D01*
X119512142Y-100940000D01*
X119340714Y-100940000D01*
X119283571Y-100973333D01*
X119255000Y-101006666D01*
X119226428Y-101073333D01*
X119226428Y-101206666D01*
X119255000Y-101273333D01*
X119626428Y-101673333D02*
X119597857Y-101606666D01*
X119569285Y-101573333D01*
X119512142Y-101540000D01*
X119340714Y-101540000D01*
X119283571Y-101573333D01*
X119255000Y-101606666D01*
X119226428Y-101673333D01*
X119226428Y-101773333D01*
X119255000Y-101840000D01*
X119283571Y-101873333D01*
X119340714Y-101906666D01*
X119512142Y-101906666D01*
X119569285Y-101873333D01*
X119597857Y-101840000D01*
X119626428Y-101773333D01*
X119626428Y-101673333D01*
X119226428Y-102206666D02*
X119626428Y-102206666D01*
X119283571Y-102206666D02*
X119255000Y-102240000D01*
X119226428Y-102306666D01*
X119226428Y-102406666D01*
X119255000Y-102473333D01*
X119312142Y-102506666D01*
X119626428Y-102506666D01*
X119226428Y-102740000D02*
X119226428Y-103006666D01*
X119026428Y-102840000D02*
X119540714Y-102840000D01*
X119597857Y-102873333D01*
X119626428Y-102940000D01*
X119626428Y-103006666D01*
X119626428Y-103240000D02*
X119226428Y-103240000D01*
X119026428Y-103240000D02*
X119055000Y-103206666D01*
X119083571Y-103240000D01*
X119055000Y-103273333D01*
X119026428Y-103240000D01*
X119083571Y-103240000D01*
X119226428Y-103573333D02*
X119626428Y-103573333D01*
X119283571Y-103573333D02*
X119255000Y-103606666D01*
X119226428Y-103673333D01*
X119226428Y-103773333D01*
X119255000Y-103840000D01*
X119312142Y-103873333D01*
X119626428Y-103873333D01*
X119226428Y-104506666D02*
X119626428Y-104506666D01*
X119226428Y-104206666D02*
X119540714Y-104206666D01*
X119597857Y-104240000D01*
X119626428Y-104306666D01*
X119626428Y-104406666D01*
X119597857Y-104473333D01*
X119569285Y-104506666D01*
X119626428Y-104940000D02*
X119597857Y-104873333D01*
X119569285Y-104840000D01*
X119512142Y-104806666D01*
X119340714Y-104806666D01*
X119283571Y-104840000D01*
X119255000Y-104873333D01*
X119226428Y-104940000D01*
X119226428Y-105040000D01*
X119255000Y-105106666D01*
X119283571Y-105140000D01*
X119340714Y-105173333D01*
X119512142Y-105173333D01*
X119569285Y-105140000D01*
X119597857Y-105106666D01*
X119626428Y-105040000D01*
X119626428Y-104940000D01*
X119226428Y-105773333D02*
X119626428Y-105773333D01*
X119226428Y-105473333D02*
X119540714Y-105473333D01*
X119597857Y-105506666D01*
X119626428Y-105573333D01*
X119626428Y-105673333D01*
X119597857Y-105740000D01*
X119569285Y-105773333D01*
X119597857Y-106073333D02*
X119626428Y-106140000D01*
X119626428Y-106273333D01*
X119597857Y-106340000D01*
X119540714Y-106373333D01*
X119512142Y-106373333D01*
X119455000Y-106340000D01*
X119426428Y-106273333D01*
X119426428Y-106173333D01*
X119397857Y-106106666D01*
X119340714Y-106073333D01*
X119312142Y-106073333D01*
X119255000Y-106106666D01*
X119226428Y-106173333D01*
X119226428Y-106273333D01*
X119255000Y-106340000D01*
X119626428Y-106773333D02*
X119597857Y-106706666D01*
X119540714Y-106673333D01*
X119026428Y-106673333D01*
X119226428Y-106973333D02*
X119626428Y-107140000D01*
X119226428Y-107306666D02*
X119626428Y-107140000D01*
X119769285Y-107073333D01*
X119797857Y-107040000D01*
X119826428Y-106973333D01*
D14*
X92591904Y-137659642D02*
X92734761Y-137621547D01*
X92782380Y-137583452D01*
X92830000Y-137507261D01*
X92830000Y-137392976D01*
X92782380Y-137316785D01*
X92734761Y-137278690D01*
X92639523Y-137240595D01*
X92258571Y-137240595D01*
X92258571Y-138040595D01*
X92591904Y-138040595D01*
X92687142Y-138002500D01*
X92734761Y-137964404D01*
X92782380Y-137888214D01*
X92782380Y-137812023D01*
X92734761Y-137735833D01*
X92687142Y-137697738D01*
X92591904Y-137659642D01*
X92258571Y-137659642D01*
X93258571Y-137659642D02*
X93591904Y-137659642D01*
X93734761Y-137240595D02*
X93258571Y-137240595D01*
X93258571Y-138040595D01*
X93734761Y-138040595D01*
X94163333Y-137659642D02*
X94496666Y-137659642D01*
X94639523Y-137240595D02*
X94163333Y-137240595D01*
X94163333Y-138040595D01*
X94639523Y-138040595D01*
X95068095Y-137240595D02*
X95068095Y-138040595D01*
X95449047Y-138040595D01*
X95544285Y-138002500D01*
X95591904Y-137964404D01*
X95639523Y-137888214D01*
X95639523Y-137773928D01*
X95591904Y-137697738D01*
X95544285Y-137659642D01*
X95449047Y-137621547D01*
X95068095Y-137621547D01*
X96068095Y-137316785D02*
X96115714Y-137278690D01*
X96068095Y-137240595D01*
X96020476Y-137278690D01*
X96068095Y-137316785D01*
X96068095Y-137240595D01*
X96544285Y-137773928D02*
X96544285Y-137240595D01*
X96544285Y-137697738D02*
X96591904Y-137735833D01*
X96687142Y-137773928D01*
X96830000Y-137773928D01*
X96925238Y-137735833D01*
X96972857Y-137659642D01*
X96972857Y-137240595D01*
X97591904Y-137240595D02*
X97496666Y-137278690D01*
X97449047Y-137354880D01*
X97449047Y-138040595D01*
X98639523Y-137773928D02*
X98877619Y-137240595D01*
X99115714Y-137773928D01*
X100020476Y-137240595D02*
X99449047Y-137240595D01*
X99734761Y-137240595D02*
X99734761Y-138040595D01*
X99639523Y-137926309D01*
X99544285Y-137850119D01*
X99449047Y-137812023D01*
X100449047Y-137316785D02*
X100496666Y-137278690D01*
X100449047Y-137240595D01*
X100401428Y-137278690D01*
X100449047Y-137316785D01*
X100449047Y-137240595D01*
X101353809Y-137773928D02*
X101353809Y-137240595D01*
X101115714Y-138078690D02*
X100877619Y-137507261D01*
X101496666Y-137507261D01*
X83710952Y-135915595D02*
X83710952Y-136715595D01*
X83949047Y-136715595D01*
X84091904Y-136677500D01*
X84187142Y-136601309D01*
X84234761Y-136525119D01*
X84282380Y-136372738D01*
X84282380Y-136258452D01*
X84234761Y-136106071D01*
X84187142Y-136029880D01*
X84091904Y-135953690D01*
X83949047Y-135915595D01*
X83710952Y-135915595D01*
X85091904Y-135953690D02*
X84996666Y-135915595D01*
X84806190Y-135915595D01*
X84710952Y-135953690D01*
X84663333Y-136029880D01*
X84663333Y-136334642D01*
X84710952Y-136410833D01*
X84806190Y-136448928D01*
X84996666Y-136448928D01*
X85091904Y-136410833D01*
X85139523Y-136334642D01*
X85139523Y-136258452D01*
X84663333Y-136182261D01*
X85425238Y-136448928D02*
X85806190Y-136448928D01*
X85568095Y-135915595D02*
X85568095Y-136601309D01*
X85615714Y-136677500D01*
X85710952Y-136715595D01*
X85806190Y-136715595D01*
X86568095Y-135915595D02*
X86568095Y-136334642D01*
X86520476Y-136410833D01*
X86425238Y-136448928D01*
X86234761Y-136448928D01*
X86139523Y-136410833D01*
X86568095Y-135953690D02*
X86472857Y-135915595D01*
X86234761Y-135915595D01*
X86139523Y-135953690D01*
X86091904Y-136029880D01*
X86091904Y-136106071D01*
X86139523Y-136182261D01*
X86234761Y-136220357D01*
X86472857Y-136220357D01*
X86568095Y-136258452D01*
X87472857Y-136448928D02*
X87472857Y-135915595D01*
X87044285Y-136448928D02*
X87044285Y-136029880D01*
X87091904Y-135953690D01*
X87187142Y-135915595D01*
X87330000Y-135915595D01*
X87425238Y-135953690D01*
X87472857Y-135991785D01*
X88091904Y-135915595D02*
X87996666Y-135953690D01*
X87949047Y-136029880D01*
X87949047Y-136715595D01*
X88330000Y-136448928D02*
X88710952Y-136448928D01*
X88472857Y-136715595D02*
X88472857Y-136029880D01*
X88520476Y-135953690D01*
X88615714Y-135915595D01*
X88710952Y-135915595D01*
X89663333Y-136448928D02*
X90044285Y-136448928D01*
X89806190Y-135915595D02*
X89806190Y-136601309D01*
X89853809Y-136677500D01*
X89949047Y-136715595D01*
X90044285Y-136715595D01*
X90520476Y-135915595D02*
X90425238Y-135953690D01*
X90377619Y-135991785D01*
X90329999Y-136067976D01*
X90329999Y-136296547D01*
X90377619Y-136372738D01*
X90425238Y-136410833D01*
X90520476Y-136448928D01*
X90663333Y-136448928D01*
X90758571Y-136410833D01*
X90806190Y-136372738D01*
X90853809Y-136296547D01*
X90853809Y-136067976D01*
X90806190Y-135991785D01*
X90758571Y-135953690D01*
X90663333Y-135915595D01*
X90520476Y-135915595D01*
X91282380Y-135915595D02*
X91282380Y-136448928D01*
X91282380Y-136296547D02*
X91329999Y-136372738D01*
X91377619Y-136410833D01*
X91472857Y-136448928D01*
X91568095Y-136448928D01*
X92663333Y-135915595D02*
X92663333Y-136715595D01*
X92901428Y-136715595D01*
X93044285Y-136677500D01*
X93139523Y-136601309D01*
X93187142Y-136525119D01*
X93234761Y-136372738D01*
X93234761Y-136258452D01*
X93187142Y-136106071D01*
X93139523Y-136029880D01*
X93044285Y-135953690D01*
X92901428Y-135915595D01*
X92663333Y-135915595D01*
X93663333Y-135915595D02*
X93663333Y-136448928D01*
X93663333Y-136296547D02*
X93710952Y-136372738D01*
X93758571Y-136410833D01*
X93853809Y-136448928D01*
X93949047Y-136448928D01*
X94710952Y-135915595D02*
X94710952Y-136334642D01*
X94663333Y-136410833D01*
X94568095Y-136448928D01*
X94377619Y-136448928D01*
X94282380Y-136410833D01*
X94710952Y-135953690D02*
X94615714Y-135915595D01*
X94377619Y-135915595D01*
X94282380Y-135953690D01*
X94234761Y-136029880D01*
X94234761Y-136106071D01*
X94282380Y-136182261D01*
X94377619Y-136220357D01*
X94615714Y-136220357D01*
X94710952Y-136258452D01*
X95615714Y-136448928D02*
X95615714Y-135801309D01*
X95568095Y-135725119D01*
X95520476Y-135687023D01*
X95425238Y-135648928D01*
X95282380Y-135648928D01*
X95187142Y-135687023D01*
X95615714Y-135953690D02*
X95520476Y-135915595D01*
X95329999Y-135915595D01*
X95234761Y-135953690D01*
X95187142Y-135991785D01*
X95139523Y-136067976D01*
X95139523Y-136296547D01*
X95187142Y-136372738D01*
X95234761Y-136410833D01*
X95329999Y-136448928D01*
X95520476Y-136448928D01*
X95615714Y-136410833D01*
X96091904Y-135915595D02*
X96091904Y-136448928D01*
X96091904Y-136715595D02*
X96044285Y-136677500D01*
X96091904Y-136639404D01*
X96139523Y-136677500D01*
X96091904Y-136715595D01*
X96091904Y-136639404D01*
X96568095Y-136448928D02*
X96568095Y-135915595D01*
X96568095Y-136372738D02*
X96615714Y-136410833D01*
X96710952Y-136448928D01*
X96853809Y-136448928D01*
X96949047Y-136410833D01*
X96996666Y-136334642D01*
X96996666Y-135915595D01*
X97615714Y-135915595D02*
X97520476Y-135953690D01*
X97472857Y-135991785D01*
X97425238Y-136067976D01*
X97425238Y-136296547D01*
X97472857Y-136372738D01*
X97520476Y-136410833D01*
X97615714Y-136448928D01*
X97758571Y-136448928D01*
X97853809Y-136410833D01*
X97901428Y-136372738D01*
X97949047Y-136296547D01*
X97949047Y-136067976D01*
X97901428Y-135991785D01*
X97853809Y-135953690D01*
X97758571Y-135915595D01*
X97615714Y-135915595D01*
X99615714Y-135915595D02*
X99139523Y-135915595D01*
X99139523Y-136715595D01*
X100091904Y-135915595D02*
X99996666Y-135953690D01*
X99949047Y-135991785D01*
X99901428Y-136067976D01*
X99901428Y-136296547D01*
X99949047Y-136372738D01*
X99996666Y-136410833D01*
X100091904Y-136448928D01*
X100234761Y-136448928D01*
X100329999Y-136410833D01*
X100377619Y-136372738D01*
X100425238Y-136296547D01*
X100425238Y-136067976D01*
X100377619Y-135991785D01*
X100329999Y-135953690D01*
X100234761Y-135915595D01*
X100091904Y-135915595D01*
X101425238Y-135915595D02*
X101091904Y-136296547D01*
X100853809Y-135915595D02*
X100853809Y-136715595D01*
X101234761Y-136715595D01*
X101329999Y-136677500D01*
X101377619Y-136639404D01*
X101425238Y-136563214D01*
X101425238Y-136448928D01*
X101377619Y-136372738D01*
X101329999Y-136334642D01*
X101234761Y-136296547D01*
X100853809Y-136296547D01*
X102282380Y-135915595D02*
X102282380Y-136334642D01*
X102234761Y-136410833D01*
X102139523Y-136448928D01*
X101949047Y-136448928D01*
X101853809Y-136410833D01*
X102282380Y-135953690D02*
X102187142Y-135915595D01*
X101949047Y-135915595D01*
X101853809Y-135953690D01*
X101806190Y-136029880D01*
X101806190Y-136106071D01*
X101853809Y-136182261D01*
X101949047Y-136220357D01*
X102187142Y-136220357D01*
X102282380Y-136258452D01*
X103520476Y-135915595D02*
X103520476Y-136715595D01*
X103853809Y-136144166D01*
X104187142Y-136715595D01*
X104187142Y-135915595D01*
X104663333Y-135915595D02*
X104663333Y-136448928D01*
X104663333Y-136715595D02*
X104615714Y-136677500D01*
X104663333Y-136639404D01*
X104710952Y-136677500D01*
X104663333Y-136715595D01*
X104663333Y-136639404D01*
X105139523Y-136448928D02*
X105139523Y-135915595D01*
X105139523Y-136372738D02*
X105187142Y-136410833D01*
X105282380Y-136448928D01*
X105425238Y-136448928D01*
X105520476Y-136410833D01*
X105568095Y-136334642D01*
X105568095Y-135915595D01*
X106044285Y-135915595D02*
X106044285Y-136448928D01*
X106044285Y-136715595D02*
X105996666Y-136677500D01*
X106044285Y-136639404D01*
X106091904Y-136677500D01*
X106044285Y-136715595D01*
X106044285Y-136639404D01*
X107187142Y-136448928D02*
X107425238Y-135915595D01*
X107663333Y-136448928D01*
X108568095Y-135915595D02*
X107996666Y-135915595D01*
X108282380Y-135915595D02*
X108282380Y-136715595D01*
X108187142Y-136601309D01*
X108091904Y-136525119D01*
X107996666Y-136487023D01*
X108996666Y-135991785D02*
X109044285Y-135953690D01*
X108996666Y-135915595D01*
X108949047Y-135953690D01*
X108996666Y-135991785D01*
X108996666Y-135915595D01*
X109377619Y-136715595D02*
X109996666Y-136715595D01*
X109663333Y-136410833D01*
X109806190Y-136410833D01*
X109901428Y-136372738D01*
X109949047Y-136334642D01*
X109996666Y-136258452D01*
X109996666Y-136067976D01*
X109949047Y-135991785D01*
X109901428Y-135953690D01*
X109806190Y-135915595D01*
X109520476Y-135915595D01*
X109425238Y-135953690D01*
X109377619Y-135991785D01*
D10*
X98044285Y-102568571D02*
X98001428Y-102440000D01*
X97958571Y-102397142D01*
X97872857Y-102354285D01*
X97744285Y-102354285D01*
X97658571Y-102397142D01*
X97615714Y-102440000D01*
X97572857Y-102525714D01*
X97572857Y-102868571D01*
X98472857Y-102868571D01*
X98472857Y-102568571D01*
X98430000Y-102482857D01*
X98387142Y-102440000D01*
X98301428Y-102397142D01*
X98215714Y-102397142D01*
X98130000Y-102440000D01*
X98087142Y-102482857D01*
X98044285Y-102568571D01*
X98044285Y-102868571D01*
X97915714Y-101968571D02*
X97915714Y-101282857D01*
X97572857Y-101625714D02*
X98258571Y-101625714D01*
X98044285Y-99868571D02*
X98001428Y-99740000D01*
X97958571Y-99697142D01*
X97872857Y-99654285D01*
X97744285Y-99654285D01*
X97658571Y-99697142D01*
X97615714Y-99740000D01*
X97572857Y-99825714D01*
X97572857Y-100168571D01*
X98472857Y-100168571D01*
X98472857Y-99868571D01*
X98430000Y-99782857D01*
X98387142Y-99740000D01*
X98301428Y-99697142D01*
X98215714Y-99697142D01*
X98130000Y-99740000D01*
X98087142Y-99782857D01*
X98044285Y-99868571D01*
X98044285Y-100168571D01*
X97915714Y-99268571D02*
X97915714Y-98582857D01*
X97830000Y-97511428D02*
X97830000Y-97082857D01*
X97572857Y-97597142D02*
X98472857Y-97297142D01*
X97572857Y-96997142D01*
X97915714Y-96697142D02*
X97915714Y-96011428D01*
X97572857Y-96354285D02*
X98258571Y-96354285D01*
X97830000Y-94940000D02*
X97830000Y-94511428D01*
X97572857Y-95025714D02*
X98472857Y-94725714D01*
X97572857Y-94425714D01*
X97915714Y-94125714D02*
X97915714Y-93440000D01*
X98044285Y-92325714D02*
X98044285Y-92025714D01*
X97572857Y-91897142D02*
X97572857Y-92325714D01*
X98472857Y-92325714D01*
X98472857Y-91897142D01*
X97915714Y-91511428D02*
X97915714Y-90825714D01*
X98044285Y-89711428D02*
X98044285Y-89411428D01*
X97572857Y-89282857D02*
X97572857Y-89711428D01*
X98472857Y-89711428D01*
X98472857Y-89282857D01*
X97915714Y-88897142D02*
X97915714Y-88211428D01*
X97572857Y-88554285D02*
X98258571Y-88554285D01*
X96072857Y-100597142D02*
X96972857Y-100597142D01*
X96544285Y-100597142D02*
X96544285Y-100082857D01*
X96072857Y-100082857D02*
X96972857Y-100082857D01*
X96972857Y-99740000D02*
X96072857Y-99140000D01*
X96972857Y-99140000D02*
X96072857Y-99740000D01*
X96972857Y-98882857D02*
X96972857Y-98282857D01*
X96072857Y-98668571D01*
X96072857Y-97468571D02*
X96072857Y-97982857D01*
X96072857Y-97725714D02*
X96972857Y-97725714D01*
X96844285Y-97811428D01*
X96758571Y-97897142D01*
X96715714Y-97982857D01*
X96072857Y-96611428D02*
X96072857Y-97125714D01*
X96072857Y-96868571D02*
X96972857Y-96868571D01*
X96844285Y-96954285D01*
X96758571Y-97040000D01*
X96715714Y-97125714D01*
X95730000Y-95282857D02*
X95772857Y-95325714D01*
X95901428Y-95411428D01*
X95987142Y-95454285D01*
X96115714Y-95497142D01*
X96330000Y-95540000D01*
X96501428Y-95540000D01*
X96715714Y-95497142D01*
X96844285Y-95454285D01*
X96930000Y-95411428D01*
X97058571Y-95325714D01*
X97101428Y-95282857D01*
X96158571Y-94425714D02*
X96115714Y-94468571D01*
X96072857Y-94597142D01*
X96072857Y-94682857D01*
X96115714Y-94811428D01*
X96201428Y-94897142D01*
X96287142Y-94940000D01*
X96458571Y-94982857D01*
X96587142Y-94982857D01*
X96758571Y-94940000D01*
X96844285Y-94897142D01*
X96930000Y-94811428D01*
X96972857Y-94682857D01*
X96972857Y-94597142D01*
X96930000Y-94468571D01*
X96887142Y-94425714D01*
X96415714Y-93354285D02*
X96415714Y-92668571D01*
X96072857Y-93011428D02*
X96758571Y-93011428D01*
X96072857Y-91554285D02*
X96972857Y-91554285D01*
X96972857Y-91340000D01*
X96930000Y-91211428D01*
X96844285Y-91125714D01*
X96758571Y-91082857D01*
X96587142Y-91040000D01*
X96458571Y-91040000D01*
X96287142Y-91082857D01*
X96201428Y-91125714D01*
X96115714Y-91211428D01*
X96072857Y-91340000D01*
X96072857Y-91554285D01*
X95730000Y-90740000D02*
X95772857Y-90697142D01*
X95901428Y-90611428D01*
X95987142Y-90568571D01*
X96115714Y-90525714D01*
X96330000Y-90482857D01*
X96501428Y-90482857D01*
X96715714Y-90525714D01*
X96844285Y-90568571D01*
X96930000Y-90611428D01*
X97058571Y-90697142D01*
X97101428Y-90740000D01*
X98003214Y-86778095D02*
X97962738Y-86656666D01*
X97922261Y-86616190D01*
X97841309Y-86575714D01*
X97719880Y-86575714D01*
X97638928Y-86616190D01*
X97598452Y-86656666D01*
X97557976Y-86737619D01*
X97557976Y-87061428D01*
X98407976Y-87061428D01*
X98407976Y-86778095D01*
X98367500Y-86697142D01*
X98327023Y-86656666D01*
X98246071Y-86616190D01*
X98165119Y-86616190D01*
X98084166Y-86656666D01*
X98043690Y-86697142D01*
X98003214Y-86778095D01*
X98003214Y-87061428D01*
X97881785Y-86211428D02*
X97881785Y-85563809D01*
X97557976Y-85887619D02*
X98205595Y-85887619D01*
X98003214Y-84228095D02*
X97962738Y-84106666D01*
X97922261Y-84066190D01*
X97841309Y-84025714D01*
X97719880Y-84025714D01*
X97638928Y-84066190D01*
X97598452Y-84106666D01*
X97557976Y-84187619D01*
X97557976Y-84511428D01*
X98407976Y-84511428D01*
X98407976Y-84228095D01*
X98367500Y-84147142D01*
X98327023Y-84106666D01*
X98246071Y-84066190D01*
X98165119Y-84066190D01*
X98084166Y-84106666D01*
X98043690Y-84147142D01*
X98003214Y-84228095D01*
X98003214Y-84511428D01*
X97881785Y-83661428D02*
X97881785Y-83013809D01*
X97800833Y-82001904D02*
X97800833Y-81597142D01*
X97557976Y-82082857D02*
X98407976Y-81799523D01*
X97557976Y-81516190D01*
X97881785Y-81232857D02*
X97881785Y-80585238D01*
X97557976Y-80909047D02*
X98205595Y-80909047D01*
X97800833Y-79573333D02*
X97800833Y-79168571D01*
X97557976Y-79654285D02*
X98407976Y-79370952D01*
X97557976Y-79087619D01*
X97881785Y-78804285D02*
X97881785Y-78156666D01*
X98003214Y-77104285D02*
X98003214Y-76820952D01*
X97557976Y-76699523D02*
X97557976Y-77104285D01*
X98407976Y-77104285D01*
X98407976Y-76699523D01*
X97881785Y-76335238D02*
X97881785Y-75687619D01*
X98003214Y-74635238D02*
X98003214Y-74351904D01*
X97557976Y-74230476D02*
X97557976Y-74635238D01*
X98407976Y-74635238D01*
X98407976Y-74230476D01*
X97881785Y-73866190D02*
X97881785Y-73218571D01*
X97557976Y-73542380D02*
X98205595Y-73542380D01*
X96132976Y-84855476D02*
X96982976Y-84855476D01*
X96578214Y-84855476D02*
X96578214Y-84369761D01*
X96132976Y-84369761D02*
X96982976Y-84369761D01*
X96982976Y-84045952D02*
X96132976Y-83479285D01*
X96982976Y-83479285D02*
X96132976Y-84045952D01*
X96982976Y-83236428D02*
X96982976Y-82669761D01*
X96132976Y-83034047D01*
X96132976Y-81900714D02*
X96132976Y-82386428D01*
X96132976Y-82143571D02*
X96982976Y-82143571D01*
X96861547Y-82224523D01*
X96780595Y-82305476D01*
X96740119Y-82386428D01*
X96132976Y-81091190D02*
X96132976Y-81576904D01*
X96132976Y-81334047D02*
X96982976Y-81334047D01*
X96861547Y-81415000D01*
X96780595Y-81495952D01*
X96740119Y-81576904D01*
X95809166Y-79836428D02*
X95849642Y-79876904D01*
X95971071Y-79957857D01*
X96052023Y-79998333D01*
X96173452Y-80038809D01*
X96375833Y-80079285D01*
X96537738Y-80079285D01*
X96740119Y-80038809D01*
X96861547Y-79998333D01*
X96942500Y-79957857D01*
X97063928Y-79876904D01*
X97104404Y-79836428D01*
X96375833Y-79553095D02*
X96375833Y-79148333D01*
X96132976Y-79634047D02*
X96982976Y-79350714D01*
X96132976Y-79067380D01*
X96456785Y-78136428D02*
X96456785Y-77488809D01*
X96132976Y-77812619D02*
X96780595Y-77812619D01*
X96578214Y-76153095D02*
X96537738Y-76031666D01*
X96497261Y-75991190D01*
X96416309Y-75950714D01*
X96294880Y-75950714D01*
X96213928Y-75991190D01*
X96173452Y-76031666D01*
X96132976Y-76112619D01*
X96132976Y-76436428D01*
X96982976Y-76436428D01*
X96982976Y-76153095D01*
X96942500Y-76072142D01*
X96902023Y-76031666D01*
X96821071Y-75991190D01*
X96740119Y-75991190D01*
X96659166Y-76031666D01*
X96618690Y-76072142D01*
X96578214Y-76153095D01*
X96578214Y-76436428D01*
X95809166Y-75667380D02*
X95849642Y-75626904D01*
X95971071Y-75545952D01*
X96052023Y-75505476D01*
X96173452Y-75465000D01*
X96375833Y-75424523D01*
X96537738Y-75424523D01*
X96740119Y-75465000D01*
X96861547Y-75505476D01*
X96942500Y-75545952D01*
X97063928Y-75626904D01*
X97104404Y-75667380D01*
X112180000Y-97573333D02*
X112180000Y-97906666D01*
X112351428Y-97506666D02*
X111751428Y-97740000D01*
X112351428Y-97973333D01*
X111751428Y-98340000D02*
X111751428Y-98406666D01*
X111780000Y-98473333D01*
X111808571Y-98506666D01*
X111865714Y-98540000D01*
X111980000Y-98573333D01*
X112122857Y-98573333D01*
X112237142Y-98540000D01*
X112294285Y-98506666D01*
X112322857Y-98473333D01*
X112351428Y-98406666D01*
X112351428Y-98340000D01*
X112322857Y-98273333D01*
X112294285Y-98240000D01*
X112237142Y-98206666D01*
X112122857Y-98173333D01*
X111980000Y-98173333D01*
X111865714Y-98206666D01*
X111808571Y-98240000D01*
X111780000Y-98273333D01*
X111751428Y-98340000D01*
X112322857Y-99373333D02*
X112351428Y-99440000D01*
X112351428Y-99573333D01*
X112322857Y-99640000D01*
X112265714Y-99673333D01*
X112237142Y-99673333D01*
X112180000Y-99640000D01*
X112151428Y-99573333D01*
X112151428Y-99473333D01*
X112122857Y-99406666D01*
X112065714Y-99373333D01*
X112037142Y-99373333D01*
X111980000Y-99406666D01*
X111951428Y-99473333D01*
X111951428Y-99573333D01*
X111980000Y-99640000D01*
X112322857Y-100240000D02*
X112351428Y-100173333D01*
X112351428Y-100040000D01*
X112322857Y-99973333D01*
X112265714Y-99940000D01*
X112037142Y-99940000D01*
X111980000Y-99973333D01*
X111951428Y-100040000D01*
X111951428Y-100173333D01*
X111980000Y-100240000D01*
X112037142Y-100273333D01*
X112094285Y-100273333D01*
X112151428Y-99940000D01*
X111951428Y-100573333D02*
X112351428Y-100573333D01*
X112008571Y-100573333D02*
X111980000Y-100606666D01*
X111951428Y-100673333D01*
X111951428Y-100773333D01*
X111980000Y-100840000D01*
X112037142Y-100873333D01*
X112351428Y-100873333D01*
X112322857Y-101173333D02*
X112351428Y-101240000D01*
X112351428Y-101373333D01*
X112322857Y-101440000D01*
X112265714Y-101473333D01*
X112237142Y-101473333D01*
X112180000Y-101440000D01*
X112151428Y-101373333D01*
X112151428Y-101273333D01*
X112122857Y-101206666D01*
X112065714Y-101173333D01*
X112037142Y-101173333D01*
X111980000Y-101206666D01*
X111951428Y-101273333D01*
X111951428Y-101373333D01*
X111980000Y-101440000D01*
X112351428Y-101873333D02*
X112322857Y-101806666D01*
X112294285Y-101773333D01*
X112237142Y-101740000D01*
X112065714Y-101740000D01*
X112008571Y-101773333D01*
X111980000Y-101806666D01*
X111951428Y-101873333D01*
X111951428Y-101973333D01*
X111980000Y-102040000D01*
X112008571Y-102073333D01*
X112065714Y-102106666D01*
X112237142Y-102106666D01*
X112294285Y-102073333D01*
X112322857Y-102040000D01*
X112351428Y-101973333D01*
X112351428Y-101873333D01*
X112351428Y-102406666D02*
X111951428Y-102406666D01*
X112065714Y-102406666D02*
X112008571Y-102440000D01*
X111980000Y-102473333D01*
X111951428Y-102540000D01*
X111951428Y-102606666D01*
X111951428Y-103373333D02*
X112551428Y-103373333D01*
X111980000Y-103373333D02*
X111951428Y-103440000D01*
X111951428Y-103573333D01*
X111980000Y-103640000D01*
X112008571Y-103673333D01*
X112065714Y-103706666D01*
X112237142Y-103706666D01*
X112294285Y-103673333D01*
X112322857Y-103640000D01*
X112351428Y-103573333D01*
X112351428Y-103440000D01*
X112322857Y-103373333D01*
X112351428Y-104106666D02*
X112322857Y-104040000D01*
X112294285Y-104006666D01*
X112237142Y-103973333D01*
X112065714Y-103973333D01*
X112008571Y-104006666D01*
X111980000Y-104040000D01*
X111951428Y-104106666D01*
X111951428Y-104206666D01*
X111980000Y-104273333D01*
X112008571Y-104306666D01*
X112065714Y-104340000D01*
X112237142Y-104340000D01*
X112294285Y-104306666D01*
X112322857Y-104273333D01*
X112351428Y-104206666D01*
X112351428Y-104106666D01*
X111951428Y-104573333D02*
X112351428Y-104706666D01*
X112065714Y-104840000D01*
X112351428Y-104973333D01*
X111951428Y-105106666D01*
X112322857Y-105640000D02*
X112351428Y-105573333D01*
X112351428Y-105440000D01*
X112322857Y-105373333D01*
X112265714Y-105340000D01*
X112037142Y-105340000D01*
X111980000Y-105373333D01*
X111951428Y-105440000D01*
X111951428Y-105573333D01*
X111980000Y-105640000D01*
X112037142Y-105673333D01*
X112094285Y-105673333D01*
X112151428Y-105340000D01*
X112351428Y-105973333D02*
X111951428Y-105973333D01*
X112065714Y-105973333D02*
X112008571Y-106006666D01*
X111980000Y-106040000D01*
X111951428Y-106106666D01*
X111951428Y-106173333D01*
X113087142Y-97940000D02*
X113115714Y-98040000D01*
X113144285Y-98073333D01*
X113201428Y-98106666D01*
X113287142Y-98106666D01*
X113344285Y-98073333D01*
X113372857Y-98040000D01*
X113401428Y-97973333D01*
X113401428Y-97706666D01*
X112801428Y-97706666D01*
X112801428Y-97940000D01*
X112830000Y-98006666D01*
X112858571Y-98040000D01*
X112915714Y-98073333D01*
X112972857Y-98073333D01*
X113030000Y-98040000D01*
X113058571Y-98006666D01*
X113087142Y-97940000D01*
X113087142Y-97706666D01*
X113401428Y-98406666D02*
X113001428Y-98406666D01*
X113115714Y-98406666D02*
X113058571Y-98440000D01*
X113030000Y-98473333D01*
X113001428Y-98540000D01*
X113001428Y-98606666D01*
X113372857Y-99106666D02*
X113401428Y-99040000D01*
X113401428Y-98906666D01*
X113372857Y-98840000D01*
X113315714Y-98806666D01*
X113087142Y-98806666D01*
X113030000Y-98840000D01*
X113001428Y-98906666D01*
X113001428Y-99040000D01*
X113030000Y-99106666D01*
X113087142Y-99140000D01*
X113144285Y-99140000D01*
X113201428Y-98806666D01*
X113401428Y-99740000D02*
X113087142Y-99740000D01*
X113030000Y-99706666D01*
X113001428Y-99640000D01*
X113001428Y-99506666D01*
X113030000Y-99440000D01*
X113372857Y-99740000D02*
X113401428Y-99673333D01*
X113401428Y-99506666D01*
X113372857Y-99440000D01*
X113315714Y-99406666D01*
X113258571Y-99406666D01*
X113201428Y-99440000D01*
X113172857Y-99506666D01*
X113172857Y-99673333D01*
X113144285Y-99740000D01*
X113401428Y-100073333D02*
X112801428Y-100073333D01*
X113172857Y-100140000D02*
X113401428Y-100340000D01*
X113001428Y-100340000D02*
X113230000Y-100073333D01*
X113001428Y-101073333D02*
X113001428Y-101340000D01*
X112801428Y-101173333D02*
X113315714Y-101173333D01*
X113372857Y-101206666D01*
X113401428Y-101273333D01*
X113401428Y-101340000D01*
X113401428Y-101673333D02*
X113372857Y-101606666D01*
X113344285Y-101573333D01*
X113287142Y-101540000D01*
X113115714Y-101540000D01*
X113058571Y-101573333D01*
X113030000Y-101606666D01*
X113001428Y-101673333D01*
X113001428Y-101773333D01*
X113030000Y-101840000D01*
X113058571Y-101873333D01*
X113115714Y-101906666D01*
X113287142Y-101906666D01*
X113344285Y-101873333D01*
X113372857Y-101840000D01*
X113401428Y-101773333D01*
X113401428Y-101673333D01*
X113001428Y-102740000D02*
X113601428Y-102740000D01*
X113030000Y-102740000D02*
X113001428Y-102806666D01*
X113001428Y-102940000D01*
X113030000Y-103006666D01*
X113058571Y-103040000D01*
X113115714Y-103073333D01*
X113287142Y-103073333D01*
X113344285Y-103040000D01*
X113372857Y-103006666D01*
X113401428Y-102940000D01*
X113401428Y-102806666D01*
X113372857Y-102740000D01*
X113401428Y-103473333D02*
X113372857Y-103406666D01*
X113344285Y-103373333D01*
X113287142Y-103340000D01*
X113115714Y-103340000D01*
X113058571Y-103373333D01*
X113030000Y-103406666D01*
X113001428Y-103473333D01*
X113001428Y-103573333D01*
X113030000Y-103640000D01*
X113058571Y-103673333D01*
X113115714Y-103706666D01*
X113287142Y-103706666D01*
X113344285Y-103673333D01*
X113372857Y-103640000D01*
X113401428Y-103573333D01*
X113401428Y-103473333D01*
X113001428Y-103940000D02*
X113401428Y-104073333D01*
X113115714Y-104206666D01*
X113401428Y-104340000D01*
X113001428Y-104473333D01*
X113372857Y-105006666D02*
X113401428Y-104940000D01*
X113401428Y-104806666D01*
X113372857Y-104740000D01*
X113315714Y-104706666D01*
X113087142Y-104706666D01*
X113030000Y-104740000D01*
X113001428Y-104806666D01*
X113001428Y-104940000D01*
X113030000Y-105006666D01*
X113087142Y-105040000D01*
X113144285Y-105040000D01*
X113201428Y-104706666D01*
X113401428Y-105340000D02*
X113001428Y-105340000D01*
X113115714Y-105340000D02*
X113058571Y-105373333D01*
X113030000Y-105406666D01*
X113001428Y-105473333D01*
X113001428Y-105540000D01*
X114422857Y-96406666D02*
X114451428Y-96473333D01*
X114451428Y-96606666D01*
X114422857Y-96673333D01*
X114365714Y-96706666D01*
X114337142Y-96706666D01*
X114280000Y-96673333D01*
X114251428Y-96606666D01*
X114251428Y-96506666D01*
X114222857Y-96440000D01*
X114165714Y-96406666D01*
X114137142Y-96406666D01*
X114080000Y-96440000D01*
X114051428Y-96506666D01*
X114051428Y-96606666D01*
X114080000Y-96673333D01*
X114422857Y-97273333D02*
X114451428Y-97206666D01*
X114451428Y-97073333D01*
X114422857Y-97006666D01*
X114365714Y-96973333D01*
X114137142Y-96973333D01*
X114080000Y-97006666D01*
X114051428Y-97073333D01*
X114051428Y-97206666D01*
X114080000Y-97273333D01*
X114137142Y-97306666D01*
X114194285Y-97306666D01*
X114251428Y-96973333D01*
X114051428Y-97606666D02*
X114451428Y-97606666D01*
X114108571Y-97606666D02*
X114080000Y-97640000D01*
X114051428Y-97706666D01*
X114051428Y-97806666D01*
X114080000Y-97873333D01*
X114137142Y-97906666D01*
X114451428Y-97906666D01*
X114422857Y-98206666D02*
X114451428Y-98273333D01*
X114451428Y-98406666D01*
X114422857Y-98473333D01*
X114365714Y-98506666D01*
X114337142Y-98506666D01*
X114280000Y-98473333D01*
X114251428Y-98406666D01*
X114251428Y-98306666D01*
X114222857Y-98240000D01*
X114165714Y-98206666D01*
X114137142Y-98206666D01*
X114080000Y-98240000D01*
X114051428Y-98306666D01*
X114051428Y-98406666D01*
X114080000Y-98473333D01*
X114451428Y-98906666D02*
X114422857Y-98840000D01*
X114394285Y-98806666D01*
X114337142Y-98773333D01*
X114165714Y-98773333D01*
X114108571Y-98806666D01*
X114080000Y-98840000D01*
X114051428Y-98906666D01*
X114051428Y-99006666D01*
X114080000Y-99073333D01*
X114108571Y-99106666D01*
X114165714Y-99140000D01*
X114337142Y-99140000D01*
X114394285Y-99106666D01*
X114422857Y-99073333D01*
X114451428Y-99006666D01*
X114451428Y-98906666D01*
X114451428Y-99440000D02*
X114051428Y-99440000D01*
X114165714Y-99440000D02*
X114108571Y-99473333D01*
X114080000Y-99506666D01*
X114051428Y-99573333D01*
X114051428Y-99640000D01*
X114422857Y-99840000D02*
X114451428Y-99906666D01*
X114451428Y-100040000D01*
X114422857Y-100106666D01*
X114365714Y-100140000D01*
X114337142Y-100140000D01*
X114280000Y-100106666D01*
X114251428Y-100040000D01*
X114251428Y-99940000D01*
X114222857Y-99873333D01*
X114165714Y-99840000D01*
X114137142Y-99840000D01*
X114080000Y-99873333D01*
X114051428Y-99940000D01*
X114051428Y-100040000D01*
X114080000Y-100106666D01*
X114422857Y-101273333D02*
X114451428Y-101206666D01*
X114451428Y-101073333D01*
X114422857Y-101006666D01*
X114394285Y-100973333D01*
X114337142Y-100940000D01*
X114165714Y-100940000D01*
X114108571Y-100973333D01*
X114080000Y-101006666D01*
X114051428Y-101073333D01*
X114051428Y-101206666D01*
X114080000Y-101273333D01*
X114451428Y-101673333D02*
X114422857Y-101606666D01*
X114394285Y-101573333D01*
X114337142Y-101540000D01*
X114165714Y-101540000D01*
X114108571Y-101573333D01*
X114080000Y-101606666D01*
X114051428Y-101673333D01*
X114051428Y-101773333D01*
X114080000Y-101840000D01*
X114108571Y-101873333D01*
X114165714Y-101906666D01*
X114337142Y-101906666D01*
X114394285Y-101873333D01*
X114422857Y-101840000D01*
X114451428Y-101773333D01*
X114451428Y-101673333D01*
X114051428Y-102206666D02*
X114451428Y-102206666D01*
X114108571Y-102206666D02*
X114080000Y-102240000D01*
X114051428Y-102306666D01*
X114051428Y-102406666D01*
X114080000Y-102473333D01*
X114137142Y-102506666D01*
X114451428Y-102506666D01*
X114051428Y-102740000D02*
X114051428Y-103006666D01*
X113851428Y-102840000D02*
X114365714Y-102840000D01*
X114422857Y-102873333D01*
X114451428Y-102940000D01*
X114451428Y-103006666D01*
X114451428Y-103240000D02*
X114051428Y-103240000D01*
X113851428Y-103240000D02*
X113880000Y-103206666D01*
X113908571Y-103240000D01*
X113880000Y-103273333D01*
X113851428Y-103240000D01*
X113908571Y-103240000D01*
X114051428Y-103573333D02*
X114451428Y-103573333D01*
X114108571Y-103573333D02*
X114080000Y-103606666D01*
X114051428Y-103673333D01*
X114051428Y-103773333D01*
X114080000Y-103840000D01*
X114137142Y-103873333D01*
X114451428Y-103873333D01*
X114051428Y-104506666D02*
X114451428Y-104506666D01*
X114051428Y-104206666D02*
X114365714Y-104206666D01*
X114422857Y-104240000D01*
X114451428Y-104306666D01*
X114451428Y-104406666D01*
X114422857Y-104473333D01*
X114394285Y-104506666D01*
X114451428Y-104940000D02*
X114422857Y-104873333D01*
X114394285Y-104840000D01*
X114337142Y-104806666D01*
X114165714Y-104806666D01*
X114108571Y-104840000D01*
X114080000Y-104873333D01*
X114051428Y-104940000D01*
X114051428Y-105040000D01*
X114080000Y-105106666D01*
X114108571Y-105140000D01*
X114165714Y-105173333D01*
X114337142Y-105173333D01*
X114394285Y-105140000D01*
X114422857Y-105106666D01*
X114451428Y-105040000D01*
X114451428Y-104940000D01*
X114051428Y-105773333D02*
X114451428Y-105773333D01*
X114051428Y-105473333D02*
X114365714Y-105473333D01*
X114422857Y-105506666D01*
X114451428Y-105573333D01*
X114451428Y-105673333D01*
X114422857Y-105740000D01*
X114394285Y-105773333D01*
X114422857Y-106073333D02*
X114451428Y-106140000D01*
X114451428Y-106273333D01*
X114422857Y-106340000D01*
X114365714Y-106373333D01*
X114337142Y-106373333D01*
X114280000Y-106340000D01*
X114251428Y-106273333D01*
X114251428Y-106173333D01*
X114222857Y-106106666D01*
X114165714Y-106073333D01*
X114137142Y-106073333D01*
X114080000Y-106106666D01*
X114051428Y-106173333D01*
X114051428Y-106273333D01*
X114080000Y-106340000D01*
X114451428Y-106773333D02*
X114422857Y-106706666D01*
X114365714Y-106673333D01*
X113851428Y-106673333D01*
X114051428Y-106973333D02*
X114451428Y-107140000D01*
X114051428Y-107306666D02*
X114451428Y-107140000D01*
X114594285Y-107073333D01*
X114622857Y-107040000D01*
X114651428Y-106973333D01*
G04 #@! TO.C,U2*
X101600000Y-103210000D02*
X101600000Y-87970000D01*
X77470000Y-103210000D02*
X101600000Y-103210000D01*
X77470000Y-87970000D02*
X77470000Y-103210000D01*
X101600000Y-87970000D02*
X77470000Y-87970000D01*
G04 #@! TO.C,U3*
X101600000Y-87630000D02*
X101600000Y-72390000D01*
X77470000Y-87630000D02*
X101600000Y-87630000D01*
X77470000Y-72390000D02*
X77470000Y-87630000D01*
X101600000Y-72390000D02*
X77470000Y-72390000D01*
D15*
G04 #@! TO.C,JP2*
X122230000Y-101040000D02*
G75*
G03X121530000Y-100340000I-700000J0D01*
G01*
X120930000Y-100340000D02*
G75*
G03X120230000Y-101040000I0J-700000D01*
G01*
X120230000Y-102440000D02*
G75*
G03X120930000Y-103140000I700000J0D01*
G01*
X121530000Y-103140000D02*
G75*
G03X122230000Y-102440000I0J700000D01*
G01*
X120930000Y-103140000D02*
X121530000Y-103140000D01*
X120230000Y-101040000D02*
X120230000Y-102440000D01*
X121530000Y-100340000D02*
X120930000Y-100340000D01*
X122230000Y-102440000D02*
X122230000Y-101040000D01*
G04 #@! TO.C,JP1*
X117230000Y-101040000D02*
G75*
G03X116530000Y-100340000I-700000J0D01*
G01*
X115930000Y-100340000D02*
G75*
G03X115230000Y-101040000I0J-700000D01*
G01*
X115230000Y-102440000D02*
G75*
G03X115930000Y-103140000I700000J0D01*
G01*
X116530000Y-103140000D02*
G75*
G03X117230000Y-102440000I0J700000D01*
G01*
X115930000Y-103140000D02*
X116530000Y-103140000D01*
X115230000Y-101040000D02*
X115230000Y-102440000D01*
X116530000Y-100340000D02*
X115930000Y-100340000D01*
X117230000Y-102440000D02*
X117230000Y-101040000D01*
G04 #@! TO.C,JP3*
X88130000Y-132240000D02*
G75*
G03X88830000Y-131540000I0J700000D01*
G01*
X88830000Y-130940000D02*
G75*
G03X88130000Y-130240000I-700000J0D01*
G01*
X86730000Y-130240000D02*
G75*
G03X86030000Y-130940000I0J-700000D01*
G01*
X86030000Y-131540000D02*
G75*
G03X86730000Y-132240000I700000J0D01*
G01*
X86030000Y-130940000D02*
X86030000Y-131540000D01*
X88130000Y-130240000D02*
X86730000Y-130240000D01*
X88830000Y-131540000D02*
X88830000Y-130940000D01*
X86730000Y-132240000D02*
X88130000Y-132240000D01*
G04 #@! TO.C,JP4*
X86780000Y-126540000D02*
X88180000Y-126540000D01*
X88880000Y-125840000D02*
X88880000Y-125240000D01*
X88180000Y-124540000D02*
X86780000Y-124540000D01*
X86080000Y-125240000D02*
X86080000Y-125840000D01*
X86080000Y-125840000D02*
G75*
G03X86780000Y-126540000I700000J0D01*
G01*
X86780000Y-124540000D02*
G75*
G03X86080000Y-125240000I0J-700000D01*
G01*
X88880000Y-125240000D02*
G75*
G03X88180000Y-124540000I-700000J0D01*
G01*
X88180000Y-126540000D02*
G75*
G03X88880000Y-125840000I0J700000D01*
G01*
G04 #@! TO.C,JP5*
X98930000Y-124040000D02*
X97530000Y-124040000D01*
X96830000Y-124740000D02*
X96830000Y-125340000D01*
X97530000Y-126040000D02*
X98930000Y-126040000D01*
X99630000Y-125340000D02*
X99630000Y-124740000D01*
X99630000Y-124740000D02*
G75*
G03X98930000Y-124040000I-700000J0D01*
G01*
X98930000Y-126040000D02*
G75*
G03X99630000Y-125340000I0J700000D01*
G01*
X96830000Y-125340000D02*
G75*
G03X97530000Y-126040000I700000J0D01*
G01*
X97530000Y-124040000D02*
G75*
G03X96830000Y-124740000I0J-700000D01*
G01*
G04 #@! TO.C,JP6*
X97830000Y-130040000D02*
X98130000Y-129740000D01*
X97530000Y-129740000D02*
X98130000Y-129740000D01*
X97830000Y-130040000D02*
X97530000Y-129740000D01*
X96980000Y-130940000D02*
X96980000Y-131540000D01*
X100430000Y-130240000D02*
X97630000Y-130240000D01*
X101080000Y-131540000D02*
X101080000Y-130940000D01*
X97630000Y-132240000D02*
X100430000Y-132240000D01*
X100380000Y-132240000D02*
G75*
G03X101080000Y-131540000I0J700000D01*
G01*
X101080000Y-130940000D02*
G75*
G03X100380000Y-130240000I-700000J0D01*
G01*
X97680000Y-130240000D02*
G75*
G03X96980000Y-130940000I0J-700000D01*
G01*
X96980000Y-131540000D02*
G75*
G03X97680000Y-132240000I700000J0D01*
G01*
G04 #@! TO.C,JP7*
X92230000Y-93240000D02*
X92530000Y-92940000D01*
X91930000Y-92940000D02*
X92530000Y-92940000D01*
X92230000Y-93240000D02*
X91930000Y-92940000D01*
X91380000Y-94140000D02*
X91380000Y-94740000D01*
X94830000Y-93440000D02*
X92030000Y-93440000D01*
X95480000Y-94740000D02*
X95480000Y-94140000D01*
X92030000Y-95440000D02*
X94830000Y-95440000D01*
X94780000Y-95440000D02*
G75*
G03X95480000Y-94740000I0J700000D01*
G01*
X95480000Y-94140000D02*
G75*
G03X94780000Y-93440000I-700000J0D01*
G01*
X92080000Y-93440000D02*
G75*
G03X91380000Y-94140000I0J-700000D01*
G01*
X91380000Y-94740000D02*
G75*
G03X92080000Y-95440000I700000J0D01*
G01*
G04 #@! TO.C,U2*
D10*
X79501904Y-88352380D02*
X79501904Y-89161904D01*
X79454285Y-89257142D01*
X79406666Y-89304761D01*
X79311428Y-89352380D01*
X79120952Y-89352380D01*
X79025714Y-89304761D01*
X78978095Y-89257142D01*
X78930476Y-89161904D01*
X78930476Y-88352380D01*
X78501904Y-88447619D02*
X78454285Y-88400000D01*
X78359047Y-88352380D01*
X78120952Y-88352380D01*
X78025714Y-88400000D01*
X77978095Y-88447619D01*
X77930476Y-88542857D01*
X77930476Y-88638095D01*
X77978095Y-88780952D01*
X78549523Y-89352380D01*
X77930476Y-89352380D01*
G04 #@! TO.C,U3*
X79501904Y-73112380D02*
X79501904Y-73921904D01*
X79454285Y-74017142D01*
X79406666Y-74064761D01*
X79311428Y-74112380D01*
X79120952Y-74112380D01*
X79025714Y-74064761D01*
X78978095Y-74017142D01*
X78930476Y-73921904D01*
X78930476Y-73112380D01*
X78549523Y-73112380D02*
X77930476Y-73112380D01*
X78263809Y-73493333D01*
X78120952Y-73493333D01*
X78025714Y-73540952D01*
X77978095Y-73588571D01*
X77930476Y-73683809D01*
X77930476Y-73921904D01*
X77978095Y-74017142D01*
X78025714Y-74064761D01*
X78120952Y-74112380D01*
X78406666Y-74112380D01*
X78501904Y-74064761D01*
X78549523Y-74017142D01*
G04 #@! TO.C,JP2*
X120782380Y-104306666D02*
X121496666Y-104306666D01*
X121639523Y-104259047D01*
X121734761Y-104163809D01*
X121782380Y-104020952D01*
X121782380Y-103925714D01*
X121782380Y-104782857D02*
X120782380Y-104782857D01*
X120782380Y-105163809D01*
X120830000Y-105259047D01*
X120877619Y-105306666D01*
X120972857Y-105354285D01*
X121115714Y-105354285D01*
X121210952Y-105306666D01*
X121258571Y-105259047D01*
X121306190Y-105163809D01*
X121306190Y-104782857D01*
X120877619Y-105735238D02*
X120830000Y-105782857D01*
X120782380Y-105878095D01*
X120782380Y-106116190D01*
X120830000Y-106211428D01*
X120877619Y-106259047D01*
X120972857Y-106306666D01*
X121068095Y-106306666D01*
X121210952Y-106259047D01*
X121782380Y-105687619D01*
X121782380Y-106306666D01*
G04 #@! TO.C,JP1*
X115682380Y-104306666D02*
X116396666Y-104306666D01*
X116539523Y-104259047D01*
X116634761Y-104163809D01*
X116682380Y-104020952D01*
X116682380Y-103925714D01*
X116682380Y-104782857D02*
X115682380Y-104782857D01*
X115682380Y-105163809D01*
X115730000Y-105259047D01*
X115777619Y-105306666D01*
X115872857Y-105354285D01*
X116015714Y-105354285D01*
X116110952Y-105306666D01*
X116158571Y-105259047D01*
X116206190Y-105163809D01*
X116206190Y-104782857D01*
X116682380Y-106306666D02*
X116682380Y-105735238D01*
X116682380Y-106020952D02*
X115682380Y-106020952D01*
X115825238Y-105925714D01*
X115920476Y-105830476D01*
X115968095Y-105735238D01*
G04 #@! TO.C,JP3*
X85088333Y-130692380D02*
X85088333Y-131406666D01*
X85135952Y-131549523D01*
X85231190Y-131644761D01*
X85374047Y-131692380D01*
X85469285Y-131692380D01*
X84612142Y-131692380D02*
X84612142Y-130692380D01*
X84231190Y-130692380D01*
X84135952Y-130740000D01*
X84088333Y-130787619D01*
X84040714Y-130882857D01*
X84040714Y-131025714D01*
X84088333Y-131120952D01*
X84135952Y-131168571D01*
X84231190Y-131216190D01*
X84612142Y-131216190D01*
X83707380Y-130692380D02*
X83088333Y-130692380D01*
X83421666Y-131073333D01*
X83278809Y-131073333D01*
X83183571Y-131120952D01*
X83135952Y-131168571D01*
X83088333Y-131263809D01*
X83088333Y-131501904D01*
X83135952Y-131597142D01*
X83183571Y-131644761D01*
X83278809Y-131692380D01*
X83564523Y-131692380D01*
X83659761Y-131644761D01*
X83707380Y-131597142D01*
X89713333Y-129456666D02*
X89380000Y-129456666D01*
X89780000Y-129656666D02*
X89546666Y-128956666D01*
X89313333Y-129656666D01*
X88780000Y-129190000D02*
X88780000Y-129656666D01*
X88946666Y-128923333D02*
X89113333Y-129423333D01*
X88680000Y-129423333D01*
X87780000Y-129656666D02*
X87846666Y-129623333D01*
X87880000Y-129590000D01*
X87913333Y-129523333D01*
X87913333Y-129323333D01*
X87880000Y-129256666D01*
X87846666Y-129223333D01*
X87780000Y-129190000D01*
X87680000Y-129190000D01*
X87613333Y-129223333D01*
X87580000Y-129256666D01*
X87546666Y-129323333D01*
X87546666Y-129523333D01*
X87580000Y-129590000D01*
X87613333Y-129623333D01*
X87680000Y-129656666D01*
X87780000Y-129656666D01*
X87246666Y-129190000D02*
X87246666Y-129656666D01*
X87246666Y-129256666D02*
X87213333Y-129223333D01*
X87146666Y-129190000D01*
X87046666Y-129190000D01*
X86980000Y-129223333D01*
X86946666Y-129290000D01*
X86946666Y-129656666D01*
X86080000Y-129656666D02*
X86080000Y-128956666D01*
X85913333Y-128956666D01*
X85813333Y-128990000D01*
X85746666Y-129056666D01*
X85713333Y-129123333D01*
X85680000Y-129256666D01*
X85680000Y-129356666D01*
X85713333Y-129490000D01*
X85746666Y-129556666D01*
X85813333Y-129623333D01*
X85913333Y-129656666D01*
X86080000Y-129656666D01*
X85480000Y-128956666D02*
X85080000Y-128956666D01*
X85280000Y-129656666D02*
X85280000Y-128956666D01*
G04 #@! TO.C,JP4*
X85013333Y-124992380D02*
X85013333Y-125706666D01*
X85060952Y-125849523D01*
X85156190Y-125944761D01*
X85299047Y-125992380D01*
X85394285Y-125992380D01*
X84537142Y-125992380D02*
X84537142Y-124992380D01*
X84156190Y-124992380D01*
X84060952Y-125040000D01*
X84013333Y-125087619D01*
X83965714Y-125182857D01*
X83965714Y-125325714D01*
X84013333Y-125420952D01*
X84060952Y-125468571D01*
X84156190Y-125516190D01*
X84537142Y-125516190D01*
X83108571Y-125325714D02*
X83108571Y-125992380D01*
X83346666Y-124944761D02*
X83584761Y-125659047D01*
X82965714Y-125659047D01*
X89380000Y-123356666D02*
X89046666Y-123356666D01*
X89446666Y-123556666D02*
X89213333Y-122856666D01*
X88980000Y-123556666D01*
X88413333Y-122856666D02*
X88746666Y-122856666D01*
X88780000Y-123190000D01*
X88746666Y-123156666D01*
X88680000Y-123123333D01*
X88513333Y-123123333D01*
X88446666Y-123156666D01*
X88413333Y-123190000D01*
X88380000Y-123256666D01*
X88380000Y-123423333D01*
X88413333Y-123490000D01*
X88446666Y-123523333D01*
X88513333Y-123556666D01*
X88680000Y-123556666D01*
X88746666Y-123523333D01*
X88780000Y-123490000D01*
X87446666Y-123556666D02*
X87513333Y-123523333D01*
X87546666Y-123490000D01*
X87580000Y-123423333D01*
X87580000Y-123223333D01*
X87546666Y-123156666D01*
X87513333Y-123123333D01*
X87446666Y-123090000D01*
X87346666Y-123090000D01*
X87280000Y-123123333D01*
X87246666Y-123156666D01*
X87213333Y-123223333D01*
X87213333Y-123423333D01*
X87246666Y-123490000D01*
X87280000Y-123523333D01*
X87346666Y-123556666D01*
X87446666Y-123556666D01*
X86913333Y-123090000D02*
X86913333Y-123556666D01*
X86913333Y-123156666D02*
X86880000Y-123123333D01*
X86813333Y-123090000D01*
X86713333Y-123090000D01*
X86646666Y-123123333D01*
X86613333Y-123190000D01*
X86613333Y-123556666D01*
X85780000Y-123523333D02*
X85680000Y-123556666D01*
X85513333Y-123556666D01*
X85446666Y-123523333D01*
X85413333Y-123490000D01*
X85380000Y-123423333D01*
X85380000Y-123356666D01*
X85413333Y-123290000D01*
X85446666Y-123256666D01*
X85513333Y-123223333D01*
X85646666Y-123190000D01*
X85713333Y-123156666D01*
X85746666Y-123123333D01*
X85780000Y-123056666D01*
X85780000Y-122990000D01*
X85746666Y-122923333D01*
X85713333Y-122890000D01*
X85646666Y-122856666D01*
X85480000Y-122856666D01*
X85380000Y-122890000D01*
X84680000Y-123490000D02*
X84713333Y-123523333D01*
X84813333Y-123556666D01*
X84880000Y-123556666D01*
X84980000Y-123523333D01*
X85046666Y-123456666D01*
X85080000Y-123390000D01*
X85113333Y-123256666D01*
X85113333Y-123156666D01*
X85080000Y-123023333D01*
X85046666Y-122956666D01*
X84980000Y-122890000D01*
X84880000Y-122856666D01*
X84813333Y-122856666D01*
X84713333Y-122890000D01*
X84680000Y-122923333D01*
X84380000Y-123556666D02*
X84380000Y-122856666D01*
X83980000Y-123556666D02*
X84280000Y-123156666D01*
X83980000Y-122856666D02*
X84380000Y-123256666D01*
G04 #@! TO.C,JP5*
X95888333Y-124492380D02*
X95888333Y-125206666D01*
X95935952Y-125349523D01*
X96031190Y-125444761D01*
X96174047Y-125492380D01*
X96269285Y-125492380D01*
X95412142Y-125492380D02*
X95412142Y-124492380D01*
X95031190Y-124492380D01*
X94935952Y-124540000D01*
X94888333Y-124587619D01*
X94840714Y-124682857D01*
X94840714Y-124825714D01*
X94888333Y-124920952D01*
X94935952Y-124968571D01*
X95031190Y-125016190D01*
X95412142Y-125016190D01*
X93935952Y-124492380D02*
X94412142Y-124492380D01*
X94459761Y-124968571D01*
X94412142Y-124920952D01*
X94316904Y-124873333D01*
X94078809Y-124873333D01*
X93983571Y-124920952D01*
X93935952Y-124968571D01*
X93888333Y-125063809D01*
X93888333Y-125301904D01*
X93935952Y-125397142D01*
X93983571Y-125444761D01*
X94078809Y-125492380D01*
X94316904Y-125492380D01*
X94412142Y-125444761D01*
X94459761Y-125397142D01*
X101411666Y-127196666D02*
X101178333Y-127896666D01*
X100945000Y-127196666D01*
X100711666Y-127896666D02*
X100711666Y-127196666D01*
X100378333Y-127896666D02*
X100378333Y-127196666D01*
X99978333Y-127896666D01*
X99978333Y-127196666D01*
X99211666Y-127196666D02*
X98811666Y-127196666D01*
X99011666Y-127896666D02*
X99011666Y-127196666D01*
X98678333Y-127196666D02*
X98278333Y-127196666D01*
X98478333Y-127896666D02*
X98478333Y-127196666D01*
X97711666Y-127896666D02*
X98045000Y-127896666D01*
X98045000Y-127196666D01*
X96945000Y-127530000D02*
X96411666Y-127530000D01*
X96411666Y-127730000D02*
X96945000Y-127730000D01*
X95645000Y-127196666D02*
X95411666Y-127896666D01*
X95178333Y-127196666D01*
X94545000Y-127830000D02*
X94578333Y-127863333D01*
X94678333Y-127896666D01*
X94745000Y-127896666D01*
X94845000Y-127863333D01*
X94911666Y-127796666D01*
X94945000Y-127730000D01*
X94978333Y-127596666D01*
X94978333Y-127496666D01*
X94945000Y-127363333D01*
X94911666Y-127296666D01*
X94845000Y-127230000D01*
X94745000Y-127196666D01*
X94678333Y-127196666D01*
X94578333Y-127230000D01*
X94545000Y-127263333D01*
X93845000Y-127830000D02*
X93878333Y-127863333D01*
X93978333Y-127896666D01*
X94045000Y-127896666D01*
X94145000Y-127863333D01*
X94211666Y-127796666D01*
X94245000Y-127730000D01*
X94278333Y-127596666D01*
X94278333Y-127496666D01*
X94245000Y-127363333D01*
X94211666Y-127296666D01*
X94145000Y-127230000D01*
X94045000Y-127196666D01*
X93978333Y-127196666D01*
X93878333Y-127230000D01*
X93845000Y-127263333D01*
G04 #@! TO.C,JP6*
X95963333Y-130792380D02*
X95963333Y-131506666D01*
X96010952Y-131649523D01*
X96106190Y-131744761D01*
X96249047Y-131792380D01*
X96344285Y-131792380D01*
X95487142Y-131792380D02*
X95487142Y-130792380D01*
X95106190Y-130792380D01*
X95010952Y-130840000D01*
X94963333Y-130887619D01*
X94915714Y-130982857D01*
X94915714Y-131125714D01*
X94963333Y-131220952D01*
X95010952Y-131268571D01*
X95106190Y-131316190D01*
X95487142Y-131316190D01*
X94058571Y-130792380D02*
X94249047Y-130792380D01*
X94344285Y-130840000D01*
X94391904Y-130887619D01*
X94487142Y-131030476D01*
X94534761Y-131220952D01*
X94534761Y-131601904D01*
X94487142Y-131697142D01*
X94439523Y-131744761D01*
X94344285Y-131792380D01*
X94153809Y-131792380D01*
X94058571Y-131744761D01*
X94010952Y-131697142D01*
X93963333Y-131601904D01*
X93963333Y-131363809D01*
X94010952Y-131268571D01*
X94058571Y-131220952D01*
X94153809Y-131173333D01*
X94344285Y-131173333D01*
X94439523Y-131220952D01*
X94487142Y-131268571D01*
X94534761Y-131363809D01*
G04 #@! TO.C,JP7*
X90663333Y-93992380D02*
X90663333Y-94706666D01*
X90710952Y-94849523D01*
X90806190Y-94944761D01*
X90949047Y-94992380D01*
X91044285Y-94992380D01*
X90187142Y-94992380D02*
X90187142Y-93992380D01*
X89806190Y-93992380D01*
X89710952Y-94040000D01*
X89663333Y-94087619D01*
X89615714Y-94182857D01*
X89615714Y-94325714D01*
X89663333Y-94420952D01*
X89710952Y-94468571D01*
X89806190Y-94516190D01*
X90187142Y-94516190D01*
X89282380Y-93992380D02*
X88615714Y-93992380D01*
X89044285Y-94992380D01*
G04 #@! TD*
M02*
