G04 #@! TF.GenerationSoftware,KiCad,Pcbnew,(5.0.0-3-g5ebb6b6)*
G04 #@! TF.CreationDate,2018-08-17T21:51:14+02:00*
G04 #@! TF.ProjectId,beep-pcb-v1.4-in-cover,626565702D7063622D76312E342D696E,rev?*
G04 #@! TF.SameCoordinates,Original*
G04 #@! TF.FileFunction,Soldermask,Bot*
G04 #@! TF.FilePolarity,Negative*
%FSLAX46Y46*%
G04 Gerber Fmt 4.6, Leading zero omitted, Abs format (unit mm)*
G04 Created by KiCad (PCBNEW (5.0.0-3-g5ebb6b6)) date 2018 August 17, Friday 21:51:14*
%MOMM*%
%LPD*%
G01*
G04 APERTURE LIST*
%ADD10R,1.524000X1.524000*%
%ADD11C,1.524000*%
%ADD12C,0.500000*%
%ADD13C,0.100000*%
%ADD14R,1.700000X1.700000*%
%ADD15O,1.700000X1.700000*%
%ADD16C,1.700000*%
%ADD17R,1.000000X1.500000*%
%ADD18R,1.998980X1.998980*%
%ADD19O,1.350000X1.350000*%
%ADD20R,1.350000X1.350000*%
G04 APERTURE END LIST*
D10*
G04 #@! TO.C,U2*
X79965000Y-91780000D03*
D11*
X79965000Y-94320000D03*
X79965000Y-96860000D03*
X79965000Y-99400000D03*
X100330000Y-101940000D03*
X100330000Y-99400000D03*
X100330000Y-96860000D03*
X100330000Y-94320000D03*
X100330000Y-91780000D03*
X100330000Y-89240000D03*
G04 #@! TD*
D10*
G04 #@! TO.C,U3*
X79965000Y-76200000D03*
D11*
X79965000Y-78740000D03*
X79965000Y-81280000D03*
X79965000Y-83820000D03*
X100330000Y-86360000D03*
X100330000Y-83820000D03*
X100330000Y-81280000D03*
X100330000Y-78740000D03*
X100330000Y-76200000D03*
X100330000Y-73660000D03*
G04 #@! TD*
D12*
G04 #@! TO.C,JP2*
X121230000Y-102390000D03*
D13*
G36*
X121980000Y-101890000D02*
X121980000Y-102390000D01*
X121979398Y-102390000D01*
X121979398Y-102414534D01*
X121974588Y-102463365D01*
X121965016Y-102511490D01*
X121950772Y-102558445D01*
X121931995Y-102603778D01*
X121908864Y-102647051D01*
X121881604Y-102687850D01*
X121850476Y-102725779D01*
X121815779Y-102760476D01*
X121777850Y-102791604D01*
X121737051Y-102818864D01*
X121693778Y-102841995D01*
X121648445Y-102860772D01*
X121601490Y-102875016D01*
X121553365Y-102884588D01*
X121504534Y-102889398D01*
X121480000Y-102889398D01*
X121480000Y-102890000D01*
X120980000Y-102890000D01*
X120980000Y-102889398D01*
X120955466Y-102889398D01*
X120906635Y-102884588D01*
X120858510Y-102875016D01*
X120811555Y-102860772D01*
X120766222Y-102841995D01*
X120722949Y-102818864D01*
X120682150Y-102791604D01*
X120644221Y-102760476D01*
X120609524Y-102725779D01*
X120578396Y-102687850D01*
X120551136Y-102647051D01*
X120528005Y-102603778D01*
X120509228Y-102558445D01*
X120494984Y-102511490D01*
X120485412Y-102463365D01*
X120480602Y-102414534D01*
X120480602Y-102390000D01*
X120480000Y-102390000D01*
X120480000Y-101890000D01*
X121980000Y-101890000D01*
X121980000Y-101890000D01*
G37*
D12*
X121230000Y-101090000D03*
D13*
G36*
X120480602Y-101090000D02*
X120480602Y-101065466D01*
X120485412Y-101016635D01*
X120494984Y-100968510D01*
X120509228Y-100921555D01*
X120528005Y-100876222D01*
X120551136Y-100832949D01*
X120578396Y-100792150D01*
X120609524Y-100754221D01*
X120644221Y-100719524D01*
X120682150Y-100688396D01*
X120722949Y-100661136D01*
X120766222Y-100638005D01*
X120811555Y-100619228D01*
X120858510Y-100604984D01*
X120906635Y-100595412D01*
X120955466Y-100590602D01*
X120980000Y-100590602D01*
X120980000Y-100590000D01*
X121480000Y-100590000D01*
X121480000Y-100590602D01*
X121504534Y-100590602D01*
X121553365Y-100595412D01*
X121601490Y-100604984D01*
X121648445Y-100619228D01*
X121693778Y-100638005D01*
X121737051Y-100661136D01*
X121777850Y-100688396D01*
X121815779Y-100719524D01*
X121850476Y-100754221D01*
X121881604Y-100792150D01*
X121908864Y-100832949D01*
X121931995Y-100876222D01*
X121950772Y-100921555D01*
X121965016Y-100968510D01*
X121974588Y-101016635D01*
X121979398Y-101065466D01*
X121979398Y-101090000D01*
X121980000Y-101090000D01*
X121980000Y-101590000D01*
X120480000Y-101590000D01*
X120480000Y-101090000D01*
X120480602Y-101090000D01*
X120480602Y-101090000D01*
G37*
G04 #@! TD*
D10*
G04 #@! TO.C,J2*
X120230000Y-129540000D03*
D11*
X118230000Y-129540000D03*
X116230000Y-129540000D03*
X114230000Y-129540000D03*
G04 #@! TD*
G04 #@! TO.C,J3*
X120230000Y-83840000D03*
X118230000Y-83840000D03*
X116230000Y-83840000D03*
X114230000Y-83840000D03*
G04 #@! TD*
G04 #@! TO.C,J4*
X114430000Y-121540000D03*
X116430000Y-121540000D03*
X118430000Y-121540000D03*
X120430000Y-121540000D03*
G04 #@! TD*
D14*
G04 #@! TO.C,J5*
X79375000Y-118110000D03*
D15*
X79375000Y-115570000D03*
X79375000Y-113030000D03*
X79375000Y-110490000D03*
X79375000Y-107950000D03*
D16*
X79375000Y-105410000D03*
G04 #@! TD*
D11*
G04 #@! TO.C,J6*
X120330000Y-91740000D03*
X118330000Y-91740000D03*
X116330000Y-91740000D03*
X114330000Y-91740000D03*
G04 #@! TD*
G04 #@! TO.C,J7*
X120330000Y-113340000D03*
X118330000Y-113340000D03*
X116330000Y-113340000D03*
X114330000Y-113340000D03*
G04 #@! TD*
G04 #@! TO.C,J8*
X108030000Y-69140000D03*
X110030000Y-69140000D03*
X112030000Y-69140000D03*
D10*
X114030000Y-69140000D03*
G04 #@! TD*
G04 #@! TO.C,J9*
X120130000Y-76040000D03*
D11*
X118130000Y-76040000D03*
X116130000Y-76040000D03*
X114130000Y-76040000D03*
G04 #@! TD*
G04 #@! TO.C,U1*
X84420000Y-105015000D03*
X84420000Y-102475000D03*
X84420000Y-99935000D03*
X84420000Y-97395000D03*
X84420000Y-94855000D03*
X84420000Y-92315000D03*
X84420000Y-89775000D03*
X84420000Y-87235000D03*
X84420000Y-84695000D03*
X84420000Y-82155000D03*
X84420000Y-79615000D03*
X84420000Y-77075000D03*
D10*
X84420000Y-74535000D03*
D11*
X104740000Y-105015000D03*
X104740000Y-102475000D03*
X104740000Y-99935000D03*
X104740000Y-97395000D03*
X104740000Y-94855000D03*
X104740000Y-92315000D03*
X104740000Y-89775000D03*
X104740000Y-87235000D03*
X104740000Y-84695000D03*
X104740000Y-82155000D03*
X104740000Y-79615000D03*
X104740000Y-77075000D03*
D10*
X104740000Y-74535000D03*
X100930000Y-105015000D03*
D11*
X98390000Y-105015000D03*
X95850000Y-105015000D03*
X93310000Y-105015000D03*
X90770000Y-105015000D03*
X88230000Y-105015000D03*
G04 #@! TD*
D10*
G04 #@! TO.C,U4*
X86390000Y-75870000D03*
D11*
X86390000Y-78410000D03*
X86390000Y-80950000D03*
X86390000Y-83490000D03*
X86390000Y-86030000D03*
X86390000Y-88570000D03*
X86390000Y-91110000D03*
X86390000Y-93650000D03*
X86390000Y-96190000D03*
X86390000Y-98730000D03*
X86390000Y-101270000D03*
X86390000Y-103810000D03*
X86390000Y-106350000D03*
X86390000Y-108890000D03*
D10*
X86390000Y-111430000D03*
D11*
X86390000Y-113970000D03*
X86390000Y-116510000D03*
X91470000Y-116510000D03*
X94010000Y-116510000D03*
X96550000Y-116510000D03*
X99090000Y-116510000D03*
X101630000Y-116510000D03*
D10*
X104170000Y-116510000D03*
D11*
X109250000Y-116510000D03*
X109250000Y-113970000D03*
X109250000Y-111430000D03*
X109250000Y-108890000D03*
D10*
X109250000Y-106350000D03*
D11*
X109250000Y-103810000D03*
X109250000Y-101270000D03*
X109250000Y-98730000D03*
X109250000Y-96190000D03*
X109250000Y-93650000D03*
X109250000Y-91110000D03*
X109250000Y-88570000D03*
X109250000Y-86030000D03*
X109250000Y-83490000D03*
X109250000Y-80950000D03*
X109250000Y-78410000D03*
D10*
X109250000Y-75870000D03*
D11*
X91470000Y-78410000D03*
G04 #@! TD*
D12*
G04 #@! TO.C,JP1*
X116230000Y-102390000D03*
D13*
G36*
X115930000Y-101890000D02*
X115930000Y-101490000D01*
X116530000Y-101490000D01*
X116530000Y-101890000D01*
X116980000Y-101890000D01*
X116980000Y-102390000D01*
X116979398Y-102390000D01*
X116979398Y-102414534D01*
X116974588Y-102463365D01*
X116965016Y-102511490D01*
X116950772Y-102558445D01*
X116931995Y-102603778D01*
X116908864Y-102647051D01*
X116881604Y-102687850D01*
X116850476Y-102725779D01*
X116815779Y-102760476D01*
X116777850Y-102791604D01*
X116737051Y-102818864D01*
X116693778Y-102841995D01*
X116648445Y-102860772D01*
X116601490Y-102875016D01*
X116553365Y-102884588D01*
X116504534Y-102889398D01*
X116480000Y-102889398D01*
X116480000Y-102890000D01*
X115980000Y-102890000D01*
X115980000Y-102889398D01*
X115955466Y-102889398D01*
X115906635Y-102884588D01*
X115858510Y-102875016D01*
X115811555Y-102860772D01*
X115766222Y-102841995D01*
X115722949Y-102818864D01*
X115682150Y-102791604D01*
X115644221Y-102760476D01*
X115609524Y-102725779D01*
X115578396Y-102687850D01*
X115551136Y-102647051D01*
X115528005Y-102603778D01*
X115509228Y-102558445D01*
X115494984Y-102511490D01*
X115485412Y-102463365D01*
X115480602Y-102414534D01*
X115480602Y-102390000D01*
X115480000Y-102390000D01*
X115480000Y-101890000D01*
X115930000Y-101890000D01*
X115930000Y-101890000D01*
G37*
D12*
X116230000Y-101090000D03*
D13*
G36*
X115480602Y-101090000D02*
X115480602Y-101065466D01*
X115485412Y-101016635D01*
X115494984Y-100968510D01*
X115509228Y-100921555D01*
X115528005Y-100876222D01*
X115551136Y-100832949D01*
X115578396Y-100792150D01*
X115609524Y-100754221D01*
X115644221Y-100719524D01*
X115682150Y-100688396D01*
X115722949Y-100661136D01*
X115766222Y-100638005D01*
X115811555Y-100619228D01*
X115858510Y-100604984D01*
X115906635Y-100595412D01*
X115955466Y-100590602D01*
X115980000Y-100590602D01*
X115980000Y-100590000D01*
X116480000Y-100590000D01*
X116480000Y-100590602D01*
X116504534Y-100590602D01*
X116553365Y-100595412D01*
X116601490Y-100604984D01*
X116648445Y-100619228D01*
X116693778Y-100638005D01*
X116737051Y-100661136D01*
X116777850Y-100688396D01*
X116815779Y-100719524D01*
X116850476Y-100754221D01*
X116881604Y-100792150D01*
X116908864Y-100832949D01*
X116931995Y-100876222D01*
X116950772Y-100921555D01*
X116965016Y-100968510D01*
X116974588Y-101016635D01*
X116979398Y-101065466D01*
X116979398Y-101090000D01*
X116980000Y-101090000D01*
X116980000Y-101590000D01*
X115480000Y-101590000D01*
X115480000Y-101090000D01*
X115480602Y-101090000D01*
X115480602Y-101090000D01*
G37*
G04 #@! TD*
D12*
G04 #@! TO.C,JP3*
X86780000Y-131240000D03*
D13*
G36*
X87280000Y-131990000D02*
X86780000Y-131990000D01*
X86780000Y-131989398D01*
X86755466Y-131989398D01*
X86706635Y-131984588D01*
X86658510Y-131975016D01*
X86611555Y-131960772D01*
X86566222Y-131941995D01*
X86522949Y-131918864D01*
X86482150Y-131891604D01*
X86444221Y-131860476D01*
X86409524Y-131825779D01*
X86378396Y-131787850D01*
X86351136Y-131747051D01*
X86328005Y-131703778D01*
X86309228Y-131658445D01*
X86294984Y-131611490D01*
X86285412Y-131563365D01*
X86280602Y-131514534D01*
X86280602Y-131490000D01*
X86280000Y-131490000D01*
X86280000Y-130990000D01*
X86280602Y-130990000D01*
X86280602Y-130965466D01*
X86285412Y-130916635D01*
X86294984Y-130868510D01*
X86309228Y-130821555D01*
X86328005Y-130776222D01*
X86351136Y-130732949D01*
X86378396Y-130692150D01*
X86409524Y-130654221D01*
X86444221Y-130619524D01*
X86482150Y-130588396D01*
X86522949Y-130561136D01*
X86566222Y-130538005D01*
X86611555Y-130519228D01*
X86658510Y-130504984D01*
X86706635Y-130495412D01*
X86755466Y-130490602D01*
X86780000Y-130490602D01*
X86780000Y-130490000D01*
X87280000Y-130490000D01*
X87280000Y-131990000D01*
X87280000Y-131990000D01*
G37*
D12*
X88080000Y-131240000D03*
D13*
G36*
X88080000Y-130490602D02*
X88104534Y-130490602D01*
X88153365Y-130495412D01*
X88201490Y-130504984D01*
X88248445Y-130519228D01*
X88293778Y-130538005D01*
X88337051Y-130561136D01*
X88377850Y-130588396D01*
X88415779Y-130619524D01*
X88450476Y-130654221D01*
X88481604Y-130692150D01*
X88508864Y-130732949D01*
X88531995Y-130776222D01*
X88550772Y-130821555D01*
X88565016Y-130868510D01*
X88574588Y-130916635D01*
X88579398Y-130965466D01*
X88579398Y-130990000D01*
X88580000Y-130990000D01*
X88580000Y-131490000D01*
X88579398Y-131490000D01*
X88579398Y-131514534D01*
X88574588Y-131563365D01*
X88565016Y-131611490D01*
X88550772Y-131658445D01*
X88531995Y-131703778D01*
X88508864Y-131747051D01*
X88481604Y-131787850D01*
X88450476Y-131825779D01*
X88415779Y-131860476D01*
X88377850Y-131891604D01*
X88337051Y-131918864D01*
X88293778Y-131941995D01*
X88248445Y-131960772D01*
X88201490Y-131975016D01*
X88153365Y-131984588D01*
X88104534Y-131989398D01*
X88080000Y-131989398D01*
X88080000Y-131990000D01*
X87580000Y-131990000D01*
X87580000Y-130490000D01*
X88080000Y-130490000D01*
X88080000Y-130490602D01*
X88080000Y-130490602D01*
G37*
G04 #@! TD*
D12*
G04 #@! TO.C,JP4*
X88130000Y-125540000D03*
D13*
G36*
X88130000Y-124790602D02*
X88154534Y-124790602D01*
X88203365Y-124795412D01*
X88251490Y-124804984D01*
X88298445Y-124819228D01*
X88343778Y-124838005D01*
X88387051Y-124861136D01*
X88427850Y-124888396D01*
X88465779Y-124919524D01*
X88500476Y-124954221D01*
X88531604Y-124992150D01*
X88558864Y-125032949D01*
X88581995Y-125076222D01*
X88600772Y-125121555D01*
X88615016Y-125168510D01*
X88624588Y-125216635D01*
X88629398Y-125265466D01*
X88629398Y-125290000D01*
X88630000Y-125290000D01*
X88630000Y-125790000D01*
X88629398Y-125790000D01*
X88629398Y-125814534D01*
X88624588Y-125863365D01*
X88615016Y-125911490D01*
X88600772Y-125958445D01*
X88581995Y-126003778D01*
X88558864Y-126047051D01*
X88531604Y-126087850D01*
X88500476Y-126125779D01*
X88465779Y-126160476D01*
X88427850Y-126191604D01*
X88387051Y-126218864D01*
X88343778Y-126241995D01*
X88298445Y-126260772D01*
X88251490Y-126275016D01*
X88203365Y-126284588D01*
X88154534Y-126289398D01*
X88130000Y-126289398D01*
X88130000Y-126290000D01*
X87630000Y-126290000D01*
X87630000Y-124790000D01*
X88130000Y-124790000D01*
X88130000Y-124790602D01*
X88130000Y-124790602D01*
G37*
D12*
X86830000Y-125540000D03*
D13*
G36*
X87330000Y-126290000D02*
X86830000Y-126290000D01*
X86830000Y-126289398D01*
X86805466Y-126289398D01*
X86756635Y-126284588D01*
X86708510Y-126275016D01*
X86661555Y-126260772D01*
X86616222Y-126241995D01*
X86572949Y-126218864D01*
X86532150Y-126191604D01*
X86494221Y-126160476D01*
X86459524Y-126125779D01*
X86428396Y-126087850D01*
X86401136Y-126047051D01*
X86378005Y-126003778D01*
X86359228Y-125958445D01*
X86344984Y-125911490D01*
X86335412Y-125863365D01*
X86330602Y-125814534D01*
X86330602Y-125790000D01*
X86330000Y-125790000D01*
X86330000Y-125290000D01*
X86330602Y-125290000D01*
X86330602Y-125265466D01*
X86335412Y-125216635D01*
X86344984Y-125168510D01*
X86359228Y-125121555D01*
X86378005Y-125076222D01*
X86401136Y-125032949D01*
X86428396Y-124992150D01*
X86459524Y-124954221D01*
X86494221Y-124919524D01*
X86532150Y-124888396D01*
X86572949Y-124861136D01*
X86616222Y-124838005D01*
X86661555Y-124819228D01*
X86708510Y-124804984D01*
X86756635Y-124795412D01*
X86805466Y-124790602D01*
X86830000Y-124790602D01*
X86830000Y-124790000D01*
X87330000Y-124790000D01*
X87330000Y-126290000D01*
X87330000Y-126290000D01*
G37*
G04 #@! TD*
D12*
G04 #@! TO.C,JP5*
X97580000Y-125040000D03*
D13*
G36*
X97580000Y-125789398D02*
X97555466Y-125789398D01*
X97506635Y-125784588D01*
X97458510Y-125775016D01*
X97411555Y-125760772D01*
X97366222Y-125741995D01*
X97322949Y-125718864D01*
X97282150Y-125691604D01*
X97244221Y-125660476D01*
X97209524Y-125625779D01*
X97178396Y-125587850D01*
X97151136Y-125547051D01*
X97128005Y-125503778D01*
X97109228Y-125458445D01*
X97094984Y-125411490D01*
X97085412Y-125363365D01*
X97080602Y-125314534D01*
X97080602Y-125290000D01*
X97080000Y-125290000D01*
X97080000Y-124790000D01*
X97080602Y-124790000D01*
X97080602Y-124765466D01*
X97085412Y-124716635D01*
X97094984Y-124668510D01*
X97109228Y-124621555D01*
X97128005Y-124576222D01*
X97151136Y-124532949D01*
X97178396Y-124492150D01*
X97209524Y-124454221D01*
X97244221Y-124419524D01*
X97282150Y-124388396D01*
X97322949Y-124361136D01*
X97366222Y-124338005D01*
X97411555Y-124319228D01*
X97458510Y-124304984D01*
X97506635Y-124295412D01*
X97555466Y-124290602D01*
X97580000Y-124290602D01*
X97580000Y-124290000D01*
X98080000Y-124290000D01*
X98080000Y-125790000D01*
X97580000Y-125790000D01*
X97580000Y-125789398D01*
X97580000Y-125789398D01*
G37*
D12*
X98880000Y-125040000D03*
D13*
G36*
X98380000Y-125340000D02*
X97980000Y-125340000D01*
X97980000Y-124740000D01*
X98380000Y-124740000D01*
X98380000Y-124290000D01*
X98880000Y-124290000D01*
X98880000Y-124290602D01*
X98904534Y-124290602D01*
X98953365Y-124295412D01*
X99001490Y-124304984D01*
X99048445Y-124319228D01*
X99093778Y-124338005D01*
X99137051Y-124361136D01*
X99177850Y-124388396D01*
X99215779Y-124419524D01*
X99250476Y-124454221D01*
X99281604Y-124492150D01*
X99308864Y-124532949D01*
X99331995Y-124576222D01*
X99350772Y-124621555D01*
X99365016Y-124668510D01*
X99374588Y-124716635D01*
X99379398Y-124765466D01*
X99379398Y-124790000D01*
X99380000Y-124790000D01*
X99380000Y-125290000D01*
X99379398Y-125290000D01*
X99379398Y-125314534D01*
X99374588Y-125363365D01*
X99365016Y-125411490D01*
X99350772Y-125458445D01*
X99331995Y-125503778D01*
X99308864Y-125547051D01*
X99281604Y-125587850D01*
X99250476Y-125625779D01*
X99215779Y-125660476D01*
X99177850Y-125691604D01*
X99137051Y-125718864D01*
X99093778Y-125741995D01*
X99048445Y-125760772D01*
X99001490Y-125775016D01*
X98953365Y-125784588D01*
X98904534Y-125789398D01*
X98880000Y-125789398D01*
X98880000Y-125790000D01*
X98380000Y-125790000D01*
X98380000Y-125340000D01*
X98380000Y-125340000D01*
G37*
G04 #@! TD*
D12*
G04 #@! TO.C,JP6*
X97730000Y-131240000D03*
D13*
G36*
X98280000Y-130940000D02*
X98630000Y-130940000D01*
X98630000Y-131540000D01*
X98280000Y-131540000D01*
X98280000Y-131990000D01*
X97730000Y-131990000D01*
X97730000Y-131989398D01*
X97705466Y-131989398D01*
X97656635Y-131984588D01*
X97608510Y-131975016D01*
X97561555Y-131960772D01*
X97516222Y-131941995D01*
X97472949Y-131918864D01*
X97432150Y-131891604D01*
X97394221Y-131860476D01*
X97359524Y-131825779D01*
X97328396Y-131787850D01*
X97301136Y-131747051D01*
X97278005Y-131703778D01*
X97259228Y-131658445D01*
X97244984Y-131611490D01*
X97235412Y-131563365D01*
X97230602Y-131514534D01*
X97230602Y-131490000D01*
X97230000Y-131490000D01*
X97230000Y-130990000D01*
X97230602Y-130990000D01*
X97230602Y-130965466D01*
X97235412Y-130916635D01*
X97244984Y-130868510D01*
X97259228Y-130821555D01*
X97278005Y-130776222D01*
X97301136Y-130732949D01*
X97328396Y-130692150D01*
X97359524Y-130654221D01*
X97394221Y-130619524D01*
X97432150Y-130588396D01*
X97472949Y-130561136D01*
X97516222Y-130538005D01*
X97561555Y-130519228D01*
X97608510Y-130504984D01*
X97656635Y-130495412D01*
X97705466Y-130490602D01*
X97730000Y-130490602D01*
X97730000Y-130490000D01*
X98280000Y-130490000D01*
X98280000Y-130940000D01*
X98280000Y-130940000D01*
G37*
D12*
X100330000Y-131240000D03*
D13*
G36*
X100330000Y-130490602D02*
X100354534Y-130490602D01*
X100403365Y-130495412D01*
X100451490Y-130504984D01*
X100498445Y-130519228D01*
X100543778Y-130538005D01*
X100587051Y-130561136D01*
X100627850Y-130588396D01*
X100665779Y-130619524D01*
X100700476Y-130654221D01*
X100731604Y-130692150D01*
X100758864Y-130732949D01*
X100781995Y-130776222D01*
X100800772Y-130821555D01*
X100815016Y-130868510D01*
X100824588Y-130916635D01*
X100829398Y-130965466D01*
X100829398Y-130990000D01*
X100830000Y-130990000D01*
X100830000Y-131490000D01*
X100829398Y-131490000D01*
X100829398Y-131514534D01*
X100824588Y-131563365D01*
X100815016Y-131611490D01*
X100800772Y-131658445D01*
X100781995Y-131703778D01*
X100758864Y-131747051D01*
X100731604Y-131787850D01*
X100700476Y-131825779D01*
X100665779Y-131860476D01*
X100627850Y-131891604D01*
X100587051Y-131918864D01*
X100543778Y-131941995D01*
X100498445Y-131960772D01*
X100451490Y-131975016D01*
X100403365Y-131984588D01*
X100354534Y-131989398D01*
X100330000Y-131989398D01*
X100330000Y-131990000D01*
X99780000Y-131990000D01*
X99780000Y-130490000D01*
X100330000Y-130490000D01*
X100330000Y-130490602D01*
X100330000Y-130490602D01*
G37*
D17*
X99030000Y-131240000D03*
G04 #@! TD*
D18*
G04 #@! TO.C,R1*
X79375000Y-132001260D03*
X79375000Y-121998740D03*
G04 #@! TD*
D19*
G04 #@! TO.C,J1*
X114830000Y-136240000D03*
D20*
X112830000Y-136240000D03*
G04 #@! TD*
D12*
G04 #@! TO.C,JP7*
X92130000Y-94440000D03*
D13*
G36*
X92680000Y-93840000D02*
X93030000Y-93840000D01*
X93030000Y-94240000D01*
X92680000Y-94240000D01*
X92680000Y-94640000D01*
X93030000Y-94640000D01*
X93030000Y-95040000D01*
X92680000Y-95040000D01*
X92680000Y-95190000D01*
X92130000Y-95190000D01*
X92130000Y-95189398D01*
X92105466Y-95189398D01*
X92056635Y-95184588D01*
X92008510Y-95175016D01*
X91961555Y-95160772D01*
X91916222Y-95141995D01*
X91872949Y-95118864D01*
X91832150Y-95091604D01*
X91794221Y-95060476D01*
X91759524Y-95025779D01*
X91728396Y-94987850D01*
X91701136Y-94947051D01*
X91678005Y-94903778D01*
X91659228Y-94858445D01*
X91644984Y-94811490D01*
X91635412Y-94763365D01*
X91630602Y-94714534D01*
X91630602Y-94690000D01*
X91630000Y-94690000D01*
X91630000Y-94190000D01*
X91630602Y-94190000D01*
X91630602Y-94165466D01*
X91635412Y-94116635D01*
X91644984Y-94068510D01*
X91659228Y-94021555D01*
X91678005Y-93976222D01*
X91701136Y-93932949D01*
X91728396Y-93892150D01*
X91759524Y-93854221D01*
X91794221Y-93819524D01*
X91832150Y-93788396D01*
X91872949Y-93761136D01*
X91916222Y-93738005D01*
X91961555Y-93719228D01*
X92008510Y-93704984D01*
X92056635Y-93695412D01*
X92105466Y-93690602D01*
X92130000Y-93690602D01*
X92130000Y-93690000D01*
X92680000Y-93690000D01*
X92680000Y-93840000D01*
X92680000Y-93840000D01*
G37*
D12*
X94730000Y-94440000D03*
D13*
G36*
X94730000Y-93690602D02*
X94754534Y-93690602D01*
X94803365Y-93695412D01*
X94851490Y-93704984D01*
X94898445Y-93719228D01*
X94943778Y-93738005D01*
X94987051Y-93761136D01*
X95027850Y-93788396D01*
X95065779Y-93819524D01*
X95100476Y-93854221D01*
X95131604Y-93892150D01*
X95158864Y-93932949D01*
X95181995Y-93976222D01*
X95200772Y-94021555D01*
X95215016Y-94068510D01*
X95224588Y-94116635D01*
X95229398Y-94165466D01*
X95229398Y-94190000D01*
X95230000Y-94190000D01*
X95230000Y-94690000D01*
X95229398Y-94690000D01*
X95229398Y-94714534D01*
X95224588Y-94763365D01*
X95215016Y-94811490D01*
X95200772Y-94858445D01*
X95181995Y-94903778D01*
X95158864Y-94947051D01*
X95131604Y-94987850D01*
X95100476Y-95025779D01*
X95065779Y-95060476D01*
X95027850Y-95091604D01*
X94987051Y-95118864D01*
X94943778Y-95141995D01*
X94898445Y-95160772D01*
X94851490Y-95175016D01*
X94803365Y-95184588D01*
X94754534Y-95189398D01*
X94730000Y-95189398D01*
X94730000Y-95190000D01*
X94180000Y-95190000D01*
X94180000Y-93690000D01*
X94730000Y-93690000D01*
X94730000Y-93690602D01*
X94730000Y-93690602D01*
G37*
D17*
X93430000Y-94440000D03*
G04 #@! TD*
M02*
